<svg width="40" height="24" viewBox="0 0 40 24" fill="none" xmlns="http://www.w3.org/2000/svg">
<path d="M11.3112 8.69601C11.3112 9.18809 11.3643 9.58699 11.457 9.87954C11.5746 10.2087 11.7163 10.5286 11.8807 10.8369C11.947 10.9432 11.9734 11.0496 11.9734 11.1428C11.9734 11.2756 11.894 11.4086 11.7218 11.5417L10.8875 12.1001C10.7682 12.1799 10.649 12.2198 10.5429 12.2198C10.4106 12.2198 10.2781 12.1533 10.1456 12.0336C9.96697 11.8412 9.80732 11.6319 9.66886 11.4086C9.53636 11.1828 9.40386 10.9299 9.25823 10.6242C8.225 11.8474 6.92698 12.459 5.36417 12.4591C4.25167 12.4591 3.36417 12.1399 2.71511 11.5018C2.0662 10.8634 1.73511 10.0124 1.73511 8.94871C1.73511 7.81852 2.13245 6.90103 2.94042 6.20958C3.74823 5.51813 4.8212 5.1724 6.18542 5.1724C6.63573 5.1724 7.09933 5.21224 7.58933 5.27875C8.07948 5.34526 8.58276 5.45162 9.11261 5.5713V4.60064C9.11261 3.58997 8.90058 2.88534 8.48995 2.47311C8.0662 2.06087 7.35089 1.86134 6.33105 1.86134C5.86745 1.86134 5.39073 1.91467 4.90058 2.03436C4.41042 2.15405 3.9337 2.30024 3.47011 2.48644C3.25823 2.57946 3.09933 2.63263 3.00651 2.6593C2.9137 2.68597 2.84761 2.69914 2.79464 2.69914C2.60917 2.69914 2.51651 2.56612 2.51651 2.28691V1.6353C2.51651 1.4226 2.54308 1.26307 2.60917 1.17005C2.67542 1.07687 2.79464 0.98385 2.98011 0.890831C3.44365 0.651354 3.9999 0.451876 4.64886 0.292399C5.29808 0.119537 5.98683 0.0398503 6.71526 0.0398503C8.29151 0.0398503 9.44386 0.398752 10.1856 1.11687C10.914 1.83483 11.285 2.92518 11.285 4.38793V8.69601H11.3112ZM5.9337 10.7172C6.37089 10.7172 6.8212 10.6375 7.29792 10.4778C7.7748 10.3183 8.1987 10.0257 8.5562 9.62683C8.76823 9.37428 8.92714 9.09507 9.00651 8.77585C9.08604 8.45679 9.13901 8.07107 9.13901 7.61899V7.06056C8.73733 6.96248 8.3305 6.88701 7.92042 6.83452C7.50748 6.78192 7.09167 6.75525 6.67542 6.75467C5.78792 6.75467 5.13901 6.92754 4.70198 7.2866C4.26495 7.64565 4.05292 8.15091 4.05292 8.81569C4.05292 9.44063 4.21183 9.90605 4.54292 10.2253C4.86089 10.5577 5.32448 10.7172 5.9337 10.7172ZM16.5695 12.1533C16.331 12.1533 16.1721 12.1134 16.0662 12.0202C15.9603 11.9406 15.8675 11.7544 15.7881 11.5018L12.6756 1.22322C12.5959 0.957184 12.5562 0.784321 12.5562 0.691301C12.5562 0.478595 12.6621 0.358752 12.8742 0.358752H14.1721C14.4237 0.358752 14.596 0.398752 14.6887 0.491772C14.7946 0.571615 14.8742 0.757811 14.9535 1.01036L17.1787 9.81303L19.245 1.01036C19.3112 0.744478 19.3907 0.571615 19.4965 0.491772C19.6026 0.412086 19.7881 0.358909 20.0265 0.358909H21.086C21.3376 0.358909 21.51 0.398752 21.6157 0.491772C21.7218 0.571615 21.8145 0.757811 21.8675 1.01036L23.9603 9.91938L26.2515 1.01036C26.3309 0.744478 26.4237 0.571615 26.5164 0.491772C26.6223 0.412086 26.7945 0.358909 27.0329 0.358909H28.2646C28.4767 0.358909 28.5959 0.465262 28.5959 0.691301C28.5959 0.757811 28.5826 0.824321 28.5693 0.904007C28.556 0.983693 28.5296 1.0902 28.4767 1.23656L25.2845 11.515C25.2051 11.781 25.1124 11.9539 25.0064 12.0336C24.9004 12.1134 24.7282 12.1666 24.5032 12.1666H23.3642C23.1125 12.1666 22.9403 12.1268 22.8342 12.0336C22.7282 11.9406 22.6356 11.7677 22.5826 11.5018L20.5295 2.92518L18.4898 11.4883C18.4237 11.7544 18.3442 11.9272 18.2382 12.0202C18.1323 12.1134 17.9468 12.1533 17.7085 12.1533H16.5695ZM33.5893 12.5123C32.9006 12.5123 32.2118 12.4325 31.5496 12.2729C30.8873 12.1134 30.3709 11.9404 30.0265 11.7412C29.8145 11.6213 29.6687 11.4885 29.6159 11.3688C29.5644 11.2514 29.5373 11.1247 29.5364 10.9964V10.3183C29.5364 10.0391 29.6423 9.90605 29.841 9.90605C29.9222 9.90635 30.0027 9.91986 30.0795 9.94605C30.1589 9.97271 30.2781 10.0257 30.4106 10.0789C30.8783 10.2856 31.3667 10.4416 31.8675 10.5443C32.3863 10.6499 32.9143 10.7034 33.4437 10.7039C34.2781 10.7039 34.9271 10.5577 35.3775 10.2651C35.8278 9.97256 36.0662 9.54714 36.0662 9.00189C36.0662 8.62965 35.947 8.32377 35.7085 8.07107C35.4701 7.81836 35.0198 7.59248 34.3709 7.37962L32.4503 6.78134C31.4834 6.47546 30.7682 6.02338 30.331 5.42495C29.894 4.83985 29.6689 4.1884 29.6689 3.49695C29.6689 2.93852 29.7881 2.44649 30.0265 2.02087C30.2648 1.59546 30.5828 1.22322 30.9801 0.930674C31.3775 0.624791 31.8278 0.398752 32.3576 0.239223C32.8873 0.0796934 33.4435 0.0131836 34.0264 0.0131836C34.3178 0.0131836 34.6225 0.0265169 34.9139 0.0663601C35.2185 0.106203 35.4967 0.15938 35.7748 0.212556C36.0396 0.279066 36.2914 0.345576 36.5298 0.425419C36.7681 0.505105 36.9535 0.584844 37.086 0.664635C37.2715 0.771144 37.4039 0.877497 37.4834 0.997184C37.5629 1.10354 37.6026 1.24978 37.6026 1.43593V2.06087C37.6026 2.34009 37.4967 2.48644 37.2979 2.48644C37.192 2.48644 37.0198 2.43311 36.7948 2.32675C36.0396 1.98103 35.1919 1.80816 34.2517 1.80816C33.4967 1.80816 32.9006 1.92785 32.49 2.18056C32.0795 2.43311 31.8675 2.81883 31.8675 3.36393C31.8675 3.73632 32 4.05538 32.2648 4.30809C32.5296 4.56079 33.0198 4.81334 33.7218 5.03938L35.6026 5.63781C36.5562 5.94369 37.245 6.36911 37.6556 6.9142C38.0662 7.4593 38.2649 8.0844 38.2649 8.77585C38.2649 9.34762 38.1456 9.8662 37.9204 10.3183C37.6821 10.7704 37.3642 11.1693 36.9535 11.4885C36.5429 11.8209 36.0529 12.0602 35.4834 12.2331C34.8873 12.4193 34.2648 12.5123 33.5893 12.5123Z" fill="#252F3E"/>
<path d="M36.0927 18.9745C31.7352 22.2058 25.404 23.9211 19.9604 23.9211C12.3312 23.9211 5.45712 21.0887 0.265087 16.3816C-0.145538 16.0094 0.225244 15.5041 0.715244 15.7965C6.33118 19.0677 13.2584 21.0489 20.424 21.0489C25.2584 21.0489 30.5696 20.0384 35.4571 17.964C36.1856 17.6315 36.8081 18.4428 36.0927 18.9745ZM37.9074 16.9002C37.3512 16.1822 34.2252 16.5545 32.8081 16.7273C32.3841 16.7807 32.3179 16.4083 32.7021 16.1291C35.1921 14.3738 39.2849 14.8792 39.7617 15.4641C40.2385 16.0625 39.6292 20.1713 37.2981 22.1393C36.9406 22.4451 36.5962 22.2856 36.7551 21.8867C37.2848 20.5702 38.4637 17.605 37.9074 16.9002Z" fill="#FF9900"/>
</svg>
