<svg width="129" height="30" viewBox="0 0 129 30" fill="none" xmlns="http://www.w3.org/2000/svg">
<path d="M23.8232 27.627C21.3542 28.5612 18.5514 29.0283 15.415 29.0283C5.13835 29.0283 0 24.0568 0 14.1138C0 4.70459 5.13835 0 15.415 0C18.5514 0 21.3542 0.467122 23.8232 1.40137V6.20605C21.3542 5.13835 18.6849 4.60449 15.8154 4.60449C8.94206 4.60449 5.50537 7.77425 5.50537 14.1138C5.50537 20.9871 8.94206 24.4238 15.8154 24.4238C18.6849 24.4238 21.3542 23.89 23.8232 22.8223V27.627ZM27.3267 22.2817C27.3267 18.1043 30.3696 16.0156 36.4556 16.0156C37.8836 16.0156 39.3117 16.1491 40.7397 16.416V14.8345C40.7397 12.9526 39.3851 12.0117 36.6758 12.0117C34.3802 12.0117 31.8311 12.3454 29.0283 13.0127V8.80859C31.8311 8.14128 34.3802 7.80762 36.6758 7.80762C42.9219 7.80762 46.0449 10.1165 46.0449 14.7344V28.8281H42.9619L41.0801 26.9463C39.2516 28.2008 37.2363 28.8281 35.0342 28.8281C29.8958 28.8281 27.3267 26.646 27.3267 22.2817ZM40.7397 20.0195C39.4051 19.7526 37.9771 19.6191 36.4556 19.6191C33.9064 19.6191 32.6318 20.4867 32.6318 22.2217C32.6318 24.0902 33.6995 25.0244 35.835 25.0244C37.5967 25.0244 39.2316 24.4772 40.7397 23.3828V20.0195ZM51.0698 28.8281V7.80762H55.1738L55.8345 10.4902C57.6763 8.70182 59.6248 7.80762 61.6802 7.80762V12.0918C59.7049 12.0918 57.9365 12.9126 56.375 14.5542V28.8281H51.0698ZM73.5518 7.80762C79.9313 7.80762 83.1211 11.0641 83.1211 17.5771C83.1211 18.4447 83.061 19.3122 82.9409 20.1797H68.9873C68.9873 23.1426 71.1628 24.624 75.5137 24.624C77.6357 24.624 79.7578 24.4238 81.8799 24.0234V28.2275C80.0247 28.6279 77.7692 28.8281 75.1133 28.8281C67.4925 28.8281 63.6821 25.2446 63.6821 18.0776C63.6821 11.231 66.972 7.80762 73.5518 7.80762ZM68.9873 16.4961H77.9561V16.3359C77.9561 13.4264 76.488 11.9717 73.5518 11.9717C70.749 11.9717 69.2275 13.4798 68.9873 16.4961ZM84.6025 7.80762H90.208L95.313 22.502L100.618 7.80762H106.224L97.6753 28.8281H92.6304L84.6025 7.80762ZM113.03 18.2378C113.03 22.6287 114.732 24.8242 118.135 24.8242C121.539 24.8242 123.24 22.6287 123.24 18.2378C123.24 13.9536 121.539 11.8115 118.135 11.8115C114.732 11.8115 113.03 13.9536 113.03 18.2378ZM107.725 18.3179C107.725 11.271 111.195 7.74756 118.135 7.74756C125.075 7.74756 128.545 11.271 128.545 18.3179C128.545 25.3514 125.075 28.8682 118.135 28.8682C111.222 28.8682 107.752 25.3514 107.725 18.3179Z" fill="#002D97"/>
</svg>
