<svg width="38" height="38" viewBox="0 0 38 38" fill="none" xmlns="http://www.w3.org/2000/svg">
<path d="M25.8606 28.7708V27.0117L25.8258 27.0275C25.4299 27.2191 24.9992 27.3283 24.5575 27.3489C24.1008 27.3817 23.6476 27.2484 23.2813 26.9737C23.0209 26.7724 22.8268 26.4978 22.724 26.1852C22.6122 25.8437 22.5996 25.4775 22.6876 25.1291C22.7699 24.7728 22.9694 24.4546 23.2528 24.2282C23.5062 24.016 23.8149 23.883 24.1427 23.845C24.7214 23.7802 25.3062 23.8893 25.8226 24.1585L25.8606 24.1791V22.4105L25.7798 22.3883C25.2628 22.2247 24.7208 22.1539 24.1791 22.1793C23.6853 22.19 23.1989 22.301 22.7493 22.5055C22.2949 22.7145 21.8943 23.0233 21.5792 23.4096C21.0983 24.0167 20.8313 24.7658 20.8198 25.5403C20.8084 26.3148 21.0531 27.0714 21.5159 27.6925C21.983 28.291 22.6385 28.7138 23.3763 28.8895C24.1537 29.0795 24.9692 29.051 25.7308 28.8072L25.8606 28.7708ZM8.45183 28.7708V27.0117L8.417 27.0275C8.02117 27.2191 7.5905 27.3283 7.14875 27.3489C6.69173 27.3846 6.23753 27.2511 5.87258 26.9737C5.61206 26.7729 5.41833 26.498 5.31683 26.1852C5.20455 25.8438 5.19138 25.4776 5.27883 25.1291C5.36117 24.7728 5.55908 24.4546 5.84408 24.2282C6.09742 24.016 6.40617 23.883 6.73392 23.845C7.3126 23.7802 7.89747 23.8893 8.41383 24.1585L8.45183 24.1791V22.4105L8.37108 22.3883C7.85403 22.2247 7.31207 22.1539 6.77033 22.1793C6.27656 22.19 5.79012 22.301 5.34058 22.5055C4.88707 22.715 4.4866 23.024 4.16892 23.4096C3.6887 24.017 3.4221 24.7658 3.41036 25.54C3.39863 26.3143 3.64242 27.0708 4.104 27.6925C4.56974 28.2925 5.22684 28.7149 5.966 28.8895C6.74342 29.0795 7.55725 29.051 8.32042 28.8072L8.45183 28.7708ZM14.6648 27.3109L14.6585 28.8262L14.7693 28.8452C15.1177 28.9096 15.4681 28.9544 15.8207 28.9798C16.1299 29.0093 16.4397 29.0156 16.7501 28.9988C17.0477 28.9766 17.3386 28.9217 17.6225 28.8341C17.955 28.7391 18.2638 28.576 18.5266 28.3512C18.7639 28.1479 18.9453 27.8874 19.0538 27.5943C19.2442 27.1048 19.2402 26.561 19.0427 26.0743C18.939 25.8219 18.7774 25.5973 18.5709 25.4188C18.3685 25.2401 18.1328 25.1029 17.8774 25.0151L16.7342 24.5908C16.5987 24.5311 16.4883 24.4257 16.4223 24.2931C16.398 24.2381 16.3865 24.1783 16.3886 24.1182C16.3908 24.0582 16.4067 23.9994 16.435 23.9463C16.4949 23.8511 16.579 23.7735 16.6788 23.7215C16.8069 23.6599 16.9445 23.6203 17.0857 23.6043C17.3285 23.5684 17.5713 23.5711 17.8141 23.6123C18.0991 23.6439 18.3804 23.6946 18.658 23.7643L18.7182 23.7769V22.3788L18.6089 22.3551C18.3254 22.2881 18.0384 22.2368 17.7492 22.2015C17.3741 22.1517 16.9942 22.1501 16.6187 22.1968C16.1437 22.2395 15.6924 22.4232 15.3187 22.7193C15.0654 22.9188 14.8738 23.1832 14.763 23.4856C14.5983 23.9448 14.5967 24.4483 14.763 24.909C14.8496 25.1402 14.9826 25.3413 15.162 25.5123C15.3161 25.66 15.4887 25.7846 15.6797 25.8859C15.9289 26.0189 16.1912 26.1218 16.4667 26.1947C16.5574 26.2221 16.6472 26.2506 16.7358 26.2802L16.8704 26.3293L16.9084 26.3451C17.0414 26.3926 17.1649 26.4686 17.2662 26.5668C17.338 26.6343 17.3913 26.714 17.4262 26.8058C17.4499 26.8891 17.4505 26.9772 17.4277 27.0608C17.3848 27.1958 17.2904 27.3084 17.1649 27.3743C17.028 27.4427 16.881 27.4887 16.7295 27.5104C16.506 27.5456 16.2793 27.5568 16.0534 27.5437C15.7575 27.5212 15.463 27.4821 15.1715 27.4265C15.0195 27.3936 14.868 27.3583 14.7171 27.3204L14.6648 27.3109ZM10.7461 28.8863H12.4086V22.2886H10.7461V28.8863ZM30.0026 24.2377C30.1792 24.0938 30.3824 23.9862 30.6006 23.9209C30.8188 23.8556 31.0478 23.834 31.2744 23.8572C31.501 23.8804 31.7208 23.9481 31.9212 24.0563C32.1216 24.1645 32.2988 24.3111 32.4425 24.4878C32.5866 24.6643 32.6946 24.8674 32.7601 25.0856C32.8256 25.3038 32.8475 25.5327 32.8244 25.7594C32.8013 25.986 32.7337 26.2059 32.6255 26.4064C32.5173 26.6068 32.3707 26.784 32.1939 26.9278L32.167 26.9499C31.8064 27.2264 31.3517 27.3504 30.9007 27.2953C30.4496 27.2402 30.0381 27.0104 29.7547 26.6552C29.4713 26.3 29.3385 25.8479 29.3848 25.3958C29.4312 24.9438 29.653 24.5279 30.0026 24.2377ZM27.588 25.5898C27.5961 26.1048 27.7186 26.6115 27.9467 27.0733C28.1748 27.5351 28.5028 27.9403 28.9068 28.2597C29.3109 28.579 29.781 28.8045 30.283 28.9197C30.7849 29.035 31.3063 29.0371 31.8092 28.9259C32.4841 28.7982 33.1042 28.4683 33.5872 27.9801C34.0703 27.4918 34.3935 26.8681 34.5139 26.1919C34.6343 25.5157 34.5462 24.8188 34.2614 24.1938C33.9766 23.5688 33.5084 23.0451 32.9191 22.6923C32.3951 22.3684 31.7949 22.1888 31.1792 22.1716C30.5634 22.1544 29.9541 22.3003 29.4129 22.5944C28.8717 22.8886 28.4179 23.3205 28.0974 23.8466C27.7769 24.3726 27.6012 24.974 27.588 25.5898ZM36.3581 16.986C36.3674 17.1979 36.4581 17.3981 36.6113 17.5447C36.7646 17.6914 36.9685 17.7732 37.1806 17.7732C37.3927 17.7732 37.5967 17.6914 37.7499 17.5447C37.9031 17.3981 37.9939 17.1979 38.0032 16.986V15.1573C37.9939 14.9453 37.9031 14.7452 37.7499 14.5985C37.5967 14.4519 37.3927 14.37 37.1806 14.37C36.9685 14.37 36.7646 14.4519 36.6113 14.5985C36.4581 14.7452 36.3674 14.9453 36.3581 15.1573V16.986ZM31.8551 16.986C31.8709 17.1938 31.9645 17.3879 32.1174 17.5295C32.2702 17.6712 32.4708 17.7499 32.6792 17.7499C32.8876 17.7499 33.0882 17.6712 33.2411 17.5295C33.3939 17.3879 33.4875 17.1938 33.5033 16.986V12.8868C33.4903 12.6772 33.3979 12.4805 33.245 12.3367C33.092 12.193 32.8899 12.1129 32.68 12.1129C32.4701 12.1129 32.268 12.193 32.115 12.3367C31.9621 12.4805 31.8697 12.6772 31.8567 12.8868L31.8551 16.986ZM27.2856 18.6374C27.3014 18.8448 27.3949 19.0385 27.5474 19.1799C27.6999 19.3212 27.9002 19.3998 28.1081 19.3998C28.3161 19.3998 28.5164 19.3212 28.6689 19.1799C28.8214 19.0385 28.9149 18.8448 28.9307 18.6374V9.76917C28.9214 9.55726 28.8306 9.35712 28.6774 9.21046C28.5242 9.0638 28.3202 8.98193 28.1081 8.98193C27.896 8.98193 27.6921 9.0638 27.5388 9.21046C27.3856 9.35712 27.2949 9.55726 27.2856 9.76917V18.6374ZM22.7921 16.986C22.8051 17.1955 22.8975 17.3922 23.0505 17.536C23.2034 17.6798 23.4055 17.7598 23.6154 17.7598C23.8254 17.7598 24.0274 17.6798 24.1804 17.536C24.3333 17.3922 24.4257 17.1955 24.4387 16.986V12.8868C24.4294 12.6748 24.3387 12.4747 24.1855 12.328C24.0322 12.1814 23.8283 12.0995 23.6162 12.0995C23.4041 12.0995 23.2002 12.1814 23.0469 12.328C22.8937 12.4747 22.803 12.6748 22.7937 12.8868L22.7921 16.986ZM18.2004 16.986C18.2205 17.1902 18.3158 17.3797 18.4678 17.5175C18.6199 17.6554 18.8177 17.7317 19.023 17.7317C19.2282 17.7317 19.426 17.6554 19.5781 17.5175C19.7301 17.3797 19.8254 17.1902 19.8455 16.986V15.1573C19.8362 14.9453 19.7455 14.7452 19.5922 14.5985C19.439 14.4519 19.2351 14.37 19.023 14.37C18.8108 14.37 18.6069 14.4519 18.4537 14.5985C18.3004 14.7452 18.2097 14.9453 18.2004 15.1573V16.986ZM13.6562 16.986C13.6655 17.1979 13.7563 17.3981 13.9095 17.5447C14.0627 17.6914 14.2667 17.7732 14.4788 17.7732C14.6909 17.7732 14.8948 17.6914 15.0481 17.5447C15.2013 17.3981 15.292 17.1979 15.3013 16.986V12.8868C15.292 12.6748 15.2013 12.4747 15.0481 12.328C14.8948 12.1814 14.6909 12.0995 14.4788 12.0995C14.2667 12.0995 14.0627 12.1814 13.9095 12.328C13.7563 12.4747 13.6655 12.6748 13.6562 12.8868V16.986ZM9.08517 18.6374C9.09447 18.8493 9.18519 19.0495 9.33843 19.1961C9.49167 19.3428 9.69559 19.4247 9.90771 19.4247C10.1198 19.4247 10.3237 19.3428 10.477 19.1961C10.6302 19.0495 10.721 18.8493 10.7302 18.6374V9.76917C10.721 9.55726 10.6302 9.35712 10.477 9.21046C10.3237 9.0638 10.1198 8.98193 9.90771 8.98193C9.69559 8.98193 9.49167 9.0638 9.33843 9.21046C9.18519 9.35712 9.09447 9.55726 9.08517 9.76917V18.6374ZM4.55525 16.986C4.57333 17.1919 4.66789 17.3836 4.8203 17.5232C4.97271 17.6628 5.17189 17.7402 5.37858 17.7402C5.58527 17.7402 5.78446 17.6628 5.93687 17.5232C6.08928 17.3836 6.18384 17.1919 6.20192 16.986V12.8868C6.19262 12.6748 6.10189 12.4747 5.94865 12.328C5.79542 12.1814 5.59149 12.0995 5.37937 12.0995C5.16726 12.0995 4.96333 12.1814 4.8101 12.328C4.65686 12.4747 4.56613 12.6748 4.55683 12.8868L4.55525 16.986ZM0 16.986C0.0157687 17.1934 0.10927 17.3871 0.261789 17.5285C0.414307 17.6698 0.614588 17.7484 0.822542 17.7484C1.03049 17.7484 1.23078 17.6698 1.38329 17.5285C1.53581 17.3871 1.62931 17.1934 1.64508 16.986V15.1573C1.63578 14.9453 1.54506 14.7452 1.39182 14.5985C1.23858 14.4519 1.03465 14.37 0.822542 14.37C0.610429 14.37 0.406501 14.4519 0.253262 14.5985C0.100024 14.7452 0.0092995 14.9453 0 15.1573V16.986Z" fill="#0D99FF"/>
</svg>
