<svg width="22" height="21" viewBox="0 0 22 21" fill="none" xmlns="http://www.w3.org/2000/svg">
<path d="M15.6095 10.4906C15.3121 10.4108 15.0019 10.3903 14.6965 10.4304C14.3912 10.4705 14.0968 10.5704 13.83 10.7244C13.5633 10.8783 13.3296 11.0834 13.1421 11.3277C12.9547 11.5721 12.8173 11.8509 12.7377 12.1484L12.1314 14.4125C11.8096 15.6134 11.9781 16.893 12.5998 17.9697C13.2214 19.0465 14.2453 19.8321 15.4463 20.1539C16.6472 20.4757 17.9268 20.3072 19.0035 19.6856C20.0802 19.0639 20.8659 18.04 21.1877 16.8391L21.7939 14.5734C21.9543 13.9734 21.87 13.3342 21.5594 12.7963C21.2489 12.2585 20.7375 11.8658 20.1377 11.7047L15.6095 10.4906Z" fill="#77767B"/>
<path d="M6.26582 10.4906C6.56314 10.411 6.87324 10.3907 7.1784 10.431C7.48355 10.4712 7.7778 10.5711 8.04434 10.7251C8.31087 10.879 8.54448 11.0839 8.73181 11.3282C8.91914 11.5724 9.05653 11.8511 9.13613 12.1484L9.74238 14.4125C9.9109 15.0099 9.95908 15.6349 9.88412 16.2511C9.80917 16.8673 9.61257 17.4624 9.30575 18.002C8.99893 18.5416 8.58799 19.0149 8.09678 19.3944C7.60557 19.7739 7.04388 20.0521 6.44431 20.2128C5.84473 20.3735 5.21921 20.4135 4.60405 20.3304C3.98889 20.2474 3.39635 20.0431 2.86081 19.7292C2.32527 19.4154 1.8574 18.9983 1.48435 18.5021C1.11131 18.006 0.840517 17.4407 0.687697 16.8391L0.0798843 14.5735C-0.0804519 13.9732 0.00410437 13.3338 0.314969 12.7959C0.625833 12.258 1.13757 11.8655 1.7377 11.7047L6.26582 10.4906Z" fill="#77767B"/>
<path d="M8.59375 9.375C7.97215 9.375 7.37601 9.62193 6.93647 10.0615C6.49693 10.501 6.25 11.0971 6.25 11.7188V15.625C6.25 16.8682 6.74386 18.0605 7.62294 18.9396C8.50201 19.8186 9.6943 20.3125 10.9375 20.3125C12.1807 20.3125 13.373 19.8186 14.2521 18.9396C15.1311 18.0605 15.625 16.8682 15.625 15.625V11.7188C15.625 11.0971 15.3781 10.501 14.9385 10.0615C14.499 9.62193 13.9029 9.375 13.2812 9.375H8.59375Z" fill="#77767B"/>
<path d="M10.9375 0C9.9015 0 8.90793 0.41155 8.17536 1.14411C7.4428 1.87668 7.03125 2.87025 7.03125 3.90625C7.03125 4.94225 7.4428 5.93582 8.17536 6.66839C8.90793 7.40095 9.9015 7.8125 10.9375 7.8125C11.9735 7.8125 12.9671 7.40095 13.6996 6.66839C14.4322 5.93582 14.8438 4.94225 14.8438 3.90625C14.8438 2.87025 14.4322 1.87668 13.6996 1.14411C12.9671 0.41155 11.9735 0 10.9375 0Z" fill="#77767B"/>
<path d="M3.125 3.125C2.2962 3.125 1.50134 3.45424 0.915291 4.04029C0.32924 4.62634 0 5.4212 0 6.25C0 7.0788 0.32924 7.87366 0.915291 8.45971C1.50134 9.04576 2.2962 9.375 3.125 9.375C3.9538 9.375 4.74866 9.04576 5.33471 8.45971C5.92076 7.87366 6.25 7.0788 6.25 6.25C6.25 5.4212 5.92076 4.62634 5.33471 4.04029C4.74866 3.45424 3.9538 3.125 3.125 3.125Z" fill="#77767B"/>
<path d="M18.75 3.125C17.9212 3.125 17.1263 3.45424 16.5403 4.04029C15.9542 4.62634 15.625 5.4212 15.625 6.25C15.625 7.0788 15.9542 7.87366 16.5403 8.45971C17.1263 9.04576 17.9212 9.375 18.75 9.375C19.5788 9.375 20.3737 9.04576 20.9597 8.45971C21.5458 7.87366 21.875 7.0788 21.875 6.25C21.875 5.4212 21.5458 4.62634 20.9597 4.04029C20.3737 3.45424 19.5788 3.125 18.75 3.125Z" fill="#77767B"/>
</svg>
