<svg width="40" height="40" viewBox="0 0 40 40" fill="none" xmlns="http://www.w3.org/2000/svg">
<path d="M19.7167 19.5115V22.5982C19.4482 22.5947 19.192 22.4851 19.004 22.2934C18.8161 22.1017 18.7115 21.8434 18.7133 21.5749V19.5165C18.6959 19.2759 18.588 19.0507 18.4112 18.8863C18.2345 18.722 18.0022 18.6306 17.7608 18.6306C17.5195 18.6306 17.2871 18.722 17.1104 18.8863C16.9337 19.0507 16.8258 19.2759 16.8083 19.5165V22.5999C16.5437 22.5999 16.2898 22.495 16.1024 22.3082C15.915 22.1214 15.8092 21.8679 15.8083 21.6032V19.5165C15.7861 19.2789 15.676 19.0581 15.4995 18.8973C15.323 18.7366 15.0929 18.6475 14.8542 18.6475C14.6155 18.6475 14.3853 18.7366 14.2089 18.8973C14.0324 19.0581 13.9222 19.2789 13.9 19.5165V21.5882C13.8987 21.8541 13.7933 22.1089 13.6064 22.2981C13.4195 22.4872 13.1659 22.5955 12.9 22.5999V19.5165C12.9079 19.0085 13.1172 18.5244 13.4819 18.1706C13.8467 17.8168 14.3369 17.6223 14.845 17.6299H14.8483C15.3983 17.6215 15.9283 17.8465 16.3067 18.2465C16.4924 18.0498 16.7168 17.8934 16.9657 17.7873C17.2146 17.6812 17.4827 17.6276 17.7533 17.6299C18.2632 17.6196 18.7562 17.8122 19.1241 18.1654C19.492 18.5186 19.7045 19.0034 19.715 19.5132M31.4067 15.6932V21.6315C31.4136 21.8917 31.5222 22.1387 31.7091 22.3197C31.8961 22.5007 32.1465 22.6013 32.4067 22.5999V16.6599C32.3997 16.3998 32.2911 16.1527 32.1042 15.9717C31.9173 15.7907 31.6669 15.6901 31.4067 15.6915M40 22.5415C39.46 22.5882 38.875 22.4265 38.665 21.9699L38.1333 20.8282H34.5833L34.0567 22.0015C33.8067 22.4649 33.15 22.6115 32.6433 22.6115L35.54 16.2682C35.6014 16.1051 35.7096 15.9639 35.851 15.8621C35.9925 15.7604 36.1609 15.7028 36.335 15.6965C36.5094 15.704 36.6779 15.762 36.82 15.8635C36.962 15.965 37.0715 16.1056 37.135 16.2682L40 22.5415ZM37.7067 19.8465L36.3633 16.9015L35.0233 19.8465H37.7067ZM5.76333 20.9099C5.21237 21.3763 4.51521 21.6347 3.79333 21.6399C2.24333 21.6399 0.98 20.5015 0.98 19.1165C0.98 17.7315 2.24667 16.6082 3.79333 16.6082C4.62833 16.6082 5.42667 16.9499 6.00333 17.5549C6.16039 17.7196 6.37054 17.8236 6.59676 17.8486C6.82298 17.8736 7.05076 17.818 7.24 17.6915C6.63667 16.4415 5.27833 15.6299 3.79 15.6299C1.70167 15.6299 0 17.1932 0 19.1199C0 21.0465 1.69667 22.6132 3.79167 22.6132C4.55159 22.6147 5.2962 22.3996 5.93833 21.9932C6.37253 21.7233 6.74231 21.3614 7.02167 20.9332C6.84774 20.7828 6.62661 20.6981 6.39672 20.6939C6.16683 20.6896 5.94271 20.766 5.76333 20.9099ZM24.8133 16.6782H26.96V21.5982C26.9555 21.857 27.0533 22.1072 27.232 22.2944C27.4108 22.4816 27.6562 22.5908 27.915 22.5982H27.96V16.6782H30.1C30.3623 16.6782 30.6138 16.5741 30.7994 16.3888C30.9851 16.2035 31.0896 15.9522 31.09 15.6899H23.84C23.8387 15.9498 23.9403 16.1997 24.1227 16.3849C24.3051 16.5701 24.5534 16.6756 24.8133 16.6782ZM12.63 20.1232C12.63 21.5166 11.4183 22.5982 9.87833 22.5982C8.33 22.5982 7.12833 21.5149 7.12833 20.1232C7.12833 18.7315 8.335 17.6315 9.87833 17.6315C11.4217 17.6315 12.63 18.7282 12.63 20.1232ZM11.6267 20.1182C11.6267 19.2849 10.8517 18.6282 9.87667 18.6282C8.89667 18.6282 8.125 19.2832 8.125 20.1182C8.125 20.9532 8.89833 21.5982 9.875 21.5982C10.8517 21.5982 11.6267 20.9515 11.6267 20.1182ZM22.955 17.6182C21.3717 17.6182 20.2217 18.6899 20.2217 20.1482V24.3699C20.484 24.3726 20.7367 24.2714 20.9247 24.0884C21.1126 23.9054 21.2206 23.6555 21.225 23.3932V20.1432C21.225 19.0932 22.085 18.6165 22.955 18.6165C23.87 18.6165 24.59 19.2799 24.59 20.1249C24.59 20.9365 23.87 21.5832 22.9567 21.5832C22.34 21.5832 21.88 21.4282 21.6 21.1199V21.1282C21.5755 21.1864 21.5544 21.246 21.5367 21.3066C21.4708 21.5573 21.5056 21.8239 21.6336 22.0493C21.7615 22.2748 21.9726 22.4413 22.2217 22.5132C22.4661 22.5643 22.7133 22.5893 22.9633 22.5882C24.4433 22.5882 25.5967 21.5032 25.585 20.1282C25.5857 19.7925 25.5174 19.4603 25.3844 19.1521C25.2514 18.8439 25.0564 18.5663 24.8117 18.3365C24.3051 17.8722 23.6422 17.6158 22.955 17.6182Z" fill="#0D99FF"/>
</svg>
