<svg width="24" height="24" viewBox="0 0 24 24" fill="none" xmlns="http://www.w3.org/2000/svg">
<path d="M12 2L12.117 2.007C12.3402 2.03332 12.5481 2.13408 12.707 2.29301C12.8659 2.45194 12.9667 2.65978 12.993 2.883L13 3V7L13.005 7.15C13.0408 7.62617 13.2458 8.07383 13.5829 8.41203C13.92 8.75023 14.3669 8.95666 14.843 8.994L15 9H19L19.117 9.007C19.3402 9.03332 19.5481 9.13408 19.707 9.29301C19.8659 9.45194 19.9667 9.65978 19.993 9.883L20 10V19C20 19.7652 19.7077 20.5015 19.1827 21.0583C18.6578 21.615 17.9399 21.9501 17.176 21.995L17 22H7C6.23479 22 5.49849 21.7077 4.94174 21.1827C4.38499 20.6578 4.04989 19.9399 4.005 19.176L4 19V5C3.99996 4.23479 4.29233 3.49849 4.81728 2.94174C5.34224 2.38499 6.06011 2.04989 6.824 2.005L7 2H12ZM9.5 10C8.83696 10 8.20107 10.2634 7.73223 10.7322C7.26339 11.2011 7 11.837 7 12.5V15.5C7 16.163 7.26339 16.7989 7.73223 17.2678C8.20107 17.7366 8.83696 18 9.5 18C10.163 18 10.7989 17.7366 11.2678 17.2678C11.7366 16.7989 12 16.163 12 15.5C12 15.2348 11.8946 14.9804 11.7071 14.7929C11.5196 14.6054 11.2652 14.5 11 14.5C10.7348 14.5 10.4804 14.6054 10.2929 14.7929C10.1054 14.9804 10 15.2348 10 15.5C10 15.6326 9.94732 15.7598 9.85355 15.8536C9.75979 15.9473 9.63261 16 9.5 16C9.36739 16 9.24021 15.9473 9.14645 15.8536C9.05268 15.7598 9 15.6326 9 15.5V12.5C9 12.3674 9.05268 12.2402 9.14645 12.1464C9.24021 12.0527 9.36739 12 9.5 12C9.63261 12 9.75979 12.0527 9.85355 12.1464C9.94732 12.2402 10 12.3674 10 12.5C10 12.7652 10.1054 13.0196 10.2929 13.2071C10.4804 13.3946 10.7348 13.5 11 13.5C11.2652 13.5 11.5196 13.3946 11.7071 13.2071C11.8946 13.0196 12 12.7652 12 12.5C12 12.1717 11.9353 11.8466 11.8097 11.5433C11.6841 11.24 11.4999 10.9644 11.2678 10.7322C11.0356 10.5001 10.76 10.3159 10.4567 10.1903C10.1534 10.0647 9.8283 10 9.5 10ZM16.243 10.03C15.9857 9.96556 15.7134 10.0059 15.4859 10.1423C15.2585 10.2786 15.0945 10.4997 15.03 10.757L14.5 12.876L13.97 10.757C13.9389 10.6288 13.8827 10.508 13.8046 10.4017C13.7266 10.2953 13.6283 10.2054 13.5154 10.1372C13.4025 10.0689 13.2772 10.0237 13.1467 10.0042C13.0163 9.98457 12.8832 9.99099 12.7553 10.023C12.6273 10.0551 12.5069 10.1122 12.4011 10.1909C12.2953 10.2697 12.2061 10.3687 12.1387 10.4821C12.0713 10.5955 12.027 10.7211 12.0083 10.8517C11.9897 10.9823 11.997 11.1153 12.03 11.243L13.53 17.243C13.782 18.253 15.218 18.253 15.47 17.243L16.97 11.243C17.0344 10.9857 16.9941 10.7134 16.8577 10.4859C16.7214 10.2585 16.5003 10.0945 16.243 10.03ZM14.999 2.999L19 7H15L14.999 2.999Z" fill="#77767B"/>
</svg>
