<svg width="40" height="40" viewBox="0 0 40 40" fill="none" xmlns="http://www.w3.org/2000/svg">
<path d="M36.6667 3.33317H35V4.99984H36.6667V3.33317ZM35 4.99984H33.3334V6.6665H35V4.99984ZM33.3334 6.6665H26.6667V8.33317H33.3334V6.6665ZM26.6667 4.99984H23.3334V6.6665H26.6667V4.99984ZM23.3334 3.33317H21.6667V4.99984H23.3334V3.33317ZM21.6667 1.6665H18.3334V3.33317H21.6667V1.6665ZM18.3334 3.33317H16.6667V4.99984H18.3334V3.33317ZM16.6667 4.99984H13.3334V6.6665H16.6667V4.99984ZM13.3334 6.6665H6.66669V8.33317H13.3334V6.6665ZM6.66669 4.99984H5.00002V6.6665H6.66669V4.99984ZM5.00002 3.33317H3.33335V4.99984H5.00002V3.33317ZM5.00002 23.3332H3.33335V26.6665H5.00002V23.3332ZM6.66669 26.6665H5.00002V29.9998H6.66669V26.6665ZM8.33335 29.9998H6.66669V31.6665H8.33335V29.9998ZM11.6667 31.6665H8.33335V33.3332H11.6667V31.6665ZM15 33.3332H11.6667V34.9998H15V33.3332ZM18.3334 34.9998H15V36.6665H18.3334V34.9998ZM21.6667 36.6665H18.3334V38.3332H21.6667V36.6665ZM25 34.9998H21.6667V36.6665H25V34.9998ZM28.3334 33.3332H25V34.9998H28.3334V33.3332ZM31.6667 31.6665H28.3334V33.3332H31.6667V31.6665ZM33.3334 29.9998H31.6667V31.6665H33.3334V29.9998ZM35 26.6665H33.3334V29.9998H35V26.6665ZM36.6667 23.3332H35V26.6665H36.6667V23.3332ZM38.3334 4.99984H36.6667V23.3332H38.3334V4.99984ZM3.33335 4.99984H1.66669V23.3332H3.33335V4.99984Z" fill="#2A292B"/>
<path d="M33.3333 8.33333V10H26.6667V8.33333H23.3333V6.66667H21.6667V5H18.3333V6.66667H16.6667V8.33333H13.3333V10H6.66667V8.33333H5V23.3333H6.66667V26.6667H8.33333V30H11.6667V31.6667H15V33.3333H18.3333V35H21.6667V33.3333H25V31.6667H28.3333V30H31.6667V26.6667H33.3333V23.3333H35V8.33333H33.3333ZM16.6667 28.3333V25H18.3333V20H16.6667V15H18.3333V13.3333H21.6667V15H23.3333V20H21.6667V25H23.3333V28.3333H16.6667Z" fill="#2A292B"/>
</svg>
