<svg width="40" height="40" viewBox="0 0 40 40" fill="none" xmlns="http://www.w3.org/2000/svg">
<path d="M8.33329 31.6665H10.1633L27.9933 13.8365L26.1633 12.0065L8.33329 29.8365V31.6665ZM6.66663 33.3332V29.1332L28.6333 7.14653C28.8055 6.99431 28.9944 6.87653 29.2 6.7932C29.4055 6.70986 29.6205 6.66764 29.845 6.66653C30.0694 6.66542 30.2861 6.70097 30.495 6.7732C30.7061 6.8432 30.9005 6.96986 31.0783 7.1532L32.8566 8.9432C33.04 9.11986 33.1655 9.31431 33.2333 9.52653C33.3 9.73764 33.3333 9.94875 33.3333 10.1599C33.3333 10.3865 33.2955 10.6032 33.22 10.8099C33.1433 11.0154 33.0222 11.2038 32.8566 11.3749L10.865 33.3332H6.66663ZM27.0633 12.9365L26.1633 12.0065L27.9933 13.8365L27.0633 12.9365Z" fill="#232323"/>
</svg>
