<svg width="37" height="37" viewBox="0 0 37 37" fill="none" xmlns="http://www.w3.org/2000/svg">
<rect x="0.5" y="0.5" width="36" height="36" rx="18" fill="white"/>
<rect x="0.5" y="0.5" width="36" height="36" rx="18" stroke="#F6F8F9"/>
<path opacity="0.987" fill-rule="evenodd" clip-rule="evenodd" d="M16.6709 2.45347C18.3475 2.26616 19.3396 2.26616 21.141 2.45347C24.3298 2.92544 27.2858 4.39941 29.5816 6.66222C28.0302 8.12866 26.4992 9.61651 24.989 11.1253C22.0968 8.6741 18.8686 8.10831 15.3043 9.42797C12.6896 10.6305 10.8689 12.5791 9.84213 15.274C8.16428 14.0248 6.50828 12.7466 4.87488 11.4398C4.76137 11.3801 4.63172 11.3582 4.50488 11.3774C7.09951 6.3747 11.1541 3.39929 16.6686 2.45116" fill="#F44336"/>
<path opacity="0.997" fill-rule="evenodd" clip-rule="evenodd" d="M4.50022 11.3775C4.63126 11.3574 4.75537 11.3783 4.87253 11.4399C6.50593 12.7467 8.16193 14.0249 9.83978 15.2741C9.57575 16.3241 9.40932 17.3962 9.3426 18.4769C9.39964 19.5221 9.56537 20.5481 9.83978 21.5548L4.62509 25.7057C2.35422 20.9605 2.31259 16.1844 4.50022 11.3775Z" fill="#FFC107"/>
<path opacity="0.999" fill-rule="evenodd" clip-rule="evenodd" d="M29.3342 30.7331C27.7105 29.3011 26.0106 27.9579 24.242 26.7093C26.015 25.4575 27.091 23.7401 27.4703 21.5571H18.7822V15.5238C23.7926 15.4821 28.8007 15.5245 33.8065 15.651C34.7562 20.8078 33.6593 25.4575 30.5159 29.6C30.1421 29.9973 29.7461 30.3755 29.3342 30.7331Z" fill="#448AFF"/>
<path opacity="0.993" fill-rule="evenodd" clip-rule="evenodd" d="M9.83969 21.5571C11.7359 26.27 15.2124 28.47 20.2691 28.157C21.6886 27.9927 23.0495 27.4968 24.2419 26.7094C26.0118 27.9612 27.7091 29.3025 29.3341 30.7331C26.7594 33.0467 23.4768 34.4194 20.0216 34.6274C19.2366 34.6901 18.4479 34.6901 17.6629 34.6274C11.7768 33.9336 7.43083 30.9598 4.625 25.7058L9.83969 21.5571Z" fill="#43A047"/>
</svg>
