<svg width="16" height="16" viewBox="0 0 16 16" fill="none" xmlns="http://www.w3.org/2000/svg">
<path d="M10.9899 7.71391C10.7995 7.6628 10.6009 7.6497 10.4055 7.67537C10.2101 7.70104 10.0217 7.76497 9.85098 7.86351C9.68028 7.96204 9.53068 8.09325 9.41072 8.24964C9.29076 8.40602 9.2028 8.58451 9.15186 8.77491L8.76385 10.2239C8.55791 10.9925 8.66573 11.8114 9.06359 12.5005C9.46145 13.1896 10.1168 13.6925 10.8854 13.8984C11.654 14.1043 12.4729 13.9965 13.162 13.5987C13.8511 13.2008 14.3539 12.5455 14.5599 11.7769L14.9479 10.3269C15.0505 9.94288 14.9965 9.53382 14.7978 9.18956C14.599 8.84531 14.2718 8.59403 13.8879 8.49091L10.9899 7.71391Z" fill="#77767B"/>
<path d="M5.00981 7.71415C5.2001 7.66319 5.39856 7.65021 5.59386 7.67595C5.78916 7.70169 5.97748 7.76565 6.14806 7.86417C6.31865 7.9627 6.46815 8.09386 6.58804 8.25016C6.70794 8.40647 6.79587 8.58486 6.84681 8.77514L7.23481 10.2241C7.34266 10.6065 7.3735 11.0065 7.32552 11.4008C7.27755 11.7952 7.15173 12.1761 6.95537 12.5214C6.759 12.8668 6.496 13.1697 6.18163 13.4126C5.86725 13.6555 5.50777 13.8335 5.12404 13.9363C4.74031 14.0392 4.33998 14.0647 3.94628 14.0116C3.55258 13.9585 3.17335 13.8277 2.83061 13.6268C2.48786 13.426 2.18842 13.159 1.94967 12.8415C1.71092 12.524 1.53762 12.1622 1.43981 11.7771L1.05081 10.3271C0.948198 9.94298 1.00231 9.5338 1.20127 9.18952C1.40022 8.84524 1.72773 8.59405 2.11181 8.49115L5.00981 7.71415Z" fill="#77767B"/>
<path d="M6.5 7C6.10218 7 5.72064 7.15804 5.43934 7.43934C5.15804 7.72064 5 8.10218 5 8.5V11C5 11.7956 5.31607 12.5587 5.87868 13.1213C6.44129 13.6839 7.20435 14 8 14C8.79565 14 9.55871 13.6839 10.1213 13.1213C10.6839 12.5587 11 11.7956 11 11V8.5C11 8.10218 10.842 7.72064 10.5607 7.43934C10.2794 7.15804 9.89782 7 9.5 7H6.5Z" fill="#77767B"/>
<path d="M8 1C7.33696 1 6.70107 1.26339 6.23223 1.73223C5.76339 2.20107 5.5 2.83696 5.5 3.5C5.5 4.16304 5.76339 4.79893 6.23223 5.26777C6.70107 5.73661 7.33696 6 8 6C8.66304 6 9.29893 5.73661 9.76777 5.26777C10.2366 4.79893 10.5 4.16304 10.5 3.5C10.5 2.83696 10.2366 2.20107 9.76777 1.73223C9.29893 1.26339 8.66304 1 8 1Z" fill="#77767B"/>
<path d="M3 3C2.46957 3 1.96086 3.21071 1.58579 3.58579C1.21071 3.96086 1 4.46957 1 5C1 5.53043 1.21071 6.03914 1.58579 6.41421C1.96086 6.78929 2.46957 7 3 7C3.53043 7 4.03914 6.78929 4.41421 6.41421C4.78929 6.03914 5 5.53043 5 5C5 4.46957 4.78929 3.96086 4.41421 3.58579C4.03914 3.21071 3.53043 3 3 3Z" fill="#77767B"/>
<path d="M13 3C12.4696 3 11.9609 3.21071 11.5858 3.58579C11.2107 3.96086 11 4.46957 11 5C11 5.53043 11.2107 6.03914 11.5858 6.41421C11.9609 6.78929 12.4696 7 13 7C13.5304 7 14.0391 6.78929 14.4142 6.41421C14.7893 6.03914 15 5.53043 15 5C15 4.46957 14.7893 3.96086 14.4142 3.58579C14.0391 3.21071 13.5304 3 13 3Z" fill="#77767B"/>
</svg>
