<svg width="25" height="25" viewBox="0 0 25 25" fill="none" xmlns="http://www.w3.org/2000/svg">
<path d="M13.2365 2.38854L22.6115 11.7635C23.2677 12.4198 22.8032 13.5417 21.875 13.5417H20.8334V19.7917C20.8334 20.6205 20.5041 21.4153 19.9181 22.0014C19.332 22.5874 18.5372 22.9167 17.7084 22.9167H16.6667V15.625C16.6667 14.8279 16.3622 14.0609 15.8154 13.481C15.2685 12.901 14.5208 12.552 13.725 12.5052L13.5417 12.5H11.4584C10.6296 12.5 9.83471 12.8292 9.24865 13.4153C8.6626 14.0013 8.33336 14.7962 8.33336 15.625V22.9167H7.2917C6.4629 22.9167 5.66804 22.5874 5.08199 22.0014C4.49594 21.4153 4.1667 20.6205 4.1667 19.7917V13.5417H3.12503C2.19795 13.5417 1.73232 12.4198 2.38857 11.7635L11.7636 2.38854C11.9589 2.19326 12.2238 2.08356 12.5 2.08356C12.7762 2.08356 13.0411 2.19326 13.2365 2.38854ZM13.5417 14.5833C13.818 14.5833 14.0829 14.6931 14.2783 14.8884C14.4736 15.0838 14.5834 15.3487 14.5834 15.625V22.9167H10.4167V15.625C10.4167 15.3699 10.5104 15.1236 10.6799 14.9329C10.8495 14.7423 11.0831 14.6205 11.3365 14.5906L11.4584 14.5833H13.5417Z" fill="#77767B"/>
</svg>
