<svg width="34" height="14" viewBox="0 0 34 14" fill="none" xmlns="http://www.w3.org/2000/svg">
<path d="M6.61114 12.9797V13.951H0V12.9797H6.61114ZM16.9428 12.9797C16.2796 13.6068 15.4109 13.9536 14.5101 13.951L7.55557 13.9414V12.9797H16.9428ZM26.7727 12.9797L26.443 13.951L26.1161 12.9797H26.7727ZM23.6111 12.9797V13.951H18.8889V12.9797H23.6111ZM34 12.9797V13.951H29.2778V12.9797H34ZM18.0125 11.1256C17.9314 11.4663 17.8034 11.7933 17.6325 12.0968H7.55557V11.1256H18.0125ZM27.4057 11.1256L27.0742 12.0969H25.8147L25.4832 11.1256H27.4057ZM23.6111 11.1256V12.0968H18.8889V11.1256H23.6111ZM34 11.1256V12.0968H29.2778V11.1256H34ZM6.61114 11.1256V12.0968H0V11.1256H6.61114ZM4.72215 9.27121V10.2425H1.88886V9.27121H4.72215ZM12.2777 9.27121V10.2425H9.44436V9.27121H12.2777ZM17.9898 9.27121C18.0735 9.58782 18.116 9.91444 18.1161 10.2425H14.9394V9.27121H17.9898ZM28.0386 9.27121L27.7071 10.2425H25.1817L24.8501 9.27121H28.0386ZM23.6111 9.27121V10.2425H20.7777V9.27121H23.6111ZM32.1111 9.27121V10.2425H29.2777V9.27121H32.1111ZM4.72215 7.417V8.38826H1.88886V7.417H4.72215ZM23.6111 7.417V8.38826H20.7777V7.417H23.6111ZM32.1111 7.417V8.38826H29.2777V7.417H32.1111ZM16.8436 7.417C17.1582 7.69214 17.4246 8.02061 17.6314 8.38819H9.44443V7.41693L16.8436 7.417ZM28.6716 7.417L28.3401 8.38826H24.5487L24.2172 7.41693L28.6716 7.417ZM26.1789 5.56278L26.4444 6.34788L26.7098 5.56278H32.111V6.53404H29.2779V5.64166L28.973 6.53411H23.9158L23.6111 5.64153V6.53411H20.7779V5.56278H26.1789ZM9.44436 5.56278H17.6315C17.4247 5.93039 17.1583 6.25889 16.8437 6.53404H9.44443L9.44436 5.56278ZM4.72215 5.56278V6.53404H1.88886V5.56272L4.72215 5.56278ZM4.72215 3.7085V4.67976H1.88886V3.7085H4.72215ZM12.2777 3.7085V4.67976H9.44436V3.7085H12.2777ZM18.1162 3.7085C18.116 4.03658 18.0735 4.36318 17.9898 4.67976H14.9394V3.7085H18.1162ZM25.5519 3.7085L25.8803 4.67976H20.7779V3.7085H25.5519ZM32.111 3.7085V4.67976H27.0085L27.3369 3.7085H32.111ZM6.61101 1.85422V2.82555H0V1.85415L6.61101 1.85422ZM17.6325 1.85422C17.8034 2.15774 17.9313 2.48479 18.0124 2.82548H7.55544V1.85422H17.6325ZM33.9999 1.85422V2.82548H27.6354L27.9639 1.85422H33.9999ZM24.9249 1.85422L25.2533 2.82548H18.8889V1.85422H24.9249ZM6.61121 7.17547e-05V0.971262H0V3.46198e-06L6.61121 7.17547e-05ZM14.5101 3.46198e-06C15.4107 -0.00126372 16.2789 0.345378 16.9428 0.971262H7.55557V3.46198e-06H14.5101ZM34 3.46198e-06V0.97133H28.2625L28.5909 7.17547e-05L34 3.46198e-06ZM24.298 3.46198e-06L24.6264 0.97133H18.8889V7.17547e-05L24.298 3.46198e-06Z" fill="#4D96FF"/>
</svg>
