<svg width="53" height="53" viewBox="0 0 53 53" fill="none" xmlns="http://www.w3.org/2000/svg">
<path d="M8.83328 22.0833L7.27199 23.6446L5.71069 22.0833L7.27199 20.522L8.83328 22.0833ZM46.3749 39.75C46.3749 40.3357 46.1423 40.8974 45.7281 41.3115C45.314 41.7256 44.7523 41.9583 44.1666 41.9583C43.5809 41.9583 43.0192 41.7256 42.6051 41.3115C42.1909 40.8974 41.9583 40.3357 41.9583 39.75H46.3749ZM18.3137 34.6863L7.27199 23.6446L10.3946 20.522L21.4362 31.5637L18.3137 34.6863ZM7.27199 20.522L18.3137 9.48035L21.4362 12.6029L10.3946 23.6446L7.27199 20.522ZM8.83328 19.875H30.9166V24.2916H8.83328V19.875ZM46.3749 35.3333V39.75H41.9583V35.3333H46.3749ZM30.9166 19.875C35.0164 19.875 38.9483 21.5036 41.8473 24.4026C44.7463 27.3016 46.3749 31.2335 46.3749 35.3333H41.9583C41.9583 32.4049 40.795 29.5964 38.7242 27.5257C36.6535 25.455 33.845 24.2916 30.9166 24.2916V19.875Z" fill="#232323"/>
</svg>
