<svg width="24" height="24" viewBox="0 0 24 24" fill="none" xmlns="http://www.w3.org/2000/svg">
<path fill-rule="evenodd" clip-rule="evenodd" d="M19.2852 12.6448C19.9922 11.9266 20.385 10.9569 20.3772 9.94907C20.3693 8.94125 19.9614 7.97783 19.2432 7.27077C18.8876 6.92066 18.4665 6.64403 18.0039 6.45667C17.5414 6.2693 17.0465 6.17487 16.5475 6.17877C15.5397 6.18665 14.5762 6.59456 13.8692 7.31277C13.6772 7.50477 13.4332 7.74043 13.1372 8.01977L12.3142 8.79477L11.4912 8.01977C11.1945 7.73977 10.9502 7.5041 10.7582 7.31277C10.0455 6.60013 9.079 6.19978 8.07118 6.19978C7.06336 6.19978 6.09681 6.60013 5.38418 7.31277C3.91618 8.78177 3.89918 11.1568 5.33018 12.6328L12.3142 19.6168L19.2852 12.6448ZM4.53518 6.46477C4.99949 6.00033 5.55074 5.63192 6.15746 5.38056C6.76417 5.12921 7.41446 4.99983 8.07118 4.99983C8.7279 4.99983 9.37819 5.12921 9.9849 5.38056C10.5916 5.63192 11.1429 6.00033 11.6072 6.46477C11.7892 6.64743 12.0248 6.87477 12.3142 7.14677C12.6022 6.87477 12.8378 6.6471 13.0212 6.46377C13.9517 5.51893 15.2194 4.98244 16.5455 4.97231C17.8716 4.96219 19.1473 5.47925 20.0922 6.40977C21.037 7.34028 21.5735 8.60801 21.5836 9.93408C21.5938 11.2602 21.0767 12.5359 20.1462 13.4808L13.0212 20.6068C12.8336 20.7942 12.5793 20.8996 12.3142 20.8996C12.049 20.8996 11.7947 20.7942 11.6072 20.6068L4.48018 13.4798C3.56622 12.5372 3.05969 11.2729 3.06998 9.96C3.08027 8.6471 3.60655 7.39092 4.53518 6.46277V6.46477Z" fill="#2E2E2E"/>
</svg>
