<svg width="16" height="16" viewBox="0 0 16 16" fill="none" xmlns="http://www.w3.org/2000/svg">
<path d="M7.9999 1.3335C5.0599 1.3335 2.66657 3.72683 2.66657 6.66683C2.64657 10.9602 7.41323 14.4002 7.61323 14.5468C7.72657 14.6268 7.86657 14.6735 7.9999 14.6735C8.13323 14.6735 8.27323 14.6335 8.38657 14.5468C8.58657 14.4002 13.3532 10.9668 13.3332 6.66683C13.3332 3.72683 10.9399 1.3335 7.9999 1.3335ZM7.9999 9.3335C6.52657 9.3335 5.33323 8.14016 5.33323 6.66683C5.33323 5.1935 6.52657 4.00016 7.9999 4.00016C9.47323 4.00016 10.6666 5.1935 10.6666 6.66683C10.6666 8.14016 9.47323 9.3335 7.9999 9.3335Z" fill="#77767B"/>
</svg>
