<svg width="40" height="40" viewBox="0 0 40 40" fill="none" xmlns="http://www.w3.org/2000/svg">
<path d="M17.3083 20.7715H19.9124L18.5352 18.5558L16.0077 22.5618H14.8574L17.9318 17.7499C17.9993 17.6526 18.0895 17.5733 18.1947 17.5189C18.2999 17.4646 18.4168 17.4368 18.5352 17.438C18.7743 17.438 18.9971 17.5515 19.1265 17.7418L22.2127 22.5618H21.0624L20.5199 21.6665H17.883L17.3083 20.7715ZM29.2568 21.6665V17.4868H28.2808V22.0758C28.2808 22.2015 28.3296 22.323 28.4227 22.4162C28.5158 22.5093 28.6415 22.5618 28.7793 22.5618H33.2305L33.8058 21.6665H29.2568ZM13.1077 20.9174C14.0555 20.9174 14.8252 20.1521 14.8252 19.2043C14.8252 18.2565 14.0558 17.4868 13.1077 17.4868H8.83741V22.5621H9.81335V18.3818H13.043C13.4968 18.3818 13.8612 18.7505 13.8612 19.204C13.8612 19.6574 13.4965 20.0262 13.043 20.0262L10.2912 20.0221L13.2049 22.5618H14.623L12.6624 20.9171L13.1077 20.9174ZM2.83085 22.5618C1.42991 22.5618 0.292725 21.4277 0.292725 20.0262C0.292725 18.6246 1.4296 17.4865 2.83085 17.4865H5.78054C7.1821 17.4865 8.31835 18.6249 8.31835 20.0262C8.31835 21.4274 7.1821 22.5618 5.78054 22.5618H2.83085ZM5.71491 21.6665C5.93055 21.6668 6.14413 21.6246 6.34345 21.5423C6.54277 21.46 6.72391 21.3393 6.87651 21.1869C7.02912 21.0346 7.1502 20.8537 7.23282 20.6545C7.31545 20.4553 7.358 20.2418 7.35804 20.0262C7.35816 19.8103 7.31575 19.5965 7.23324 19.397C7.15073 19.1975 7.02973 19.0162 6.87715 18.8635C6.72456 18.7107 6.54339 18.5896 6.34397 18.5069C6.14455 18.4242 5.9308 18.3815 5.71491 18.3815H2.89585C2.45995 18.3818 2.04204 18.5553 1.73402 18.8637C1.426 19.1721 1.2531 19.5903 1.25335 20.0262C1.25339 20.2417 1.29592 20.4552 1.3785 20.6543C1.46109 20.8535 1.58211 21.0344 1.73465 21.1867C1.88719 21.3391 2.06826 21.4598 2.26751 21.5422C2.46675 21.6245 2.68027 21.6667 2.89585 21.6665H5.71491ZM24.2505 22.5618C22.8493 22.5618 21.7112 21.4277 21.7112 20.0262C21.7112 18.6246 22.8493 17.4865 24.2505 17.4865H27.7543L27.1827 18.3815H24.3155C23.8794 18.3817 23.4612 18.5551 23.1527 18.8634C22.8443 19.1718 22.6709 19.59 22.6705 20.0262C22.6705 20.9333 23.408 21.6665 24.3155 21.6665H27.8352L27.2602 22.5618H24.2505ZM36.1871 21.6665C35.8295 21.6666 35.4817 21.55 35.1966 21.3343C34.9114 21.1185 34.7045 20.8156 34.6074 20.4715H38.7793L39.3543 19.5765H34.6074C34.7053 19.2328 34.9123 18.9303 35.1973 18.7147C35.4823 18.4991 35.8297 18.3821 36.1871 18.3815H39.0505L39.6299 17.4865H36.1221C34.7208 17.4865 33.5827 18.6249 33.5827 20.0262C33.5827 21.4274 34.7208 22.5618 36.1221 22.5618H39.1318L39.7071 21.6665H36.1871Z" fill="#EA1B22"/>
</svg>
