<svg width="72" height="20" viewBox="0 0 72 20" fill="none" xmlns="http://www.w3.org/2000/svg">
<path d="M1.18586 15V4.09091H5.27677C6.11484 4.09091 6.81796 4.24716 7.38614 4.55966C7.95788 4.87216 8.38934 5.30185 8.68053 5.84872C8.97528 6.39205 9.12265 7.00994 9.12265 7.70241C9.12265 8.40199 8.97528 9.02344 8.68053 9.56676C8.38579 10.1101 7.95077 10.538 7.37549 10.8505C6.8002 11.1594 6.09175 11.3139 5.25013 11.3139H2.53884V9.68928H4.9838C5.47385 9.68928 5.87513 9.60405 6.18763 9.43359C6.50013 9.26314 6.73096 9.02876 6.8801 8.73047C7.0328 8.43217 7.10915 8.08949 7.10915 7.70241C7.10915 7.31534 7.0328 6.97443 6.8801 6.67969C6.73096 6.38494 6.49836 6.15589 6.18231 5.99254C5.86981 5.82564 5.46675 5.74219 4.97314 5.74219H3.16207V15H1.18586ZM10.754 15V6.81818H12.6236V8.18182H12.7089C12.858 7.70952 13.1137 7.34553 13.4759 7.08984C13.8417 6.83061 14.2589 6.70099 14.7277 6.70099C14.8342 6.70099 14.9532 6.70632 15.0846 6.71697C15.2195 6.72408 15.3314 6.73651 15.4201 6.75426V8.52805C15.3385 8.49964 15.2089 8.47479 15.0313 8.45348C14.8573 8.42862 14.6886 8.41619 14.5253 8.41619C14.1737 8.41619 13.8576 8.49254 13.5771 8.64524C13.3001 8.79439 13.0817 9.00213 12.9219 9.26847C12.7621 9.5348 12.6822 9.84197 12.6822 10.19V15H10.754ZM19.9332 15.1598C19.1342 15.1598 18.4417 14.984 17.8558 14.6325C17.2698 14.2809 16.8153 13.7891 16.4921 13.157C16.1725 12.5249 16.0127 11.7862 16.0127 10.9411C16.0127 10.0959 16.1725 9.35547 16.4921 8.71982C16.8153 8.08416 17.2698 7.59055 17.8558 7.23899C18.4417 6.88743 19.1342 6.71165 19.9332 6.71165C20.7322 6.71165 21.4247 6.88743 22.0106 7.23899C22.5965 7.59055 23.0493 8.08416 23.3689 8.71982C23.6921 9.35547 23.8536 10.0959 23.8536 10.9411C23.8536 11.7862 23.6921 12.5249 23.3689 13.157C23.0493 13.7891 22.5965 14.2809 22.0106 14.6325C21.4247 14.984 20.7322 15.1598 19.9332 15.1598ZM19.9438 13.6151C20.3771 13.6151 20.7393 13.4961 21.0305 13.2582C21.3217 13.0167 21.5383 12.6935 21.6804 12.2887C21.826 11.8839 21.8987 11.4329 21.8987 10.9357C21.8987 10.435 21.826 9.98224 21.6804 9.57741C21.5383 9.16903 21.3217 8.84411 21.0305 8.60263C20.7393 8.36115 20.3771 8.24041 19.9438 8.24041C19.5 8.24041 19.1306 8.36115 18.8359 8.60263C18.5447 8.84411 18.3263 9.16903 18.1807 9.57741C18.0387 9.98224 17.9676 10.435 17.9676 10.9357C17.9676 11.4329 18.0387 11.8839 18.1807 12.2887C18.3263 12.6935 18.5447 13.0167 18.8359 13.2582C19.1306 13.4961 19.5 13.6151 19.9438 13.6151ZM29.6345 6.81818V8.30966H24.7978V6.81818H29.6345ZM26.007 15V6.04581C26.007 5.49538 26.1206 5.03729 26.3479 4.67152C26.5787 4.30575 26.8877 4.03232 27.2747 3.85121C27.6618 3.6701 28.0915 3.57954 28.5638 3.57954C28.8976 3.57954 29.1941 3.60618 29.4533 3.65945C29.7126 3.71271 29.9043 3.76065 30.0286 3.80327L29.6451 5.29474C29.5634 5.26989 29.4604 5.24503 29.3362 5.22017C29.2119 5.19176 29.0734 5.17756 28.9207 5.17756C28.562 5.17756 28.3081 5.26456 28.159 5.43857C28.0134 5.60902 27.9406 5.85405 27.9406 6.17365V15H26.007ZM35.2302 6.81818V8.30966H30.5267V6.81818H35.2302ZM31.6879 4.85795H33.6162V12.5391C33.6162 12.7983 33.6552 12.9972 33.7334 13.1357C33.815 13.2706 33.9216 13.3629 34.053 13.4126C34.1843 13.4624 34.3299 13.4872 34.4897 13.4872C34.6105 13.4872 34.7206 13.4783 34.82 13.4606C34.923 13.4428 35.0011 13.4268 35.0544 13.4126L35.3793 14.9201C35.2763 14.9556 35.129 14.9947 34.9372 15.0373C34.749 15.0799 34.5182 15.1048 34.2447 15.1119C33.7618 15.1261 33.3267 15.0533 32.9397 14.8935C32.5526 14.7301 32.2454 14.478 32.0182 14.1371C31.7944 13.7962 31.6843 13.37 31.6879 12.8587V4.85795ZM40.3238 15.1598C39.5248 15.1598 38.8323 14.984 38.2464 14.6325C37.6605 14.2809 37.2059 13.7891 36.8828 13.157C36.5632 12.5249 36.4034 11.7862 36.4034 10.9411C36.4034 10.0959 36.5632 9.35547 36.8828 8.71982C37.2059 8.08416 37.6605 7.59055 38.2464 7.23899C38.8323 6.88743 39.5248 6.71165 40.3238 6.71165C41.1228 6.71165 41.8153 6.88743 42.4012 7.23899C42.9872 7.59055 43.4399 8.08416 43.7595 8.71982C44.0827 9.35547 44.2443 10.0959 44.2443 10.9411C44.2443 11.7862 44.0827 12.5249 43.7595 13.157C43.4399 13.7891 42.9872 14.2809 42.4012 14.6325C41.8153 14.984 41.1228 15.1598 40.3238 15.1598ZM40.3345 13.6151C40.7677 13.6151 41.1299 13.4961 41.4211 13.2582C41.7123 13.0167 41.9289 12.6935 42.071 12.2887C42.2166 11.8839 42.2894 11.4329 42.2894 10.9357C42.2894 10.435 42.2166 9.98224 42.071 9.57741C41.9289 9.16903 41.7123 8.84411 41.4211 8.60263C41.1299 8.36115 40.7677 8.24041 40.3345 8.24041C39.8906 8.24041 39.5213 8.36115 39.2265 8.60263C38.9353 8.84411 38.7169 9.16903 38.5713 9.57741C38.4293 9.98224 38.3583 10.435 38.3583 10.9357C38.3583 11.4329 38.4293 11.8839 38.5713 12.2887C38.7169 12.6935 38.9353 13.0167 39.2265 13.2582C39.5213 13.4961 39.8906 13.6151 40.3345 13.6151Z" fill="white"/>
<path d="M58.5213 15.5252L60.8729 15.5834L66.3099 4.5414L63.4113 4.4696L59.8099 12.3217L59.9672 12.2358L59.5916 12.2265L59.7445 12.3201L56.5363 4.29929L53.6377 4.22749L58.5213 15.5252Z" fill="white"/>
</svg>
