<svg width="24" height="24" viewBox="0 0 24 24" fill="none" xmlns="http://www.w3.org/2000/svg">
<path d="M10 6H14V4H10V6ZM14.463 21.538C13.4877 20.5627 13 19.3833 13 18C13 16.6167 13.4877 15.4377 14.463 14.463C15.4383 13.4883 16.6173 13.0007 18 13C19.3827 12.9993 20.562 13.487 21.538 14.463C22.514 15.439 23.0013 16.618 23 18C22.9987 19.382 22.511 20.5613 21.537 21.538C20.563 22.5147 19.384 23.002 18 23C16.616 22.998 15.437 22.5113 14.463 21.538ZM4 21C3.45 21 2.97933 20.8043 2.588 20.413C2.19667 20.0217 2.00067 19.5507 2 19V8C2 7.45 2.196 6.97933 2.588 6.588C2.98 6.19667 3.45067 6.00067 4 6H8V4C8 3.45 8.196 2.97933 8.588 2.588C8.98 2.19667 9.45067 2.00067 10 2H14C14.55 2 15.021 2.196 15.413 2.588C15.805 2.98 16.0007 3.45067 16 4V6H20C20.55 6 21.021 6.196 21.413 6.588C21.805 6.98 22.0007 7.45067 22 8V10.9C22 11.2 21.871 11.425 21.613 11.575C21.355 11.725 21.084 11.7333 20.8 11.6C20.3667 11.4 19.9127 11.25 19.438 11.15C18.9633 11.05 18.484 11 18 11C16.0667 11 14.4167 11.6833 13.05 13.05C11.6833 14.4167 11 16.0667 11 18C11 18.3 11.021 18.6043 11.063 18.913C11.105 19.2217 11.1673 19.5257 11.25 19.825C11.3333 20.1083 11.2877 20.375 11.113 20.625C10.9383 20.875 10.709 21 10.425 21H4ZM18.5 17.8V15.5C18.5 15.3667 18.45 15.25 18.35 15.15C18.25 15.05 18.1333 15 18 15C17.8667 15 17.75 15.05 17.65 15.15C17.55 15.25 17.5 15.3667 17.5 15.5V17.775C17.5 17.9083 17.525 18.0377 17.575 18.163C17.625 18.2883 17.7 18.4007 17.8 18.5L19.3 20C19.4 20.1 19.5167 20.15 19.65 20.15C19.7833 20.15 19.9 20.1 20 20C20.1 19.9 20.15 19.7833 20.15 19.65C20.15 19.5167 20.1 19.4 20 19.3L18.5 17.8Z" fill="#4D96FF"/>
</svg>
