<svg width="40" height="40" viewBox="0 0 40 40" fill="none" xmlns="http://www.w3.org/2000/svg">
<path fill-rule="evenodd" clip-rule="evenodd" d="M17.5717 15.855C18.4188 15.1839 19.3861 14.6804 20.4217 14.3717C21.4587 14.0333 22.557 13.9253 23.64 14.055C23.7114 14.072 23.7854 14.0741 23.8576 14.0612C23.9297 14.0482 23.9985 14.0206 24.0595 13.9799C24.1204 13.9393 24.1724 13.8865 24.2121 13.8248C24.2518 13.7632 24.2783 13.694 24.29 13.6217C24.307 13.5481 24.3086 13.4719 24.2948 13.3978C24.281 13.3236 24.2521 13.253 24.2099 13.1905C24.1677 13.128 24.1131 13.0748 24.0495 13.0343C23.9858 12.9938 23.9146 12.9668 23.84 12.955C22.5978 12.6966 21.3156 12.6966 20.0734 12.955C18.8149 13.2043 17.6118 13.6785 16.5217 14.355C16.0672 14.5885 15.6673 14.9157 15.3484 15.315C15.0295 15.7144 14.7989 16.1767 14.6717 16.6717C14.627 17.0687 14.6744 17.4707 14.8103 17.8465C14.9461 18.2222 15.1668 18.5616 15.455 18.8383C15.8227 19.2497 16.2683 19.5839 16.7661 19.8217C17.264 20.0594 17.804 20.1959 18.355 20.2233C19.4346 20.2436 20.5101 20.0859 21.5384 19.7567C22.3309 19.4818 23.1691 19.363 24.0067 19.4067C25.3734 19.6233 26.8234 20.4733 28.2567 20.7567C29.0022 20.9308 29.7813 20.8962 30.5084 20.6567C30.5883 20.6326 30.6626 20.593 30.7272 20.5402C30.7918 20.4874 30.8454 20.4224 30.8848 20.3488C30.9243 20.2753 30.9489 20.1948 30.9572 20.1117C30.9656 20.0287 30.9575 19.9449 30.9334 19.865C30.9093 19.7851 30.8697 19.7107 30.8169 19.6461C30.7641 19.5816 30.6991 19.528 30.6256 19.4885C30.5521 19.4491 30.4715 19.4245 30.3885 19.4161C30.3054 19.4078 30.2216 19.4159 30.1417 19.44C29.6277 19.5712 29.089 19.5712 28.575 19.44C27.1417 19.04 25.725 18.04 24.3584 17.7733C23.2507 17.572 22.1126 17.6118 21.0217 17.89C20.1862 18.1219 19.3221 18.2342 18.455 18.2233C17.8843 18.1891 17.3479 17.9388 16.955 17.5233C16.755 17.3067 16.6217 17.1733 16.6884 17.0067C16.842 16.5332 17.1539 16.1272 17.5717 15.8567" fill="#2A292B"/>
<path fill-rule="evenodd" clip-rule="evenodd" d="M37.0284 13.605C35.245 12.855 33.6934 11.9383 31.9434 11.0883C30.7892 10.5008 29.5836 10.0205 28.3417 9.65333C26.2516 9.0746 24.0583 8.97209 21.9234 9.35333C22.2289 8.19778 22.44 7.02556 22.5567 5.83667C22.6563 4.79605 22.6114 3.74665 22.4234 2.71833C22.0067 0.733333 20.94 0 20.0067 0C19.384 0.058107 18.7854 0.269685 18.2644 0.615801C17.7435 0.961918 17.3165 1.43178 17.0217 1.98333L15.8384 4.06667C15.0138 5.91598 14.3063 7.81528 13.72 9.75333H13.52C12.0732 10.7056 10.8181 11.9211 9.82002 13.3367C9.30109 14.0145 8.84846 14.7406 8.46835 15.505C8.08013 16.2825 7.77296 17.0979 7.55169 17.9383C7.38221 18.5653 7.34357 19.2205 7.43819 19.863C7.53282 20.5056 7.75866 21.1218 8.10169 21.6733C8.43342 22.1143 8.92538 22.4069 9.47117 22.488C10.017 22.5691 10.5728 22.4321 11.0184 22.1067C10.5227 24.1506 10.2434 26.241 10.185 28.3433C10.1995 28.6022 10.2384 28.8578 10.3017 29.11C10.355 29.3778 10.4328 29.6389 10.535 29.8933C10.7861 30.4822 11.0972 31.0378 11.4684 31.56C11.685 32.0767 12.8517 32.3767 14.92 30.46C15.1367 30.26 15.3367 30.0433 15.52 29.81C15.7067 29.5778 15.8734 29.3333 16.02 29.0767C16.3089 28.4822 16.5645 27.8767 16.7867 27.26C17.3984 27.7867 18.0984 28.1983 18.855 28.4767C19.3017 28.6433 19.7628 28.7433 20.2384 28.7767C20.9617 28.8267 21.6884 28.76 22.3884 28.5767C22.5384 28.5767 22.655 28.3933 22.805 28.3267C24.0077 29.1006 25.3959 29.538 26.825 29.5933C27.8181 29.5829 28.8071 29.4656 29.775 29.2433C31.1116 28.8857 32.4708 28.6184 33.8434 28.4433C34.0113 28.4433 34.1724 28.3766 34.2912 28.2578C34.41 28.1391 34.4767 27.978 34.4767 27.81C34.4767 27.642 34.41 27.4809 34.2912 27.3622C34.1724 27.2434 34.0113 27.1767 33.8434 27.1767C32.1767 27.0533 30.5017 27.0933 28.8434 27.2933L26.9584 27.4767H25.7584C25.1967 27.4767 24.6367 27.415 24.0917 27.2933C24.2857 27.0907 24.4486 26.8605 24.575 26.61C24.7942 26.1411 24.8354 25.6085 24.691 25.1114C24.5466 24.6144 24.2263 24.1868 23.79 23.9083H23.5567C23.9389 23.6557 24.2649 23.327 24.5144 22.9427C24.7639 22.5585 24.9314 22.1269 25.0067 21.675C25.073 21.2543 25.0077 20.8234 24.8197 20.4412C24.6318 20.0591 24.3304 19.7443 23.9567 19.54C23.8214 19.4545 23.6587 19.4234 23.5014 19.453C23.3441 19.4826 23.2038 19.5706 23.1088 19.6995C23.0137 19.8283 22.971 19.9883 22.9892 20.1473C23.0073 20.3064 23.0851 20.4526 23.2067 20.5567C23.3164 20.6546 23.3941 20.7832 23.4298 20.9259C23.4654 21.0686 23.4574 21.2186 23.4067 21.3567C23.2966 21.5943 23.1321 21.8026 22.9265 21.9647C22.721 22.1269 22.48 22.2383 22.2234 22.29C21.8158 22.3667 21.3976 22.3667 20.99 22.29L19.99 22.19C19.5009 22.117 19.0163 22.0168 18.5384 21.89V20.9733C18.5757 20.8999 18.5965 20.8192 18.5995 20.7368C18.6024 20.6545 18.5873 20.5725 18.5553 20.4966C18.5233 20.4206 18.4751 20.3526 18.4141 20.2972C18.3531 20.2418 18.2808 20.2004 18.2022 20.1758C18.1235 20.1512 18.0405 20.1441 17.9588 20.1549C17.8771 20.1657 17.7988 20.1942 17.7292 20.2384C17.6597 20.2826 17.6006 20.3414 17.5561 20.4108C17.5117 20.4801 17.4828 20.5584 17.4717 20.64C17.305 20.94 16.2384 23.04 16.155 23.3067C16.0748 23.5912 16.0135 23.8807 15.9717 24.1733C15.965 24.2955 15.965 24.4179 15.9717 24.54C15.5384 24.3567 15.1717 24.14 14.7384 23.9733C14.5581 23.8883 14.3676 23.8267 14.1717 23.79C13.985 23.7459 13.7948 23.718 13.6034 23.7067C13.0867 23.7067 12.6534 23.8067 12.1534 23.84H12.0534C12.9534 20.3233 13.87 16.6567 14.92 13.055C15.6587 10.3041 16.6002 7.61175 17.7367 5L18.6717 3.08333C19.055 2.43333 19.455 1.91667 19.9217 1.9C20.3884 1.88333 20.5384 2.35 20.7384 3.13333C20.9551 4.00477 21.0449 4.90291 21.005 5.8C20.9495 7.21889 20.7606 8.61944 20.4384 10.0017C20.4027 10.1649 20.4312 10.3357 20.5181 10.4785C20.605 10.6212 20.7436 10.725 20.905 10.7683C21.0373 10.7931 21.174 10.774 21.2944 10.7138C21.4148 10.6536 21.5122 10.5557 21.5717 10.435C21.6419 10.4591 21.7181 10.4591 21.7884 10.435C23.305 10.4383 24.8134 10.675 26.2584 11.135C26.7917 11.3017 27.325 11.5017 27.8417 11.685C28.6584 11.9683 29.5084 12.285 30.2584 12.585C32.325 13.3683 34.41 14.1683 36.6117 14.77C36.7731 14.8234 36.949 14.8114 37.1016 14.7366C37.2543 14.6618 37.3716 14.5302 37.4284 14.37C37.4756 14.2153 37.4601 14.0482 37.3853 13.9048C37.3104 13.7614 37.1823 13.6531 37.0284 13.6033M11.07 20.0067C10.8686 20.2525 10.6115 20.4467 10.32 20.5733C10.1319 20.6436 9.92478 20.6436 9.73669 20.5733C9.60335 20.5733 9.60335 20.3567 9.55335 20.2067C9.37091 19.6149 9.37091 18.9818 9.55335 18.39C9.79714 17.5331 10.1093 16.697 10.4867 15.89C10.8522 15.0544 11.2745 14.2483 11.7534 13.4717C12.1534 12.8861 12.5922 12.3306 13.07 11.805C13.07 12.105 12.8867 12.3717 12.8034 12.6717C12.271 14.8775 11.8152 17.101 11.4367 19.3383C11.3534 19.5717 11.2367 19.79 11.07 20.0067ZM20.005 24.34C20.8717 24.59 21.79 24.59 22.655 24.34C22.6132 24.4553 22.6067 24.5805 22.6363 24.6996C22.666 24.8187 22.7306 24.9262 22.8217 25.0083C22.937 25.1462 23.0001 25.3203 23.0001 25.5C23.0001 25.6797 22.937 25.8538 22.8217 25.9917C22.6963 26.156 22.5383 26.2926 22.3576 26.393C22.1769 26.4934 21.9775 26.5554 21.7717 26.575C21.2687 26.687 20.7531 26.7318 20.2384 26.7083C19.6801 26.7346 19.1208 26.6954 18.5717 26.5917C18.0488 26.478 17.5441 26.2929 17.0717 26.0417C17.2884 25.6417 17.505 25.2583 17.6884 24.8583C17.8161 24.5883 17.9217 24.3106 18.005 24.025C18.0461 23.8806 18.0795 23.7361 18.105 23.5917C18.705 23.9183 19.3434 24.1683 20.005 24.34ZM11.82 25.01C12.2278 25.3033 12.6556 25.5644 13.1034 25.7933C13.2889 25.88 13.4834 25.9411 13.6867 25.9767C13.8922 25.9933 14.0978 25.9933 14.3034 25.9767C14.7889 25.9622 15.2722 25.9233 15.7534 25.86V26.2433C15.7021 26.3775 15.7021 26.5258 15.7534 26.66C15.2034 27.09 14.6811 27.5511 14.1867 28.0433C13.9081 28.3857 13.6466 28.7417 13.4034 29.11C13.12 29.5433 12.87 29.995 12.6034 30.4283C12.6034 30.0394 12.57 29.6561 12.5034 29.2783C12.4679 28.8726 12.3954 28.4709 12.2867 28.0783C12.0531 27.415 11.7397 26.7826 11.3534 26.195C11.3534 26.195 11.4534 26.0783 11.47 26.0117C11.57 25.645 11.67 25.2617 11.7534 24.8933C11.77 25.01 11.7867 25.01 11.82 25.01Z" fill="#2A292B"/>
<path fill-rule="evenodd" clip-rule="evenodd" d="M18.1383 35.7117C16.266 34.9808 14.2222 34.8071 12.2533 35.2117L10.2867 35.7117L8.16835 36.0117C7.73057 36.0284 7.29724 35.9951 6.86835 35.9117C6.46724 35.8279 6.08005 35.6876 5.71835 35.4951C5.03502 35.1451 4.56835 34.7284 4.48502 34.2117C4.45165 33.8907 4.50521 33.5666 4.64009 33.2734C4.77497 32.9802 4.98621 32.7286 5.25168 32.5451C5.88648 32.0004 6.62287 31.5869 7.41835 31.3284C8.25359 31.0656 9.12631 30.9418 10.0017 30.9617C10.1343 30.94 10.2548 30.8718 10.3418 30.7693C10.4287 30.6669 10.4765 30.5369 10.4765 30.4026C10.4765 30.2682 10.4287 30.1382 10.3418 30.0358C10.2548 29.9334 10.1343 29.8652 10.0017 29.8434C9.01588 29.7361 8.01912 29.7924 7.05168 30.0101C6.03346 30.234 5.0702 30.659 4.21835 31.2601C3.68235 31.5862 3.24439 32.0511 2.95074 32.6055C2.65708 33.16 2.51863 33.7834 2.55002 34.4101C2.63982 35.0384 2.88293 35.635 3.25789 36.1472C3.63285 36.6594 4.12814 37.0713 4.70002 37.3467C5.21668 37.6501 5.78002 37.8701 6.36668 37.9967C6.95835 38.1217 7.56335 38.1717 8.16668 38.1467C8.61113 38.1345 9.05057 38.0901 9.48502 38.0134C9.90168 38.0134 10.3183 37.8467 10.735 37.7467L12.735 37.0967C14.2578 36.6373 15.8823 36.6373 17.405 37.0967C17.6717 37.2134 17.9217 37.3301 17.9883 37.5801C18.055 37.8301 17.9883 38.3801 17.505 38.9801C17.4302 39.0808 17.3867 39.2014 17.3801 39.3266C17.3734 39.4519 17.4038 39.5764 17.4674 39.6845C17.5311 39.7927 17.6252 39.8796 17.738 39.9346C17.8508 39.9895 17.9773 40.01 18.1017 39.9934C18.1845 39.982 18.2643 39.9544 18.3363 39.9121C18.4084 39.8697 18.4714 39.8135 18.5217 39.7467C18.8495 39.4189 19.0968 39.0195 19.2443 38.5799C19.3918 38.1404 19.4354 37.6726 19.3717 37.2134C19.2859 36.8895 19.1313 36.5878 18.9185 36.329C18.7057 36.0702 18.4396 35.8585 18.1383 35.7117Z" fill="#2A292B"/>
</svg>
