<svg width="36" height="36" viewBox="0 0 36 36" fill="none" xmlns="http://www.w3.org/2000/svg">
<path opacity="0.987" fill-rule="evenodd" clip-rule="evenodd" d="M16.2206 2.3873C17.8518 2.20505 18.8171 2.20505 20.5698 2.3873C23.6724 2.84651 26.5485 4.28064 28.7823 6.4823C27.2728 7.9091 25.7832 9.35674 24.3138 10.8248C21.4998 8.4398 18.3588 7.8893 14.8908 9.1733C12.3468 10.3433 10.5753 12.2393 9.5763 14.8613C7.94379 13.6459 6.33255 12.4022 4.7433 11.1308C4.63285 11.0727 4.50671 11.0514 4.3833 11.07C6.9078 6.20255 10.8528 3.30755 16.2183 2.38505" fill="#F44336"/>
<path opacity="0.997" fill-rule="evenodd" clip-rule="evenodd" d="M4.37858 11.07C4.50608 11.0505 4.62683 11.0708 4.74083 11.1308C6.33008 12.4022 7.94132 13.6459 9.57383 14.8613C9.31694 15.8829 9.155 16.9261 9.09008 17.9775C9.14558 18.9945 9.30683 19.9928 9.57383 20.9723L4.50008 25.011C2.29058 20.394 2.25008 15.747 4.37858 11.07Z" fill="#FFC107"/>
<path opacity="0.999" fill-rule="evenodd" clip-rule="evenodd" d="M28.5412 29.9025C26.9614 28.5093 25.3074 27.2024 23.5867 25.9875C25.3117 24.7695 26.3587 23.0985 26.7277 20.9745H18.2744V15.1043C23.1494 15.0638 28.0222 15.105 32.8927 15.228C33.8167 20.2455 32.7494 24.7695 29.6909 28.8C29.3272 29.1866 28.942 29.5546 28.5412 29.9025Z" fill="#448AFF"/>
<path opacity="0.993" fill-rule="evenodd" clip-rule="evenodd" d="M9.57375 20.9745C11.4188 25.56 14.8013 27.7005 19.7213 27.396C21.1024 27.2361 22.4265 26.7536 23.5867 25.9875C25.3087 27.2055 26.9603 28.5105 28.5413 29.9025C26.0362 32.1535 22.8423 33.4891 19.4805 33.6915C18.7167 33.7525 17.9493 33.7525 17.1855 33.6915C11.4585 33.0165 7.23 30.123 4.5 25.011L9.57375 20.9745Z" fill="#43A047"/>
</svg>
