<svg width="528" height="721" viewBox="0 0 528 721" fill="none" xmlns="http://www.w3.org/2000/svg">
<rect width="528" height="721" rx="20" fill="#C8CEFC"/>
<path d="M476.144 356.37C482.963 390.292 496.783 459.043 463.71 505.036C404.612 587.223 202.077 583.695 113.331 477.385C107.133 469.961 55.1536 405.637 70.9865 323.832C91.3886 218.417 213.136 142.149 309.761 162.817C370.887 175.892 410.017 225.198 425.895 245.231C432.652 253.755 463.595 293.944 476.144 356.37Z" fill="#F4F7FA"/>
<path d="M153.876 353.167C153.992 353.254 154.108 353.34 154.225 353.426C161.134 358.526 169.609 362.909 180.073 365.845C182.154 366.277 184.236 366.709 186.317 367.141C189.262 362.782 191.264 358.122 185.454 354.745C176.432 349.499 180.524 332.708 184.73 327.446C189.936 320.933 201.739 305.526 187.922 297.203C176.419 290.274 167.544 288.095 170.728 272.189C173.911 256.282 167.659 244.333 152.822 241.677C137.208 238.883 129.769 215.851 115.46 219.425C90.5282 225.652 101.448 265.115 125.524 281.69C149.599 298.264 131.879 303.872 127.838 316.536C122.321 333.825 147.599 336.057 152.238 344.523C153.81 347.39 154.165 350.366 153.876 353.167Z" fill="url(#paint0_linear_39_1679)"/>
<mask id="mask0_39_1679" style="mask-type:luminance" maskUnits="userSpaceOnUse" x="101" y="219" width="94" height="152">
<path d="M150.668 362.654L184.203 370.626C187.314 366.463 191.944 358.518 185.454 354.745C176.432 349.5 180.524 332.708 184.73 327.446C189.936 320.934 201.739 305.526 187.922 297.203C176.419 290.275 167.544 288.096 170.728 272.189C173.911 256.282 167.659 244.333 152.822 241.677C137.208 238.883 129.769 215.851 115.46 219.425C90.5283 225.652 101.448 265.115 125.524 281.69C149.599 298.264 131.879 303.871 127.838 316.536C122.321 333.825 147.599 336.057 152.238 344.523C155.875 351.159 153.014 358.38 150.668 362.654Z" fill="white"/>
</mask>
<g mask="url(#mask0_39_1679)">
<g opacity="0.5">
<path d="M167.745 361.265L168.492 361.298C170.941 308.037 146.866 253.878 105.661 219.956L105.179 220.513C146.21 254.292 170.184 308.225 167.745 361.265Z" fill="#FCFDFE"/>
<path d="M166.529 332.115L167.255 332.291C172.438 311.958 194.333 300.434 194.553 300.32L194.203 299.675C193.979 299.791 171.794 311.461 166.529 332.115Z" fill="#FCFDFE"/>
<path d="M167.921 351.455L168.645 351.274C163.23 330.698 125.466 318.822 125.085 318.704L124.859 319.4C125.236 319.516 162.609 331.271 167.921 351.455Z" fill="#FCFDFE"/>
<path d="M151.975 281.822L152.713 281.702C149.862 265.082 165.791 244.429 165.952 244.223L165.357 243.781C165.194 243.99 149.072 264.895 151.975 281.822Z" fill="#FCFDFE"/>
<path d="M134.908 252.334L135.442 251.823C121.647 238.12 95.0523 237.4 94.7849 237.395L94.7686 238.124C95.0325 238.129 121.327 238.844 134.908 252.334Z" fill="#FCFDFE"/>
</g>
</g>
<mask id="mask1_39_1679" style="mask-type:luminance" maskUnits="userSpaceOnUse" x="107" y="171" width="112" height="217">
<path d="M198.691 387.911L161.601 387.788C161.601 387.788 154.684 369.215 163.819 356.154C182.457 329.505 157.217 315.45 147.549 308.021C132.968 296.818 125.131 280.745 146.651 273.831C168.17 266.916 146.682 234.365 120.46 219.581C94.8002 205.113 106.372 152.293 164.859 178.635C199.787 194.366 194.182 230.509 195.802 249.417C197.422 268.326 226.252 269.985 216.303 293.044C207.804 312.741 191.738 327.07 203.914 340.671C216.089 354.272 217.301 369.481 198.691 387.911Z" fill="white"/>
</mask>
<g mask="url(#mask1_39_1679)">
<path d="M198.692 387.911L161.602 387.788C161.602 387.788 154.684 369.215 163.819 356.154C182.457 329.505 157.217 315.45 147.549 308.021C132.968 296.818 126.576 282.384 144.19 273.093C164.118 262.58 146.683 234.365 120.461 219.581C94.8007 205.113 106.372 152.293 164.859 178.635C199.788 194.366 194.183 230.509 195.803 249.417C197.423 268.326 226.252 269.985 216.303 293.044C207.805 312.741 191.739 327.07 203.914 340.671C216.09 354.272 217.301 369.481 198.692 387.911Z" fill="url(#paint1_linear_39_1679)"/>
</g>
<mask id="mask2_39_1679" style="mask-type:luminance" maskUnits="userSpaceOnUse" x="107" y="171" width="112" height="217">
<path d="M198.691 387.911L161.601 387.788C161.601 387.788 154.684 369.215 163.819 356.154C182.457 329.505 157.217 315.45 147.549 308.021C132.968 296.818 125.131 280.745 146.651 273.831C168.17 266.916 146.682 234.365 120.46 219.581C94.8002 205.113 106.372 152.293 164.859 178.635C199.787 194.366 194.182 230.509 195.802 249.417C197.422 268.326 226.252 269.985 216.303 293.044C207.804 312.741 191.738 327.07 203.914 340.671C216.089 354.272 217.301 369.481 198.691 387.911Z" fill="white"/>
</mask>
<g mask="url(#mask2_39_1679)">
<g opacity="0.5">
<path d="M182.627 391.214L181.857 391.074C181.946 390.609 190.691 344.043 185.083 295.332C179.917 250.456 161.157 194.524 101.125 182.908L101.277 182.159C128.001 187.33 148.908 201.56 163.418 224.453C175.009 242.74 182.561 266.564 185.863 295.262C191.481 344.085 182.716 390.748 182.627 391.214Z" fill="#BEB8F2"/>
<path d="M169.058 234.274L168.281 234.177C171.589 208.974 161.861 173.125 161.762 172.766L162.518 172.568C162.617 172.929 172.385 208.923 169.058 234.274Z" fill="#BEB8F2"/>
<path d="M158.961 219.279C132.658 203.181 108.005 210.782 107.759 210.86L107.515 210.135C107.764 210.055 132.752 202.337 159.377 218.633L158.961 219.279Z" fill="#BEB8F2"/>
<path d="M186.97 327.372C178.341 291.351 128.162 282.358 127.666 282.31L127.691 281.548C128.183 281.549 179.027 290.858 187.732 327.199L186.97 327.372Z" fill="#BEB8F2"/>
<path d="M187.264 312.122L186.498 311.964C191.509 288.87 217.275 273.054 217.535 272.897L217.948 273.546C217.691 273.701 192.204 289.351 187.264 312.122Z" fill="#BEB8F2"/>
<path d="M183.068 383.717C181.988 369.704 161.512 358.544 161.305 358.432L161.683 357.764C162.542 358.225 182.737 369.234 183.849 383.66L183.068 383.717Z" fill="#BEB8F2"/>
<path d="M185.29 372.717L184.519 372.586C186.475 361.64 203.498 349.495 209.092 345.504C209.882 344.94 210.564 344.454 210.669 344.344L211.252 344.853C211.107 345.01 210.654 345.335 209.554 346.12C204.023 350.066 187.192 362.074 185.29 372.717Z" fill="#BEB8F2"/>
</g>
</g>
<path d="M367.168 367.326C371.25 375.921 367.36 384.519 363.626 390.306C362.735 390.311 362.218 390.552 361.318 390.766C353.198 392.691 349.39 391.712 341.134 392.294C339.358 392.419 334.079 391.128 331.959 390.455L328.026 389.133C328.026 389.133 321.047 368.225 332.014 362.45C342.98 356.675 338.781 335.868 337.862 324.52C335.367 293.729 369.495 296.528 369.533 256.712C369.543 246.122 365.931 225.923 375.089 217.488C385.522 207.878 393.138 217.305 399.847 209.269C410.331 196.71 427.346 192.204 437.488 205.13C447.497 217.887 435.335 243.282 405.099 263.692C385.109 280.73 384.797 285.831 386.37 298.252C387.472 306.953 395.985 329.618 383.872 338.669C371.759 347.72 362.501 357.5 367.168 367.326Z" fill="url(#paint2_linear_39_1679)"/>
<mask id="mask3_39_1679" style="mask-type:luminance" maskUnits="userSpaceOnUse" x="326" y="197" width="115" height="201">
<path d="M358.355 397.343L328.688 389.893C328.688 389.893 321.047 368.225 332.013 362.45C342.98 356.675 338.781 335.868 337.862 324.52C335.367 293.73 369.495 296.528 369.533 256.712C369.543 246.122 365.931 225.923 375.088 217.488C385.522 207.879 393.138 217.305 399.846 209.27C410.331 196.71 427.346 192.204 437.488 205.13C447.497 217.887 435.335 243.282 405.099 263.692C385.109 280.73 384.797 285.831 386.37 298.253C387.472 306.953 395.985 329.619 383.872 338.669C371.759 347.72 362.501 357.5 367.168 367.326C374.269 382.278 358.355 397.343 358.355 397.343Z" fill="white"/>
</mask>
<g mask="url(#mask3_39_1679)">
<g opacity="0.5">
<path d="M345.433 392.618L344.83 392.545C345.278 389.044 345.774 385.518 346.304 382.066C350.231 356.508 356.463 332.233 364.827 309.913C371.915 291.001 380.629 273.226 390.727 257.082C398.848 244.098 407.904 232.094 417.644 221.402C424.492 213.887 431.603 207.092 438.783 201.208C440.034 200.182 441.372 199.202 442.666 198.253C444.39 196.99 446.173 195.683 447.763 194.26L448.174 194.696C446.562 196.139 444.767 197.455 443.031 198.727C441.743 199.67 440.412 200.646 439.174 201.661C432.017 207.527 424.926 214.301 418.098 221.796C408.382 232.461 399.348 244.437 391.245 257.39C381.168 273.501 372.472 291.241 365.398 310.116C357.047 332.398 350.825 356.635 346.904 382.154C346.375 385.601 345.88 389.121 345.433 392.618Z" fill="#FCFDFE"/>
<path d="M379.794 277.525L379.244 277.273C390.317 254.264 380.594 211.755 380.494 211.328L381.087 211.197C381.187 211.626 390.956 254.331 379.794 277.525Z" fill="#FCFDFE"/>
<path d="M354.606 344.537L354.03 344.35C359.678 327.855 391.352 315.122 391.672 314.995L391.901 315.544C391.584 315.669 360.166 328.3 354.606 344.537Z" fill="#FCFDFE"/>
<path d="M352.231 354.167L351.63 354.081C353.306 342.848 349.435 326.655 340.731 308.486C340.293 307.573 340.293 307.573 340.308 307.461L340.91 307.539L340.609 307.5L340.902 307.427C340.924 307.491 341.089 307.836 341.281 308.235C350.035 326.508 353.924 342.82 352.231 354.167Z" fill="#FCFDFE"/>
<path d="M346.342 386.24L345.792 385.991C351.192 374.65 369.651 370.174 369.837 370.13L369.98 370.706C369.797 370.749 351.619 375.159 346.342 386.24Z" fill="#FCFDFE"/>
<path d="M344.514 392.664C342.225 382.832 336.966 373.318 328.436 363.581L328.898 363.196C337.494 373.008 342.795 382.605 345.106 392.533L344.514 392.664Z" fill="#FCFDFE"/>
<path d="M412.467 228.184L411.933 227.903C418.82 215.445 423.094 200.8 424.499 195.988C424.839 194.823 424.96 194.413 425.027 194.278L425.573 194.537C425.523 194.641 425.329 195.307 425.083 196.15C423.674 200.978 419.386 215.669 412.467 228.184Z" fill="#FCFDFE"/>
<path d="M398.195 246.825L397.77 246.403C407.471 237.093 434.693 237.391 435.847 237.408L435.837 238C435.558 237.996 407.715 237.689 398.195 246.825Z" fill="#FCFDFE"/>
</g>
</g>
<mask id="mask4_39_1679" style="mask-type:luminance" maskUnits="userSpaceOnUse" x="312" y="251" width="155" height="202">
<path d="M318.997 441.79L354.389 452.606C354.389 452.606 366.742 436.941 362.085 421.798C352.583 390.903 381 384.945 392.52 380.714C409.892 374.333 422.347 361.323 403.978 348.388C385.61 335.454 416.186 310.76 445.765 304.397C474.711 298.17 480.06 244.411 416.142 252.28C377.97 256.98 372.105 293.084 364.697 310.63C357.29 328.176 329.294 321.259 331.627 346.172C333.62 367.452 344.491 385.846 328.668 395.222C312.844 404.597 306.973 418.737 318.997 441.79Z" fill="white"/>
</mask>
<g mask="url(#mask4_39_1679)">
<path d="M318.997 441.79L354.389 452.606C354.389 452.606 366.742 436.941 362.085 421.798C352.583 390.903 381 384.945 392.52 380.714C409.892 374.333 420.461 362.458 406.553 348.41C390.817 332.516 416.186 310.76 445.765 304.397C474.711 298.17 480.06 244.411 416.142 252.28C377.97 256.98 372.105 293.084 364.697 310.63C357.29 328.176 329.294 321.259 331.627 346.172C333.62 367.452 344.491 385.846 328.668 395.222C312.844 404.597 306.973 418.737 318.997 441.79Z" fill="url(#paint3_linear_39_1679)"/>
</g>
<mask id="mask5_39_1679" style="mask-type:luminance" maskUnits="userSpaceOnUse" x="312" y="251" width="155" height="202">
<path d="M318.997 441.79L354.389 452.606C354.389 452.606 366.742 436.941 362.085 421.798C352.583 390.903 381 384.945 392.52 380.714C409.892 374.333 422.347 361.323 403.978 348.388C385.61 335.454 416.186 310.76 445.765 304.397C474.711 298.17 480.06 244.411 416.142 252.28C377.97 256.98 372.105 293.084 364.697 310.63C357.29 328.176 329.294 321.259 331.627 346.172C333.62 367.452 344.491 385.846 328.668 395.222C312.844 404.597 306.973 418.737 318.997 441.79Z" fill="white"/>
</mask>
<g mask="url(#mask5_39_1679)">
<g opacity="0.5">
<path d="M333.286 449.674L334.063 449.767C334.122 449.298 340.227 402.334 360.677 357.555C379.517 316.302 414.743 268.517 475.568 275.139L475.655 274.381C448.579 271.432 424.238 278.834 403.308 296.379C386.588 310.394 372.002 330.877 359.955 357.259C339.461 402.141 333.345 449.204 333.286 449.674Z" fill="#BEB8F2"/>
<path d="M394.886 304.078L395.656 304.215C400.319 279.216 420.708 247.912 420.913 247.599L420.254 247.188C420.048 247.502 399.576 278.933 394.886 304.078Z" fill="#BEB8F2"/>
<path d="M409.161 292.761C439.224 285.169 460.367 299.681 460.577 299.829L461.035 299.209C460.822 299.06 439.397 284.337 408.964 292.022L409.161 292.761Z" fill="#BEB8F2"/>
<path d="M348.943 387.54C368.339 355.748 418.958 361.966 419.446 362.067L419.658 361.333C419.189 361.19 367.838 355.075 348.271 387.15L348.943 387.54Z" fill="#BEB8F2"/>
<path d="M353.391 372.916L354.17 372.992C356.555 349.502 336.899 326.831 336.7 326.604L336.105 327.101C336.302 327.325 355.743 349.755 353.391 372.916Z" fill="#BEB8F2"/>
<path d="M335.19 442.398C340.565 429.359 363.544 424.756 363.775 424.711L363.622 423.963C362.66 424.149 339.997 428.69 334.464 442.113L335.19 442.398Z" fill="#BEB8F2"/>
<path d="M336.482 431.257L337.258 431.359C338.788 420.349 326.328 403.755 322.233 398.303C321.655 397.532 321.155 396.867 321.09 396.731L320.376 397.045C320.465 397.237 320.796 397.68 321.602 398.754C325.65 404.145 337.97 420.552 336.482 431.257Z" fill="#BEB8F2"/>
</g>
</g>
<path d="M352.497 450.531C352.365 450.591 352.232 450.651 352.099 450.711C344.228 454.244 334.985 456.751 324.118 457.426C321.99 457.412 319.863 457.398 317.735 457.384C315.818 452.51 314.89 447.54 321.309 445.458C331.276 442.225 330.979 424.969 328.03 418.948C324.381 411.497 316.248 393.978 331.576 388.743C344.337 384.385 353.485 384.116 353.881 367.914C354.276 351.712 363.015 341.351 378.091 341.864C393.957 342.405 406.296 321.47 419.484 327.956C442.461 339.259 423.101 375.515 395.936 386.66C368.771 397.805 384.842 406.993 385.998 420.208C387.577 438.249 362.398 435.135 356.001 442.431C353.835 444.903 352.832 447.735 352.497 450.531Z" fill="url(#paint4_linear_39_1679)"/>
<mask id="mask6_39_1679" style="mask-type:luminance" maskUnits="userSpaceOnUse" x="316" y="326" width="114" height="136">
<path d="M353.54 460.467L319.032 461.231C316.911 456.513 314.14 447.784 321.309 445.458C331.276 442.225 330.98 424.968 328.031 418.948C324.381 411.497 316.248 393.978 331.577 388.743C344.337 384.385 353.486 384.116 353.881 367.914C354.276 351.712 363.016 341.35 378.092 341.864C393.957 342.405 406.297 321.469 419.484 327.956C442.462 339.259 423.102 375.514 395.937 386.66C368.772 397.805 384.842 406.993 385.999 420.208C387.578 438.249 362.398 435.134 356.002 442.431C350.987 448.151 352.19 455.802 353.54 460.467Z" fill="white"/>
</mask>
<g mask="url(#mask6_39_1679)">
<g opacity="0.5">
<path d="M337.168 455.535L336.431 455.41C345.773 402.88 381.219 355.027 428.936 330.527L429.284 331.172C381.769 355.57 346.471 403.223 337.168 455.535Z" fill="#FCFDFE"/>
<path d="M344.778 427.32L344.031 427.34C343.449 406.396 324.604 390.555 324.414 390.398L324.898 389.842C325.091 390.001 344.187 406.046 344.778 427.32Z" fill="#FCFDFE"/>
<path d="M339.157 445.917L338.49 445.588C348.312 426.627 387.811 422.937 388.209 422.902L388.276 423.628C387.883 423.663 348.793 427.316 339.157 445.917Z" fill="#FCFDFE"/>
<path d="M370.072 381.249L369.378 380.977C375.824 365.342 364.818 341.836 364.706 341.6L365.385 341.293C365.498 341.532 376.638 365.325 370.072 381.249Z" fill="#FCFDFE"/>
<path d="M393.239 356.024L392.83 355.413C409.323 344.919 435.455 349.785 435.717 349.836L435.572 350.552C435.313 350.501 409.475 345.693 393.239 356.024Z" fill="#FCFDFE"/>
</g>
</g>
<path d="M368.01 171.794V526.024C368.01 531.322 363.368 532.462 358.105 532.629L177.697 541.726L174.964 541.813C169.356 541.992 164.759 537.654 164.759 532.173V165.646C164.759 160.164 169.356 155.826 174.964 156.005L178.673 156.124L359.741 169.854C365.005 170.022 368.01 166.497 368.01 171.794Z" fill="url(#paint5_linear_39_1679)"/>
<path d="M373.631 171.794V526.024C373.631 531.322 369.331 535.793 364.068 535.961L180.584 541.813C174.976 541.992 170.38 537.654 170.38 532.173V165.646C170.38 160.164 174.976 155.826 180.584 156.005L364.068 161.858C369.331 162.025 373.631 166.497 373.631 171.794Z" fill="url(#paint6_linear_39_1679)"/>
<path d="M367.692 191.268V519.42C367.692 524.365 363.674 528.535 358.756 528.686L186.224 533.97C181.003 534.13 176.725 530.083 176.725 524.976V186.131C176.725 181.024 181.003 176.968 186.224 177.116L358.756 182.021C363.674 182.161 367.692 186.322 367.692 191.268Z" fill="url(#paint7_linear_39_1679)"/>
<path d="M277.147 169.956C277.147 171.823 275.622 173.291 273.739 173.236C271.856 173.18 270.328 171.62 270.328 169.752C270.328 167.883 271.856 166.415 273.739 166.472C275.622 166.53 277.147 168.09 277.147 169.956Z" fill="#DE8BDF"/>
<path d="M340.918 390.549L203.124 392.35C201.382 392.373 199.968 391.013 199.968 389.313V359.896C199.968 358.196 201.382 356.808 203.124 356.796L340.918 355.888C342.573 355.877 343.913 357.21 343.913 358.866V387.511C343.913 389.167 342.572 390.527 340.918 390.549Z" fill="#F4F7FA"/>
<path d="M340.605 444.735L203.453 447.917C201.529 447.962 199.968 446.476 199.968 444.598V415.824C199.968 413.946 201.529 412.398 203.453 412.365L340.605 410.072C342.432 410.041 343.913 411.499 343.913 413.327V441.347C343.913 443.176 342.432 444.692 340.605 444.735Z" fill="#F4F7FA"/>
<path d="M327.005 267.989C327.005 297.516 302.914 321.455 272.898 321.46C242.544 321.465 217.688 297.045 217.688 266.916C217.688 236.788 242.544 212.855 272.898 213.456C302.914 214.05 327.005 238.462 327.005 267.989Z" fill="white"/>
<path d="M295.206 251.455C295.206 263.621 285.243 273.392 272.912 273.28C260.536 273.166 250.47 263.146 250.47 250.9C250.47 238.653 260.536 228.883 272.912 229.077C285.243 229.27 295.206 239.289 295.206 251.455Z" fill="url(#paint8_linear_39_1679)"/>
<path d="M272.897 321.46C286.166 321.458 298.269 316.781 307.641 309.033C304.452 292.949 290.155 280.717 272.897 280.589C255.528 280.461 240.971 292.623 237.702 308.883C247.286 316.745 259.563 321.462 272.897 321.46Z" fill="url(#paint9_linear_39_1679)"/>
<path d="M291.864 378.036L216.661 378.835C214.102 378.863 212.007 376.837 212.007 374.334C212.007 371.831 214.102 369.765 216.661 369.742L291.864 369.067C294.351 369.044 296.383 371.042 296.383 373.507C296.383 375.971 294.351 378.009 291.864 378.036Z" fill="url(#paint10_linear_39_1679)"/>
<path d="M223.259 429.667C223.259 432.865 220.61 435.513 217.339 435.582C214.064 435.651 211.406 433.108 211.406 429.904C211.406 426.699 214.064 424.051 217.339 423.989C220.61 423.927 223.259 426.469 223.259 429.667Z" fill="url(#paint11_linear_39_1679)"/>
<path d="M245.433 429.225C245.433 432.41 242.805 435.047 239.56 435.115C236.312 435.183 233.675 432.651 233.675 429.459C233.675 426.268 236.312 423.63 239.56 423.569C242.805 423.508 245.433 426.04 245.433 429.225Z" fill="url(#paint12_linear_39_1679)"/>
<path d="M267.427 428.786C267.427 431.958 264.821 434.584 261.602 434.652C258.38 434.72 255.765 432.198 255.765 429.019C255.765 425.84 258.38 423.213 261.602 423.152C264.82 423.092 267.427 425.614 267.427 428.786Z" fill="url(#paint13_linear_39_1679)"/>
<path d="M289.243 428.351C289.243 431.51 286.658 434.126 283.465 434.193C280.269 434.26 277.675 431.748 277.675 428.582C277.675 425.416 280.269 422.8 283.465 422.74C286.658 422.679 289.243 425.192 289.243 428.351Z" fill="url(#paint14_linear_39_1679)"/>
<path d="M310.887 427.919C310.887 431.066 308.322 433.67 305.155 433.737C301.984 433.804 299.411 431.301 299.411 428.148C299.411 424.995 301.984 422.39 305.155 422.33C308.322 422.27 310.887 424.772 310.887 427.919Z" fill="url(#paint15_linear_39_1679)"/>
<path d="M272.889 322.771C257.834 322.771 243.652 316.961 232.954 306.41C222.242 295.846 216.343 281.82 216.343 266.916C216.343 251.887 222.328 237.891 233.195 227.509C243.875 217.306 257.98 211.846 272.924 212.145C287.785 212.44 301.724 218.412 312.174 228.962C322.604 239.492 328.349 253.352 328.349 267.989C328.349 282.631 322.601 296.384 312.165 306.715C301.708 317.066 287.763 322.769 272.897 322.771C272.895 322.771 272.891 322.771 272.889 322.771ZM271.774 214.756C257.968 214.756 244.975 219.925 235.077 229.381C224.73 239.267 219.032 252.597 219.032 266.916C219.032 281.125 224.655 294.497 234.866 304.567C245.055 314.615 258.559 320.149 272.889 320.15C272.892 320.15 272.894 320.15 272.897 320.15C301.991 320.145 325.66 296.746 325.66 267.989C325.66 239.218 301.979 215.342 272.87 214.767C272.505 214.759 272.138 214.756 271.774 214.756Z" fill="white"/>
<path opacity="0.3" d="M373.631 171.592C373.631 166.335 369.353 162.026 363.965 161.854L263.905 158.663C301.02 197.01 309.365 229.182 310.318 251.168C313.037 313.924 257.585 341.265 267.896 409.896C270.722 428.711 276.973 440.527 279.415 473.028C281.497 500.737 279.321 523.672 277.153 538.733L364.068 535.96C369.332 535.793 373.631 531.321 373.631 526.024L373.631 171.592Z" fill="url(#paint16_linear_39_1679)"/>
<path opacity="0.3" d="M225.481 348.387C226.536 318.158 215.912 305.521 213.096 302.425C211.108 300.239 209.266 298.69 195.518 287.624C185.304 279.403 176.791 272.588 170.749 267.76C170.626 352.443 170.503 437.126 170.38 521.81C174.496 489.305 182.408 464.792 188.427 449.139C205.276 405.322 224.128 387.174 225.481 348.387Z" fill="url(#paint17_linear_39_1679)"/>
<path d="M402.126 468.749C408.145 465.205 405.622 446.424 396.777 433.485C384.217 415.113 357.926 407.083 352.821 412.877C347.597 418.807 364.093 439.75 366.773 443.152C376.493 455.493 395.008 472.943 402.126 468.749Z" fill="url(#paint18_linear_39_1679)"/>
<path d="M470.462 546.436C469.43 547.766 469.377 550.057 470.474 551.088C471.551 552.101 472.946 551.15 477.127 550.909C481.605 550.652 482.865 551.578 485.826 550.499C487.022 550.062 489.114 549.072 488.995 548.222C488.912 547.624 487.781 547.41 483.989 546.527C478.605 545.274 478.62 545.178 477.494 545.095C474.664 544.887 471.824 544.678 470.462 546.436Z" fill="url(#paint19_linear_39_1679)"/>
<path d="M470.377 539.235L475.08 545.317C475.059 545.741 473.379 547.738 471.245 547.626L465.594 542.115L470.377 539.235Z" fill="url(#paint20_linear_39_1679)"/>
<path d="M446.163 561.917C445.16 563.269 445.156 565.56 446.275 566.568C447.375 567.559 448.749 566.579 452.923 566.253C457.395 565.903 458.675 566.804 461.611 565.664C462.798 565.203 464.868 564.17 464.731 563.323C464.634 562.727 463.499 562.536 459.688 561.731C454.28 560.588 454.292 560.493 453.164 560.433C450.331 560.283 447.487 560.132 446.163 561.917Z" fill="url(#paint21_linear_39_1679)"/>
<path d="M445.981 554.861L450.685 560.942C450.664 561.366 448.984 563.363 446.849 563.251L441.199 557.74L445.981 554.861Z" fill="url(#paint22_linear_39_1679)"/>
<path d="M303.577 415.894C310.617 413.265 321.408 410.114 334.829 409.626C349.94 409.077 362.076 408.635 370.722 415.293C399.489 437.443 385.388 495.814 383.309 502.309C380.836 510.031 376.133 515.277 376.133 515.277C373.311 518.424 370.542 520.263 369.042 521.23C347.403 535.19 333.951 543.868 319.748 540.322C317.858 539.85 309.271 536.947 304.531 529.981C303.686 528.739 303.157 527.148 303.024 524.924C300.818 488.181 305.262 451.287 303.577 415.894Z" fill="url(#paint23_linear_39_1679)"/>
<path opacity="0.3" d="M315.984 459.69C313.098 451.997 316.08 443.187 309.651 439.345C307.296 437.937 304.368 437.341 301.18 437.411C301.574 464.458 302.134 491.479 302.822 519.705C303.05 529.027 304.245 529.488 313.519 537.654C324.263 547.116 333.105 544.065 348.977 540.96C328.181 528.505 323.009 521.731 325.128 510.662C327.596 497.771 351.806 493.954 350.827 484.79C349.789 475.077 322.294 476.508 315.984 459.69Z" fill="url(#paint24_linear_39_1679)"/>
<path d="M310.213 416.382C303.069 412.492 286.642 423.559 277.667 433.101C273.495 437.535 258.97 452.974 263.488 472.838C264.224 476.076 267.623 491.211 282.75 498.135C296.294 504.334 314.169 501.96 328.182 491.97C330.087 490.366 331.993 488.762 333.899 487.158C335.761 485.251 337.624 483.345 339.486 481.438C336.363 479.327 331.077 476.31 323.749 474.519C312.581 471.788 307.556 475.613 304.797 472.649C301.399 468.999 308.974 462.707 310.959 446.642C311.495 442.306 318.192 420.728 310.213 416.382Z" fill="url(#paint25_linear_39_1679)"/>
<path d="M323.182 535.884C324.061 551.191 329.964 542.712 343.326 528.978C357.398 514.513 390.508 489.091 412.608 498.796C429.067 506.024 427.47 527.408 453.783 540.829C458.418 543.193 462.475 544.549 464.969 545.285C467.819 542.715 470.67 540.145 473.52 537.574C471.991 529.581 465.162 499.102 436.614 479.889C429.712 475.244 416.541 466.296 399.884 466.506C354.855 467.072 322.371 521.767 323.182 535.884Z" fill="url(#paint26_linear_39_1679)"/>
<path d="M302.436 528.783C302.625 537.69 308.589 545.854 315.309 549.84C330.227 558.688 352.567 549.141 365.08 539.378C380.305 527.5 380.3 515.862 388.08 515.92C400.169 516.009 402.277 544.192 429.255 557.953C433.89 560.317 437.947 561.672 440.441 562.409C443.291 559.838 446.142 557.268 448.992 554.697C444.314 537.438 437.071 524.897 431.73 517.092C425.067 507.356 418.654 497.985 406.235 491.193C393.159 484.042 380.665 483.71 375.357 483.629C341.872 483.12 301.945 505.547 302.436 528.783Z" fill="url(#paint27_linear_39_1679)"/>
<path d="M393.336 475.284L310.444 489.858L334.499 496.004L394.603 480.497L393.336 475.284Z" fill="url(#paint28_linear_39_1679)"/>
<path d="M307.957 492.556L307.957 492.556C308.26 494.064 309.498 495.227 311.055 495.464L339.492 500.517L338.207 493.496L310.444 489.858C308.901 489.727 307.659 491.074 307.957 492.556Z" fill="url(#paint29_linear_39_1679)"/>
<path d="M321.276 486.213C320.746 486.2 322.563 479.845 325.035 480.067C327.507 480.288 340.241 484.567 341.814 487.029C343.388 489.491 343.388 489.491 343.388 489.491C343.388 489.491 338.476 490.824 335.179 490.401C331.882 489.978 325.581 486.323 321.276 486.213Z" fill="url(#paint30_linear_39_1679)"/>
<path d="M335.667 443.063L333.848 496.049C333.785 497.877 336.6 500.386 338.462 500.161L424.893 488.523C426.315 488.351 427.423 487.239 427.557 485.848L434.497 434.289C434.678 432.418 431.124 430.763 429.206 430.958L338.401 440.202C336.885 440.356 335.718 441.577 335.667 443.063Z" fill="url(#paint31_linear_39_1679)"/>
<path d="M337.771 444.448L335.952 497.434C335.89 499.263 337.517 500.713 339.379 500.489L426.998 489.908C428.419 489.736 429.527 488.624 429.662 487.233L434.668 435.584C434.849 433.712 433.228 432.147 431.311 432.343L340.506 441.587C338.989 441.741 337.822 442.963 337.771 444.448Z" fill="url(#paint32_linear_39_1679)"/>
<path opacity="0.3" d="M392.486 480.083C384.56 477.48 386.799 471.228 377.143 464.361C364.406 455.302 352.55 460.52 347.681 453.128C346.164 450.825 345.238 447.136 347.081 440.918L340.506 441.587C338.989 441.741 337.822 442.963 337.771 444.448L335.952 497.434C335.89 499.263 337.517 500.713 339.379 500.489L426.998 489.908C428.419 489.736 429.527 488.624 429.662 487.233L430.353 480.106C427.572 478.856 424.281 477.777 420.503 477.317C407.403 475.722 401.611 483.08 392.486 480.083Z" fill="url(#paint33_linear_39_1679)"/>
<path d="M335.467 389.447C335.724 394.907 335.265 399.261 334.788 402.249C334.241 405.673 333.787 406.568 333.191 407.304C333.191 407.304 333.003 407.537 332.788 407.746C332.241 408.277 325.37 409.583 323.345 410.044C323.131 410.092 319.165 411.032 318.026 413.112C318.018 413.126 317.996 413.167 317.984 413.229C317.593 415.307 329.774 421.9 342.015 419.758C349.507 418.446 356.199 414.007 355.694 411.822C355.186 409.624 347.708 411.086 345.312 407.162C343.645 404.433 345.242 400.413 347.183 397.062C345.042 393.478 337.61 393.031 335.467 389.447Z" fill="url(#paint34_linear_39_1679)"/>
<path d="M351.539 395.815C356.326 394.461 359.414 378.389 355.387 376.446C353.46 375.517 352.033 378.845 344.357 381.822C338.213 384.206 335.616 383.435 333.916 386.064C332.236 388.661 333.269 392.422 333.797 395.089C334.027 396.246 334.795 396.791 335.401 397.759C336.24 399.101 337.548 401.23 339.667 404.774C340.08 403.952 340.653 402.947 341.44 401.894C341.743 401.488 342.948 399.91 346.514 397.548C348.792 396.039 350.991 395.97 351.539 395.815Z" fill="url(#paint35_linear_39_1679)"/>
<path d="M336.254 401.442C336.254 401.442 338.225 407.052 344.467 407.987C350.056 408.824 353.592 396.95 350.652 393.636C349.671 392.53 347.4 391.67 345.37 391.78C344.171 391.846 343.685 392.221 341.723 392.29C339.914 392.355 339.472 392.066 338.86 392.378C338.094 392.769 337.326 393.967 337.607 397.721C336.79 396.457 335.619 395.787 334.632 396.006C334.474 396.042 334.039 396.211 333.74 396.545C332.658 397.755 333.549 399.79 336.254 401.442Z" fill="url(#paint36_linear_39_1679)"/>
<path d="M338.774 391.604C338.996 391.854 337.965 392.646 337.594 394.001C336.875 396.631 338.91 400.412 341.661 401.288C343.287 401.806 343.966 400.928 346.779 401.236C348.52 401.427 349.889 401.944 350.737 402.325C350.941 405.424 349.471 408.153 347.169 409.07C344.691 410.057 342.144 408.586 341.079 407.971C340.367 407.559 338.084 406.246 337.296 403.769C336.475 401.187 338.103 400.088 336.917 398.206C336.319 397.257 335.377 396.699 334.729 394.971C334.553 394.501 334.455 394.099 334.401 393.83C336.155 392.667 338.453 391.241 338.774 391.604Z" fill="url(#paint37_linear_39_1679)"/>
<path d="M348.493 402.974C348.493 402.974 347.166 403.324 345.135 402.769C345.036 402.741 344.919 402.746 344.895 402.794C344.805 402.974 345.931 404.111 347.222 404.04C348.138 403.989 348.991 403.337 348.92 403.109C348.89 403.013 348.693 402.982 348.493 402.974Z" fill="url(#paint38_linear_39_1679)"/>
<path d="M74.8678 339.318C72.5706 332.739 74.1795 325.176 77.7247 319.889C83.7158 310.956 91.5244 314.061 99.3454 304.155C104.405 297.747 109.009 292.275 114.626 288.176C118.759 285.161 128.537 281.746 132.358 284.116C143.787 291.21 122.816 351.609 99.6946 355.047C90.443 356.423 78.3209 349.208 74.8678 339.318Z" fill="url(#paint39_linear_39_1679)"/>
<path d="M118.729 530.052C119.339 531.322 120.028 533.182 120.21 535.496C120.29 536.51 120.258 537.43 120.175 538.227C119.504 539.191 116.367 542.502 112.131 543.319C109.51 543.825 105.261 541.659 110.074 538.727C114.887 535.795 115.606 535.089 114.192 527.595C113.828 525.667 113.971 524.962 114.281 524.826C115.007 524.509 117.074 527.466 118.729 530.052Z" fill="url(#paint40_linear_39_1679)"/>
<path d="M140.924 535.777C141.534 537.046 142.223 538.906 142.405 541.22C142.485 542.234 142.453 543.154 142.37 543.951C141.699 544.915 138.562 548.226 134.326 549.044C131.705 549.549 127.457 547.383 132.27 544.451C137.082 541.519 137.802 540.814 136.387 533.319C136.023 531.391 136.166 530.686 136.477 530.55C137.202 530.234 139.269 533.19 140.924 535.777Z" fill="url(#paint41_linear_39_1679)"/>
<path d="M164.007 379.208C165.598 388.655 167.189 398.103 168.781 407.55C165.296 416.488 162.055 426.226 159.308 436.743C149.389 474.732 143.204 511.321 142.752 537.53C140.568 538.301 138.385 539.071 136.202 539.841C132.289 525.438 133.471 503.66 129.993 477.979C125.884 447.638 128.678 423.919 127.247 423.836C125.876 423.756 122.036 445.471 122.029 470.268C122.022 496.482 118.929 517.586 120.923 532.737C118.307 532.889 115.691 533.042 113.075 533.194C105.83 513.158 102.664 489.286 98.9967 457.721C96.4497 435.8 93.4437 406.679 108.464 376.636C109.964 373.635 115.201 366.976 116.182 365.33C133.407 368.543 146.782 375.995 164.007 379.208Z" fill="url(#paint42_linear_39_1679)"/>
<path opacity="0.25" d="M159.309 436.743C162.055 426.226 165.296 416.488 168.781 407.55C167.19 398.103 165.598 388.655 164.007 379.208C146.782 375.995 133.408 368.544 116.183 365.33C115.201 366.976 109.965 373.635 108.465 376.636C103.402 386.764 100.392 396.785 98.7178 406.462C132.042 406.108 141.686 412.873 144.341 419.11C148.568 429.037 135.714 439.105 140.262 459.196C141.629 465.239 143.672 468.216 143.912 475.786C144.227 485.719 140.901 486.682 140.381 496.787C139.811 507.842 135.884 518.648 137.725 526.484C138.87 531.356 140.21 535.317 141.241 538.064C141.745 537.886 142.248 537.708 142.753 537.53C143.205 511.321 149.39 474.732 159.309 436.743Z" fill="url(#paint43_linear_39_1679)"/>
<path d="M149.728 248.1C150.797 249.492 149.21 251.36 148.893 258.16C148.748 261.27 148.94 263.878 149.155 265.73C149.216 267.406 149.313 268.96 149.447 270.333C149.545 271.34 149.651 272.127 149.799 272.965C150.074 274.519 150.468 276.06 150.97 277.545C151.003 277.644 150.953 277.749 150.858 277.789C150.852 277.792 150.846 277.794 150.84 277.795C150.734 277.83 150.619 277.773 150.584 277.669C150.076 276.166 149.677 274.606 149.398 273.033C149.248 272.185 149.141 271.388 149.042 270.371C148.971 269.647 148.912 268.87 148.861 268.057C148.633 270.2 148.586 272.568 149.368 275.729C151.74 285.324 144.101 291.64 138.08 291.894C131.137 292.187 126.43 286.823 124.975 285.067C119.108 277.992 117.979 266.461 123.496 258.028C130.724 246.98 147.11 244.688 149.728 248.1Z" fill="url(#paint44_linear_39_1679)"/>
<path d="M132.171 257.338C132.468 256.266 133.811 251.893 137.917 249.151C145.706 243.949 158.192 248.123 165.351 254.249C172.842 260.658 169.727 265.092 177.09 272.21C185.088 279.94 190.701 276.564 201.817 284.031C206.189 286.968 217.973 294.883 218.76 307.232C219.441 317.902 211.701 328.587 202.231 332.709C186.017 339.767 165.713 327.163 156.133 315.572C146.945 304.456 153.145 301.735 140.081 280.265C135.358 272.502 129.951 265.353 132.171 257.338Z" fill="url(#paint45_linear_39_1679)"/>
<path d="M120.486 288.459C114.564 294.305 112.969 301.333 112.502 304.473C111.051 314.244 114.987 322.214 115.911 324.308C120.279 334.199 118.67 353.695 93.2114 395.678C95.6314 397.645 103.975 412.202 107.921 405.221C113.302 395.704 137.71 328.736 114.169 408.096C113.859 409.142 116.258 408.932 117.348 409.329C125.167 412.175 134.558 414.247 145.228 414.118C161.951 413.915 174.693 408.389 181.43 404.837C176.862 394.453 172.08 380.401 170.034 363.345C166.131 330.808 174.252 304.568 179.912 290.418C174.751 286.94 158.404 276.866 139.062 280.121C134.244 280.932 126.724 282.302 120.486 288.459Z" fill="url(#paint46_linear_39_1679)"/>
<path opacity="0.3" d="M170.034 363.345C166.131 330.808 174.253 304.568 179.913 290.418C174.751 286.94 158.404 276.866 139.063 280.121C134.244 280.933 126.725 282.303 120.486 288.459C115.771 293.113 113.803 298.511 112.959 302.105C113.104 302.082 113.303 302.051 113.54 302.018C125.452 300.415 139.209 309.757 143.912 318.596C151.761 333.345 133.706 345.397 134.157 368.771C134.401 381.408 140.034 396.349 157.255 413.034C168.079 411.211 176.419 407.479 181.43 404.837C176.862 394.453 172.08 380.4 170.034 363.345Z" fill="url(#paint47_linear_39_1679)"/>
<path d="M143.585 268.419C141.888 271.777 140.455 275.978 142.324 278.795C143.462 280.512 145.346 281.468 147.207 282.369C151.604 284.499 153.645 283.634 154.513 284.926C156.423 287.77 151.014 298.623 142.191 299.565C133.41 300.503 125.463 291.175 126.785 287.235C127.977 283.68 136.622 284.795 138.167 280.302C138.945 278.041 137.521 275.529 136.271 273.828L135.237 273.916L143.585 268.419Z" fill="url(#paint48_linear_39_1679)"/>
<path opacity="0.4" d="M154.513 284.926C153.645 283.634 151.604 284.499 147.207 282.369C145.346 281.468 143.462 280.512 142.324 278.795C140.455 275.978 141.888 271.777 143.585 268.419L135.236 273.916L136.27 273.828C137.262 275.178 138.346 277.038 138.369 278.88C138.976 279.289 139.489 279.738 139.852 280.174C138.7 282.596 138.309 284.687 138.16 286.039C137.926 288.147 137.753 289.713 138.681 291.193C139.693 292.807 141.422 293.373 142.935 293.867C146.295 294.966 149.434 294.601 151.497 294.12C154.349 290.645 155.585 286.523 154.513 284.926Z" fill="url(#paint49_linear_39_1679)"/>
<path d="M142.044 271.655C142.044 271.655 142.336 275.967 138.032 276.689C132.729 277.578 129.806 264.019 130.964 263.029C132.306 261.881 133.994 263.885 137.345 262.546C138.757 261.982 139.71 259.937 140.793 261.798C142.024 263.916 141.992 268.024 141.992 268.024C141.992 268.024 143.079 266.806 143.482 267.994C144.008 269.549 142.949 270.747 142.044 271.655Z" fill="url(#paint50_linear_39_1679)"/>
<path d="M134.132 255.951C132.254 257.469 130.969 260.651 131.971 262.417C133.411 264.953 138.675 262.988 140.414 266.089C141.176 267.449 140.936 269.205 141.404 269.223C141.792 269.238 142.149 268.041 142.478 267.059C144.289 261.648 145.77 261.169 145.508 259.541C144.973 256.231 137.988 252.836 134.132 255.951Z" fill="url(#paint51_linear_39_1679)"/>
<path d="M165.297 289.952C171.146 290.314 171.734 288.604 178.208 293.228C196.799 306.506 208.857 343.958 190.422 362.06C180.169 372.128 161.457 378.275 145.538 370.59C132.58 364.335 127.8 351.968 126.64 348.656C126.853 345.337 127.066 342.017 127.28 338.697C134.559 346.353 140.812 348.288 145.348 348.525C153.069 348.928 156.276 344.435 169.483 343.725C174.628 343.449 177.502 343.95 178.102 342.586C179.342 339.764 168.114 335.217 162.826 326.852C158.971 320.754 156.636 310.035 165.297 289.952Z" fill="url(#paint52_linear_39_1679)"/>
<path d="M142.482 261.941C141.164 263.083 143.318 267.524 147.679 276.36C150.363 281.798 151.705 284.517 152.625 285.727C157.579 292.242 166.515 297.777 176.1 298.223C182.678 298.53 183.896 296.176 189.165 297.589C197.112 299.722 201.019 306.871 201.424 306.556C201.87 306.208 197.554 297.127 187.825 288.934C179.865 282.231 177.344 283.756 164.717 274.31C163.801 273.625 159.925 270.707 154.41 267.308C147.926 263.312 143.794 260.804 142.482 261.941Z" fill="url(#paint53_linear_39_1679)"/>
<path d="M90.726 311.96L104.246 344.569C104.475 345.174 104.977 345.641 105.607 345.836L121.193 350.662C122.803 351.161 124.343 349.732 123.913 348.139L115.581 317.309C115.391 316.604 114.845 315.038 113.465 314.611L94.4812 309.261C92.7891 308.772 90.1139 310.346 90.726 311.96Z" fill="url(#paint54_linear_39_1679)"/>
<path d="M90.5545 312.476L102.525 344.036C102.755 344.641 103.257 345.108 103.886 345.303L119.472 350.129C121.082 350.628 122.623 349.199 122.192 347.606L113.861 316.776C113.67 316.071 113.115 315.513 112.398 315.306L93.1733 309.749C91.4814 309.26 89.9424 310.863 90.5545 312.476Z" fill="url(#paint55_linear_39_1679)"/>
<path d="M128.112 341.367L126.473 339.875C126.473 339.875 124.143 336.768 122.387 335.263C120.632 333.758 118.913 333.455 117.05 334.903C115.186 336.351 116.769 338.746 118.116 340.836C118.936 342.107 121.246 342.913 123.169 343.4C124.521 343.743 126.888 345.465 126.888 345.465L128.112 341.367Z" fill="url(#paint56_linear_39_1679)"/>
<path d="M92.373 327.1L93.9164 325.513C93.9164 325.513 97.1223 323.268 98.6796 321.568C100.237 319.869 100.562 318.196 99.0922 316.367C97.6221 314.538 95.1529 316.063 92.9988 317.359C91.6883 318.148 90.8428 320.394 90.3273 322.264C89.9647 323.58 88.1802 325.874 88.1802 325.874L92.373 327.1Z" fill="url(#paint57_linear_39_1679)"/>
<path d="M87.9236 323.894C89.9219 324.866 91.9207 325.837 93.9191 326.809C94.5308 327.567 101.812 336.887 97.9251 345.824C97.4194 346.986 95.5075 351.382 91.7373 352.16C85.919 353.361 77.4429 345.585 77.7164 337.238C77.8996 331.643 81.9902 326.504 87.9236 323.894Z" fill="url(#paint58_linear_39_1679)"/>
<defs>
<linearGradient id="paint0_linear_39_1679" x1="133.435" y1="231.054" x2="176.82" y2="371.57" gradientUnits="userSpaceOnUse">
<stop stop-color="#FF9085"/>
<stop offset="1" stop-color="#FB6FBB"/>
</linearGradient>
<linearGradient id="paint1_linear_39_1679" x1="133.787" y1="177.226" x2="203.67" y2="383.174" gradientUnits="userSpaceOnUse">
<stop stop-color="#FFC444"/>
<stop offset="0.9964" stop-color="#F36F56"/>
</linearGradient>
<linearGradient id="paint2_linear_39_1679" x1="420.915" y1="193.191" x2="317.759" y2="424.506" gradientUnits="userSpaceOnUse">
<stop stop-color="#AA80F9"/>
<stop offset="0.9964" stop-color="#6165D7"/>
</linearGradient>
<linearGradient id="paint3_linear_39_1679" x1="446.199" y1="260.098" x2="317.272" y2="436.938" gradientUnits="userSpaceOnUse">
<stop offset="0.0036" stop-color="#E38DDD"/>
<stop offset="1" stop-color="#9571F6"/>
</linearGradient>
<linearGradient id="paint4_linear_39_1679" x1="399.365" y1="335.549" x2="326.997" y2="464.24" gradientUnits="userSpaceOnUse">
<stop stop-color="#FFC444"/>
<stop offset="0.9964" stop-color="#F36F56"/>
</linearGradient>
<linearGradient id="paint5_linear_39_1679" x1="410.411" y1="472.967" x2="240.277" y2="324.108" gradientUnits="userSpaceOnUse">
<stop stop-color="#444B8C"/>
<stop offset="0.9964" stop-color="#26264F"/>
</linearGradient>
<linearGradient id="paint6_linear_39_1679" x1="265.226" y1="523.508" x2="287.882" y2="-101.175" gradientUnits="userSpaceOnUse">
<stop stop-color="#444B8C"/>
<stop offset="0.9964" stop-color="#26264F"/>
</linearGradient>
<linearGradient id="paint7_linear_39_1679" x1="176.725" y1="355.543" x2="367.692" y2="355.543" gradientUnits="userSpaceOnUse">
<stop stop-color="#FF9085"/>
<stop offset="1" stop-color="#FB6FBB"/>
</linearGradient>
<linearGradient id="paint8_linear_39_1679" x1="236.729" y1="179.194" x2="397.346" y2="516.054" gradientUnits="userSpaceOnUse">
<stop stop-color="#AA80F9"/>
<stop offset="0.9964" stop-color="#6165D7"/>
</linearGradient>
<linearGradient id="paint9_linear_39_1679" x1="213.77" y1="190.141" x2="374.387" y2="527.002" gradientUnits="userSpaceOnUse">
<stop stop-color="#AA80F9"/>
<stop offset="0.9964" stop-color="#6165D7"/>
</linearGradient>
<linearGradient id="paint10_linear_39_1679" x1="171.999" y1="210.057" x2="332.617" y2="546.918" gradientUnits="userSpaceOnUse">
<stop stop-color="#AA80F9"/>
<stop offset="0.9964" stop-color="#6165D7"/>
</linearGradient>
<linearGradient id="paint11_linear_39_1679" x1="119.638" y1="235.023" x2="280.255" y2="571.885" gradientUnits="userSpaceOnUse">
<stop stop-color="#AA80F9"/>
<stop offset="0.9964" stop-color="#6165D7"/>
</linearGradient>
<linearGradient id="paint12_linear_39_1679" x1="137.75" y1="226.388" x2="298.368" y2="563.249" gradientUnits="userSpaceOnUse">
<stop stop-color="#AA80F9"/>
<stop offset="0.9964" stop-color="#6165D7"/>
</linearGradient>
<linearGradient id="paint13_linear_39_1679" x1="155.715" y1="217.822" x2="316.333" y2="554.682" gradientUnits="userSpaceOnUse">
<stop stop-color="#AA80F9"/>
<stop offset="0.9964" stop-color="#6165D7"/>
</linearGradient>
<linearGradient id="paint14_linear_39_1679" x1="173.536" y1="209.325" x2="334.154" y2="546.187" gradientUnits="userSpaceOnUse">
<stop stop-color="#AA80F9"/>
<stop offset="0.9964" stop-color="#6165D7"/>
</linearGradient>
<linearGradient id="paint15_linear_39_1679" x1="191.214" y1="200.896" x2="351.831" y2="537.757" gradientUnits="userSpaceOnUse">
<stop stop-color="#AA80F9"/>
<stop offset="0.9964" stop-color="#6165D7"/>
</linearGradient>
<linearGradient id="paint16_linear_39_1679" x1="263.905" y1="348.698" x2="373.631" y2="348.698" gradientUnits="userSpaceOnUse">
<stop stop-color="#FF9085"/>
<stop offset="1" stop-color="#FB6FBB"/>
</linearGradient>
<linearGradient id="paint17_linear_39_1679" x1="169.104" y1="394.732" x2="262.493" y2="398.295" gradientUnits="userSpaceOnUse">
<stop stop-color="#FF9085"/>
<stop offset="1" stop-color="#FB6FBB"/>
</linearGradient>
<linearGradient id="paint18_linear_39_1679" x1="372.662" y1="447.516" x2="383.081" y2="432.89" gradientUnits="userSpaceOnUse">
<stop stop-color="#AA80F9"/>
<stop offset="0.9964" stop-color="#6165D7"/>
</linearGradient>
<linearGradient id="paint19_linear_39_1679" x1="487.674" y1="544.736" x2="470.343" y2="551.369" gradientUnits="userSpaceOnUse">
<stop stop-color="#444B8C"/>
<stop offset="0.9964" stop-color="#26264F"/>
</linearGradient>
<linearGradient id="paint20_linear_39_1679" x1="476.936" y1="547.237" x2="461.944" y2="537.436" gradientUnits="userSpaceOnUse">
<stop stop-color="#FFC444"/>
<stop offset="0.9964" stop-color="#F36F56"/>
</linearGradient>
<linearGradient id="paint21_linear_39_1679" x1="463.335" y1="559.865" x2="446.156" y2="566.865" gradientUnits="userSpaceOnUse">
<stop stop-color="#444B8C"/>
<stop offset="0.9964" stop-color="#26264F"/>
</linearGradient>
<linearGradient id="paint22_linear_39_1679" x1="452.541" y1="562.862" x2="437.549" y2="553.062" gradientUnits="userSpaceOnUse">
<stop stop-color="#FFC444"/>
<stop offset="0.9964" stop-color="#F36F56"/>
</linearGradient>
<linearGradient id="paint23_linear_39_1679" x1="306.496" y1="510.147" x2="348.525" y2="451.152" gradientUnits="userSpaceOnUse">
<stop stop-color="#AA80F9"/>
<stop offset="0.9964" stop-color="#6165D7"/>
</linearGradient>
<linearGradient id="paint24_linear_39_1679" x1="307.979" y1="510.318" x2="351.485" y2="453.756" gradientUnits="userSpaceOnUse">
<stop stop-color="#AA80F9"/>
<stop offset="0.9964" stop-color="#6165D7"/>
</linearGradient>
<linearGradient id="paint25_linear_39_1679" x1="285.039" y1="485.39" x2="321.951" y2="427.776" gradientUnits="userSpaceOnUse">
<stop stop-color="#AA80F9"/>
<stop offset="0.9964" stop-color="#6165D7"/>
</linearGradient>
<linearGradient id="paint26_linear_39_1679" x1="388.727" y1="563.892" x2="418.533" y2="469.883" gradientUnits="userSpaceOnUse">
<stop stop-color="#444B8C"/>
<stop offset="0.9964" stop-color="#26264F"/>
</linearGradient>
<linearGradient id="paint27_linear_39_1679" x1="397.461" y1="486.356" x2="359.88" y2="582.777" gradientUnits="userSpaceOnUse">
<stop stop-color="#444B8C"/>
<stop offset="0.9964" stop-color="#26264F"/>
</linearGradient>
<linearGradient id="paint28_linear_39_1679" x1="370.975" y1="514.141" x2="356.011" y2="488.1" gradientUnits="userSpaceOnUse">
<stop stop-color="#311944"/>
<stop offset="1" stop-color="#893976"/>
</linearGradient>
<linearGradient id="paint29_linear_39_1679" x1="319.266" y1="482.465" x2="327.508" y2="506.59" gradientUnits="userSpaceOnUse">
<stop stop-color="#311944"/>
<stop offset="1" stop-color="#893976"/>
</linearGradient>
<linearGradient id="paint30_linear_39_1679" x1="321.42" y1="487.229" x2="342.101" y2="483.077" gradientUnits="userSpaceOnUse">
<stop stop-color="#FFC444"/>
<stop offset="0.9964" stop-color="#F36F56"/>
</linearGradient>
<linearGradient id="paint31_linear_39_1679" x1="393.824" y1="476.722" x2="372.537" y2="450.242" gradientUnits="userSpaceOnUse">
<stop stop-color="#444B8C"/>
<stop offset="0.9964" stop-color="#26264F"/>
</linearGradient>
<linearGradient id="paint32_linear_39_1679" x1="359.377" y1="524.919" x2="394.447" y2="435.253" gradientUnits="userSpaceOnUse">
<stop stop-color="#311944"/>
<stop offset="1" stop-color="#893976"/>
</linearGradient>
<linearGradient id="paint33_linear_39_1679" x1="333.9" y1="471.397" x2="429.093" y2="463.965" gradientUnits="userSpaceOnUse">
<stop stop-color="#311944"/>
<stop offset="1" stop-color="#893976"/>
</linearGradient>
<linearGradient id="paint34_linear_39_1679" x1="328.128" y1="432.344" x2="349.55" y2="381.832" gradientUnits="userSpaceOnUse">
<stop stop-color="#FFC444"/>
<stop offset="0.9964" stop-color="#F36F56"/>
</linearGradient>
<linearGradient id="paint35_linear_39_1679" x1="321.704" y1="422.378" x2="350.897" y2="377.541" gradientUnits="userSpaceOnUse">
<stop stop-color="#444B8C"/>
<stop offset="0.9964" stop-color="#26264F"/>
</linearGradient>
<linearGradient id="paint36_linear_39_1679" x1="343.161" y1="394.118" x2="334.906" y2="444.999" gradientUnits="userSpaceOnUse">
<stop stop-color="#FFC444"/>
<stop offset="0.9964" stop-color="#F36F56"/>
</linearGradient>
<linearGradient id="paint37_linear_39_1679" x1="329.29" y1="418.978" x2="350.175" y2="386.902" gradientUnits="userSpaceOnUse">
<stop stop-color="#444B8C"/>
<stop offset="0.9964" stop-color="#26264F"/>
</linearGradient>
<linearGradient id="paint38_linear_39_1679" x1="347.575" y1="401.056" x2="345.541" y2="407.239" gradientUnits="userSpaceOnUse">
<stop stop-color="#FFC444"/>
<stop offset="1" stop-color="#F36F56"/>
</linearGradient>
<linearGradient id="paint39_linear_39_1679" x1="87.5402" y1="282.955" x2="113.596" y2="331.498" gradientUnits="userSpaceOnUse">
<stop stop-color="#AA80F9"/>
<stop offset="0.9964" stop-color="#6165D7"/>
</linearGradient>
<linearGradient id="paint40_linear_39_1679" x1="108.722" y1="533.675" x2="120.534" y2="534.983" gradientUnits="userSpaceOnUse">
<stop stop-color="#AA80F9"/>
<stop offset="0.9964" stop-color="#6165D7"/>
</linearGradient>
<linearGradient id="paint41_linear_39_1679" x1="130.918" y1="539.4" x2="142.729" y2="540.707" gradientUnits="userSpaceOnUse">
<stop stop-color="#AA80F9"/>
<stop offset="0.9964" stop-color="#6165D7"/>
</linearGradient>
<linearGradient id="paint42_linear_39_1679" x1="97.3145" y1="453.075" x2="169.57" y2="451.786" gradientUnits="userSpaceOnUse">
<stop stop-color="#444B8C"/>
<stop offset="0.9964" stop-color="#26264F"/>
</linearGradient>
<linearGradient id="paint43_linear_39_1679" x1="94.2787" y1="448.217" x2="163.673" y2="455.595" gradientUnits="userSpaceOnUse">
<stop stop-color="#444B8C"/>
<stop offset="0.9964" stop-color="#26264F"/>
</linearGradient>
<linearGradient id="paint44_linear_39_1679" x1="249.635" y1="340.166" x2="124.05" y2="254.241" gradientUnits="userSpaceOnUse">
<stop stop-color="#311944"/>
<stop offset="1" stop-color="#6B3976"/>
</linearGradient>
<linearGradient id="paint45_linear_39_1679" x1="247.791" y1="342.859" x2="122.207" y2="256.934" gradientUnits="userSpaceOnUse">
<stop stop-color="#311944"/>
<stop offset="1" stop-color="#6B3976"/>
</linearGradient>
<linearGradient id="paint46_linear_39_1679" x1="121.635" y1="328.177" x2="214.968" y2="429.665" gradientUnits="userSpaceOnUse">
<stop stop-color="#AA80F9"/>
<stop offset="0.9964" stop-color="#6165D7"/>
</linearGradient>
<linearGradient id="paint47_linear_39_1679" x1="129.905" y1="321.967" x2="231.863" y2="404.492" gradientUnits="userSpaceOnUse">
<stop stop-color="#AA80F9"/>
<stop offset="0.9964" stop-color="#6165D7"/>
</linearGradient>
<linearGradient id="paint48_linear_39_1679" x1="141.3" y1="311.9" x2="140.142" y2="255.664" gradientUnits="userSpaceOnUse">
<stop stop-color="#FFC444"/>
<stop offset="0.9964" stop-color="#F36F56"/>
</linearGradient>
<linearGradient id="paint49_linear_39_1679" x1="141.625" y1="304.067" x2="147.934" y2="258.413" gradientUnits="userSpaceOnUse">
<stop stop-color="#FFC444"/>
<stop offset="0.9964" stop-color="#F36F56"/>
</linearGradient>
<linearGradient id="paint50_linear_39_1679" x1="136.695" y1="264.217" x2="144.776" y2="311.393" gradientUnits="userSpaceOnUse">
<stop stop-color="#FFC444"/>
<stop offset="0.9964" stop-color="#F36F56"/>
</linearGradient>
<linearGradient id="paint51_linear_39_1679" x1="253.189" y1="334.971" x2="127.604" y2="249.046" gradientUnits="userSpaceOnUse">
<stop stop-color="#311944"/>
<stop offset="1" stop-color="#6B3976"/>
</linearGradient>
<linearGradient id="paint52_linear_39_1679" x1="152.508" y1="322.393" x2="201.955" y2="382.794" gradientUnits="userSpaceOnUse">
<stop stop-color="#AA80F9"/>
<stop offset="0.9964" stop-color="#6165D7"/>
</linearGradient>
<linearGradient id="paint53_linear_39_1679" x1="249.797" y1="339.927" x2="124.213" y2="254.002" gradientUnits="userSpaceOnUse">
<stop stop-color="#311944"/>
<stop offset="1" stop-color="#6B3976"/>
</linearGradient>
<linearGradient id="paint54_linear_39_1679" x1="134.352" y1="313.617" x2="117.94" y2="324.18" gradientUnits="userSpaceOnUse">
<stop stop-color="#FFC444"/>
<stop offset="0.9964" stop-color="#F36F56"/>
</linearGradient>
<linearGradient id="paint55_linear_39_1679" x1="86.456" y1="323.589" x2="152.665" y2="345.157" gradientUnits="userSpaceOnUse">
<stop stop-color="#FF9085"/>
<stop offset="1" stop-color="#FB6FBB"/>
</linearGradient>
<linearGradient id="paint56_linear_39_1679" x1="117.654" y1="334.433" x2="132.365" y2="353.366" gradientUnits="userSpaceOnUse">
<stop stop-color="#FFC444"/>
<stop offset="0.9964" stop-color="#F36F56"/>
</linearGradient>
<linearGradient id="paint57_linear_39_1679" x1="99.5691" y1="316.96" x2="80.7725" y2="332.071" gradientUnits="userSpaceOnUse">
<stop stop-color="#FFC444"/>
<stop offset="0.9964" stop-color="#F36F56"/>
</linearGradient>
<linearGradient id="paint58_linear_39_1679" x1="98.4122" y1="328.6" x2="70.9712" y2="359.279" gradientUnits="userSpaceOnUse">
<stop stop-color="#AA80F9"/>
<stop offset="0.9964" stop-color="#6165D7"/>
</linearGradient>
</defs>
</svg>
