<svg width="25" height="25" viewBox="0 0 25 25" fill="none" xmlns="http://www.w3.org/2000/svg">
<path d="M12.5 25C19.4036 25 25 19.4036 25 12.5C25 5.59644 19.4036 0 12.5 0C5.59644 0 0 5.59644 0 12.5C0 19.4036 5.59644 25 12.5 25Z" fill="#F6EFE9"/>
<mask id="mask0_39_1472" style="mask-type:luminance" maskUnits="userSpaceOnUse" x="0" y="0" width="25" height="25">
<path d="M12.5 25C19.4036 25 25 19.4036 25 12.5C25 5.59644 19.4036 0 12.5 0C5.59644 0 0 5.59644 0 12.5C0 19.4036 5.59644 25 12.5 25Z" fill="white"/>
</mask>
<g mask="url(#mask0_39_1472)">
<path d="M24.3687 25.1778L23.2452 22.9093C23.2452 22.9093 22.6475 21.9667 21.3831 21.5299C21.3831 21.5299 18.5552 20.6792 18.1414 20.5413L16.923 19.8746C16.8644 19.9318 16.8024 19.9857 16.7403 20.0388C16.5272 20.2216 16.3027 20.3914 16.0704 20.5491C15.7344 20.7774 15.3806 20.9805 15.0109 21.1491C14.5838 21.344 14.134 21.4931 13.6705 21.5716C13.4256 21.6131 13.1772 21.6347 12.9287 21.6329C12.8023 21.632 12.6757 21.6162 12.5499 21.6183C12.3902 21.621 12.2306 21.6318 12.0709 21.6329C11.9088 21.634 11.7468 21.6253 11.5857 21.6075C11.1125 21.5553 10.6498 21.4255 10.2101 21.2449C9.82101 21.0852 9.44862 20.8858 9.09498 20.6584C8.83565 20.4917 8.58564 20.3099 8.34799 20.1132C8.33035 20.0986 8.08904 19.8678 8.07703 19.8744L6.85856 20.5412C6.44477 20.6791 3.61695 21.5297 3.61695 21.5297C2.35242 21.9665 1.75476 22.9092 1.75476 22.9092L0.631348 25.1777H24.3687V25.1778Z" fill="#363F20"/>
<path d="M14.3816 25.1778C16.5232 23.7206 17.4883 21.137 17.4883 21.137C11.7067 25.0701 6.98923 20.4552 6.98923 20.4552C6.58303 20.8735 6.01208 21.1025 5.60919 21.5239C5.46905 21.6705 5.33455 21.8392 5.20862 22.0164C5.04362 22.2485 4.89307 22.4955 4.76286 22.7273C4.51615 23.1665 4.34796 23.6552 4.32163 24.1608C4.30374 24.5043 4.35948 24.8561 4.48369 25.1777H14.3816V25.1778Z" fill="#232818"/>
<path d="M1.33398 23.6362C1.74337 23.4472 2.16622 23.2481 2.45899 22.9051C2.59349 22.7475 2.69553 22.5648 2.82341 22.4019C3.26305 21.8418 3.96177 21.5638 4.62693 21.3097C3.89415 21.506 3.21871 21.6739 2.55245 22.0366C2.47687 22.0778 2.40178 22.1214 2.33759 22.1786C2.24425 22.2619 2.17774 22.3703 2.11269 22.4772C1.87591 22.8654 1.57065 23.2479 1.33398 23.6362Z" fill="#232818"/>
<path d="M23.6651 23.6362C23.2558 23.4472 22.8329 23.2481 22.5401 22.9051C22.4056 22.7475 22.3037 22.5648 22.1757 22.4019C21.7361 21.8418 21.0373 21.5638 20.3721 21.3097C21.1048 21.506 21.7803 21.6739 22.4467 22.0366C22.5222 22.0778 22.5973 22.1214 22.6615 22.1786C22.7549 22.2619 22.8214 22.3703 22.8864 22.4772C23.1231 22.8654 23.4285 23.2479 23.6651 23.6362Z" fill="#232818"/>
<path d="M18.5689 9.25068C18.5162 9.23353 18.4618 9.22484 18.407 9.22484C18.3735 9.22484 18.3404 9.22814 18.3085 9.23476L18.2382 9.24933L18.2458 9.17792C18.3106 8.57206 18.338 8.06737 18.3319 7.58951C18.3258 7.22472 18.3008 6.92975 18.2534 6.6616C18.199 6.367 18.1209 6.05647 17.9194 5.78404C17.8745 5.73088 17.8346 5.68592 17.7901 5.63864C17.7501 5.59454 17.7067 5.54909 17.6569 5.49912C17.589 5.42831 17.5173 5.36008 17.4479 5.29418C17.4251 5.27262 17.4024 5.25094 17.3798 5.22926C17.162 5.03069 16.9757 4.87206 16.7945 4.7307C16.6191 4.59068 16.4276 4.4503 16.173 4.27526L15.8503 4.06371L15.5198 3.86685C15.0063 3.57507 14.5665 3.36119 14.1368 3.19447C13.9478 3.11265 13.7505 3.04589 13.5596 2.98133C13.5101 2.96455 13.4605 2.94789 13.4112 2.93086C13.3245 2.89877 13.234 2.87415 13.1466 2.85026C13.1119 2.84083 13.0772 2.83139 13.0427 2.82147L12.6699 2.71833C12.6671 2.7176 12.6636 2.7171 12.6606 2.7171H12.6572L12.5613 2.71686H12.5583C12.555 2.71686 12.5517 2.71735 12.5484 2.71821L12.1358 2.83029L11.9309 2.88603L11.7294 2.95303L11.3258 3.08912L10.93 3.24727C10.3619 3.48748 9.86648 3.74056 9.4168 4.02059C8.92644 4.32413 8.46451 4.66185 8.04349 5.02444C7.78698 5.25106 7.59699 5.43297 7.42795 5.61402C7.4195 5.6232 7.41068 5.63264 7.40174 5.64219C7.38642 5.6586 7.37099 5.6749 7.35604 5.69217C7.34882 5.70037 7.34196 5.70822 7.33497 5.71606C7.3177 5.73553 7.30141 5.75391 7.28353 5.77596C7.23416 5.84284 7.19508 5.9047 7.16544 5.9635C7.10346 6.0822 7.05274 6.21535 7.00975 6.37129C6.94237 6.62118 6.90085 6.89043 6.87917 7.21847C6.86177 7.4778 6.85785 7.75648 6.86728 8.07019C6.87819 8.41906 6.9033 8.77858 6.94384 9.1691L6.95034 9.23121L6.88811 9.2268C6.87586 9.22594 6.86349 9.22545 6.85124 9.22545C6.79709 9.22545 6.74442 9.23366 6.69469 9.24995C6.58848 9.28339 6.49085 9.34525 6.41184 9.42904C6.27514 9.57579 6.20311 9.78195 6.19796 10.0416C6.19429 10.2765 6.23961 10.4986 6.28457 10.6849C6.33381 10.8834 6.39702 11.075 6.47676 11.3016C6.51045 11.3955 6.54389 11.4899 6.57734 11.5844C6.68562 11.8902 6.79746 12.2066 6.92449 12.5123C6.96896 12.6191 7.01146 12.7157 7.05421 12.8075L7.06928 12.8393C7.10934 12.9237 7.15074 13.0111 7.20439 13.0914C7.27311 13.1938 7.35127 13.2635 7.43652 13.2984C7.48516 13.3185 7.53415 13.3286 7.58254 13.3286H7.58879C7.61904 13.328 7.64991 13.3218 7.68054 13.3106L7.72782 13.2931L7.74705 13.3396C7.92198 13.7623 8.15925 14.1907 8.45239 14.6128C8.64446 14.8794 8.81289 15.0939 8.98194 15.287C9.17573 15.5089 9.37539 15.7173 9.57518 15.9064C9.70148 16.0258 9.80046 16.1135 9.89588 16.1911L9.94806 16.2336L9.9755 16.2559L9.96509 16.2897C9.96264 16.2975 9.96154 16.3039 9.96166 16.3099L10.001 18.9369L10.0013 18.9612L9.9831 18.9771C9.86244 19.0825 9.72892 19.1887 9.54995 19.3213C9.3972 19.4342 9.23109 19.5514 9.04196 19.6796C8.82869 19.8236 8.61383 19.9633 8.40253 20.0956L8.40265 20.0958L8.39689 20.0993C8.40596 20.107 8.41502 20.1147 8.42409 20.1225L8.45104 20.1455L8.45349 20.1476L8.45557 20.1499C9.53047 21.3137 11.8646 21.6537 11.8915 21.6566C12.0212 21.6652 12.4921 21.6248 12.6234 21.6248C14.398 21.6248 15.719 20.8291 16.3484 20.355L16.3623 20.3444H16.3797L16.4162 20.3443C16.4269 20.3286 16.438 20.3151 16.4503 20.3031C16.5265 20.2288 16.6144 20.1558 16.7274 20.0735C16.7343 20.0683 16.7417 20.0637 16.7493 20.0593C16.5611 19.9341 16.3654 19.7972 16.1536 19.6429C15.9842 19.5186 15.8319 19.4024 15.6882 19.2878C15.5235 19.156 15.3919 19.0441 15.2742 18.9355L15.257 18.9196L15.2574 18.8962L15.2961 16.3099C15.2959 16.2897 15.2879 16.2728 15.2737 16.2604L15.2265 16.2192L15.2754 16.1802C15.3966 16.0832 15.5116 15.9781 15.5983 15.8972C15.7996 15.7082 16.0008 15.4999 16.1962 15.2782C16.3758 15.0726 16.5554 14.8452 16.7299 14.6025C17.0279 14.1776 17.269 13.7436 17.4467 13.3129L17.468 13.2613L17.5181 13.2858C17.5531 13.303 17.5924 13.3135 17.6348 13.3173C17.6483 13.3187 17.6615 13.3193 17.6748 13.3193C17.712 13.3193 17.7514 13.3141 17.792 13.304C17.8462 13.2893 17.8941 13.2652 17.9298 13.2346C17.9686 13.2028 18.005 13.1635 18.0387 13.1169C18.1008 13.0308 18.1464 12.9348 18.1905 12.8419L18.1943 12.8338C18.2386 12.7397 18.2817 12.6426 18.3261 12.5371C18.4568 12.2249 18.5713 11.9014 18.6822 11.5884C18.714 11.4982 18.746 11.4082 18.7782 11.3183C18.8588 11.0901 18.9227 10.897 18.9732 10.6975C19.001 10.5876 19.0229 10.4799 19.0383 10.3776C19.0566 10.2576 19.0647 10.1507 19.0631 10.0507C19.0595 9.78906 18.9884 9.58093 18.8521 9.43186C18.7723 9.34697 18.6743 9.28425 18.5689 9.25068Z" fill="#F9BF9A"/>
<path d="M15.1875 16.1957C15.1875 16.1957 14.5907 19.8408 11.7635 19.1917C11.7635 19.1917 10.4355 18.8209 10.0071 17.4645C9.98617 17.198 9.99548 16.8814 9.97441 16.6149C9.9689 16.5454 10.0429 16.3532 10.0985 16.3058C10.1624 16.2513 10.3087 16.461 10.3508 16.5006C10.448 16.5916 10.5528 16.6744 10.6639 16.7478C10.7795 16.824 10.9018 16.89 11.0291 16.9444C11.23 17.0303 11.4422 17.0875 11.6442 17.1709C11.9579 17.3006 12.3085 17.5509 12.6647 17.4469C12.796 17.4085 12.9273 17.3698 13.0579 17.3293C13.3189 17.2483 13.5781 17.1602 13.8306 17.055C14.3355 16.8446 14.7779 16.553 15.1875 16.1957Z" fill="#BF7D5D"/>
<path d="M18.7258 10.0851C18.6299 10.0055 18.4883 9.96738 18.3786 10.0264C18.3195 10.0582 18.2768 10.1132 18.2418 10.1704C18.1901 10.2548 18.1517 10.3474 18.1283 10.4435C18.0701 10.6818 18.105 10.9314 18.0975 11.1765C18.0787 11.7954 17.7914 12.3708 17.4985 12.9162C17.7602 11.9723 17.9335 11.0038 18.0152 10.0278C18.0348 9.79405 18.0507 9.55347 18.1513 9.34167C18.1625 9.31815 18.1754 9.29415 18.197 9.27932C18.2209 9.26291 18.2513 9.26058 18.2802 9.25874C18.3463 9.25458 18.4131 9.25041 18.4785 9.2607C18.7011 9.29574 18.8688 9.4959 18.9339 9.71161C18.9991 9.92733 18.9816 10.1581 18.9636 10.3829C18.9626 10.3955 18.9592 10.4057 18.9502 10.4146C18.8737 10.3321 18.8336 10.1746 18.7258 10.0851Z" fill="#BF7D5D"/>
<path d="M6.44766 10.0851C6.54358 10.0055 6.68518 9.96738 6.79494 10.0264C6.85398 10.0582 6.89674 10.1132 6.93165 10.1704C6.98334 10.2548 7.0218 10.3474 7.0452 10.4435C7.10339 10.6818 7.06847 10.9314 7.07594 11.1765C7.09481 11.7954 7.38206 12.3708 7.67495 12.9162C7.4133 11.9723 7.23997 11.0038 7.15826 10.0278C7.13866 9.79405 7.12274 9.55347 7.02217 9.34167C7.01102 9.31815 6.99804 9.29415 6.97648 9.27932C6.95259 9.26291 6.92221 9.26058 6.8933 9.25874C6.82716 9.25458 6.76052 9.25041 6.69498 9.2607C6.47241 9.29574 6.30471 9.4959 6.23954 9.71161C6.17437 9.92733 6.19189 10.1581 6.2099 10.3829C6.21088 10.3955 6.21431 10.4057 6.22337 10.4146C6.29981 10.3321 6.33974 10.1746 6.44766 10.0851Z" fill="#BF7D5D"/>
<path d="M12.2476 15.7315L12.7431 15.5633L12.7704 15.7315L12.4749 15.7951L12.2476 15.7315Z" fill="#BF7D5D"/>
<path d="M13.3701 13.7695C13.3701 13.7695 12.5819 14.6925 11.8369 13.7695L12.131 13.8413L12.4774 13.887L12.8446 13.8739L12.9999 13.8282L13.2336 13.8119L13.3701 13.7695Z" fill="#BF7D5D"/>
<path d="M11.9077 12.7665L11.8389 10.0185L11.4051 9.01032L9.57734 8.53896L8.39697 8.87999L9.46661 8.06979L11.3074 8.57914L11.9051 9.06189L12.1195 10.066C12.1195 10.066 12.2253 11.7234 11.9077 12.7665Z" fill="#BF7D5D"/>
<path d="M13.2017 9.09373L13.5006 9.00174L15.788 8.49595L15.1674 8.22009L13.2937 8.79484L13.2017 9.09373Z" fill="#BF7D5D"/>
<path d="M17.783 5.84322C17.4577 5.47205 17.0733 5.12919 16.6768 4.81903C16.2772 4.50924 15.8587 4.22186 15.4172 3.97442C14.9764 3.72685 14.5231 3.49889 14.0506 3.31821C13.8178 3.21862 13.576 3.1439 13.3366 3.06268C13.2178 3.01919 13.0944 2.99077 12.9727 2.9566L12.6068 2.85725L12.6334 2.86044L12.5375 2.86068L12.5642 2.8575C11.4821 3.13054 10.4392 3.56013 9.4877 4.14407C9.01315 4.43733 8.56016 4.76599 8.13754 5.12931C7.92881 5.31342 7.72412 5.50317 7.53511 5.70517C7.48856 5.75441 7.43932 5.8088 7.40012 5.85584C7.36778 5.91047 7.3276 5.95763 7.30016 6.01729C7.24075 6.13292 7.19371 6.25812 7.1588 6.38857C7.0183 6.91286 7.0085 7.47891 7.0205 8.03455C7.03741 8.59289 7.09179 9.15172 7.16296 9.70846C7.308 10.8213 7.52114 11.9297 7.78182 13.0211L7.779 13.0119C7.96544 13.5372 8.23579 14.0323 8.55366 14.4941C8.87669 14.9529 9.24516 15.3818 9.6516 15.7697C9.75339 15.8667 9.85617 15.961 9.96458 16.0498L10.1263 16.1839L10.2934 16.3093C10.5201 16.4718 10.7608 16.6165 11.0093 16.7472C11.2575 16.8787 11.5126 16.9991 11.7737 17.1059C12.0344 17.2134 12.2989 17.3147 12.5685 17.398L12.5688 17.3982H12.5428C13.0913 17.2441 13.6278 17.0421 14.137 16.7885C14.3912 16.661 14.6382 16.5194 14.8714 16.3584L15.0425 16.233C15.099 16.1903 15.1524 16.1434 15.2075 16.0988C15.3181 16.0091 15.4223 15.9139 15.5259 15.8161C15.9382 15.424 16.3116 14.9905 16.6385 14.5257C16.9613 14.0587 17.2345 13.5562 17.4232 13.0231L17.4214 13.0293C17.5651 12.432 17.6903 11.8278 17.8007 11.2224C17.9108 10.6167 18.005 10.0081 18.0743 9.39732C18.1425 8.7868 18.188 8.17297 18.1765 7.56209C18.1686 7.25719 18.1471 6.95254 18.0928 6.65647C18.0382 6.36309 17.9488 6.06824 17.783 5.84322ZM17.9364 5.72097C18.1368 5.99744 18.222 6.31263 18.2795 6.6223C18.3342 6.9338 18.354 7.24678 18.3599 7.55853C18.3672 8.18229 18.3169 8.80175 18.2438 9.41692C18.1697 10.0321 18.0709 10.6432 17.9561 11.2511C17.841 11.859 17.7116 12.463 17.5625 13.0647L17.5606 13.0711C17.3626 13.6183 17.0796 14.1295 16.7479 14.6026C16.412 15.0732 16.0307 15.5098 15.6096 15.9049C15.5041 16.0032 15.3958 16.1007 15.2832 16.1907C15.2266 16.2359 15.1719 16.2832 15.1137 16.3264L14.9373 16.454C14.6975 16.6171 14.445 16.7595 14.186 16.8871C13.6673 17.141 13.1246 17.341 12.5686 17.4931C12.5603 17.4954 12.5517 17.4954 12.5439 17.4935L12.5425 17.4931L12.5421 17.493C11.9855 17.3559 11.4447 17.1588 10.9283 16.9043C10.6713 16.7748 10.4209 16.6301 10.1825 16.4654L10.0063 16.3377L9.83853 16.2009C9.72657 16.11 9.61926 16.0122 9.51489 15.9136C9.09694 15.5178 8.71891 15.0818 8.38511 14.6119C8.0567 14.1388 7.77483 13.6288 7.57835 13.082L7.57553 13.0728C7.30763 11.9711 7.08959 10.8615 6.93831 9.73762C6.86334 9.17597 6.80919 8.61041 6.79107 8.04105C6.77918 7.47254 6.78531 6.89583 6.93635 6.32671C6.97432 6.18499 7.02602 6.04448 7.09559 5.90924C7.12744 5.84089 7.17766 5.77744 7.2187 5.71203C7.26966 5.65066 7.31559 5.6008 7.36557 5.54727C7.56193 5.33719 7.77116 5.14291 7.98528 4.9539C8.41782 4.58139 8.88036 4.24526 9.36508 3.94526C9.8493 3.6438 10.3617 3.38974 10.8865 3.16778L11.2836 3.00915L11.6888 2.87257L11.8917 2.80507L12.098 2.74897L12.5105 2.63688C12.5185 2.6348 12.5263 2.6337 12.5342 2.6337H12.5372L12.6332 2.63394H12.6366C12.6444 2.63394 12.6525 2.63517 12.6597 2.63713L13.033 2.74039C13.1571 2.77592 13.2829 2.80568 13.404 2.85051C13.648 2.93455 13.8945 3.01221 14.1315 3.11486C14.6129 3.30167 15.0743 3.53637 15.5225 3.79104C15.9714 4.04571 16.3965 4.34056 16.8026 4.65856C17.2083 4.9806 17.59 5.32151 17.9364 5.72097Z" fill="#02020C"/>
<path d="M6.96019 9.33964C6.80303 9.26969 6.59479 9.33768 6.46494 9.47365C6.33326 9.60754 6.27569 9.81259 6.26895 10.0145C6.25952 10.4274 6.38605 10.8441 6.51921 11.2487C6.65677 11.6563 6.786 12.0669 6.94243 12.465C7.02279 12.6615 7.10143 12.8667 7.20776 13.0428C7.26313 13.1288 7.33332 13.2046 7.42323 13.2433C7.51192 13.2829 7.61898 13.2879 7.69725 13.2369L7.73755 13.2979C7.63294 13.3682 7.49844 13.3613 7.39224 13.3164C7.28174 13.2712 7.19833 13.1823 7.13634 13.09C7.07362 12.9961 7.02867 12.8966 6.98224 12.7991C6.93655 12.7008 6.89319 12.6016 6.85166 12.5018C6.68556 12.1018 6.54848 11.6934 6.40296 11.2884C6.2616 10.882 6.12061 10.4626 6.1211 10.0099C6.1255 9.7865 6.18014 9.54408 6.34918 9.36242C6.43211 9.27459 6.53587 9.20673 6.65383 9.16961C6.77069 9.13139 6.90666 9.13103 7.02781 9.18027L6.96019 9.33964Z" fill="#02020C"/>
<path d="M6.52966 10.1637C6.44611 9.99551 6.48151 9.77673 6.61847 9.63868C6.684 9.57229 6.78579 9.51533 6.89579 9.54375C7.00077 9.57204 7.07782 9.66012 7.10281 9.76448C7.10918 9.79119 7.09277 9.81814 7.06607 9.82451C7.03936 9.83088 7.01241 9.81446 7.00604 9.78776C7.0058 9.78653 7.00543 9.78506 7.00531 9.78396C6.99416 9.71463 6.941 9.64554 6.87313 9.6241C6.80662 9.60034 6.72491 9.63329 6.66477 9.6878C6.54203 9.79596 6.49413 9.99147 6.5615 10.1491C6.56542 10.1579 6.56138 10.1682 6.55256 10.1722C6.54386 10.1756 6.53394 10.1718 6.52966 10.1637Z" fill="#02020C"/>
<path d="M7.22792 10.9626C7.09722 11.0255 7.02703 11.1723 7.02164 11.3116C7.01723 11.4541 7.0726 11.5919 7.14548 11.7151C7.21898 11.8393 7.3122 11.953 7.39378 12.0792C7.47904 12.2044 7.52571 12.3554 7.62959 12.4258C7.65237 12.4413 7.65825 12.4721 7.64294 12.4949C7.6275 12.5177 7.59664 12.5236 7.57385 12.5083C7.57312 12.5078 7.57201 12.5069 7.57128 12.5064C7.50219 12.4539 7.45956 12.3823 7.42551 12.3153C7.39145 12.247 7.36291 12.183 7.32567 12.1211C7.25291 11.9965 7.16386 11.8773 7.09293 11.7446C7.02274 11.6131 6.96946 11.4635 6.98109 11.3092C6.99371 11.1585 7.07627 11.0048 7.21935 10.9435C7.22462 10.9412 7.23086 10.9436 7.23307 10.949C7.2354 10.9542 7.23294 10.9602 7.22792 10.9626Z" fill="#02020C"/>
<path d="M18.1841 9.18039C18.3061 9.13066 18.443 9.13176 18.5606 9.17047C18.679 9.20857 18.7834 9.27716 18.8662 9.36634C19.0352 9.55033 19.0878 9.79483 19.0911 10.0195C19.0892 10.4748 18.9456 10.8966 18.8031 11.3056C18.6567 11.7132 18.5183 12.1247 18.35 12.527C18.3077 12.6274 18.2637 12.7271 18.2172 12.8259C18.1706 12.9239 18.1235 13.0246 18.0567 13.1172C18.0234 13.1632 17.9848 13.207 17.9396 13.244C17.8938 13.2833 17.8366 13.3091 17.7804 13.3243C17.6676 13.3519 17.5421 13.3504 17.4355 13.2829L17.4758 13.2219C17.555 13.2714 17.6652 13.2741 17.7596 13.2482C17.8561 13.224 17.9277 13.1529 17.9875 13.0681C18.0462 12.9835 18.09 12.8861 18.1344 12.7878C18.1784 12.6897 18.22 12.5903 18.2598 12.4902C18.4185 12.0897 18.5487 11.6765 18.6872 11.266C18.8217 10.8585 18.9508 10.4395 18.9435 10.0233C18.9377 9.8197 18.8819 9.61256 18.7498 9.47671C18.62 9.3389 18.4102 9.2692 18.2519 9.33976L18.1841 9.18039Z" fill="#02020C"/>
<path d="M18.6502 10.1488C18.7176 9.99132 18.6697 9.79569 18.5469 9.68753C18.4868 9.63302 18.4051 9.60019 18.3386 9.62383C18.2707 9.64539 18.2174 9.71435 18.2064 9.78368C18.2021 9.81088 18.1766 9.82938 18.1494 9.82509C18.1223 9.8208 18.1038 9.79532 18.108 9.76813C18.1082 9.7669 18.1085 9.76543 18.1088 9.76433C18.1338 9.65996 18.2108 9.57189 18.3158 9.54359C18.4258 9.51517 18.5276 9.57213 18.5931 9.63853C18.73 9.77658 18.7654 9.99536 18.6819 10.1635C18.6776 10.1721 18.6671 10.1757 18.6585 10.1714C18.6501 10.1673 18.6467 10.1573 18.6502 10.1488Z" fill="#02020C"/>
<path d="M17.9922 10.9435C18.1353 11.0047 18.2178 11.1584 18.2304 11.3091C18.2421 11.4633 18.1888 11.6129 18.1186 11.7446C18.0477 11.8774 17.9586 11.9964 17.8858 12.121C17.8486 12.183 17.8201 12.2468 17.786 12.3153C17.752 12.3823 17.7093 12.454 17.6402 12.5064C17.6184 12.5232 17.5872 12.5191 17.5704 12.4975C17.5536 12.4756 17.5577 12.4444 17.5794 12.4276C17.5801 12.4271 17.5812 12.4263 17.5819 12.4258C17.6858 12.3555 17.7326 12.2043 17.8177 12.0791C17.8993 11.953 17.9925 11.8393 18.066 11.7151C18.1391 11.5918 18.1943 11.454 18.1899 11.3116C18.1845 11.1723 18.1143 11.0253 17.9836 10.9626C17.9783 10.9601 17.9761 10.9539 17.9786 10.9487C17.9809 10.9436 17.987 10.9414 17.9922 10.9435Z" fill="#02020C"/>
<path d="M12.5373 13.9337C12.5354 13.9337 12.5336 13.9337 12.5319 13.9337C12.2734 13.9321 12.0222 13.8103 11.8762 13.6155C11.8573 13.5904 11.8623 13.5549 11.8875 13.5359C11.9127 13.5169 11.9483 13.5222 11.9672 13.5473C12.0924 13.7141 12.3091 13.8186 12.5326 13.8201C12.7483 13.8242 12.9629 13.7338 13.1321 13.58C13.1551 13.5589 13.1913 13.5605 13.2123 13.5838C13.2334 13.607 13.2318 13.6429 13.2085 13.6641C13.0199 13.8356 12.7755 13.9337 12.5373 13.9337Z" fill="#02020C"/>
<path d="M11.7718 13.1387C11.7347 13.221 11.6905 13.303 11.6596 13.385C11.6453 13.426 11.6394 13.4661 11.6502 13.5025C11.6603 13.5396 11.6848 13.5755 11.7116 13.6071C11.8223 13.7344 12.007 13.7789 12.1714 13.7605L12.1722 13.7604L12.1197 13.8199L12.1186 13.7971C12.117 13.7658 12.1412 13.7391 12.1725 13.7375C12.2039 13.7359 12.2306 13.76 12.2322 13.7914L12.2333 13.8141L12.2334 13.8175C12.2349 13.847 12.2121 13.8721 12.1826 13.8736L12.1807 13.8737H12.1799C12.0809 13.8772 11.9823 13.8614 11.8907 13.8259C11.7993 13.7906 11.7143 13.7321 11.6551 13.652C11.6263 13.6119 11.6005 13.5688 11.5899 13.5164C11.5788 13.4631 11.5925 13.4095 11.6117 13.3663C11.6519 13.2803 11.701 13.2046 11.7451 13.1236C11.7492 13.1163 11.7584 13.1135 11.7658 13.1175C11.7728 13.1213 11.7756 13.1299 11.7725 13.1371L11.7718 13.1387Z" fill="#02020C"/>
<path d="M11.874 8.95694C11.9295 9.13738 11.9782 9.31941 12.0259 9.50156C12.0743 9.68359 12.1177 9.86684 12.1612 10.05C12.1618 10.0528 12.1622 10.0559 12.1623 10.0587C12.167 10.2897 12.1669 10.5197 12.1637 10.7504C12.1596 10.9808 12.1547 11.2114 12.1395 11.4415C12.1252 11.6717 12.1065 11.9019 12.0761 12.1312C12.0426 12.3596 12.0042 12.5894 11.922 12.809C11.9177 12.8205 11.9048 12.8264 11.8932 12.8221C11.8819 12.8178 11.8761 12.8054 11.8799 12.7941L11.8801 12.7934C11.9518 12.5785 11.9819 12.3497 12.0064 12.1227C12.0319 11.8954 12.0471 11.6664 12.0571 11.4372C12.0773 10.9791 12.085 10.5193 12.0758 10.0609L12.0769 10.0696C12.0357 9.88583 11.9944 9.70221 11.958 9.51736C11.9209 9.33264 11.8849 9.14779 11.8556 8.96135C11.8547 8.95621 11.8583 8.95131 11.8634 8.95057C11.8682 8.94959 11.8726 8.95241 11.874 8.95694Z" fill="#02020C"/>
<path d="M13.4409 13.1239C13.485 13.2049 13.5341 13.2804 13.5743 13.3666C13.5935 13.4098 13.6073 13.4633 13.5961 13.5166C13.5856 13.569 13.5597 13.6122 13.5309 13.6522C13.4718 13.7323 13.3868 13.7909 13.2954 13.8262C13.2036 13.8618 13.1051 13.8776 13.0062 13.8739H13.0053C12.9758 13.8734 12.9522 13.8492 12.9526 13.8195V13.818L12.9528 13.8144L12.9539 13.7916C12.9555 13.7603 12.9822 13.7361 13.0135 13.7377C13.0449 13.7393 13.069 13.766 13.0674 13.7974L13.0663 13.8202L13.0139 13.7606L13.0146 13.7607C13.179 13.7791 13.3637 13.7347 13.4745 13.6074C13.5013 13.5759 13.5258 13.54 13.5358 13.5028C13.5466 13.4664 13.5407 13.4262 13.5264 13.3853C13.4954 13.3032 13.4512 13.2213 13.4142 13.139L13.4136 13.1376C13.4102 13.1299 13.4136 13.1208 13.4212 13.1174C13.4285 13.114 13.4371 13.1169 13.4409 13.1239Z" fill="#02020C"/>
<path d="M11.2818 17.8654C11.3929 18.5659 11.6243 19.2477 11.9632 19.8717C11.9701 19.8845 11.9654 19.9004 11.9527 19.9073C11.9401 19.9141 11.9243 19.9095 11.9173 19.8968C11.5714 19.2698 11.3331 18.5832 11.2163 17.8759C11.2133 17.8578 11.2256 17.8407 11.2436 17.8377C11.2617 17.8347 11.2787 17.847 11.2818 17.865V17.8654Z" fill="#02020C"/>
<path d="M15.3241 16.2802L15.271 19.83C15.2705 19.8654 15.2414 19.8937 15.206 19.8931C15.1713 19.8926 15.1434 19.8644 15.1429 19.83L15.0899 16.2802C15.0889 16.2155 15.1406 16.1622 15.2053 16.1612C15.2699 16.1602 15.3232 16.2119 15.3242 16.2766C15.3242 16.2776 15.3242 16.2792 15.3241 16.2802Z" fill="#02020C"/>
<path d="M16.6893 20.0992C16.1475 19.7599 15.6262 19.3824 15.1652 18.9364C15.1453 18.917 15.1448 18.8853 15.164 18.8653C15.1829 18.8457 15.2141 18.8451 15.2341 18.8631C15.702 19.2862 16.2285 19.6413 16.7741 19.958C16.8135 19.9806 16.8271 20.031 16.8043 20.0706C16.7817 20.11 16.7313 20.1236 16.6919 20.1008C16.6913 20.1004 16.6901 20.0997 16.6893 20.0992Z" fill="#02020C"/>
<path d="M10.119 16.2802L10.0659 19.83C10.0655 19.8654 10.0363 19.8937 10.0009 19.8931C9.96612 19.8926 9.93831 19.8644 9.93782 19.83L9.88478 16.2802C9.8838 16.2155 9.93549 16.1622 10.0002 16.1612C10.0648 16.1602 10.1181 16.2119 10.1191 16.2766C10.119 16.2776 10.119 16.2792 10.119 16.2802Z" fill="#02020C"/>
<path d="M8.2482 19.9783C8.54831 19.8049 8.84953 19.6384 9.14267 19.4591C9.4347 19.2794 9.72244 19.0903 9.9749 18.8631L9.9754 18.8626C9.99598 18.844 10.0278 18.8457 10.0464 18.8664C10.0647 18.8866 10.0633 18.9176 10.0439 18.9364C9.78969 19.1795 9.50329 19.3802 9.21371 19.5711C8.9234 19.7614 8.62549 19.9383 8.33309 20.1196C8.2945 20.1437 8.24367 20.1318 8.21953 20.0932C8.1954 20.0546 8.20728 20.0038 8.24587 19.9797C8.24648 19.9794 8.24759 19.9787 8.2482 19.9783Z" fill="#02020C"/>
<path d="M13.9992 17.876C13.8823 18.5833 13.6439 19.2699 13.2981 19.897C13.2911 19.9096 13.2752 19.9142 13.2626 19.9073C13.25 19.9003 13.2453 19.8845 13.2522 19.8719C13.5911 19.2479 13.8225 18.566 13.9336 17.8655C13.9365 17.8474 13.9535 17.835 13.9716 17.8379C13.9897 17.8407 14.0021 17.8578 13.9992 17.8759V17.876Z" fill="#02020C"/>
<path d="M0.723173 25.1778L1.82576 22.9513C2.0879 22.5766 2.44645 22.2521 2.83672 21.9991C3.03443 21.8734 3.24427 21.7667 3.46011 21.6778L3.62303 21.6156C3.67815 21.5957 3.73695 21.5801 3.79366 21.5621L4.13714 21.4573L6.88449 20.6194C6.88841 20.6182 6.89257 20.6165 6.89637 20.6144L6.89796 20.6136L7.81668 20.1108L8.04636 19.9852L8.07074 19.9718C8.07968 19.9794 8.08899 19.9875 8.09658 19.9942L8.16016 20.0518L8.28939 20.1715C8.38372 20.2501 8.47339 20.3204 8.56808 20.3921C8.75598 20.5336 8.95014 20.6666 9.14993 20.7907C9.54927 21.0391 9.97237 21.252 10.4164 21.4129C10.8603 21.5703 11.3257 21.6874 11.8011 21.7012C11.919 21.7044 12.0396 21.7204 12.1553 21.7127L12.5047 21.7021C12.6189 21.6963 12.7277 21.7076 12.8486 21.7131C12.9702 21.7179 13.087 21.7147 13.206 21.7078C13.6802 21.6795 14.1462 21.5715 14.5896 21.4105C15.0334 21.2491 15.4562 21.0358 15.8555 20.7871C16.2371 20.5474 16.5983 20.2815 16.9337 19.9744L18.1016 20.6134L18.1035 20.6145C18.1072 20.6165 18.111 20.6181 18.1152 20.6193L20.8626 21.4572L21.2061 21.5619C21.2628 21.5799 21.3216 21.5956 21.3768 21.6155L21.5397 21.6777C21.7555 21.7666 21.9654 21.8734 22.1631 21.999C22.3598 22.1261 22.5457 22.2705 22.7171 22.4301C22.8023 22.5104 22.8849 22.5936 22.9619 22.6815C23.0378 22.7664 23.1163 22.8654 23.1732 22.9496L24.2765 25.1777H24.4604L23.3167 22.8687C23.2404 22.7539 23.1679 22.6665 23.0852 22.5724C23.0045 22.4802 22.9183 22.3934 22.8294 22.3096C22.6506 22.1432 22.4569 21.9929 22.2518 21.8602C22.0453 21.729 21.8272 21.6179 21.6007 21.5247L21.4282 21.459C21.3708 21.4385 21.3137 21.4233 21.2565 21.4051L20.9132 21.3005L18.1732 20.4649L16.9621 19.8022C16.9319 19.7856 16.893 19.7894 16.8663 19.8143L16.8649 19.8156C16.5324 20.1262 16.1573 20.4034 15.7682 20.6474C15.3774 20.8907 14.9645 21.0988 14.5331 21.2557C14.1022 21.4121 13.6518 21.5162 13.196 21.5434C13.0828 21.55 12.9665 21.553 12.8556 21.5486C12.7441 21.5436 12.6206 21.5314 12.5019 21.5374L12.1535 21.5481C12.0951 21.5515 12.0378 21.5503 11.9811 21.5459L11.8102 21.5369C11.3536 21.5241 10.9035 21.411 10.4722 21.2581C10.0406 21.1018 9.62754 20.8942 9.23666 20.6509C9.04103 20.5294 8.85079 20.3991 8.66693 20.2607C8.57591 20.1921 8.48269 20.1184 8.39817 20.0481L8.27139 19.9305L8.20548 19.871C8.18013 19.8497 8.16702 19.8347 8.12501 19.8062C8.1217 19.8044 8.12611 19.8063 8.11631 19.8014C8.10357 19.7954 8.08568 19.7915 8.06878 19.7933C8.02505 19.8029 8.0384 19.804 8.03411 19.804L8.02456 19.8093L8.00545 19.8197L7.96711 19.8406L7.89055 19.8825L7.73743 19.9663L7.43119 20.1339L6.82606 20.465L4.08606 21.3006L3.74283 21.4053C3.68562 21.4234 3.62854 21.4386 3.57109 21.4592L3.39861 21.5248C3.17212 21.618 2.95407 21.7293 2.74754 21.8603C2.33743 22.1281 1.97129 22.4551 1.68477 22.865L1.68171 22.8703L1.6806 22.8726L0.539062 25.1778H0.723173ZM8.11239 19.949L8.11349 19.9484C8.11288 19.9474 8.11778 19.9467 8.11239 19.949Z" fill="#02020C"/>
<path d="M12.5694 22.7734C11.6809 22.7734 10.8858 22.6279 10.2171 22.4316C8.14961 21.825 6.81623 20.614 6.80301 20.6019C6.76944 20.5712 6.76736 20.519 6.7981 20.4855C6.82885 20.4519 6.88116 20.4498 6.91448 20.4805C6.92746 20.4924 8.23719 21.6807 10.2699 22.2755C12.1413 22.8234 15.0289 22.9647 18.1578 20.5299C18.1937 20.502 18.2455 20.5085 18.2734 20.5443C18.3014 20.5802 18.2949 20.6319 18.259 20.6599C16.188 22.2714 14.2186 22.7734 12.5694 22.7734Z" fill="#02020C"/>
<path d="M21.7722 25.1778C21.4679 24.354 21.4978 23.4338 21.5787 22.5582C21.6096 22.2241 21.651 21.9025 21.8156 21.6382C21.8253 21.6227 21.8205 21.6021 21.8049 21.5924C21.7894 21.5827 21.7689 21.5875 21.7592 21.6029C21.5869 21.8797 21.5443 22.2098 21.5125 22.5519C21.4317 23.4273 21.4012 24.3476 21.7011 25.1776H21.7722V25.1778Z" fill="#02020C"/>
<path d="M3.59775 22.5582C3.6786 23.4339 3.70849 24.354 3.40433 25.1778H3.4755C3.77525 24.3478 3.74487 23.4276 3.66402 22.5521C3.63241 22.2099 3.58991 21.8799 3.41731 21.6031C3.40764 21.5877 3.3873 21.5829 3.37162 21.5926C3.35606 21.6022 3.35129 21.6228 3.36096 21.6384C3.5256 21.9027 3.567 22.2243 3.59775 22.5582Z" fill="#02020C"/>
<path d="M7.30671 20.9307C7.29569 20.9307 7.28491 20.9253 7.27854 20.9151C7.26874 20.8997 7.27352 20.8791 7.28895 20.8693L8.36949 20.1912C8.38504 20.1814 8.4055 20.186 8.4153 20.2017C8.4251 20.2172 8.42032 20.2377 8.40489 20.2475L7.32435 20.9257C7.31884 20.9291 7.31284 20.9307 7.30671 20.9307Z" fill="#02020C"/>
<path d="M8.0659 21.425C8.05574 21.425 8.04569 21.4203 8.0392 21.4116C8.0283 21.3968 8.03148 21.3761 8.04618 21.3651L9.02333 20.6409C9.03803 20.63 9.05886 20.6332 9.06976 20.6479C9.08066 20.6627 9.0776 20.6834 9.06278 20.6943L8.08563 21.4186C8.07962 21.423 8.07276 21.425 8.0659 21.425Z" fill="#02020C"/>
<path d="M8.97357 21.8963C8.96499 21.8963 8.9563 21.893 8.9498 21.8863C8.93706 21.8731 8.93731 21.8521 8.95054 21.8393L9.76673 21.0461C9.77972 21.0332 9.80091 21.0335 9.81365 21.0467C9.82639 21.0599 9.82614 21.0809 9.81291 21.0938L8.99672 21.8869C8.99023 21.8933 8.9819 21.8963 8.97357 21.8963Z" fill="#02020C"/>
<path d="M10.0771 22.3216C10.0706 22.3216 10.0639 22.3197 10.0581 22.3158C10.0432 22.3052 10.0394 22.2845 10.0499 22.2695L10.6362 21.4304C10.6466 21.4153 10.6673 21.4117 10.6825 21.422C10.6974 21.4326 10.7012 21.4533 10.6907 21.4683L10.1044 22.3074C10.0979 22.3167 10.0877 22.3216 10.0771 22.3216Z" fill="#02020C"/>
<path d="M11.273 22.5975C11.2684 22.5975 11.2636 22.5965 11.2591 22.5945C11.2424 22.5869 11.2352 22.567 11.2428 22.5505L11.6566 21.6539C11.6643 21.6373 11.684 21.6297 11.7007 21.6376C11.7173 21.6452 11.7245 21.6651 11.7169 21.6816L11.3032 22.5782C11.2975 22.5903 11.2855 22.5975 11.273 22.5975Z" fill="#02020C"/>
<path d="M17.6528 20.9307C17.6468 20.9307 17.6407 20.9291 17.6351 20.9257L16.5546 20.2475C16.539 20.2377 16.5344 20.2172 16.5442 20.2017C16.5539 20.1862 16.5744 20.1815 16.59 20.1912L17.6705 20.8693C17.6861 20.8791 17.6908 20.8997 17.681 20.9152C17.6746 20.9252 17.6638 20.9307 17.6528 20.9307Z" fill="#02020C"/>
<path d="M16.8941 21.425C16.8873 21.425 16.8803 21.4229 16.8744 21.4185L15.8973 20.6942C15.8826 20.6833 15.8794 20.6625 15.8903 20.6478C15.9013 20.6331 15.922 20.6299 15.9367 20.6408L16.9139 21.365C16.9286 21.3759 16.9317 21.3967 16.9208 21.4115C16.9142 21.4204 16.9042 21.425 16.8941 21.425Z" fill="#02020C"/>
<path d="M15.9857 21.8964C15.9773 21.8964 15.969 21.8933 15.9625 21.8871L15.1463 21.0939C15.1331 21.081 15.1328 21.0601 15.1457 21.0469C15.1583 21.0336 15.1795 21.0334 15.1926 21.0463L16.0088 21.8394C16.022 21.8523 16.0223 21.8732 16.0096 21.8865C16.0031 21.8931 15.9944 21.8964 15.9857 21.8964Z" fill="#02020C"/>
<path d="M14.8823 22.3217C14.8718 22.3217 14.8615 22.3168 14.855 22.3075L14.2687 21.4684C14.2582 21.4534 14.2618 21.4327 14.2769 21.4221C14.2921 21.4118 14.3127 21.4152 14.3232 21.4304L14.9095 22.2695C14.92 22.2844 14.9163 22.3051 14.9013 22.3158C14.8954 22.3197 14.8888 22.3217 14.8823 22.3217Z" fill="#02020C"/>
<path d="M13.6867 22.5976C13.6741 22.5976 13.6622 22.5903 13.6566 22.5782L13.2428 21.6816C13.2351 21.6651 13.2424 21.6453 13.2591 21.6377C13.2759 21.6298 13.2955 21.6373 13.3032 21.654L13.717 22.5505C13.7247 22.5671 13.7174 22.5869 13.7007 22.5945C13.6962 22.5966 13.6914 22.5976 13.6867 22.5976Z" fill="#02020C"/>
<path d="M12.5601 22.7585C12.5417 22.7585 12.5269 22.7435 12.5269 22.7253V21.6183C12.5269 21.6 12.5417 21.5851 12.5601 21.5851C12.5784 21.5851 12.5932 21.5999 12.5932 21.6183V22.7253C12.5932 22.7437 12.5784 22.7585 12.5601 22.7585Z" fill="#02020C"/>
<path d="M16.5366 19.8563L16.9129 19.7882L16.7408 19.9804L16.5366 19.8563Z" fill="#02020C"/>
<path d="M8.47006 19.8563L8.09375 19.7882L8.26586 19.9804L8.47006 19.8563Z" fill="#02020C"/>
<path d="M9.61481 11.7566C9.82746 11.7254 10.039 11.718 10.2515 11.715C10.4638 11.7128 10.6761 11.7183 10.888 11.7295C10.9155 11.731 10.9365 11.7544 10.9351 11.7818C10.9336 11.8093 10.9102 11.8303 10.8828 11.8289C10.8822 11.8289 10.8813 11.8288 10.8807 11.8288C10.6712 11.8087 10.4611 11.7943 10.2508 11.7876C10.0411 11.7815 9.82881 11.7804 9.62204 11.8018L9.62044 11.8019C9.60783 11.8033 9.59668 11.7941 9.59533 11.7815C9.5941 11.7693 9.6028 11.7584 9.61481 11.7566Z" fill="#02020C"/>
<path d="M14.0274 11.7566C14.2401 11.7254 14.4516 11.718 14.6641 11.715C14.8764 11.7128 15.0887 11.7183 15.3006 11.7295C15.3281 11.731 15.3491 11.7544 15.3477 11.7818C15.3462 11.8093 15.3228 11.8303 15.2954 11.8289C15.2948 11.8289 15.2939 11.8288 15.2933 11.8288C15.0838 11.8087 14.8737 11.7943 14.6634 11.7876C14.4537 11.7815 14.2414 11.7804 14.0346 11.8018L14.033 11.8019C14.0204 11.8033 14.0093 11.7941 14.0079 11.7815C14.0067 11.7693 14.0153 11.7584 14.0274 11.7566Z" fill="#02020C"/>
<path d="M10.2977 11.7942C10.6636 11.7942 10.9602 11.3579 10.9602 10.8198C10.9602 10.2816 10.6636 9.84531 10.2977 9.84531C9.93185 9.84531 9.63525 10.2816 9.63525 10.8198C9.63525 11.3579 9.93185 11.7942 10.2977 11.7942Z" fill="#02020C"/>
<path d="M10.7807 10.8664C10.9077 10.8664 11.0106 10.7326 11.0106 10.5675C11.0106 10.4025 10.9077 10.2686 10.7807 10.2686C10.6537 10.2686 10.5508 10.4025 10.5508 10.5675C10.5508 10.7326 10.6537 10.8664 10.7807 10.8664Z" fill="#F4EFE9"/>
<path d="M14.6185 11.7942C14.9844 11.7942 15.281 11.3579 15.281 10.8198C15.281 10.2816 14.9844 9.84531 14.6185 9.84531C14.2526 9.84531 13.9561 10.2816 13.9561 10.8198C13.9561 11.3579 14.2526 11.7942 14.6185 11.7942Z" fill="#02020C"/>
<path d="M15.3314 10.5675C15.3314 10.7327 15.2285 10.8664 15.1015 10.8664C14.9746 10.8664 14.8716 10.7327 14.8716 10.5675C14.8716 10.4024 14.9745 10.2686 15.1015 10.2686C15.2284 10.2686 15.3314 10.4025 15.3314 10.5675Z" fill="#F4EFE9"/>
<path d="M11.9243 14.6114C12.2457 14.7838 12.6363 14.8365 13.0005 14.7503C13.0092 14.7482 13.0177 14.7536 13.0198 14.7622C13.0218 14.7704 13.0169 14.7787 13.0089 14.7813C12.6436 14.8942 12.2335 14.8703 11.8763 14.7089C11.8489 14.6966 11.8368 14.6644 11.849 14.637C11.8613 14.6095 11.8935 14.5973 11.9209 14.6097C11.922 14.6101 11.9232 14.6109 11.9243 14.6114Z" fill="#02020C"/>
<path d="M16.6272 8.92545C16.3718 8.7618 16.1273 8.62938 15.8716 8.5353C15.8111 8.51252 15.7363 8.48582 15.6777 8.46646C15.6172 8.4476 15.5677 8.43694 15.5301 8.43804C15.489 8.43792 15.4799 8.44221 15.393 8.47063C15.3235 8.49402 15.2544 8.51374 15.183 8.53542C14.8983 8.62105 14.6089 8.69124 14.3178 8.75518L13.8811 8.85122C13.7352 8.88197 13.5906 8.91761 13.4418 8.93856L13.5084 8.89275C13.4207 8.97592 13.3296 9.0564 13.2219 9.12426C13.1993 9.1386 13.1692 9.13174 13.1549 9.10908C13.1471 9.09658 13.1456 9.08176 13.1496 9.06877C13.1875 8.94726 13.242 8.83848 13.2999 8.7324C13.3072 8.71917 13.3181 8.70937 13.3307 8.70337L13.3666 8.68646C13.5027 8.62252 13.6431 8.57328 13.7821 8.51913L14.2002 8.3605C14.4789 8.25467 14.7595 8.1552 15.0447 8.07104C15.1157 8.05022 15.189 8.02719 15.2618 8.00808C15.3007 7.99816 15.3257 7.98848 15.3908 7.97599C15.4478 7.96594 15.5065 7.96398 15.5616 7.96888C15.6727 7.98003 15.7671 8.01372 15.8442 8.05046C15.9233 8.08734 15.9836 8.12274 16.0565 8.16549C16.3332 8.33637 16.5666 8.57769 16.6968 8.86666C16.7075 8.89054 16.6969 8.91859 16.673 8.92937C16.6579 8.93611 16.6412 8.93439 16.6282 8.92619L16.6272 8.92545Z" fill="#02020C"/>
<path d="M8.36009 8.86653C8.49018 8.57744 8.72365 8.33612 9.00037 8.16536C9.07326 8.12261 9.13365 8.08721 9.21266 8.05034C9.28971 8.01371 9.38415 7.9799 9.49526 7.96876C9.5505 7.96386 9.60905 7.96569 9.66601 7.97586C9.73118 7.98848 9.75617 7.99803 9.795 8.00795C9.86777 8.02719 9.94114 8.05022 10.0122 8.07092C10.2974 8.15507 10.5779 8.25454 10.8567 8.36038L11.2748 8.51901C11.4138 8.57315 11.5542 8.6224 11.6903 8.68634L11.7262 8.70324C11.7398 8.70961 11.7503 8.72003 11.757 8.73228C11.815 8.83836 11.8694 8.94713 11.9072 9.06865C11.9152 9.09425 11.9008 9.12145 11.8754 9.12941C11.8613 9.13382 11.8466 9.13137 11.8351 9.12414C11.7274 9.0564 11.6361 8.97592 11.5484 8.89262L11.6152 8.93844C11.4663 8.91749 11.3218 8.88184 11.1758 8.8511L10.7391 8.75506C10.4479 8.69111 10.1586 8.62093 9.87389 8.5353C9.80248 8.51374 9.73339 8.4939 9.66381 8.4705C9.57709 8.44208 9.5679 8.43779 9.52686 8.43792C9.48925 8.43681 9.43976 8.44747 9.37925 8.46633C9.3207 8.48569 9.24586 8.51239 9.18534 8.53518C8.92969 8.62926 8.68519 8.76167 8.42979 8.92533L8.42905 8.92582C8.407 8.93991 8.37772 8.93354 8.36351 8.91149C8.35445 8.89764 8.35384 8.88049 8.36009 8.86653Z" fill="#02020C"/>
<path d="M19.0273 5.21405C18.9858 5.04929 18.8489 4.92827 18.7169 4.82121C17.9139 4.16977 17.0246 3.62527 16.08 3.20487C16.184 3.15048 16.2964 3.10993 16.4104 3.08396C16.68 3.02259 16.9598 3.02933 17.2363 3.03631C16.7359 2.77295 16.1451 2.68891 15.5898 2.79304C15.5627 2.6567 15.4848 2.52746 15.3833 2.42971C15.2333 2.28553 15.0402 2.19636 14.851 2.11C14.7924 2.08317 14.7321 2.05598 14.6678 2.05132C14.7492 2.05732 14.83 2.32645 14.8847 2.55796C14.8825 2.55613 14.8807 2.55405 14.8785 2.55233C14.7409 2.43988 14.5803 2.35915 14.4164 2.29043C14.4138 2.28933 14.4111 2.28848 14.4086 2.28737C14.053 1.93409 13.5447 1.71311 13.0475 1.58951C11.092 1.10308 8.9194 1.73798 7.46341 3.13113C6.6874 3.87358 6.11657 4.81839 5.7813 5.83645C5.62156 6.32129 5.51732 6.86763 5.4116 7.37158C5.28519 7.9745 5.22896 8.59225 5.2455 9.20804C5.24219 9.08726 5.75937 8.8087 5.85688 8.75333C6.06965 8.63255 6.33902 8.48727 6.58291 8.46853C6.54335 8.641 6.4059 8.80894 6.34821 8.98791C6.55951 8.94075 6.77707 8.8882 6.98151 8.8125C6.98715 8.85452 6.99254 8.89665 6.99829 8.93879C7.01214 9.04107 7.04288 9.24136 7.08416 9.4997C6.65812 10.207 6.11289 10.8427 5.4753 11.3674C5.96394 11.4295 6.45613 11.3032 6.92504 11.1527C7.0631 11.1083 7.20017 11.0617 7.33663 11.0131C7.48803 11.8875 7.64814 12.7509 7.72335 12.9976C7.80775 12.9164 7.72972 11.8407 7.64777 10.8971C8.52962 10.5608 9.37913 10.1432 10.2041 9.67891C11.099 9.52824 11.9478 9.13307 12.6891 8.60536C13.2487 8.207 13.7516 7.73404 14.2114 7.22483C14.3675 7.05174 14.6153 6.83786 14.6408 6.58552C14.7009 6.52745 14.7588 6.46608 14.8018 6.39614C15.0904 6.39945 15.3318 6.63292 15.5083 6.86799C16.2394 7.84171 16.5614 9.11273 16.3825 10.317C16.6483 9.3026 16.7071 8.23456 16.5542 7.19714C16.6245 7.20633 16.6935 7.22225 16.7616 7.24136C16.7625 7.24798 16.7631 7.25471 16.7654 7.26108C16.7764 7.29281 16.8039 7.31572 16.8304 7.33618C16.9652 7.44042 17.1117 7.52984 17.237 7.64535C17.4578 7.8487 17.5973 8.12015 17.6896 8.40863C17.7049 9.94253 17.5727 11.8204 17.5327 12.7216C18.2334 11.1362 18.8606 7.22017 19.0321 5.49542C19.0414 5.40171 19.0504 5.30556 19.0273 5.21405ZM7.38354 8.95092C7.37607 8.89776 7.37693 8.83577 7.3931 8.75591C7.40559 8.69417 7.42017 8.63243 7.43597 8.57094C7.50592 8.51777 7.57244 8.45983 7.63038 8.39111C7.55639 8.58123 7.47346 8.76779 7.38354 8.95092Z" fill="#02020C"/>
<path d="M7.37965 14.2135C7.49818 14.2135 7.59427 14.1174 7.59427 13.9989C7.59427 13.8804 7.49818 13.7843 7.37965 13.7843C7.26113 13.7843 7.16504 13.8804 7.16504 13.9989C7.16504 14.1174 7.26113 14.2135 7.37965 14.2135Z" fill="#02020C"/>
<path d="M7.37225 14.0501C7.34334 14.0501 7.31982 14.0266 7.31982 13.9977V13.0259C7.31982 12.997 7.34334 12.9735 7.37225 12.9735C7.40116 12.9735 7.42468 12.997 7.42468 13.0259V13.9977C7.42468 14.0266 7.40116 14.0501 7.37225 14.0501Z" fill="#02020C"/>
<path d="M17.9781 13.9989C17.9781 14.1173 17.882 14.2135 17.7634 14.2135C17.645 14.2135 17.5488 14.1175 17.5488 13.9989C17.5488 13.8804 17.6449 13.7843 17.7634 13.7843C17.882 13.7843 17.9781 13.8803 17.9781 13.9989Z" fill="#02020C"/>
<path d="M17.756 14.0501C17.7271 14.0501 17.7036 14.0266 17.7036 13.9977V13.0259C17.7036 12.997 17.7271 12.9735 17.756 12.9735C17.785 12.9735 17.8085 12.997 17.8085 13.0259V13.9977C17.8085 14.0266 17.785 14.0501 17.756 14.0501Z" fill="#02020C"/>
</g>
</svg>
