<svg width="528" height="721" viewBox="0 0 528 721" fill="none" xmlns="http://www.w3.org/2000/svg">
<rect width="528" height="721" rx="20" fill="#4E61F6"/>
<mask id="mask0_39_1833" style="mask-type:luminance" maskUnits="userSpaceOnUse" x="68" y="156" width="433" height="469">
<path d="M501 156H68V625H501V156Z" fill="white"/>
</mask>
<g mask="url(#mask0_39_1833)">
<path d="M295.071 500.974H287.914H281.085H273.928C273.928 500.974 275.635 533.469 265.128 533.469H281.084H287.913H303.869C293.364 533.469 295.071 500.974 295.071 500.974Z" fill="#495359"/>
<path d="M351.678 417.801H217.322C215.188 417.801 213.458 419.675 213.458 421.986V507.735V508.594V515.248C213.458 517.264 214.966 518.897 216.827 518.897H352.173C354.034 518.897 355.542 517.263 355.542 515.248V508.594V507.735V421.986C355.542 419.675 353.812 417.801 351.678 417.801Z" fill="#56636D"/>
<path d="M350.935 422.631H218.065V499.901H350.935V422.631Z" fill="#4BE8A0"/>
<path d="M350.984 499.257H218.015V503.765H350.984V499.257Z" fill="#4B575E"/>
<path d="M287.993 511.143C287.993 513.233 286.429 514.926 284.5 514.926C282.571 514.926 281.007 513.233 281.007 511.143C281.007 509.054 282.571 507.36 284.5 507.36C286.429 507.36 287.993 509.054 287.993 511.143Z" fill="#5E6F77"/>
<path d="M410.321 502.722L406.359 500.696L395.778 524.968L399.739 526.994L410.321 502.722Z" fill="#4B575E"/>
<path d="M403.667 474.989L399.543 476.591L407.907 501.855L412.03 500.254L403.667 474.989Z" fill="#4B575E"/>
<path d="M411.095 523.881H385.356V526.55H411.095V523.881Z" fill="#546168"/>
<path d="M411.384 529.796H385.067C384.051 529.796 383.219 528.895 383.219 527.794C383.219 526.693 384.051 525.792 385.067 525.792H411.384C412.401 525.792 413.233 526.693 413.233 527.794C413.232 528.895 412.401 529.796 411.384 529.796Z" fill="#4B575E"/>
<path d="M409.5 503.713C411.844 503.713 413.744 501.655 413.744 499.116C413.744 496.577 411.844 494.519 409.5 494.519C407.156 494.519 405.256 496.577 405.256 499.116C405.256 501.655 407.156 503.713 409.5 503.713Z" fill="#4B575E"/>
<path d="M409.499 501.866C410.902 501.866 412.038 500.635 412.038 499.116C412.038 497.597 410.902 496.366 409.499 496.366C408.097 496.366 406.96 497.597 406.96 499.116C406.96 500.635 408.097 501.866 409.499 501.866Z" fill="#A1AAAF"/>
<path d="M391.528 478.94C392.191 482.213 390.278 485.45 387.256 486.167C384.233 486.885 381.245 484.813 380.582 481.539C379.919 478.266 381.833 475.03 384.855 474.311C387.878 473.594 390.866 475.666 391.528 478.94Z" fill="#F2DD64"/>
<path d="M404.118 470.522L398.275 471.91L381.214 468.485L386.2 493.109L400.372 482.266L406.215 480.878C406.215 480.878 411.372 479.532 410.347 474.469C409.322 469.407 404.118 470.522 404.118 470.522Z" fill="#4B575E"/>
<mask id="mask1_39_1833" style="mask-type:luminance" maskUnits="userSpaceOnUse" x="381" y="468" width="30" height="26">
<path d="M404.118 470.522L398.275 471.91L381.214 468.485L386.2 493.109L400.372 482.266L406.215 480.878C406.215 480.878 411.372 479.532 410.347 474.469C409.322 469.407 404.118 470.522 404.118 470.522Z" fill="white"/>
</mask>
<g mask="url(#mask1_39_1833)">
<path d="M378.858 481.857L416.565 471.598L405.768 459.903L372.904 466.419L378.858 481.857Z" fill="#606E75"/>
</g>
<path d="M310.078 528.737H258.921H142.643V543.228H149.326V625H218.066V543.228H258.921H310.078H350.934V625H419.673V543.228H426.357V528.737H310.078Z" fill="#F2F2F2"/>
<path d="M351.656 544H419.132V543.414H351.656V544Z" fill="#CECECE"/>
<path d="M351.656 573.312H419.132V572.726H351.656V573.312Z" fill="#CECECE"/>
<path d="M351.656 602.625H419.132V602.039H351.656V602.625Z" fill="#CECECE"/>
<path d="M217.344 543.413H149.868V544H217.344V543.413Z" fill="#CECECE"/>
<path d="M217.344 572.726H149.868V573.312H217.344V572.726Z" fill="#CECECE"/>
<path d="M217.344 602.038H149.868V602.625H217.344V602.038Z" fill="#CECECE"/>
<path d="M185.861 548.494C185.861 549.843 184.851 550.937 183.605 550.937C182.36 550.937 181.35 549.844 181.35 548.494C181.35 547.145 182.36 546.052 183.605 546.052C184.851 546.052 185.861 547.145 185.861 548.494Z" fill="#7A7A7A"/>
<path d="M185.861 577.807C185.861 579.156 184.851 580.25 183.605 580.25C182.36 580.25 181.35 579.156 181.35 577.807C181.35 576.457 182.36 575.364 183.605 575.364C184.851 575.364 185.861 576.458 185.861 577.807Z" fill="#7A7A7A"/>
<path d="M185.861 607.119C185.861 608.468 184.851 609.562 183.605 609.562C182.36 609.562 181.35 608.469 181.35 607.119C181.35 605.77 182.36 604.677 183.605 604.677C184.851 604.677 185.861 605.77 185.861 607.119Z" fill="#7A7A7A"/>
<path d="M383.138 548.494C383.138 549.843 384.148 550.937 385.394 550.937C386.64 550.937 387.649 549.844 387.649 548.494C387.649 547.145 386.64 546.052 385.394 546.052C384.148 546.052 383.138 547.145 383.138 548.494Z" fill="#7A7A7A"/>
<path d="M383.138 577.807C383.138 579.156 384.148 580.25 385.394 580.25C386.64 580.25 387.649 579.156 387.649 577.807C387.649 576.457 386.64 575.364 385.394 575.364C384.148 575.364 383.138 576.458 383.138 577.807Z" fill="#7A7A7A"/>
<path d="M383.138 607.119C383.138 608.468 384.148 609.562 385.394 609.562C386.64 609.562 387.649 608.469 387.649 607.119C387.649 605.77 386.64 604.677 385.394 604.677C384.148 604.677 383.138 605.77 383.138 607.119Z" fill="#7A7A7A"/>
<path opacity="0.5" d="M149.327 543.228L218.066 555.432V543.228H149.327Z" fill="#B8BDBF"/>
<path opacity="0.5" d="M351.024 543.228L419.763 555.432V543.228H351.024Z" fill="#B8BDBF"/>
<path opacity="0.5" d="M426.375 536.476H142.561V543.814H426.375V536.476Z" fill="#B8BDBF"/>
<path d="M363.877 522.302C361.108 512.638 333.418 469.649 333.418 469.649V467.615C333.418 465.512 332.031 463.709 330.12 463.33L302.831 457.925C298.017 460.906 291.579 462.731 284.499 462.731C277.42 462.731 270.981 460.906 266.168 457.925L238.878 463.33C236.968 463.709 235.58 465.512 235.58 467.615V469.649C235.58 469.649 207.89 512.638 205.121 522.302C205.121 522.302 202.045 528.967 207.275 533.299C212.505 537.631 240.306 538.374 240.306 538.374C240.306 538.374 239.887 532.632 245.118 532.965L249.511 523.021L236.503 519.302L245.118 507.305V500.974H284.5H323.881V507.305L332.496 519.302L319.488 523.021L323.881 532.965C329.111 532.632 328.692 538.374 328.692 538.374C328.692 538.374 356.494 537.631 361.724 533.299C366.954 528.967 363.877 522.302 363.877 522.302Z" fill="#5D7D93"/>
<path d="M300.376 441.504H284.5H268.624L267.586 451.617C270.337 457.821 284.5 455.769 284.5 455.769C284.5 455.769 298.663 457.821 301.414 451.617L300.376 441.504Z" fill="#FDD9A6"/>
<path d="M301.414 451.617C301.414 451.617 296.272 453.375 284.5 453.375C272.728 453.375 267.586 451.617 267.586 451.617L261.636 458.823C268.009 465.727 284.5 465.393 284.5 465.393C284.5 465.393 300.99 465.727 307.363 458.823L301.414 451.617Z" fill="#F2F2F2"/>
<path d="M306.381 389.633H308.162C302.843 377.625 283.757 377.309 283.757 377.309C283.757 377.309 264.672 377.625 259.353 389.633H261.133C261.133 389.633 255.897 402.313 256.211 405.156C256.524 408 256.171 417.942 261.36 425.275C261.361 425.276 261.362 425.277 261.363 425.279C262.538 429.16 263.552 431.658 263.552 431.658L268.624 441.504C268.624 441.504 283.445 445.229 283.758 447.757C284.071 445.229 300.377 441.504 300.377 441.504L303.963 431.658C303.963 431.658 304.977 429.16 306.152 425.279C306.153 425.277 306.154 425.276 306.155 425.275C311.344 417.943 310.991 408 311.304 405.156C311.617 402.312 306.381 389.633 306.381 389.633Z" fill="#564841"/>
<path d="M334.475 626.787H234.525C231.535 626.787 229.112 624.163 229.112 620.925V516.279C229.112 500.9 240.623 488.432 254.822 488.432H314.179C328.378 488.432 339.888 500.9 339.888 516.279V620.925C339.888 624.163 337.465 626.787 334.475 626.787Z" fill="#4B575E"/>
<path d="M314.836 625.632H254.164V530.332C254.164 514.953 265.674 502.485 279.873 502.485H289.127C303.326 502.485 314.837 514.953 314.837 530.332V625.632H314.836Z" fill="#363E42"/>
<path d="M284.5 523.021C285.546 523.021 286.394 522.103 286.394 520.969C286.394 519.836 285.546 518.917 284.5 518.917C283.454 518.917 282.605 519.836 282.605 520.969C282.605 522.103 283.454 523.021 284.5 523.021Z" fill="#363E42"/>
<path opacity="0.5" d="M293.791 530.122C293.545 528.765 293.055 527.504 292.368 526.397C291.639 526.875 290.679 526.78 290.049 526.098C289.42 525.416 289.331 524.376 289.773 523.586C288.751 522.842 287.586 522.311 286.334 522.045C286.13 522.941 285.389 523.608 284.5 523.608C283.61 523.608 282.869 522.941 282.665 522.045C281.413 522.311 280.249 522.842 279.226 523.586C279.668 524.375 279.58 525.415 278.95 526.098C278.321 526.78 277.361 526.875 276.631 526.397C275.945 527.504 275.454 528.765 275.208 530.122C276.036 530.342 276.651 531.145 276.651 532.109C276.651 533.072 276.035 533.875 275.208 534.096C275.454 535.452 275.945 536.713 276.631 537.821C277.36 537.342 278.321 537.438 278.95 538.119C279.58 538.801 279.668 539.841 279.226 540.63C280.249 541.374 281.413 541.906 282.665 542.172C282.869 541.276 283.61 540.609 284.5 540.609C285.389 540.609 286.13 541.276 286.334 542.172C287.586 541.906 288.751 541.374 289.773 540.63C289.331 539.841 289.42 538.801 290.049 538.119C290.679 537.438 291.639 537.342 292.368 537.821C293.055 536.713 293.545 535.452 293.791 534.096C292.964 533.875 292.348 533.072 292.348 532.109C292.348 531.145 292.964 530.342 293.791 530.122Z" fill="#7C8D93"/>
<path d="M293.791 529.536C293.545 528.179 293.055 526.918 292.368 525.811C291.639 526.289 290.679 526.193 290.049 525.512C289.42 524.83 289.331 523.79 289.773 523C288.751 522.256 287.586 521.725 286.334 521.459C286.13 522.355 285.389 523.022 284.5 523.022C283.61 523.022 282.869 522.355 282.665 521.459C281.413 521.725 280.249 522.256 279.226 523C279.668 523.789 279.58 524.829 278.95 525.512C278.321 526.193 277.361 526.289 276.631 525.811C275.945 526.918 275.454 528.179 275.208 529.536C276.036 529.756 276.651 530.559 276.651 531.522C276.651 532.486 276.035 533.289 275.208 533.509C275.454 534.866 275.945 536.127 276.631 537.234C277.36 536.756 278.321 536.851 278.95 537.533C279.58 538.215 279.668 539.255 279.226 540.044C280.249 540.788 281.413 541.319 282.665 541.585C282.869 540.69 283.61 540.022 284.5 540.022C285.389 540.022 286.13 540.69 286.334 541.585C287.586 541.319 288.751 540.788 289.773 540.044C289.331 539.255 289.42 538.215 290.049 537.533C290.679 536.851 291.639 536.755 292.368 537.234C293.055 536.127 293.545 534.866 293.791 533.509C292.964 533.289 292.348 532.486 292.348 531.522C292.348 530.559 292.964 529.755 293.791 529.536Z" fill="#7C8D93"/>
<path d="M208.053 381.12H83.5659V259.887C83.5659 256.259 86.2814 253.318 89.6306 253.318H201.988C205.338 253.318 208.053 256.259 208.053 259.887V381.12Z" fill="white"/>
<mask id="mask2_39_1833" style="mask-type:luminance" maskUnits="userSpaceOnUse" x="83" y="253" width="126" height="129">
<path d="M208.053 381.12H83.5659V259.887C83.5659 256.259 86.2814 253.318 89.6306 253.318H201.988C205.338 253.318 208.053 256.259 208.053 259.887V381.12Z" fill="white"/>
</mask>
<g mask="url(#mask2_39_1833)">
<path d="M219.017 246.674H76.4883V264.652H219.017V246.674Z" fill="white"/>
</g>
<path d="M93.1007 259.295C93.898 259.295 94.5443 258.595 94.5443 257.732C94.5443 256.868 93.898 256.168 93.1007 256.168C92.3035 256.168 91.6572 256.868 91.6572 257.732C91.6572 258.595 92.3035 259.295 93.1007 259.295Z" fill="#F9C32D"/>
<path d="M89.8797 257.732C89.8797 258.595 89.2335 259.295 88.4362 259.295C87.6389 259.295 86.9927 258.595 86.9927 257.732C86.9927 256.868 87.6389 256.168 88.4362 256.168C89.2335 256.169 89.8797 256.869 89.8797 257.732Z" fill="#EA4747"/>
<path d="M99.2088 257.732C99.2088 258.595 98.5626 259.295 97.7653 259.295C96.968 259.295 96.3218 258.595 96.3218 257.732C96.3218 256.868 96.968 256.168 97.7653 256.168C98.5626 256.169 99.2088 256.869 99.2088 257.732Z" fill="#49E872"/>
<path d="M182.987 262.307H108.91C107.252 262.307 105.896 260.837 105.896 259.042C105.896 257.247 107.252 255.778 108.91 255.778H182.987C184.645 255.778 186.002 257.247 186.002 259.042C186.001 260.837 184.645 262.307 182.987 262.307Z" fill="#F4F4F4"/>
<path d="M112.391 309.011H88.436V334.958H112.391V309.011Z" fill="#DBDBDB"/>
<path d="M112.391 271.931H88.436V297.878H112.391V271.931Z" fill="#DBDBDB"/>
<path d="M112.391 346.092H88.436V372.038H112.391V346.092Z" fill="#DBDBDB"/>
<path d="M192.09 291.429H119.021C118.203 291.429 117.533 290.703 117.533 289.817C117.533 288.93 118.203 288.205 119.021 288.205H192.09C192.908 288.205 193.578 288.93 193.578 289.817C193.578 290.704 192.909 291.429 192.09 291.429Z" fill="#DBDBDB"/>
<path d="M192.09 284.98H119.021C118.203 284.98 117.533 284.255 117.533 283.368C117.533 282.482 118.203 281.756 119.021 281.756H192.09C192.908 281.756 193.578 282.482 193.578 283.368C193.578 284.255 192.909 284.98 192.09 284.98Z" fill="#DBDBDB"/>
<path d="M192.09 297.878H119.021C118.203 297.878 117.533 297.152 117.533 296.266C117.533 295.379 118.203 294.653 119.021 294.653H192.09C192.908 294.653 193.578 295.379 193.578 296.266C193.578 297.153 192.909 297.878 192.09 297.878Z" fill="#DBDBDB"/>
<path d="M192.09 328.51H119.021C118.203 328.51 117.533 327.784 117.533 326.897C117.533 326.011 118.203 325.285 119.021 325.285H192.09C192.908 325.285 193.578 326.011 193.578 326.897C193.578 327.784 192.909 328.51 192.09 328.51Z" fill="#DBDBDB"/>
<path d="M192.09 322.061H119.021C118.203 322.061 117.533 321.335 117.533 320.448C117.533 319.562 118.203 318.836 119.021 318.836H192.09C192.908 318.836 193.578 319.562 193.578 320.448C193.578 321.335 192.909 322.061 192.09 322.061Z" fill="#DBDBDB"/>
<path d="M192.09 334.958H119.021C118.203 334.958 117.533 334.233 117.533 333.346C117.533 332.46 118.203 331.734 119.021 331.734H192.09C192.908 331.734 193.578 332.46 193.578 333.346C193.578 334.233 192.909 334.958 192.09 334.958Z" fill="#DBDBDB"/>
<path d="M192.09 365.59H119.021C118.203 365.59 117.533 364.864 117.533 363.977C117.533 363.091 118.203 362.365 119.021 362.365H192.09C192.908 362.365 193.578 363.091 193.578 363.977C193.578 364.864 192.909 365.59 192.09 365.59Z" fill="#DBDBDB"/>
<path d="M192.09 359.141H119.021C118.203 359.141 117.533 358.416 117.533 357.529C117.533 356.642 118.203 355.917 119.021 355.917H192.09C192.908 355.917 193.578 356.642 193.578 357.529C193.578 358.416 192.909 359.141 192.09 359.141Z" fill="#DBDBDB"/>
<path d="M192.09 372.038H119.021C118.203 372.038 117.533 371.313 117.533 370.426C117.533 369.54 118.203 368.814 119.021 368.814H192.09C192.908 368.814 193.578 369.54 193.578 370.426C193.578 371.313 192.909 372.038 192.09 372.038Z" fill="#DBDBDB"/>
<path d="M295.163 297.759L227.591 297.992C225.437 298 223.679 299.915 223.686 302.25L223.823 349.212L213.221 365.709L230.438 357.364L295.336 357.141C297.491 357.133 299.249 355.217 299.242 352.883L299.093 301.99C299.087 299.656 297.318 297.752 295.163 297.759Z" fill="#F4F4F4"/>
<path d="M288.559 329.393C285.196 328.203 283.798 326.724 283.798 326.724L283.685 326.84C282.686 327.858 281.582 328.457 280.576 328.457H280.48C279.474 328.457 278.369 327.857 277.37 326.84L277.258 326.724C277.258 326.724 275.86 328.203 272.497 329.393C267.532 331.402 269.023 339.577 269.021 339.64C269.178 340.551 269.269 340.864 269.348 340.899C274.334 343.303 286.722 343.303 291.707 340.899C291.786 340.864 291.878 340.551 292.034 339.64C292.033 339.577 293.543 331.434 288.559 329.393Z" fill="#56636D"/>
<path d="M285.741 318.964L285.7 318.915C285.42 318.638 285.442 318.654 285.442 318.654C285.442 318.654 285.929 315.991 285.538 314.732C284.925 312.72 281.261 311.373 280.526 311.216C280.526 311.215 280.079 311.118 280.051 311.118C280.051 311.118 279.473 310.991 278.803 311.308C278.367 311.489 276.086 312.61 275.438 314.732C275.048 315.991 275.535 318.654 275.535 318.654C275.535 318.654 275.557 318.638 275.277 318.915L275.236 318.964C275.047 319.196 275.093 319.924 275.3 320.681C275.487 321.439 275.732 321.643 275.79 321.82C276.383 324.833 278.443 327.407 280.543 327.407C282.643 327.407 284.595 324.833 285.187 321.82C285.246 321.642 285.49 321.439 285.677 320.681C285.884 319.923 285.936 319.146 285.741 318.964Z" fill="#56636D"/>
<path d="M259.34 340.376H231.195C230.153 340.376 229.301 339.452 229.301 338.324C229.301 337.195 230.153 336.272 231.195 336.272H259.34C260.382 336.272 261.235 337.195 261.235 338.324C261.235 339.452 260.382 340.376 259.34 340.376Z" fill="#56636D"/>
<path d="M259.34 333.786H231.195C230.153 333.786 229.301 332.862 229.301 331.734C229.301 330.605 230.153 329.682 231.195 329.682H259.34C260.382 329.682 261.235 330.605 261.235 331.734C261.235 332.862 260.382 333.786 259.34 333.786Z" fill="#56636D"/>
<path d="M249.476 317.219H233.482C231.927 317.219 230.654 315.841 230.654 314.156C230.654 312.471 231.927 311.093 233.482 311.093H249.476C251.032 311.093 252.304 312.471 252.304 314.156C252.304 315.841 251.032 317.219 249.476 317.219Z" fill="#56636D"/>
<path d="M160.035 276.963H119.856C118.578 276.963 117.533 275.831 117.533 274.447C117.533 273.062 118.578 271.93 119.856 271.93H160.035C161.312 271.93 162.358 273.062 162.358 274.447C162.357 275.831 161.312 276.963 160.035 276.963Z" fill="#4BE8A0"/>
<path d="M141.813 313.608H119.856C118.578 313.608 117.533 312.476 117.533 311.092C117.533 309.708 118.578 308.576 119.856 308.576H141.813C143.09 308.576 144.136 309.708 144.136 311.092C144.136 312.476 143.09 313.608 141.813 313.608Z" fill="#4BE8A0"/>
<path d="M147.947 351.123H119.856C118.578 351.123 117.533 349.991 117.533 348.607C117.533 347.224 118.578 346.091 119.856 346.091H147.947C149.225 346.091 150.27 347.223 150.27 348.607C150.27 349.991 149.225 351.123 147.947 351.123Z" fill="#4BE8A0"/>
<path d="M360.002 304.321H484.489V183.088C484.489 179.46 481.774 176.519 478.424 176.519H366.067C362.717 176.519 360.002 179.46 360.002 183.088V304.321Z" fill="white"/>
<mask id="mask3_39_1833" style="mask-type:luminance" maskUnits="userSpaceOnUse" x="356" y="53" width="125" height="129">
<path d="M480.604 53.4062L356.117 53.4062V174.639C356.117 178.268 358.832 181.209 362.182 181.209L474.539 181.209C477.889 181.209 480.604 178.268 480.604 174.639V53.4062Z" fill="white"/>
</mask>
<g mask="url(#mask3_39_1833)">
<path d="M349.038 187.853L491.567 187.853V169.874L349.038 169.874V187.853Z" fill="white"/>
</g>
<path d="M371.1 182.496C371.897 182.496 372.543 181.796 372.543 180.933C372.543 180.069 371.897 179.369 371.1 179.369C370.303 179.369 369.656 180.069 369.656 180.933C369.656 181.796 370.303 182.496 371.1 182.496Z" fill="#F9C32D"/>
<path d="M374.321 180.933C374.321 181.796 374.967 182.496 375.764 182.496C376.562 182.496 377.208 181.796 377.208 180.933C377.208 180.069 376.562 179.369 375.764 179.369C374.967 179.37 374.321 180.07 374.321 180.933Z" fill="#EA4747"/>
<path d="M364.991 180.933C364.991 181.796 365.637 182.496 366.435 182.496C367.232 182.496 367.878 181.796 367.878 180.933C367.878 180.069 367.232 179.369 366.435 179.369C365.637 179.37 364.991 180.07 364.991 180.933Z" fill="#49E872"/>
<path d="M385.069 185.508H459.146C460.804 185.508 462.16 184.039 462.16 182.243C462.16 180.447 460.803 178.978 459.146 178.978H385.069C383.411 178.978 382.055 180.447 382.055 182.243C382.055 184.039 383.411 185.508 385.069 185.508Z" fill="#F4F4F4"/>
<path d="M272.892 220.961L340.464 221.193C342.619 221.201 344.376 223.116 344.37 225.451L344.232 272.412L354.835 288.909L337.617 280.564L272.719 280.341C270.564 280.333 268.807 278.417 268.813 276.083L268.963 225.19C268.969 222.857 270.738 220.954 272.892 220.961Z" fill="#F4F4F4"/>
<path d="M279.497 252.595C274.513 254.635 276.023 262.778 276.022 262.842C276.178 263.752 276.269 264.065 276.348 264.1C281.334 266.504 293.722 266.504 298.707 264.1C298.787 264.065 298.878 263.752 299.034 262.842C299.033 262.778 300.524 254.603 295.559 252.595C292.196 251.405 290.798 249.925 290.798 249.925L290.686 250.041C289.686 251.059 288.582 251.658 287.576 251.658H287.48C286.474 251.658 285.369 251.059 284.371 250.041L284.258 249.925C284.258 249.925 282.86 251.405 279.497 252.595Z" fill="#56636D"/>
<path d="M282.314 242.165C282.12 242.348 282.172 243.125 282.379 243.882C282.566 244.64 282.81 244.844 282.869 245.021C283.461 248.034 285.413 250.608 287.513 250.608C289.613 250.608 291.673 248.034 292.266 245.021C292.324 244.843 292.568 244.64 292.756 243.882C292.962 243.125 293.009 242.397 292.82 242.165L292.778 242.116C292.499 241.839 292.521 241.855 292.521 241.855C292.521 241.855 293.008 239.192 292.618 237.933C291.971 235.811 289.69 234.691 289.253 234.509C288.584 234.192 288.005 234.319 288.005 234.319C287.977 234.32 287.53 234.416 287.53 234.417C286.795 234.575 283.131 235.922 282.518 237.933C282.127 239.192 282.614 241.855 282.614 241.855C282.614 241.855 282.636 241.839 282.357 242.116L282.314 242.165Z" fill="#56636D"/>
<path d="M308.715 263.577H336.86C337.902 263.577 338.755 262.653 338.755 261.525C338.755 260.396 337.902 259.473 336.86 259.473H308.715C307.673 259.473 306.821 260.396 306.821 261.525C306.821 262.653 307.673 263.577 308.715 263.577Z" fill="#56636D"/>
<path d="M321.796 256.987H336.86C337.902 256.987 338.755 256.063 338.755 254.935C338.755 253.806 337.902 252.883 336.86 252.883H321.796C320.754 252.883 319.901 253.806 319.901 254.935C319.901 256.063 320.754 256.987 321.796 256.987Z" fill="#56636D"/>
<path d="M321.796 250.538H336.86C337.902 250.538 338.755 249.615 338.755 248.486C338.755 247.358 337.902 246.434 336.86 246.434H321.796C320.754 246.434 319.901 247.358 319.901 248.486C319.901 249.615 320.754 250.538 321.796 250.538Z" fill="#56636D"/>
<path d="M321.796 244.089H336.86C337.902 244.089 338.755 243.166 338.755 242.037C338.755 240.909 337.902 239.986 336.86 239.986H321.796C320.754 239.986 319.901 240.909 319.901 242.037C319.901 243.166 320.754 244.089 321.796 244.089Z" fill="#56636D"/>
<path d="M315.802 256.944H308.535C307.493 256.944 306.64 256.02 306.64 254.892V242.82C306.64 241.691 307.493 240.768 308.535 240.768H315.802C316.844 240.768 317.696 241.691 317.696 242.82V254.892C317.696 256.02 316.844 256.944 315.802 256.944Z" fill="#56636D"/>
<path d="M377.465 255.228C381.949 255.228 385.584 251.291 385.584 246.434C385.584 241.578 381.949 237.641 377.465 237.641C372.981 237.641 369.346 241.578 369.346 246.434C369.346 251.291 372.981 255.228 377.465 255.228Z" fill="#4BE8A0"/>
<path d="M377.465 217.911C381.949 217.911 385.584 213.974 385.584 209.117C385.584 204.26 381.949 200.323 377.465 200.323C372.981 200.323 369.346 204.26 369.346 209.117C369.346 213.974 372.981 217.911 377.465 217.911Z" fill="#4BE8A0"/>
<path d="M377.465 292.545C381.949 292.545 385.584 288.608 385.584 283.752C385.584 278.895 381.949 274.958 377.465 274.958C372.981 274.958 369.346 278.895 369.346 283.752C369.346 288.608 372.981 292.545 377.465 292.545Z" fill="#4BE8A0"/>
<path d="M473.466 215.67H419.882C419.064 215.67 418.394 214.945 418.394 214.058C418.394 213.171 419.064 212.446 419.882 212.446H473.466C474.285 212.446 474.955 213.171 474.955 214.058C474.955 214.945 474.285 215.67 473.466 215.67Z" fill="#DBDBDB"/>
<path d="M473.466 205.789H419.882C419.064 205.789 418.394 205.063 418.394 204.177C418.394 203.29 419.064 202.565 419.882 202.565H473.466C474.285 202.565 474.955 203.29 474.955 204.177C474.955 205.063 474.285 205.789 473.466 205.789Z" fill="#DBDBDB"/>
<path d="M473.466 210.729H419.882C419.064 210.729 418.394 210.004 418.394 209.117C418.394 208.231 419.064 207.505 419.882 207.505H473.466C474.285 207.505 474.955 208.231 474.955 209.117C474.955 210.004 474.285 210.729 473.466 210.729Z" fill="#DBDBDB"/>
<path d="M473.466 252.988H419.882C419.064 252.988 418.394 252.262 418.394 251.375C418.394 250.488 419.064 249.763 419.882 249.763H473.466C474.285 249.763 474.955 250.488 474.955 251.375C474.955 252.262 474.285 252.988 473.466 252.988Z" fill="#DBDBDB"/>
<path d="M473.466 243.106H419.882C419.064 243.106 418.394 242.38 418.394 241.494C418.394 240.607 419.064 239.881 419.882 239.881H473.466C474.285 239.881 474.955 240.607 474.955 241.494C474.955 242.381 474.285 243.106 473.466 243.106Z" fill="#DBDBDB"/>
<path d="M473.466 248.047H419.882C419.064 248.047 418.394 247.321 418.394 246.434C418.394 245.548 419.064 244.822 419.882 244.822H473.466C474.285 244.822 474.955 245.548 474.955 246.434C474.955 247.321 474.285 248.047 473.466 248.047Z" fill="#DBDBDB"/>
<path d="M473.466 290.304H419.882C419.064 290.304 418.394 289.579 418.394 288.692C418.394 287.805 419.064 287.08 419.882 287.08H473.466C474.285 287.08 474.955 287.805 474.955 288.692C474.955 289.579 474.285 290.304 473.466 290.304Z" fill="#DBDBDB"/>
<path d="M473.466 280.423H419.882C419.064 280.423 418.394 279.697 418.394 278.811C418.394 277.924 419.064 277.198 419.882 277.198H473.466C474.285 277.198 474.955 277.924 474.955 278.811C474.955 279.697 474.285 280.423 473.466 280.423Z" fill="#DBDBDB"/>
<path d="M473.466 285.364H419.882C419.064 285.364 418.394 284.638 418.394 283.751C418.394 282.865 419.064 282.139 419.882 282.139H473.466C474.285 282.139 474.955 282.865 474.955 283.751C474.955 284.638 474.285 285.364 473.466 285.364Z" fill="#DBDBDB"/>
<path d="M404.787 212.244H401.28C400.657 212.244 400.147 211.691 400.147 211.016V207.218C400.147 206.543 400.657 205.991 401.28 205.991H404.787C405.41 205.991 405.92 206.543 405.92 207.218V211.016C405.92 211.691 405.41 212.244 404.787 212.244Z" fill="#4BE8A0"/>
<path d="M396.938 212.244H393.432C392.809 212.244 392.299 211.691 392.299 211.016V207.218C392.299 206.543 392.809 205.991 393.432 205.991H396.938C397.562 205.991 398.072 206.543 398.072 207.218V211.016C398.072 211.691 397.562 212.244 396.938 212.244Z" fill="#4BE8A0"/>
<path d="M412.635 212.244H409.128C408.505 212.244 407.995 211.691 407.995 211.016V207.218C407.995 206.543 408.506 205.991 409.128 205.991H412.635C413.258 205.991 413.768 206.543 413.768 207.218V211.016C413.768 211.691 413.258 212.244 412.635 212.244Z" fill="#4BE8A0"/>
<path d="M396.938 249.561H393.432C392.809 249.561 392.299 249.008 392.299 248.333V244.535C392.299 243.86 392.809 243.308 393.432 243.308H396.938C397.562 243.308 398.072 243.861 398.072 244.535V248.333C398.072 249.009 397.562 249.561 396.938 249.561Z" fill="#4BE8A0"/>
<path d="M404.787 286.878H401.28C400.657 286.878 400.147 286.326 400.147 285.65V281.853C400.147 281.177 400.657 280.625 401.28 280.625H404.787C405.41 280.625 405.92 281.177 405.92 281.853V285.65C405.92 286.326 405.41 286.878 404.787 286.878Z" fill="#4BE8A0"/>
<path d="M396.938 286.878H393.432C392.809 286.878 392.299 286.326 392.299 285.65V281.853C392.299 281.177 392.809 280.625 393.432 280.625H396.938C397.562 280.625 398.072 281.177 398.072 281.853V285.65C398.072 286.326 397.562 286.878 396.938 286.878Z" fill="#4BE8A0"/>
</g>
</svg>
