<svg width="25" height="25" viewBox="0 0 25 25" fill="none" xmlns="http://www.w3.org/2000/svg">
<path d="M22.3633 5.12695H9.17969C8.74756 5.12695 8.39844 5.47607 8.39844 5.9082V11.6699H2.63672C2.20459 11.6699 1.85547 12.019 1.85547 12.4512V19.0918C1.85547 19.5239 2.20459 19.873 2.63672 19.873H15.8203C16.2524 19.873 16.6016 19.5239 16.6016 19.0918V13.3301H22.3633C22.7954 13.3301 23.1445 12.981 23.1445 12.5488V5.9082C23.1445 5.47607 22.7954 5.12695 22.3633 5.12695ZM14.9414 18.2129H10.0586V13.3301H14.9414V18.2129ZM21.4844 11.6699H16.6016V6.78711H21.4844V11.6699Z" fill="#0D99FF"/>
</svg>
