<svg width="20" height="20" viewBox="0 0 20 20" fill="none" xmlns="http://www.w3.org/2000/svg">
<path d="M13.7374 9.64226C13.4995 9.57838 13.2513 9.56201 13.007 9.5941C12.7628 9.62618 12.5272 9.70609 12.3138 9.82926C12.1005 9.95243 11.9135 10.1164 11.7635 10.3119C11.6136 10.5074 11.5036 10.7305 11.4399 10.9685L10.9549 12.7798C10.6975 13.7405 10.8323 14.7642 11.3296 15.6255C11.8269 16.4869 12.6461 17.1155 13.6068 17.3729C14.5676 17.6303 15.5912 17.4955 16.4526 16.9982C17.314 16.5009 17.9425 15.6818 18.1999 14.721L18.6849 12.9085C18.8133 12.4285 18.7458 11.9171 18.4973 11.4868C18.2489 11.0565 17.8398 10.7424 17.3599 10.6135L13.7374 9.64226Z" fill="url(#paint0_radial_76_3835)"/>
<path d="M6.26227 9.64244C6.50012 9.57874 6.7482 9.56251 6.99233 9.59469C7.23645 9.62687 7.47185 9.70682 7.68508 9.82997C7.89831 9.95313 8.08519 10.1171 8.23505 10.3125C8.38492 10.5078 8.49483 10.7308 8.55852 10.9687L9.04352 12.7799C9.17833 13.2579 9.21687 13.7578 9.15691 14.2508C9.09694 14.7437 8.93967 15.2199 8.69421 15.6516C8.44875 16.0832 8.12 16.4619 7.72703 16.7655C7.33407 17.0691 6.88472 17.2916 6.40505 17.4202C5.92539 17.5487 5.42498 17.5807 4.93285 17.5143C4.44072 17.4479 3.96669 17.2844 3.53826 17.0333C3.10982 16.7822 2.73553 16.4485 2.43709 16.0516C2.13866 15.6547 1.92202 15.2025 1.79977 14.7212L1.31352 12.9087C1.18525 12.4285 1.25289 11.917 1.50158 11.4867C1.75028 11.0563 2.15966 10.7423 2.63977 10.6137L6.26227 9.64244Z" fill="url(#paint1_radial_76_3835)"/>
<path d="M8.125 8.75C7.62772 8.75 7.15081 8.94754 6.79917 9.29917C6.44754 9.65081 6.25 10.1277 6.25 10.625V13.75C6.25 14.7446 6.64509 15.6984 7.34835 16.4017C8.05161 17.1049 9.00544 17.5 10 17.5C10.9946 17.5 11.9484 17.1049 12.6517 16.4017C13.3549 15.6984 13.75 14.7446 13.75 13.75V10.625C13.75 10.1277 13.5525 9.65081 13.2008 9.29917C12.8492 8.94754 12.3723 8.75 11.875 8.75H8.125Z" fill="url(#paint2_radial_76_3835)"/>
<path d="M10 1.25C9.1712 1.25 8.37634 1.57924 7.79029 2.16529C7.20424 2.75134 6.875 3.5462 6.875 4.375C6.875 5.2038 7.20424 5.99866 7.79029 6.58471C8.37634 7.17076 9.1712 7.5 10 7.5C10.8288 7.5 11.6237 7.17076 12.2097 6.58471C12.7958 5.99866 13.125 5.2038 13.125 4.375C13.125 3.5462 12.7958 2.75134 12.2097 2.16529C11.6237 1.57924 10.8288 1.25 10 1.25Z" fill="url(#paint3_radial_76_3835)"/>
<path d="M3.75 3.75C3.08696 3.75 2.45107 4.01339 1.98223 4.48223C1.51339 4.95107 1.25 5.58696 1.25 6.25C1.25 6.91304 1.51339 7.54893 1.98223 8.01777C2.45107 8.48661 3.08696 8.75 3.75 8.75C4.41304 8.75 5.04893 8.48661 5.51777 8.01777C5.98661 7.54893 6.25 6.91304 6.25 6.25C6.25 5.58696 5.98661 4.95107 5.51777 4.48223C5.04893 4.01339 4.41304 3.75 3.75 3.75Z" fill="url(#paint4_radial_76_3835)"/>
<path d="M16.25 3.75C15.587 3.75 14.9511 4.01339 14.4822 4.48223C14.0134 4.95107 13.75 5.58696 13.75 6.25C13.75 6.91304 14.0134 7.54893 14.4822 8.01777C14.9511 8.48661 15.587 8.75 16.25 8.75C16.913 8.75 17.5489 8.48661 18.0178 8.01777C18.4866 7.54893 18.75 6.91304 18.75 6.25C18.75 5.58696 18.4866 4.95107 18.0178 4.48223C17.5489 4.01339 16.913 3.75 16.25 3.75Z" fill="url(#paint5_radial_76_3835)"/>
<defs>
<radialGradient id="paint0_radial_76_3835" cx="0" cy="0" r="1" gradientUnits="userSpaceOnUse" gradientTransform="translate(13.5153 11.7992) rotate(78.837) scale(5.81143)">
<stop stop-color="#0078D4"/>
<stop offset="1" stop-color="#004695"/>
</radialGradient>
<radialGradient id="paint1_radial_76_3835" cx="0" cy="0" r="1" gradientUnits="userSpaceOnUse" gradientTransform="translate(3.19182 9.94945) rotate(61.056) scale(8.62974 6.21171)">
<stop stop-color="#008CE2"/>
<stop offset="1" stop-color="#0068C6"/>
</radialGradient>
<radialGradient id="paint2_radial_76_3835" cx="0" cy="0" r="1" gradientUnits="userSpaceOnUse" gradientTransform="translate(9.2771 11.8224) rotate(63.608) scale(5.28021 4.84884)">
<stop offset="0.339" stop-color="#3DCBFF"/>
<stop offset="1" stop-color="#14B1FF"/>
</radialGradient>
<radialGradient id="paint3_radial_76_3835" cx="0" cy="0" r="1" gradientUnits="userSpaceOnUse" gradientTransform="translate(9.39835 3.44392) rotate(59.931) scale(3.90383)">
<stop offset="0.339" stop-color="#3DCBFF"/>
<stop offset="1" stop-color="#14B1FF"/>
</radialGradient>
<radialGradient id="paint4_radial_76_3835" cx="0" cy="0" r="1" gradientUnits="userSpaceOnUse" gradientTransform="translate(2.69711 5.26594) rotate(47.573) scale(4.09974)">
<stop stop-color="#008CE2"/>
<stop offset="1" stop-color="#0068C6"/>
</radialGradient>
<radialGradient id="paint5_radial_76_3835" cx="0" cy="0" r="1" gradientUnits="userSpaceOnUse" gradientTransform="translate(15.4474 5.15146) rotate(78.837) scale(3.66754)">
<stop stop-color="#0078D4"/>
<stop offset="1" stop-color="#004695"/>
</radialGradient>
</defs>
</svg>
