<svg width="24" height="24" viewBox="0 0 24 24" fill="none" xmlns="http://www.w3.org/2000/svg">
<path d="M12.7068 2.29279L21.7068 11.2928C22.3368 11.9228 21.8908 12.9998 20.9998 12.9998H19.9998V18.9998C19.9998 19.7954 19.6837 20.5585 19.1211 21.1211C18.5585 21.6837 17.7954 21.9998 16.9998 21.9998H15.9998V14.9998C15.9998 14.2346 15.7075 13.4983 15.1825 12.9415C14.6576 12.3848 13.9397 12.0497 13.1758 12.0048L12.9998 11.9998H10.9998C10.2041 11.9998 9.44108 12.3159 8.87847 12.8785C8.31587 13.4411 7.99979 14.2041 7.99979 14.9998V21.9998H6.99979C6.20415 21.9998 5.44108 21.6837 4.87847 21.1211C4.31587 20.5585 3.99979 19.7954 3.99979 18.9998V12.9998H2.99979C2.10979 12.9998 1.66279 11.9228 2.29279 11.2928L11.2928 2.29279C11.4803 2.10532 11.7346 2 11.9998 2C12.265 2 12.5193 2.10532 12.7068 2.29279ZM12.9998 13.9998C13.265 13.9998 13.5194 14.1051 13.7069 14.2927C13.8944 14.4802 13.9998 14.7346 13.9998 14.9998V21.9998H9.99979V14.9998C9.99983 14.7549 10.0898 14.5184 10.2525 14.3354C10.4153 14.1524 10.6395 14.0354 10.8828 14.0068L10.9998 13.9998H12.9998Z" fill="#0D99FF"/>
</svg>
