<svg width="24" height="24" viewBox="0 0 24 24" fill="none" xmlns="http://www.w3.org/2000/svg">
<path d="M7.875 12C8.96902 12 10.0182 11.5654 10.7918 10.7918C11.5654 10.0182 12 8.96902 12 7.875C12 6.78098 11.5654 5.73177 10.7918 4.95818C10.0182 4.1846 8.96902 3.75 7.875 3.75C6.78098 3.75 5.73177 4.1846 4.95818 4.95818C4.1846 5.73177 3.75 6.78098 3.75 7.875C3.75 8.96902 4.1846 10.0182 4.95818 10.7918C5.73177 11.5654 6.78098 12 7.875 12ZM17.25 12C18.0456 12 18.8087 11.6839 19.3713 11.1213C19.9339 10.5587 20.25 9.79565 20.25 9C20.25 8.20435 19.9339 7.44129 19.3713 6.87868C18.8087 6.31607 18.0456 6 17.25 6C16.4544 6 15.6913 6.31607 15.1287 6.87868C14.5661 7.44129 14.25 8.20435 14.25 9C14.25 9.79565 14.5661 10.5587 15.1287 11.1213C15.6913 11.6839 16.4544 12 17.25 12ZM3.75 13.5C3.15326 13.5 2.58097 13.7371 2.15901 14.159C1.73705 14.581 1.5 15.1533 1.5 15.75V15.8625C1.5 15.8625 1.5 20.25 7.875 20.25C14.25 20.25 14.25 15.8625 14.25 15.8625V15.75C14.25 15.1533 14.0129 14.581 13.591 14.159C13.169 13.7371 12.5967 13.5 12 13.5H3.75ZM17.25 18.75C16.158 18.75 15.294 18.6015 14.6093 18.3652C14.9333 17.8402 15.1192 17.334 15.2242 16.9252C15.3008 16.6315 15.3492 16.3312 15.369 16.0283L15.372 15.948L15.3727 15.9165V15.75C15.3744 14.9197 15.0684 14.1181 14.514 13.5H20.6948C20.9318 13.4999 21.1665 13.5465 21.3855 13.6371C21.6046 13.7278 21.8036 13.8607 21.9712 14.0283C22.1389 14.1958 22.2718 14.3948 22.3626 14.6138C22.4533 14.8328 22.5 15.0675 22.5 15.3045C22.5 15.3045 22.5 18.75 17.25 18.75Z" fill="#4D96FF"/>
</svg>
