<svg width="200" height="200" viewBox="0 0 200 200" fill="none" xmlns="http://www.w3.org/2000/svg">
<path d="M176.115 170.65C172.024 174.888 168.154 177.62 165.096 179.779C129.15 205.157 86.6173 197.759 77.5779 195.953C64.2294 193.285 38.4271 188.129 19.7725 166.543C-8.45037 133.886 -4.05567 82.4362 17.8359 48.4732C21.8401 42.2608 42.9921 7.78062 85.9833 2.25108C112.001 -1.09535 142.329 5.65401 164.292 23.7593C210.395 61.764 207.113 138.54 176.115 170.65Z" fill="url(#paint0_linear_15_4182)"/>
<path d="M38.1141 56.7203C38.1326 55.76 38.9398 54.9873 39.9291 54.9873H99.9348C100.937 54.9873 102.002 55.7838 102.002 56.7572V192.718C102.002 193.444 101.578 194.141 101.048 194.654C100.519 195.167 99.7371 195.454 98.9887 195.452L38.3258 195.292C37.5709 195.29 36.8328 194.994 36.3048 194.47C35.7767 193.946 35.4794 193.237 35.4937 192.504L38.1141 56.7203Z" fill="#BDD0FB"/>
<g opacity="0.52">
<path d="M72.5742 64.6227L92.2035 64.5568L92.1961 62.1724L72.5889 62.2326L72.5742 64.6227Z" fill="white"/>
<path d="M72.5195 73.4054L92.2295 73.3181L92.2221 70.9141L72.5343 70.9954L72.5195 73.4054Z" fill="white"/>
<path d="M72.4658 82.2604L92.2572 82.1514L92.2497 79.7275L72.4807 79.8306L72.4658 82.2604Z" fill="white"/>
<path d="M72.4111 91.1893L92.2846 91.0582L92.277 88.6143L72.4261 88.7393L72.4111 91.1893Z" fill="white"/>
<path d="M72.3564 100.193L92.3126 100.039L92.305 97.5747L72.3716 97.722L72.3564 100.193Z" fill="white"/>
<path d="M72.2441 118.425L92.3679 118.226L92.3601 115.72L72.2595 115.913L72.2441 118.425Z" fill="white"/>
<path d="M72.0732 146.357L92.4536 146.086L92.4457 143.516L72.089 143.781L72.0732 146.357Z" fill="white"/>
<path d="M72.3008 109.271L92.3403 109.095L92.3327 106.61L72.316 106.78L72.3008 109.271Z" fill="white"/>
<path d="M72.1875 127.658L92.396 127.435L92.3882 124.908L72.203 125.124L72.1875 127.658Z" fill="white"/>
<path d="M72.1309 136.968L92.4249 136.721L92.4171 134.173L72.1465 134.413L72.1309 136.968Z" fill="white"/>
<path d="M72.0156 155.827L92.483 155.531L92.475 152.939L72.0316 153.228L72.0156 155.827Z" fill="white"/>
<path d="M71.957 165.378L92.5123 165.057L92.5042 162.442L71.9732 162.757L71.957 165.378Z" fill="white"/>
<path d="M71.8975 175.011L92.5411 174.665L92.5331 172.028L71.9136 172.368L71.8975 175.011Z" fill="white"/>
<path d="M71.8369 184.728L92.5699 184.355L92.5618 181.696L71.8534 182.062L71.8369 184.728Z" fill="white"/>
<path d="M46.8389 64.7093L66.5912 64.6429L66.6126 62.251L46.8824 62.3115L46.8389 64.7093Z" fill="white"/>
<path d="M46.6777 73.52L66.5119 73.4322L66.5334 71.0205L46.7217 71.1025L46.6777 73.52Z" fill="white"/>
<path d="M46.5166 82.4032L66.4331 82.2935L66.4548 79.8618L46.5609 79.9655L46.5166 82.4032Z" fill="white"/>
<path d="M46.3545 91.3611L66.3541 91.2292L66.376 88.7773L46.3992 88.9032L46.3545 91.3611Z" fill="white"/>
<path d="M46.1895 100.394L66.2728 100.239L66.2949 97.7671L46.2345 97.9154L46.1895 100.394Z" fill="white"/>
<path d="M45.8574 118.687L66.1106 118.486L66.133 115.972L45.9033 116.167L45.8574 118.687Z" fill="white"/>
<path d="M45.3467 146.713L65.8598 146.44L65.8828 143.861L45.3937 144.128L45.3467 146.713Z" fill="white"/>
<path d="M46.0244 109.502L66.1923 109.325L66.2146 106.832L46.0698 107.003L46.0244 109.502Z" fill="white"/>
<path d="M45.6885 127.95L66.0276 127.726L66.0502 125.19L45.7347 125.408L45.6885 127.95Z" fill="white"/>
<path d="M45.5186 137.292L65.9443 137.043L65.9672 134.486L45.5652 134.728L45.5186 137.292Z" fill="white"/>
<path d="M45.1748 156.215L65.7761 155.917L65.7993 153.316L45.2222 153.608L45.1748 156.215Z" fill="white"/>
<path d="M45 165.8L65.6901 165.476L65.7136 162.853L45.0478 163.17L45 165.8Z" fill="white"/>
<path d="M44.8232 175.466L65.6032 175.117L65.6268 172.471L44.8715 172.813L44.8232 175.466Z" fill="white"/>
<path d="M44.6465 185.218L65.5169 184.842L65.5407 182.173L44.6952 182.541L44.6465 185.218Z" fill="white"/>
</g>
<path d="M3.67957 94.2222C3.70588 93.1116 4.84657 92.1978 6.24481 92.1978H59.095C60.512 92.1978 61.9036 93.1593 61.9036 94.2849V194.897C61.9036 195.438 61.5108 195.957 61.0282 196.34C60.5455 196.722 59.8303 196.936 59.1487 196.935L3.89096 196.815C3.20335 196.813 2.53015 196.593 2.04925 196.202C1.56834 195.812 1.29717 195.272 1.31001 194.726L3.67957 94.2222Z" fill="#BDD0FB"/>
<path d="M42.6006 104.054L57.6565 104.038L57.7759 97.9072H42.7054L42.6006 104.054Z" fill="url(#paint1_linear_15_4182)"/>
<path d="M25.7246 104.051L40.7654 104.035L40.8685 97.9072H25.8131L25.7246 104.051Z" fill="url(#paint2_linear_15_4182)"/>
<path d="M8.86621 104.048L23.8919 104.032L23.9786 97.9072H8.93838L8.86621 104.048Z" fill="url(#paint3_linear_15_4182)"/>
<path d="M42.4121 115.058L57.4418 115.066L57.5607 108.975L42.5166 108.97L42.4121 115.058Z" fill="url(#paint4_linear_15_4182)"/>
<path d="M25.5664 115.049L40.581 115.057L40.6837 108.969L25.6546 108.964L25.5664 115.049Z" fill="url(#paint5_linear_15_4182)"/>
<path d="M8.73633 115.041L23.7358 115.048L23.8222 108.964L8.80821 108.959L8.73633 115.041Z" fill="url(#paint6_linear_15_4182)"/>
<path d="M42.2256 125.986L57.2291 125.999L57.3477 119.929L42.3297 119.919L42.2256 125.986Z" fill="url(#paint7_linear_15_4182)"/>
<path d="M25.4082 125.972L40.3967 125.984L40.499 119.918L25.496 119.908L25.4082 125.972Z" fill="url(#paint8_linear_15_4182)"/>
<path d="M8.6084 125.958L23.5818 125.971L23.6678 119.907L8.67999 119.897L8.6084 125.958Z" fill="url(#paint9_linear_15_4182)"/>
<path d="M42.0391 136.877L57.0165 136.894L57.1347 130.846L42.1427 130.831L42.0391 136.877Z" fill="url(#paint10_linear_15_4182)"/>
<path d="M25.25 136.858L40.2125 136.875L40.3145 130.83L25.3375 130.815L25.25 136.858Z" fill="url(#paint11_linear_15_4182)"/>
<path d="M8.47852 136.838L23.426 136.855L23.5118 130.813L8.54982 130.798L8.47852 136.838Z" fill="url(#paint12_linear_15_4182)"/>
<path d="M41.8516 147.73L56.8031 147.753L56.9208 141.725L41.955 141.706L41.8516 147.73Z" fill="url(#paint13_linear_15_4182)"/>
<path d="M25.0938 147.705L40.0303 147.728L40.1319 141.703L25.181 141.684L25.0938 147.705Z" fill="url(#paint14_linear_15_4182)"/>
<path d="M8.35059 147.68L23.2722 147.703L23.3577 141.681L8.42168 141.662L8.35059 147.68Z" fill="url(#paint15_linear_15_4182)"/>
<path d="M41.666 158.546L56.5916 158.573L56.7089 152.566L41.769 152.542L41.666 158.546Z" fill="url(#paint16_linear_15_4182)"/>
<path d="M24.9355 158.516L39.8463 158.543L39.9475 152.539L25.0225 152.515L24.9355 158.516Z" fill="url(#paint17_linear_15_4182)"/>
<path d="M8.22266 158.485L23.1185 158.512L23.2036 152.512L8.29353 152.487L8.22266 158.485Z" fill="url(#paint18_linear_15_4182)"/>
<path d="M41.4814 169.324L56.3812 169.355L56.4983 163.369L41.5841 163.34L41.4814 169.324Z" fill="url(#paint19_linear_15_4182)"/>
<path d="M24.7803 169.289L39.6653 169.32L39.7662 163.337L24.8669 163.308L24.7803 169.289Z" fill="url(#paint20_linear_15_4182)"/>
<path d="M8.09668 169.253L22.9668 169.285L23.0518 163.304L8.16734 163.275L8.09668 169.253Z" fill="url(#paint21_linear_15_4182)"/>
<path d="M41.2979 180.065L56.1719 180.102L56.2885 174.136L41.4002 174.103L41.2979 180.065Z" fill="url(#paint22_linear_15_4182)"/>
<path d="M24.625 180.025L39.4843 180.061L39.5849 174.099L24.7113 174.065L24.625 180.025Z" fill="url(#paint23_linear_15_4182)"/>
<path d="M7.96973 179.984L22.8143 180.02L22.8988 174.061L8.04009 174.027L7.96973 179.984Z" fill="url(#paint24_linear_15_4182)"/>
<path d="M41.1143 190.77L55.9627 190.811L56.0789 184.866L41.2162 184.828L41.1143 190.77Z" fill="url(#paint25_linear_15_4182)"/>
<path d="M24.4697 190.724L39.3035 190.765L39.4038 184.823L24.5557 184.784L24.4697 190.724Z" fill="url(#paint26_linear_15_4182)"/>
<path d="M7.84375 190.678L22.6627 190.719L22.7471 184.78L7.91383 184.741L7.84375 190.678Z" fill="url(#paint27_linear_15_4182)"/>
<path d="M141.634 96.625C141.66 95.5144 142.801 94.6006 144.199 94.6006H197.049C198.466 94.6006 199.858 95.5622 199.858 96.6878V197.299C199.858 197.841 199.465 198.36 198.982 198.743C198.5 199.125 197.784 199.339 197.103 199.338L141.845 199.218C141.157 199.216 140.484 198.996 140.003 198.605C139.522 198.215 139.251 197.675 139.264 197.129L141.634 96.625Z" fill="#BDD0FB"/>
<g opacity="0.5">
<path d="M180.556 106.456L195.612 106.44L195.731 100.31H180.661L180.556 106.456Z" fill="white"/>
<path d="M163.68 106.453L178.721 106.437L178.824 100.31H163.768L163.68 106.453Z" fill="white"/>
<path d="M146.82 106.45L161.846 106.434L161.933 100.31H146.892L146.82 106.45Z" fill="white"/>
<path d="M180.367 117.461L195.397 117.468L195.516 111.378L180.472 111.373L180.367 117.461Z" fill="white"/>
<path d="M163.521 117.452L178.535 117.46L178.638 111.372L163.609 111.367L163.521 117.452Z" fill="white"/>
<path d="M146.69 117.444L161.69 117.451L161.776 111.367L146.762 111.362L146.69 117.444Z" fill="white"/>
<path d="M180.18 128.389L195.183 128.402L195.302 122.332L180.284 122.322L180.18 128.389Z" fill="white"/>
<path d="M163.361 128.375L178.35 128.387L178.452 122.321L163.449 122.311L163.361 128.375Z" fill="white"/>
<path d="M146.562 128.361L161.535 128.374L161.621 122.31L146.633 122.3L146.562 128.361Z" fill="white"/>
<path d="M179.992 139.28L194.97 139.297L195.088 133.249L180.096 133.234L179.992 139.28Z" fill="white"/>
<path d="M163.205 139.26L178.168 139.278L178.269 133.232L163.293 133.218L163.205 139.26Z" fill="white"/>
<path d="M146.434 139.241L161.381 139.258L161.467 133.216L146.505 133.201L146.434 139.241Z" fill="white"/>
<path d="M179.808 150.133L194.759 150.155L194.877 144.128L179.911 144.108L179.808 150.133Z" fill="white"/>
<path d="M163.048 150.108L177.984 150.13L178.086 144.106L163.135 144.086L163.048 150.108Z" fill="white"/>
<path d="M146.306 150.083L161.227 150.105L161.313 144.084L146.377 144.064L146.306 150.083Z" fill="white"/>
<path d="M179.621 160.948L194.547 160.975L194.664 154.969L179.724 154.944L179.621 160.948Z" fill="white"/>
<path d="M162.892 160.919L177.802 160.946L177.904 154.942L162.978 154.917L162.892 160.919Z" fill="white"/>
<path d="M146.178 160.888L161.074 160.915L161.159 154.914L146.249 154.89L146.178 160.888Z" fill="white"/>
<path d="M179.437 171.726L194.336 171.758L194.453 165.772L179.539 165.743L179.437 171.726Z" fill="white"/>
<path d="M162.735 171.691L177.62 171.723L177.721 165.74L162.822 165.711L162.735 171.691Z" fill="white"/>
<path d="M146.051 171.656L160.921 171.687L161.006 165.707L146.121 165.678L146.051 171.656Z" fill="white"/>
<path d="M179.252 182.468L194.126 182.505L194.243 176.539L179.354 176.505L179.252 182.468Z" fill="white"/>
<path d="M162.58 182.427L177.439 182.464L177.54 176.501L162.666 176.467L162.58 182.427Z" fill="white"/>
<path d="M145.923 182.387L160.767 182.423L160.852 176.463L145.993 176.43L145.923 182.387Z" fill="white"/>
<path d="M179.068 193.172L193.917 193.213L194.033 187.268L179.17 187.23L179.068 193.172Z" fill="white"/>
<path d="M162.425 193.127L177.259 193.168L177.359 187.225L162.511 187.187L162.425 193.127Z" fill="white"/>
<path d="M145.797 193.081L160.616 193.122L160.7 187.182L145.867 187.144L145.797 193.081Z" fill="white"/>
</g>
<path d="M89.0946 123.994C84.7815 110.457 76.4361 99.6675 66.5509 93.325C57.714 87.6551 51.3475 78.8249 48.9903 68.625C48.7425 67.5529 48.448 66.4777 48.1056 65.4029C42.918 49.1213 28.6901 39.1137 16.3264 43.0503C3.96258 46.9868 -1.85502 63.3769 3.33249 79.6584C4.39308 82.9877 5.83205 86.0538 7.55581 88.7918C13.0572 97.5296 15.2099 108.01 13.1858 118.146C11.3766 127.205 11.8675 137.404 15.1013 147.554C19.9242 162.691 29.7883 174.393 41.2099 180.284C45.53 182.512 49.4257 185.508 52.6515 189.129C58.0124 195.145 65.5673 197.973 72.5088 195.763C79.9968 193.379 84.675 185.799 85.0116 176.955C85.2021 171.95 86.3793 167.045 88.298 162.407C92.8274 151.459 93.4556 137.682 89.0946 123.994Z" fill="#91B3FA"/>
<path opacity="0.57" d="M26.1745 58.9922C31.218 69.2383 35.9266 79.6386 40.5259 90.0879C41.6768 92.6998 42.7856 95.3298 43.9027 97.9562L45.5778 101.896L47.2198 105.85C48.3041 108.49 49.4252 111.116 50.4796 113.768L53.6432 121.726C55.6842 127.057 57.7706 132.372 59.7119 137.742C60.6862 140.425 61.7131 143.089 62.6327 145.792L65.4287 153.888C69.0469 164.719 72.3933 175.646 75.1776 186.722L74.6993 186.848L72.2991 178.64L71.7037 176.588L71.0569 174.551L69.7555 170.478L68.4621 166.405C68.0335 165.046 67.5541 163.703 67.1026 162.352C66.1813 159.655 65.2817 156.951 64.3431 154.261C60.5181 143.521 56.5499 132.833 52.3606 122.229C50.2251 116.943 48.1355 111.638 45.9631 106.367L44.3447 102.409L42.693 98.4641C41.5935 95.8336 40.4938 93.2033 39.3675 90.5841C37.16 85.3264 34.9144 80.0843 32.6259 74.8606C30.3649 69.625 28.0538 64.4095 25.7275 59.2034L26.1745 58.9922Z" fill="white"/>
<path d="M125.177 97.085C123.162 82.3002 116.499 69.6281 107.452 61.2764C99.3644 53.8104 94.3889 43.5231 93.7897 32.5454C93.7267 31.3916 93.6161 30.2259 93.4561 29.0521C91.0318 11.2708 78.1682 -1.65882 64.7242 0.17292C51.2802 2.00459 42.347 17.9041 44.7713 35.6854C45.267 39.3213 46.1996 42.7535 47.4845 45.8979C51.585 55.9329 51.9235 67.1634 48.0199 77.2815C44.5315 86.3237 43.2079 96.9628 44.7191 108.047C46.9731 124.579 55.0371 138.47 65.7477 146.633C69.799 149.721 73.2751 153.526 75.9494 157.855C80.3934 165.05 87.6697 169.345 95.2175 168.316C103.36 167.207 109.539 160.214 111.472 151.127C112.566 145.984 114.659 141.124 117.467 136.674C124.097 126.17 127.215 112.033 125.177 97.085Z" fill="#7D97F4"/>
<path opacity="0.57" d="M72.0113 18.4473C75.3698 29.9596 78.3555 41.5705 81.22 53.2125C81.9374 56.1226 82.6079 59.044 83.2878 61.9632L84.3069 66.3421L85.2894 70.7295C85.9331 73.657 86.6173 76.5757 87.2277 79.5106L89.06 88.3148C90.2064 94.1998 91.4028 100.075 92.4397 105.981C92.9623 108.933 93.5424 111.875 94.005 114.838L95.4338 123.718C97.2189 135.577 98.7067 147.486 99.5889 159.448L99.0736 159.491L98.0727 150.567L97.8273 148.336L97.5263 146.111L96.9159 141.663L96.314 137.215C96.116 135.732 95.8629 134.256 95.6402 132.777C95.1748 129.82 94.7329 126.86 94.2484 123.907C92.2337 112.106 90.0623 100.331 87.6481 88.6028C86.3962 82.7479 85.1946 76.8828 83.9019 71.0362L82.9445 66.6489L81.9502 62.2694C81.2891 59.3494 80.628 56.4293 79.9373 53.5159C78.606 47.6776 77.2326 41.8482 75.8117 36.0304C74.4214 30.2051 72.9757 24.3915 71.5127 18.585L72.0113 18.4473Z" fill="white"/>
<path d="M186.969 198.703H69.6149C68.6977 198.703 67.9541 197.96 67.9541 197.043V38.5118C67.9541 37.5949 68.6977 36.8516 69.6149 36.8516H186.969C187.886 36.8516 188.629 37.5949 188.629 38.5118V197.043C188.629 197.96 187.886 198.703 186.969 198.703Z" fill="url(#paint28_linear_15_4182)"/>
<path d="M168.085 177.383H88.24C85.2133 177.383 82.7598 174.93 82.7598 171.905V66.6459C82.7598 63.6202 85.2133 61.1675 88.24 61.1675H168.085C171.112 61.1675 173.566 63.6202 173.566 66.6459V171.905C173.566 174.93 171.112 177.383 168.085 177.383Z" fill="#7D97F4"/>
<path d="M165.064 169.298H91.3335C90.4255 169.298 89.6895 168.562 89.6895 167.655V72.371C89.6895 71.4634 90.4255 70.7275 91.3335 70.7275H165.064C165.972 70.7275 166.708 71.4634 166.708 72.371V167.655C166.708 168.562 165.972 169.298 165.064 169.298Z" fill="url(#paint29_linear_15_4182)"/>
<path d="M128.072 52.8712C130.066 52.8712 131.682 51.2554 131.682 49.2622C131.682 47.2691 130.066 45.6533 128.072 45.6533C126.078 45.6533 124.462 47.2691 124.462 49.2622C124.462 51.2554 126.078 52.8712 128.072 52.8712Z" fill="url(#paint30_linear_15_4182)"/>
<path d="M151.395 107.522L104.95 108.294C101.415 108.353 98.5391 111.101 98.5391 114.432V143.671C98.5391 147.002 101.415 149.587 104.95 149.445L151.395 147.58C154.731 147.446 157.426 144.729 157.426 141.51V113.251C157.426 110.032 154.731 107.467 151.395 107.522Z" fill="url(#paint31_linear_15_4182)"/>
<path d="M153.745 102.234C152.339 102.255 151.197 101.17 151.197 99.81V93.4105C151.197 86.9904 145.764 81.7831 139.04 81.8025L123.909 81.8462C117.011 81.8661 111.359 87.2274 111.359 93.7973V100.346C111.359 101.738 110.161 102.884 108.682 102.906C107.199 102.928 105.996 101.814 105.996 100.418V93.8494C105.996 84.4722 114.078 76.8433 123.909 76.8433H139.04C148.593 76.8433 156.287 84.2531 156.287 93.361V99.7414C156.287 101.097 155.15 102.213 153.745 102.234Z" fill="url(#paint32_linear_15_4182)"/>
<path d="M135.686 123.727C135.686 120.477 132.849 117.926 129.399 118.16C126.349 118.368 123.826 120.81 123.661 123.726C123.534 125.988 124.777 127.944 126.668 128.933C127.472 129.354 127.872 130.241 127.716 131.118L126.389 138.557C126.221 139.504 126.982 140.337 127.985 140.301L131.393 140.179C132.39 140.143 133.146 139.26 132.979 138.328L131.653 130.958C131.495 130.079 131.952 129.205 132.759 128.723C134.513 127.675 135.686 125.816 135.686 123.727Z" fill="url(#paint33_linear_15_4182)"/>
<path d="M42.4055 198.986C42.4065 198.923 42.4022 198.858 42.3859 198.793C41.4228 194.976 36.6425 192.599 36.6425 192.599L34.7483 192.747C33.6593 196.111 33.7992 198.175 33.9741 199.094C33.979 199.119 33.9868 199.144 33.9937 199.169C35.5562 199.308 38.7723 199.4 42.4055 198.986Z" fill="url(#paint34_linear_15_4182)"/>
<path d="M33.9941 199.169C34.0785 199.476 34.3052 199.715 34.5952 199.776C36.818 200.243 40.3508 199.867 41.8341 199.673C42.1614 199.63 42.4006 199.328 42.406 198.986C38.7728 199.4 35.5567 199.309 33.9941 199.169Z" fill="#91B3FA"/>
<path d="M33.9873 189.927L34.7896 193.788C34.8483 194.07 35.0658 194.282 35.3292 194.307C35.6515 194.337 36.1105 194.355 36.5721 194.287C36.9859 194.226 37.2742 193.806 37.2008 193.355L36.6432 189.927H33.9873Z" fill="url(#paint35_linear_15_4182)"/>
<path d="M50.6089 199.12C48.5169 199.061 47.4349 198.815 46.8755 198.586C46.8742 198.794 46.8753 199.006 46.8821 199.225C46.8893 199.459 47.0628 199.646 47.2763 199.645L58.7628 199.571C59.1293 199.569 59.3435 199.144 59.1847 198.808C57.6786 198.932 53.8428 199.21 50.6089 199.12Z" fill="#91B3FA"/>
<path d="M59.1853 198.808C59.1715 198.779 59.1596 198.749 59.1398 198.721C58.1254 197.304 55.5417 194.483 50.4363 193.259L47.9872 193.182C47.9872 193.182 46.8966 195.077 46.876 198.587C47.4354 198.815 48.5174 199.061 50.6095 199.12C53.8434 199.21 57.6792 198.932 59.1853 198.808Z" fill="url(#paint36_linear_15_4182)"/>
<path d="M47.4229 189.585C47.4615 189.765 47.9711 192.512 48.1685 193.577C48.2154 193.83 48.4127 194.016 48.6474 194.029C49.0667 194.053 49.7431 194.056 50.3248 193.898C50.6386 193.813 50.8494 193.493 50.827 193.138L50.553 188.792L47.4229 189.585Z" fill="url(#paint37_linear_15_4182)"/>
<path d="M45.5681 138.862C45.5681 138.862 48.9373 162.005 51.3686 189.545C51.4139 190.058 51.005 190.505 50.501 190.611C49.7583 190.767 48.6664 190.953 47.7626 190.927C47.2801 190.914 46.8768 190.556 46.7956 190.08C45.9673 185.225 40.0569 159.164 38.5057 153.429C38.5057 153.429 36.7238 177.792 37.2934 190.432C37.3076 190.747 37.0774 191.019 36.7648 191.055C36.2905 191.11 35.5319 191.152 34.5663 191.049C34.1998 191.01 33.9042 190.733 33.8517 190.369C33.2617 186.259 29.8659 161.797 30.0103 144.176C30.0185 143.182 31.1766 135.018 31.1766 135.018L45.5681 138.862Z" fill="url(#paint38_linear_15_4182)"/>
<path d="M46.873 99.9419L47.3241 112.052C48.6053 112.493 49.8251 112.836 50.9866 113.092C51.7131 110.754 53.3129 107.884 54.6229 105.75C49.8098 104.049 46.873 99.9419 46.873 99.9419Z" fill="url(#paint39_linear_15_4182)"/>
<path d="M30.6694 140.195C30.323 140.072 30.0815 139.758 30.0438 139.393C29.5958 135.048 27.4265 108.105 41.1218 97.0223C41.1218 97.0223 41.9071 94.9681 48.3627 100.018C54.8183 105.067 51.362 110.36 49.8165 117.66C47.9462 126.494 44.6647 133.715 46.1166 139.151C46.2168 139.526 46.0195 139.92 45.655 140.054C40.6403 141.902 35.6449 141.963 30.6694 140.195Z" fill="url(#paint40_linear_15_4182)"/>
<path d="M46.4642 88.9497C46.4598 89.3331 40.9912 97.0981 40.9912 97.0981C40.9912 97.0981 41.9728 99.0306 46.6588 100.6L50.7038 92.2857L46.4642 88.9497Z" fill="url(#paint41_linear_15_4182)"/>
<path d="M43.7557 115.52C43.7215 115.52 43.6868 115.51 43.6564 115.49C39.2878 112.539 37.2326 107.776 37.2123 107.728C37.1742 107.638 37.2163 107.534 37.3065 107.496C37.397 107.457 37.5009 107.499 37.5394 107.59C37.5592 107.637 39.5762 112.305 43.8552 115.195C43.9366 115.25 43.9579 115.361 43.9029 115.442C43.8688 115.493 43.8127 115.52 43.7557 115.52Z" fill="url(#paint42_linear_15_4182)"/>
<path d="M50.2625 108.919C50.2043 108.919 50.147 108.89 50.1131 108.837C50.0999 108.817 48.7652 106.74 46.2232 102.19C45.4415 100.791 44.4142 99.9045 43.1698 99.5563C41.109 98.9807 39.1228 100.085 39.1032 100.096C39.0177 100.143 38.9096 100.115 38.8611 100.03C38.8127 99.9444 38.8424 99.8362 38.9277 99.7877C39.0133 99.7392 41.0562 98.5965 43.2622 99.2137C44.6026 99.5875 45.7032 100.53 46.5333 102.016C49.0689 106.555 50.3985 108.625 50.4117 108.645C50.4649 108.727 50.4411 108.837 50.3587 108.89C50.3287 108.91 50.2955 108.919 50.2625 108.919Z" fill="url(#paint43_linear_15_4182)"/>
<path d="M50.7701 84.5C50.7701 84.5 52.7159 88.9685 52.8466 91.3139C52.9773 93.6592 53.4828 95.181 50.7701 95.6534C48.0573 96.1257 45.7721 94.7747 44.5341 92.4385C44.5341 92.4385 42.5943 88.8386 43.0294 87.3643C43.4646 85.89 50.7701 84.5 50.7701 84.5Z" fill="url(#paint44_linear_15_4182)"/>
<path d="M45.4609 90.759L45.6154 90.6909C45.8119 90.6043 45.8961 90.3703 45.7974 90.1796C45.4149 89.4408 44.6691 87.7476 45.6325 87.3526C46.874 86.8436 51.792 85.841 52.8531 84.0965C53.8728 82.42 52.9693 80.2558 51.6114 79.6402C51.5204 79.599 51.4134 79.6317 51.3667 79.7199L51.2536 79.934C51.1761 80.0805 50.9596 80.0583 50.9135 79.8991C50.8692 79.7462 50.6659 79.7167 50.5816 79.8515C50.2554 80.3735 49.3748 81.2196 47.02 81.654C43.6734 82.2715 41.4608 83.6254 41.4057 85.9372C41.4022 86.084 41.2459 86.1657 41.1204 86.0892C40.8733 85.9387 40.4779 85.868 39.9494 86.3123C39.0303 87.0848 39.4064 89.0889 41.4213 90.7374C41.517 90.8158 41.5162 90.9651 41.4125 91.0326C41.0473 91.2702 40.5028 91.8358 41.9136 92.5898C43.3729 93.3697 44.4627 93.3056 44.8823 93.2365C44.9867 93.2192 45.054 93.1182 45.0312 93.0149L44.5834 90.9831C44.558 90.868 44.6456 90.7591 44.7634 90.7591H45.4609V90.759Z" fill="url(#paint45_linear_15_4182)"/>
<path d="M45.5441 91.1878C45.5441 91.1878 44.8017 88.3334 43.5216 89.1337C42.2415 89.9341 44.1859 92.3321 45.2152 92.4388L45.5441 91.1878Z" fill="url(#paint46_linear_15_4182)"/>
<path d="M70.7411 99.0308C70.7411 99.0308 69.7657 97.3022 69.8277 96.4623C69.8898 95.6225 69.3663 94.3891 69.9233 94.4804C70.4804 94.5716 70.5954 94.4972 70.7466 95.5049C70.8979 96.5127 72.656 100.915 70.7411 99.0308Z" fill="url(#paint47_linear_15_4182)"/>
<path d="M70.9247 96.2827L70.9023 99.736C64.3 106.862 58.9562 107.282 54.6227 105.75C53.3126 107.884 51.7129 110.754 50.9863 113.092C68.6175 116.978 72.7694 100.775 72.7694 100.775C75.1574 99.7859 75.6388 99.2074 75.5361 98.5595L70.9247 96.2827Z" fill="url(#paint48_linear_15_4182)"/>
<path d="M76.0024 92.8565C75.4388 92.6277 74.3361 90.5262 74.125 91.2176C73.9138 91.9089 74.2142 92.8565 74.125 93.1504C74.0358 93.4445 72.6611 96.8268 72.9356 97.5782C73.1337 98.1204 74.2252 98.0403 74.3917 98.9273C74.447 99.2217 74.6824 99.4329 74.9555 99.4331C75.2285 99.4332 75.464 99.2223 75.5197 98.928C75.5419 98.81 76.5659 93.0851 76.0024 92.8565Z" fill="url(#paint49_linear_15_4182)"/>
<path d="M58.0069 85.6641C53.5549 94.4666 57.084 105.21 65.8895 109.661C73.0465 113.278 81.4862 111.625 86.786 106.152L117.38 121.616C117.888 121.872 118.493 121.852 118.982 121.56L121.974 119.778C122.025 119.748 122.074 119.714 122.121 119.679C122.134 119.669 122.147 119.658 122.16 119.648C122.195 119.62 122.228 119.591 122.26 119.561C122.271 119.551 122.282 119.541 122.293 119.53C122.332 119.491 122.37 119.45 122.405 119.407C122.406 119.407 122.407 119.406 122.407 119.405C122.783 118.948 122.898 118.31 122.668 117.734L120.236 111.641C120.086 111.264 119.803 110.956 119.442 110.773L116.377 109.224L115.566 110.828L112.934 109.497L113.745 107.894L111.282 106.649L110.536 108.124L107.336 106.507L108.083 105.032L106.89 104.429L106.506 105.188L103.824 103.833L104.208 103.074L102.122 102.019L101.311 103.622L99.8213 102.869L100.632 101.266L99.3408 100.613L98.5299 102.217L95.9472 100.911L96.7581 99.3078L93.1278 97.473L91.5731 96.6872C92.8398 89.1763 89.1689 81.4015 82.0117 77.7841C73.2062 73.3335 62.4589 76.8615 58.0069 85.6641ZM68.4306 86.8801C70.2135 87.7813 70.9283 89.9569 70.0268 91.7393C69.1253 93.5219 66.9489 94.2361 65.166 93.335C63.383 92.4338 62.6682 90.2582 63.5697 88.4758C64.4713 86.6933 66.6476 85.9789 68.4306 86.8801Z" fill="url(#paint50_linear_15_4182)"/>
<path d="M82.8051 91.0586L97.3083 98.389L96.4974 99.9924L99.0802 101.298L99.8911 99.6944L101.183 100.347L100.372 101.951L101.862 102.704L102.673 101.1L104.759 102.155L104.375 102.914L107.057 104.27L107.441 103.51L108.633 104.113L107.887 105.588L111.086 107.205L111.832 105.73L114.295 106.975L113.484 108.578L116.117 109.909L116.927 108.305L119.992 109.854C120.354 110.037 120.636 110.346 120.786 110.722L123.218 116.815C123.521 117.574 123.227 118.441 122.524 118.86L119.532 120.641C119.043 120.933 118.438 120.954 117.93 120.697L80.998 102.03L82.8051 91.0586Z" fill="url(#paint51_linear_15_4182)"/>
<path d="M66.4402 108.742C75.2457 113.193 85.993 109.665 90.445 100.862C94.897 92.0596 91.368 81.3157 82.5625 76.8652C73.757 72.4146 63.0097 75.9426 58.5577 84.7451C54.1057 93.5477 57.6347 104.291 66.4402 108.742ZM65.7168 92.4159C63.9338 91.5147 63.219 89.3392 64.1206 87.5567C65.022 85.7742 67.1984 85.0599 68.9814 85.9611C70.7643 86.8622 71.4791 89.0379 70.5776 90.8203C69.6761 92.6028 67.4997 93.3172 65.7168 92.4159Z" fill="url(#paint52_linear_15_4182)"/>
<path d="M87.3367 105.233L117.931 120.697C118.439 120.953 119.043 120.933 119.532 120.641L122.525 118.859C122.976 118.591 123.256 118.137 123.32 117.645C120.531 114.625 94.0263 103.055 93.035 100.674C92.6823 99.8266 92.6218 98.5437 93.6785 96.5542L92.1238 95.7684C93.3906 88.2575 89.7196 80.4826 82.5625 76.8652C73.757 72.4146 63.0097 75.9426 58.5577 84.7451C54.1057 93.5477 57.6347 104.291 66.4402 108.742C73.5971 112.359 82.0369 110.706 87.3367 105.233ZM68.9813 85.9611C70.7643 86.8623 71.479 89.0379 70.5775 90.8204C69.676 92.6028 67.4997 93.3172 65.7167 92.416C63.9337 91.5148 63.2189 89.3393 64.1205 87.5568C65.0219 85.7743 67.1983 85.06 68.9813 85.9611Z" fill="url(#paint53_linear_15_4182)"/>
<path d="M68.0221 105.614C75.0995 109.191 83.7374 106.355 87.3157 99.2804C90.8939 92.2055 88.0575 83.5703 80.9801 79.9932C73.9028 76.4161 65.2648 79.2517 61.6866 86.3266C58.1083 93.4015 60.9448 102.037 68.0221 105.614ZM65.7165 92.4158C63.9336 91.5146 63.2188 89.3391 64.1203 87.5566C65.0218 85.7741 67.1982 85.0598 68.9811 85.961C70.7641 86.8621 71.4788 89.0378 70.5774 90.8202C69.6758 92.6027 67.4995 93.3171 65.7165 92.4158Z" fill="url(#paint54_linear_15_4182)"/>
<path d="M43.7549 115.52C43.7549 115.52 60.5792 121.15 69.99 113.988C70.5736 113.543 71.3101 113.35 72.0342 113.467L75.6294 114.053C77.1384 114.299 78.5759 113.321 78.9012 111.828C79.0868 110.976 79.1762 110.044 78.9871 109.244L72.2 108.834L72.3941 107.954C72.3941 107.954 69.3943 108.688 69.3339 111.034C69.3339 111.034 62.2973 115.642 49.463 108.49C49.463 108.49 44.4652 112.4 43.7549 115.52Z" fill="url(#paint55_linear_15_4182)"/>
<g opacity="0.3">
<path d="M173.704 31.1981C173.312 31.1821 173.008 30.8515 173.024 30.46C173.055 29.6991 173.054 28.9258 173.02 28.161C173.002 27.7741 173.299 27.4459 173.684 27.4215C173.688 27.4212 173.693 27.4209 173.697 27.4206C174.089 27.4032 174.421 27.7066 174.438 28.0983C174.474 28.9031 174.475 29.7174 174.442 30.5183C174.427 30.8845 174.137 31.1745 173.779 31.1972C173.754 31.1988 173.729 31.1993 173.704 31.1981ZM172.599 24.4503C172.461 23.6976 172.29 22.9439 172.089 22.2092C171.986 21.8314 172.209 21.4411 172.588 21.3379C172.968 21.2358 173.356 21.458 173.459 21.8362C173.67 22.6091 173.85 23.4026 173.995 24.1944C174.066 24.5799 173.811 24.9497 173.425 25.0202C173.397 25.0254 173.369 25.0287 173.341 25.0305C172.987 25.053 172.664 24.8078 172.599 24.4503ZM170.859 18.6851C170.558 17.984 170.223 17.2875 169.863 16.6146C169.678 16.2692 169.808 15.839 170.153 15.6541C170.499 15.4696 170.929 15.5993 171.114 15.9448C171.494 16.6533 171.847 17.387 172.164 18.1251C172.318 18.4852 172.152 18.9025 171.792 19.0573C171.715 19.0902 171.635 19.1086 171.557 19.1136C171.265 19.132 170.981 18.9684 170.859 18.6851ZM167.874 13.4537C167.423 12.8368 166.94 12.2325 166.439 11.6571C166.181 11.3615 166.212 10.9132 166.507 10.6559C166.803 10.3988 167.251 10.4298 167.509 10.7248C168.037 11.3307 168.545 11.967 169.02 12.616C169.251 12.9324 169.182 13.3765 168.866 13.6076C168.752 13.6904 168.623 13.7347 168.492 13.743C168.258 13.7578 168.022 13.6567 167.874 13.4537ZM163.797 9.01752C163.221 8.51738 162.617 8.03469 161.999 7.58342C161.682 7.35191 161.614 6.90792 161.845 6.59165C162.076 6.27509 162.521 6.20633 162.837 6.43792C163.487 6.91275 164.123 7.42067 164.728 7.9469C165.024 8.20392 165.055 8.65224 164.798 8.94797C164.668 9.09702 164.49 9.1789 164.307 9.1905C164.127 9.20182 163.943 9.14517 163.797 9.01752ZM158.839 5.59383C158.167 5.23266 157.47 4.89606 156.769 4.59305C156.409 4.43758 156.244 4.01976 156.399 3.66024C156.555 3.30044 156.972 3.13474 157.332 3.2902C158.07 3.60893 158.803 3.96347 159.511 4.34353C159.856 4.52912 159.986 4.9592 159.8 5.30451C159.68 5.52882 159.456 5.66187 159.219 5.67694C159.092 5.68508 158.96 5.65899 158.839 5.59383ZM132.481 5.26351C132.297 4.91776 132.427 4.48782 132.773 4.30338C133.482 3.9257 134.217 3.57375 134.957 3.25762C135.318 3.10367 135.735 3.27103 135.889 3.63156C136.043 3.99172 135.876 4.40875 135.515 4.56271C134.812 4.86283 134.114 5.19712 133.441 5.55584C133.349 5.60507 133.251 5.63181 133.153 5.63801C132.884 5.65509 132.616 5.51707 132.481 5.26351ZM153.249 3.35522C152.514 3.15275 151.76 2.9797 151.01 2.84124C150.624 2.76989 150.37 2.3997 150.441 2.01438C150.512 1.62877 150.882 1.37615 151.268 1.44556C152.058 1.59151 152.851 1.77365 153.626 1.98699C154.004 2.09107 154.226 2.48165 154.122 2.85962C154.039 3.15931 153.777 3.36098 153.483 3.37958C153.406 3.38441 153.328 3.37662 153.249 3.35522ZM138.173 2.83973C138.071 2.46154 138.295 2.07183 138.673 1.96948C139.448 1.76003 140.243 1.58128 141.034 1.43777C141.42 1.36606 141.789 1.62402 141.86 2.00948C141.929 2.39502 141.673 2.76426 141.288 2.83432C140.535 2.97069 139.78 3.1405 139.043 3.33972C138.996 3.3524 138.949 3.35983 138.902 3.36286C138.573 3.38376 138.263 3.17099 138.173 2.83973ZM147.3 2.42168C146.538 2.38889 145.765 2.38853 145.001 2.42089C144.61 2.43769 144.279 2.13374 144.262 1.74201C144.246 1.35561 144.542 1.02824 144.926 1.0038C144.931 1.00351 144.936 1.00315 144.941 1.00315C145.745 0.968845 146.559 0.969061 147.361 1.00344C147.753 1.02052 148.057 1.3515 148.04 1.74309C148.024 2.10873 147.734 2.39797 147.377 2.42068C147.352 2.42233 147.326 2.42255 147.3 2.42168Z" fill="#91B3FA"/>
<path d="M128.984 8.37092C129.124 8.36205 129.262 8.31218 129.38 8.21862C129.666 7.99101 129.963 7.76584 130.26 7.54867C130.577 7.31774 130.646 6.87368 130.415 6.55726C130.184 6.24056 129.74 6.17072 129.423 6.40245C129.11 6.63064 128.799 6.86755 128.497 7.10699C128.19 7.35061 128.139 7.79719 128.382 8.10387C128.533 8.29322 128.76 8.38519 128.984 8.37092Z" fill="#91B3FA"/>
</g>
<g opacity="0.3">
<path d="M118.636 27.3719C118.977 27.3502 119.263 27.0833 119.297 26.7314C119.331 26.3673 119.374 25.9977 119.425 25.6332C119.478 25.2448 119.206 24.8868 118.818 24.8334C118.428 24.7798 118.072 25.0516 118.018 25.4397C117.965 25.8235 117.92 26.2128 117.883 26.5962C117.846 26.9863 118.132 27.3328 118.522 27.3703C118.56 27.3739 118.598 27.3743 118.636 27.3719Z" fill="#91B3FA"/>
<path d="M146.481 57.6666C146.089 57.6723 145.767 57.3592 145.761 56.967C145.756 56.5752 146.069 56.2538 146.461 56.2474C147.207 56.2368 147.965 56.1939 148.721 56.1204C149.109 56.0814 149.458 56.3681 149.496 56.7582C149.534 57.1482 149.249 57.4951 148.859 57.5333C148.531 57.5651 148.204 57.5914 147.878 57.6121C147.413 57.6417 146.943 57.6601 146.481 57.6666ZM151.82 56.3715C151.73 55.9904 151.966 55.608 152.347 55.5177C153.079 55.3439 153.812 55.1377 154.525 54.9042C154.897 54.7812 155.299 54.9851 155.421 55.3576C155.543 55.7298 155.34 56.1307 154.968 56.2527C154.217 56.4987 153.445 56.7159 152.675 56.8984C152.635 56.9079 152.595 56.9138 152.555 56.9163C152.216 56.9378 151.901 56.713 151.82 56.3715ZM142.619 57.4573C141.835 57.3606 141.045 57.2292 140.269 57.0661C139.886 56.9855 139.64 56.6092 139.721 56.2255C139.802 55.8421 140.178 55.5971 140.562 55.6772C141.298 55.8321 142.048 55.957 142.793 56.0486C143.182 56.0967 143.458 56.4508 143.41 56.84C143.368 57.184 143.086 57.4399 142.752 57.4611C142.708 57.4639 142.664 57.4628 142.619 57.4573ZM157.604 54.4725C157.432 54.1204 157.578 53.6953 157.931 53.5235C158.606 53.194 159.275 52.8316 159.92 52.4466C160.257 52.2452 160.692 52.3551 160.893 52.6917C161.095 53.0281 160.985 53.4636 160.648 53.6646C159.969 54.0702 159.265 54.4519 158.554 54.7988C158.468 54.8406 158.377 54.8639 158.287 54.8696C158.009 54.8873 157.734 54.7387 157.604 54.4725ZM136.551 56.0128C135.808 55.7464 135.066 55.4443 134.345 55.115C133.989 54.9521 133.832 54.5313 133.995 54.1749C134.158 53.8182 134.579 53.6614 134.936 53.8244C135.62 54.137 136.325 54.424 137.03 54.6769C137.399 54.8093 137.591 55.2157 137.459 55.5846C137.36 55.8595 137.109 56.0359 136.835 56.0533C136.741 56.0593 136.645 56.0465 136.551 56.0128ZM130.946 53.2729C130.278 52.8495 129.62 52.393 128.99 51.9161C128.677 51.6792 128.616 51.2343 128.853 50.9218C129.09 50.609 129.535 50.5477 129.847 50.7848C130.446 51.2378 131.071 51.6717 131.706 52.0742C132.037 52.284 132.136 52.7225 131.926 53.0535C131.799 53.2529 131.59 53.3678 131.371 53.3817C131.226 53.391 131.078 53.3562 130.946 53.2729ZM126.072 49.377C125.512 48.8179 124.968 48.2288 124.458 47.6265C124.204 47.3273 124.242 46.8798 124.541 46.6264C124.84 46.3727 125.288 46.4102 125.541 46.709C126.026 47.2815 126.542 47.8409 127.075 48.3723C127.352 48.6492 127.353 49.0985 127.076 49.3758C126.949 49.5033 126.785 49.5722 126.619 49.5828C126.423 49.5953 126.222 49.5267 126.072 49.377ZM122.164 44.511C121.74 43.843 121.339 43.1491 120.973 42.4485C120.791 42.1012 120.926 41.6724 121.273 41.4909C121.62 41.3097 122.049 41.4441 122.231 41.7915C122.578 42.4566 122.959 43.1154 123.363 43.7501C123.573 44.0808 123.475 44.5193 123.144 44.7294C123.04 44.7958 122.924 44.8314 122.809 44.8387C122.559 44.8546 122.308 44.7374 122.164 44.511ZM119.42 38.9027C119.154 38.1593 118.916 37.3947 118.713 36.63C118.612 36.2512 118.838 35.8624 119.217 35.762C119.595 35.6619 119.984 35.8869 120.085 36.2657C120.278 36.9923 120.504 37.7184 120.757 38.4246C120.889 38.7934 120.697 39.1997 120.328 39.3317C120.263 39.3547 120.198 39.3681 120.133 39.3722C119.825 39.3916 119.529 39.2074 119.42 38.9027ZM117.976 32.8351C117.904 32.2578 117.849 31.6711 117.812 31.0915C117.799 30.8816 117.788 30.6723 117.779 30.4631C117.763 30.0717 118.062 29.7336 118.459 29.7248C118.85 29.7083 119.181 30.0125 119.198 30.4042C119.206 30.6029 119.216 30.8022 119.229 31.0016C119.264 31.5527 119.316 32.1101 119.385 32.6591C119.434 33.0478 119.158 33.4025 118.769 33.4511C118.754 33.4528 118.739 33.4543 118.725 33.4553C118.353 33.4789 118.023 33.2094 117.976 32.8351Z" fill="#91B3FA"/>
<path d="M163.442 51.5999C163.583 51.591 163.722 51.5403 163.841 51.4455C164.14 51.2051 164.441 50.9538 164.733 50.6986C165.029 50.441 165.059 49.9927 164.802 49.6974C164.544 49.4021 164.096 49.3711 163.8 49.629C163.522 49.8714 163.237 50.11 162.952 50.3383C162.647 50.5832 162.597 51.03 162.843 51.3357C162.993 51.5232 163.219 51.6141 163.442 51.5999Z" fill="#91B3FA"/>
</g>
<path d="M164.781 39.5084C164.864 39.3932 164.864 39.2387 164.782 39.1233L162.444 35.8325C163.162 34.0896 163.608 32.2197 163.736 30.2839L167.284 28.3626C167.408 28.2952 167.476 28.1562 167.453 28.0167L166.661 23.2401C166.638 23.1005 166.528 22.9909 166.389 22.9673L162.41 22.2939C161.664 20.5029 160.638 18.8768 159.395 17.4592L160.546 13.59C160.587 13.4544 160.536 13.3081 160.421 13.2258L156.482 10.4083C156.367 10.326 156.212 10.3257 156.097 10.4076L152.805 12.7454C151.062 12.027 149.191 11.5812 147.255 11.4538L145.333 7.90665C145.265 7.78218 145.127 7.71421 144.987 7.73742L140.209 8.52953C140.069 8.55274 139.959 8.66186 139.936 8.80133L139.262 12.7789C137.47 13.5243 135.844 14.5498 134.426 15.7924L130.555 14.6419C130.42 14.6016 130.273 14.6517 130.191 14.7668L127.372 18.7045C127.29 18.8196 127.29 18.9742 127.372 19.0896L129.71 22.3804C128.992 24.1232 128.546 25.9932 128.418 27.9291L124.87 29.8503C124.746 29.9176 124.678 30.0566 124.701 30.1961L125.493 34.9729C125.516 35.1125 125.626 35.222 125.765 35.2456L129.744 35.9191C130.49 37.7102 131.515 39.3362 132.758 40.7539L131.608 44.623C131.567 44.7586 131.617 44.9049 131.733 44.9873L135.672 47.8049C135.787 47.8872 135.941 47.8875 136.057 47.8055L139.349 45.4676C141.092 46.1861 142.963 46.6317 144.899 46.7592L146.821 50.3064C146.888 50.4307 147.027 50.4987 147.167 50.4756L151.945 49.6834C152.085 49.6603 152.194 49.5512 152.218 49.4116L152.892 45.4342C154.683 44.6886 156.31 43.6632 157.728 42.4207L161.599 43.5711C161.734 43.6115 161.881 43.5612 161.963 43.4462L164.781 39.5084Z" fill="#91B3FA"/>
<path d="M145.674 33.9569C142.999 33.7345 141.003 31.378 141.226 28.7033C141.333 27.4078 141.94 26.2316 142.932 25.3918C143.924 24.552 145.185 24.1484 146.481 24.2565C149.156 24.4789 151.152 26.8353 150.93 29.51C150.727 31.9432 148.758 33.8138 146.389 33.9641C146.155 33.979 145.916 33.9769 145.674 33.9569ZM143.666 26.2584C142.905 26.9025 142.44 27.8041 142.358 28.7976C142.187 30.848 143.717 32.6551 145.768 32.8255C147.82 32.9967 149.627 31.4663 149.798 29.4157C149.968 27.3654 148.438 25.5582 146.387 25.3878C146.201 25.3724 146.016 25.3708 145.833 25.3824C145.039 25.4327 144.285 25.7351 143.666 26.2584Z" fill="#BDD0FB"/>
<path d="M146.736 40.9859C147.143 40.9601 147.551 40.9137 147.958 40.8461C148.086 40.8249 148.214 40.8015 148.342 40.7762C148.971 40.651 149.589 40.476 150.187 40.254C150.195 40.2509 150.203 40.2479 150.211 40.245C150.234 40.2363 150.257 40.2276 150.28 40.2186C150.325 40.2016 150.37 40.184 150.414 40.1665C150.532 40.1202 150.601 40.0044 150.594 39.8849C150.592 39.8559 150.585 39.8265 150.574 39.7981C150.516 39.6523 150.351 39.5815 150.206 39.6388C149.455 39.9355 148.668 40.1533 147.865 40.2861C143.879 40.9476 140.025 39.4456 137.506 36.6424C136.105 35.0834 135.117 33.1216 134.75 30.9052C134.685 30.5165 134.641 30.1275 134.616 29.7396C134.451 27.1292 135.183 24.5628 136.726 22.407C138.498 19.9306 141.129 18.2924 144.134 17.7943C150.34 16.7661 156.221 20.9744 157.249 27.1752C157.313 27.5576 157.356 27.9417 157.381 28.3259C157.486 29.991 157.226 31.6607 156.613 33.2142C156.597 33.2544 156.591 33.2959 156.594 33.3362C156.6 33.4425 156.667 33.5407 156.773 33.5823C156.919 33.6394 157.084 33.5687 157.141 33.4223C157.785 31.7914 158.058 30.0383 157.947 28.2903C157.922 27.8869 157.876 27.4838 157.809 27.0825C156.73 20.5722 150.551 16.1549 144.041 17.2341C140.886 17.757 138.124 19.4768 136.264 22.0766C134.644 24.3397 133.876 27.034 134.049 29.7744C134.075 30.1816 134.122 30.59 134.189 30.9979C134.713 34.1516 136.433 36.9127 139.034 38.7728C141.298 40.3924 143.994 41.1598 146.736 40.9859Z" fill="#BDD0FB"/>
<g opacity="0.3">
<path d="M199.138 48.3262C199.328 48.3142 199.494 48.1797 199.538 47.9852C199.62 47.6223 199.692 47.2519 199.752 46.8844C199.791 46.6456 199.63 46.4204 199.39 46.3811C199.151 46.3409 198.926 46.504 198.887 46.7428C198.83 47.093 198.761 47.446 198.683 47.7924C198.629 48.0282 198.778 48.2628 199.014 48.3165C199.056 48.3258 199.098 48.3288 199.138 48.3262Z" fill="#91B3FA"/>
<path d="M199.531 44.984C199.289 44.9744 199.101 44.7711 199.11 44.529C199.133 43.9185 199.125 43.2998 199.087 42.6902C199.079 42.5616 199.069 42.4327 199.058 42.3034C199.038 42.0624 199.217 41.8504 199.458 41.8299C199.687 41.8197 199.911 41.9886 199.932 42.23C199.943 42.3652 199.953 42.5001 199.962 42.6347C200.002 43.2737 200.011 43.9225 199.986 44.5627C199.977 44.7892 199.798 44.9692 199.576 44.9832C199.561 44.9842 199.546 44.9843 199.531 44.984ZM198.736 40.1011C198.584 39.3761 198.386 38.6539 198.147 37.955C198.069 37.7258 198.191 37.4771 198.42 37.3986C198.648 37.321 198.898 37.4424 198.977 37.6716C199.227 38.4041 199.435 39.1612 199.594 39.9214C199.643 40.1584 199.491 40.3906 199.254 40.4404C199.234 40.4447 199.212 40.4473 199.192 40.4486C198.978 40.4623 198.781 40.317 198.736 40.1011ZM197.297 35.8976C196.972 35.2328 196.603 34.5816 196.198 33.9614C196.066 33.7588 196.123 33.4872 196.326 33.355C196.53 33.2225 196.8 33.2795 196.933 33.4825C197.357 34.1327 197.745 34.8162 198.085 35.5131C198.191 35.7306 198.101 35.9933 197.883 36.0993C197.83 36.1249 197.774 36.1392 197.719 36.1427C197.547 36.1537 197.377 36.0619 197.297 35.8976ZM194.869 32.176C194.391 31.6102 193.873 31.0688 193.33 30.5679C193.152 30.4034 193.141 30.1262 193.306 29.9485C193.47 29.7713 193.747 29.7597 193.925 29.9238C194.494 30.4495 195.037 31.0167 195.539 31.6102C195.695 31.795 195.672 32.0718 195.487 32.2281C195.412 32.2908 195.323 32.3247 195.232 32.3305C195.098 32.3389 194.962 32.2862 194.869 32.176ZM191.606 29.1596C191.004 28.7273 190.371 28.3282 189.722 27.9731C189.51 27.8571 189.432 27.5905 189.549 27.3782C189.665 27.1658 189.931 27.0876 190.144 27.2045C190.823 27.5765 191.487 27.995 192.118 28.4478C192.314 28.5893 192.359 28.8631 192.218 29.0595C192.138 29.1704 192.016 29.2331 191.889 29.2412C191.792 29.2473 191.691 29.221 191.606 29.1596ZM187.709 27.0265C187.021 26.7537 186.31 26.5213 185.595 26.336C185.361 26.2754 185.22 26.036 185.281 25.8018C185.341 25.5676 185.58 25.4273 185.815 25.4874C186.565 25.6817 187.311 25.9256 188.032 26.2118C188.257 26.3013 188.367 26.556 188.278 26.7808C188.213 26.9435 188.062 27.0462 187.898 27.0567C187.836 27.0606 187.771 27.0513 187.709 27.0265ZM183.41 25.9115C182.679 25.8159 181.932 25.7651 181.19 25.7607C180.947 25.7589 180.752 25.5616 180.754 25.3196C180.755 25.0777 180.953 24.8863 181.195 24.8838C181.973 24.8889 182.757 24.9421 183.524 25.0423C183.764 25.0738 183.933 25.2938 183.902 25.5338C183.874 25.7448 183.7 25.9012 183.495 25.9143C183.467 25.916 183.439 25.9153 183.41 25.9115ZM176.245 25.9561C176.188 25.721 176.332 25.484 176.567 25.4266C177.218 25.2677 177.889 25.142 178.56 25.0527C178.662 25.0385 178.763 25.0261 178.865 25.014C179.103 24.9791 179.323 25.1582 179.351 25.3992C179.379 25.6397 179.206 25.857 178.966 25.8851C178.87 25.8959 178.775 25.9079 178.678 25.9214C178.036 26.0067 177.396 26.1267 176.775 26.278C176.749 26.2844 176.723 26.2881 176.698 26.2897C176.49 26.303 176.296 26.1656 176.245 25.9561Z" fill="#91B3FA"/>
</g>
<g opacity="0.3">
<path d="M181.998 62.7229C181.235 62.7614 180.463 62.7534 179.703 62.7C179.462 62.6827 179.28 62.4733 179.297 62.2317C179.314 61.9899 179.525 61.8106 179.766 61.8254C180.49 61.8767 181.226 61.8841 181.954 61.8473C182.196 61.8349 182.402 62.0213 182.414 62.2629C182.426 62.5027 182.243 62.7073 182.005 62.7225C182.003 62.7227 182 62.7228 181.998 62.7229ZM183.775 62.1118C183.734 61.8734 183.894 61.6466 184.132 61.6058C184.85 61.4822 185.568 61.314 186.265 61.1055C186.496 61.0372 186.741 61.1679 186.811 61.4003C186.88 61.6322 186.748 61.876 186.516 61.9456C185.785 62.164 185.033 62.3404 184.281 62.4695C184.265 62.4723 184.25 62.4741 184.234 62.4751C184.013 62.4891 183.813 62.335 183.775 62.1118ZM177.427 62.3979C176.676 62.2508 175.929 62.0568 175.204 61.821C174.974 61.746 174.848 61.4984 174.923 61.2684C174.998 61.0381 175.245 60.9131 175.476 60.9872C176.167 61.2123 176.88 61.3974 177.595 61.5381C177.833 61.5847 177.988 61.8151 177.941 62.0522C177.902 62.2519 177.733 62.393 177.539 62.4054C177.502 62.4078 177.465 62.4054 177.427 62.3979ZM188.095 60.9285C187.998 60.7069 188.099 60.4483 188.321 60.3511C188.988 60.0586 189.643 59.7225 190.269 59.3512C190.477 59.2282 190.746 59.2969 190.87 59.5044C190.993 59.7127 190.925 59.9817 190.716 60.1051C190.06 60.4946 189.372 60.8474 188.673 61.1538C188.624 61.1749 188.574 61.1866 188.524 61.1898C188.346 61.2011 188.171 61.1016 188.095 60.9285ZM173.07 60.9786C172.379 60.6562 171.7 60.288 171.053 59.8844C170.847 59.7563 170.785 59.4858 170.913 59.2804C171.041 59.075 171.311 59.0119 171.517 59.1403C172.134 59.5257 172.782 59.8767 173.441 60.1839C173.661 60.2863 173.756 60.547 173.653 60.7666C173.583 60.9169 173.438 61.0088 173.283 61.0186C173.212 61.0232 173.139 61.0107 173.07 60.9786ZM169.181 58.5556C168.586 58.0761 168.015 57.5562 167.484 57.0105C167.315 56.8372 167.318 56.5599 167.492 56.3911C167.665 56.2222 167.943 56.2256 168.112 56.3993C168.619 56.9196 169.164 57.4155 169.732 57.8732C169.92 58.025 169.95 58.301 169.798 58.4895C169.717 58.5889 169.603 58.6443 169.484 58.6518C169.378 58.6585 169.27 58.6271 169.181 58.5556ZM165.984 55.2713C165.521 54.663 165.091 54.0208 164.706 53.3632C164.584 53.154 164.655 52.8857 164.864 52.7635C165.073 52.6413 165.341 52.7122 165.463 52.9206C165.83 53.5479 166.24 54.1601 166.682 54.7398C166.829 54.9324 166.791 55.2076 166.599 55.3541C166.527 55.4088 166.445 55.4376 166.361 55.4429C166.22 55.4519 166.077 55.3924 165.984 55.2713Z" fill="#91B3FA"/>
<path d="M192.393 58.8939C192.478 58.8886 192.561 58.8588 192.634 58.8032C192.93 58.5737 193.222 58.3344 193.5 58.0921C193.682 57.9329 193.701 57.6559 193.542 57.4735C193.383 57.2919 193.106 57.2725 192.923 57.4313C192.658 57.6626 192.38 57.8907 192.097 58.1099C191.905 58.258 191.87 58.5334 192.018 58.7247C192.111 58.8441 192.253 58.9028 192.393 58.8939Z" fill="#91B3FA"/>
</g>
<path d="M193.557 50.6315C193.612 50.5544 193.613 50.451 193.558 50.3738L191.993 48.1717C192.474 47.0055 192.772 45.7542 192.857 44.4589L195.232 43.1732C195.315 43.1281 195.361 43.0352 195.345 42.9417L194.815 39.7454C194.799 39.652 194.726 39.5787 194.633 39.5629L191.971 39.1123C191.472 37.9138 190.785 36.8257 189.953 35.8771L190.723 33.288C190.75 33.1972 190.717 33.0994 190.64 33.0442L188.004 31.1589C187.927 31.1038 187.823 31.1036 187.746 31.1584L185.543 32.7228C184.377 32.242 183.125 31.9438 181.829 31.8585L180.543 29.4849C180.498 29.4016 180.405 29.3562 180.312 29.3717L177.114 29.9017C177.021 29.9172 176.948 29.9903 176.932 30.0836L176.481 32.7452C175.282 33.244 174.194 33.9302 173.245 34.7617L170.655 33.9919C170.564 33.9649 170.466 33.9984 170.411 34.0755L168.525 36.7105C168.47 36.7875 168.47 36.8909 168.525 36.9681L170.09 39.1703C169.609 40.3365 169.31 41.5878 169.225 42.8831L166.851 44.1687C166.767 44.2138 166.722 44.3067 166.737 44.4002L167.268 47.5966C167.283 47.69 167.356 47.7632 167.45 47.7791L170.112 48.2297C170.611 49.4282 171.297 50.5162 172.129 51.4649L171.359 54.054C171.332 54.1447 171.366 54.2426 171.443 54.2978L174.079 56.1831C174.156 56.2382 174.259 56.2383 174.336 56.1836L176.539 54.6192C177.706 55.0999 178.958 55.3981 180.253 55.4834L181.539 57.857C181.585 57.9403 181.677 57.9858 181.771 57.9703L184.968 57.4401C185.062 57.4246 185.135 57.3516 185.151 57.2582L185.602 54.5967C186.801 54.0979 187.889 53.4117 188.838 52.5802L191.428 53.35C191.519 53.3771 191.617 53.3434 191.672 53.2664L193.557 50.6315Z" fill="#91B3FA"/>
<path d="M180.767 46.9749C179.884 46.9018 179.082 46.4891 178.51 45.813C177.938 45.1374 177.663 44.2791 177.736 43.3964C177.888 41.5748 179.491 40.2187 181.316 40.3671C183.139 40.519 184.498 42.1243 184.346 43.9454C184.273 44.828 183.86 45.6291 183.184 46.2013C182.634 46.6663 181.964 46.9349 181.258 46.9796C181.096 46.99 180.932 46.9884 180.767 46.9749ZM178.61 43.4688C178.556 44.1181 178.758 44.7494 179.179 45.2468C179.6 45.7438 180.19 46.0473 180.839 46.1014C181.489 46.1545 182.12 45.9532 182.617 45.5322C183.115 45.1117 183.418 44.522 183.472 43.8731C183.584 42.533 182.584 41.3523 181.243 41.2406C181.122 41.2307 181.003 41.2297 180.885 41.2371C179.698 41.3124 178.711 42.25 178.61 43.4688Z" fill="#BDD0FB"/>
<path d="M181.506 51.8669C181.783 51.8493 182.061 51.8175 182.341 51.7715C182.895 51.6797 183.441 51.5314 183.964 51.3301C183.988 51.3209 184.011 51.3116 184.035 51.3024C184.216 51.2309 184.323 51.0521 184.311 50.8676C184.309 50.8227 184.299 50.7775 184.281 50.7336C184.192 50.5085 183.937 50.3994 183.712 50.4874C183.226 50.68 182.716 50.8209 182.198 50.9065H182.197C182.169 50.9113 182.14 50.9157 182.112 50.9201C180.883 51.1117 179.653 50.9899 178.513 50.5819C177.893 50.3605 177.3 50.0541 176.748 49.6667C176.744 49.6635 176.739 49.6604 176.735 49.6573C176.721 49.6474 176.707 49.638 176.694 49.6281C175.09 48.4809 174.029 46.7783 173.707 44.8336C173.665 44.582 173.636 44.3303 173.62 44.0792C173.513 42.3893 173.987 40.7278 174.986 39.3319C176.133 37.7289 177.837 36.6687 179.782 36.3462C181.726 36.0247 183.681 36.4779 185.285 37.6247C186.889 38.7718 187.95 40.4744 188.272 42.4191C188.314 42.6665 188.342 42.9152 188.358 43.1638C188.426 44.242 188.257 45.3227 187.86 46.3283C187.836 46.3903 187.827 46.4544 187.831 46.5168C187.841 46.6808 187.944 46.8325 188.107 46.8968C188.333 46.985 188.587 46.8754 188.676 46.6498C189.12 45.5245 189.309 44.3151 189.233 43.1093C189.215 42.8308 189.183 42.5527 189.137 42.276C188.776 40.1001 187.59 38.1953 185.795 36.9119C184.001 35.6289 181.816 35.1191 179.638 35.4815C177.462 35.8422 175.557 37.0284 174.273 38.8224C173.155 40.3837 172.625 42.2426 172.745 44.1332C172.763 44.4139 172.795 44.6958 172.842 44.9771C173.541 49.1892 177.332 52.1318 181.506 51.8669Z" fill="#BDD0FB"/>
<defs>
<linearGradient id="paint0_linear_15_4182" x1="223.934" y1="257.508" x2="47.6097" y2="38.4521" gradientUnits="userSpaceOnUse">
<stop stop-color="#DAE3FE"/>
<stop offset="1" stop-color="#E9EFFD"/>
</linearGradient>
<linearGradient id="paint1_linear_15_4182" x1="42.6006" y1="100.981" x2="57.7759" y2="100.981" gradientUnits="userSpaceOnUse">
<stop stop-color="#DAE3FE"/>
<stop offset="1" stop-color="#E9EFFD"/>
</linearGradient>
<linearGradient id="paint2_linear_15_4182" x1="25.7246" y1="100.979" x2="40.8684" y2="100.979" gradientUnits="userSpaceOnUse">
<stop stop-color="#DAE3FE"/>
<stop offset="1" stop-color="#E9EFFD"/>
</linearGradient>
<linearGradient id="paint3_linear_15_4182" x1="8.86621" y1="100.977" x2="23.9785" y2="100.977" gradientUnits="userSpaceOnUse">
<stop stop-color="#DAE3FE"/>
<stop offset="1" stop-color="#E9EFFD"/>
</linearGradient>
<linearGradient id="paint4_linear_15_4182" x1="42.4121" y1="112.018" x2="57.5607" y2="112.018" gradientUnits="userSpaceOnUse">
<stop stop-color="#DAE3FE"/>
<stop offset="1" stop-color="#E9EFFD"/>
</linearGradient>
<linearGradient id="paint5_linear_15_4182" x1="25.5664" y1="112.011" x2="40.6837" y2="112.011" gradientUnits="userSpaceOnUse">
<stop stop-color="#DAE3FE"/>
<stop offset="1" stop-color="#E9EFFD"/>
</linearGradient>
<linearGradient id="paint6_linear_15_4182" x1="8.73635" y1="112.004" x2="23.8222" y2="112.004" gradientUnits="userSpaceOnUse">
<stop stop-color="#DAE3FE"/>
<stop offset="1" stop-color="#E9EFFD"/>
</linearGradient>
<linearGradient id="paint7_linear_15_4182" x1="42.2256" y1="122.959" x2="57.3477" y2="122.959" gradientUnits="userSpaceOnUse">
<stop stop-color="#DAE3FE"/>
<stop offset="1" stop-color="#E9EFFD"/>
</linearGradient>
<linearGradient id="paint8_linear_15_4182" x1="25.4082" y1="122.946" x2="40.499" y2="122.946" gradientUnits="userSpaceOnUse">
<stop stop-color="#DAE3FE"/>
<stop offset="1" stop-color="#E9EFFD"/>
</linearGradient>
<linearGradient id="paint9_linear_15_4182" x1="8.60838" y1="122.934" x2="23.6678" y2="122.934" gradientUnits="userSpaceOnUse">
<stop stop-color="#DAE3FE"/>
<stop offset="1" stop-color="#E9EFFD"/>
</linearGradient>
<linearGradient id="paint10_linear_15_4182" x1="42.039" y1="133.863" x2="57.1347" y2="133.863" gradientUnits="userSpaceOnUse">
<stop stop-color="#DAE3FE"/>
<stop offset="1" stop-color="#E9EFFD"/>
</linearGradient>
<linearGradient id="paint11_linear_15_4182" x1="25.25" y1="133.845" x2="40.3144" y2="133.845" gradientUnits="userSpaceOnUse">
<stop stop-color="#DAE3FE"/>
<stop offset="1" stop-color="#E9EFFD"/>
</linearGradient>
<linearGradient id="paint12_linear_15_4182" x1="8.47849" y1="133.827" x2="23.5117" y2="133.827" gradientUnits="userSpaceOnUse">
<stop stop-color="#DAE3FE"/>
<stop offset="1" stop-color="#E9EFFD"/>
</linearGradient>
<linearGradient id="paint13_linear_15_4182" x1="41.8516" y1="144.729" x2="56.9208" y2="144.729" gradientUnits="userSpaceOnUse">
<stop stop-color="#DAE3FE"/>
<stop offset="1" stop-color="#E9EFFD"/>
</linearGradient>
<linearGradient id="paint14_linear_15_4182" x1="25.0938" y1="144.706" x2="40.1319" y2="144.706" gradientUnits="userSpaceOnUse">
<stop stop-color="#DAE3FE"/>
<stop offset="1" stop-color="#E9EFFD"/>
</linearGradient>
<linearGradient id="paint15_linear_15_4182" x1="8.35058" y1="144.682" x2="23.3577" y2="144.682" gradientUnits="userSpaceOnUse">
<stop stop-color="#DAE3FE"/>
<stop offset="1" stop-color="#E9EFFD"/>
</linearGradient>
<linearGradient id="paint16_linear_15_4182" x1="41.666" y1="155.557" x2="56.7089" y2="155.557" gradientUnits="userSpaceOnUse">
<stop stop-color="#DAE3FE"/>
<stop offset="1" stop-color="#E9EFFD"/>
</linearGradient>
<linearGradient id="paint17_linear_15_4182" x1="24.9356" y1="155.529" x2="39.9475" y2="155.529" gradientUnits="userSpaceOnUse">
<stop stop-color="#DAE3FE"/>
<stop offset="1" stop-color="#E9EFFD"/>
</linearGradient>
<linearGradient id="paint18_linear_15_4182" x1="8.22263" y1="155.5" x2="23.2036" y2="155.5" gradientUnits="userSpaceOnUse">
<stop stop-color="#DAE3FE"/>
<stop offset="1" stop-color="#E9EFFD"/>
</linearGradient>
<linearGradient id="paint19_linear_15_4182" x1="41.4815" y1="166.348" x2="56.4982" y2="166.348" gradientUnits="userSpaceOnUse">
<stop stop-color="#DAE3FE"/>
<stop offset="1" stop-color="#E9EFFD"/>
</linearGradient>
<linearGradient id="paint20_linear_15_4182" x1="24.7803" y1="166.314" x2="39.7661" y2="166.314" gradientUnits="userSpaceOnUse">
<stop stop-color="#DAE3FE"/>
<stop offset="1" stop-color="#E9EFFD"/>
</linearGradient>
<linearGradient id="paint21_linear_15_4182" x1="8.09669" y1="166.28" x2="23.0517" y2="166.28" gradientUnits="userSpaceOnUse">
<stop stop-color="#DAE3FE"/>
<stop offset="1" stop-color="#E9EFFD"/>
</linearGradient>
<linearGradient id="paint22_linear_15_4182" x1="41.2978" y1="177.102" x2="56.2885" y2="177.102" gradientUnits="userSpaceOnUse">
<stop stop-color="#DAE3FE"/>
<stop offset="1" stop-color="#E9EFFD"/>
</linearGradient>
<linearGradient id="paint23_linear_15_4182" x1="24.625" y1="177.063" x2="39.5849" y2="177.063" gradientUnits="userSpaceOnUse">
<stop stop-color="#DAE3FE"/>
<stop offset="1" stop-color="#E9EFFD"/>
</linearGradient>
<linearGradient id="paint24_linear_15_4182" x1="7.9697" y1="177.024" x2="22.8988" y2="177.024" gradientUnits="userSpaceOnUse">
<stop stop-color="#DAE3FE"/>
<stop offset="1" stop-color="#E9EFFD"/>
</linearGradient>
<linearGradient id="paint25_linear_15_4182" x1="41.1143" y1="187.819" x2="56.0789" y2="187.819" gradientUnits="userSpaceOnUse">
<stop stop-color="#DAE3FE"/>
<stop offset="1" stop-color="#E9EFFD"/>
</linearGradient>
<linearGradient id="paint26_linear_15_4182" x1="24.4697" y1="187.774" x2="39.4037" y2="187.774" gradientUnits="userSpaceOnUse">
<stop stop-color="#DAE3FE"/>
<stop offset="1" stop-color="#E9EFFD"/>
</linearGradient>
<linearGradient id="paint27_linear_15_4182" x1="7.84374" y1="187.73" x2="22.7471" y2="187.73" gradientUnits="userSpaceOnUse">
<stop stop-color="#DAE3FE"/>
<stop offset="1" stop-color="#E9EFFD"/>
</linearGradient>
<linearGradient id="paint28_linear_15_4182" x1="163.902" y1="-89.8791" x2="120.373" y2="164.119" gradientUnits="userSpaceOnUse">
<stop stop-color="#4042E2"/>
<stop offset="1" stop-color="#4F52FF"/>
</linearGradient>
<linearGradient id="paint29_linear_15_4182" x1="89.6895" y1="120.013" x2="166.708" y2="120.013" gradientUnits="userSpaceOnUse">
<stop stop-color="#4042E2"/>
<stop offset="1" stop-color="#4F52FF"/>
</linearGradient>
<linearGradient id="paint30_linear_15_4182" x1="134.197" y1="35.1318" x2="157.616" y2="-18.9297" gradientUnits="userSpaceOnUse">
<stop stop-color="#09005D"/>
<stop offset="1" stop-color="#1A0F91"/>
</linearGradient>
<linearGradient id="paint31_linear_15_4182" x1="136.327" y1="70.1504" x2="83.628" y2="435.531" gradientUnits="userSpaceOnUse">
<stop stop-color="#FEBBBA"/>
<stop offset="1" stop-color="#FF928E"/>
</linearGradient>
<linearGradient id="paint32_linear_15_4182" x1="134.944" y1="69.9508" x2="82.2449" y2="435.332" gradientUnits="userSpaceOnUse">
<stop stop-color="#FEBBBA"/>
<stop offset="1" stop-color="#FF928E"/>
</linearGradient>
<linearGradient id="paint33_linear_15_4182" x1="137.955" y1="111.704" x2="215.219" y2="-41.9661" gradientUnits="userSpaceOnUse">
<stop stop-color="#FE7062"/>
<stop offset="1" stop-color="#FF928E"/>
</linearGradient>
<linearGradient id="paint34_linear_15_4182" x1="33.8545" y1="195.942" x2="42.4056" y2="195.942" gradientUnits="userSpaceOnUse">
<stop stop-color="#09005D"/>
<stop offset="1" stop-color="#1A0F91"/>
</linearGradient>
<linearGradient id="paint35_linear_15_4182" x1="36.233" y1="186.211" x2="34.6007" y2="200.461" gradientUnits="userSpaceOnUse">
<stop stop-color="#FEBBBA"/>
<stop offset="1" stop-color="#FF928E"/>
</linearGradient>
<linearGradient id="paint36_linear_15_4182" x1="46.876" y1="196.16" x2="59.1853" y2="196.16" gradientUnits="userSpaceOnUse">
<stop stop-color="#09005D"/>
<stop offset="1" stop-color="#1A0F91"/>
</linearGradient>
<linearGradient id="paint37_linear_15_4182" x1="49.3142" y1="187.715" x2="48.5812" y2="202.041" gradientUnits="userSpaceOnUse">
<stop stop-color="#FEBBBA"/>
<stop offset="1" stop-color="#FF928E"/>
</linearGradient>
<linearGradient id="paint38_linear_15_4182" x1="47.0598" y1="199.654" x2="30.1634" y2="119.061" gradientUnits="userSpaceOnUse">
<stop stop-color="#09005D"/>
<stop offset="1" stop-color="#1A0F91"/>
</linearGradient>
<linearGradient id="paint39_linear_15_4182" x1="64.3263" y1="89.5367" x2="26.9825" y2="130.749" gradientUnits="userSpaceOnUse">
<stop stop-color="#4042E2"/>
<stop offset="1" stop-color="#4F52FF"/>
</linearGradient>
<linearGradient id="paint40_linear_15_4182" x1="57.0635" y1="91.8245" x2="2.63568" y2="191.756" gradientUnits="userSpaceOnUse">
<stop stop-color="#4042E2"/>
<stop offset="1" stop-color="#4F52FF"/>
</linearGradient>
<linearGradient id="paint41_linear_15_4182" x1="42.7486" y1="103.151" x2="46.5401" y2="92.7945" gradientUnits="userSpaceOnUse">
<stop stop-color="#FEBBBA"/>
<stop offset="1" stop-color="#FF928E"/>
</linearGradient>
<linearGradient id="paint42_linear_15_4182" x1="46.0322" y1="69.7713" x2="44.2709" y2="83.2261" gradientUnits="userSpaceOnUse">
<stop stop-color="#4042E2"/>
<stop offset="1" stop-color="#4F52FF"/>
</linearGradient>
<linearGradient id="paint43_linear_15_4182" x1="49.1146" y1="70.1749" x2="47.3532" y2="83.6296" gradientUnits="userSpaceOnUse">
<stop stop-color="#4042E2"/>
<stop offset="1" stop-color="#4F52FF"/>
</linearGradient>
<linearGradient id="paint44_linear_15_4182" x1="52.0733" y1="87.6167" x2="29.4759" y2="105.621" gradientUnits="userSpaceOnUse">
<stop stop-color="#FEBBBA"/>
<stop offset="1" stop-color="#FF928E"/>
</linearGradient>
<linearGradient id="paint45_linear_15_4182" x1="43.3472" y1="81.6965" x2="53.703" y2="95.034" gradientUnits="userSpaceOnUse">
<stop stop-color="#09005D"/>
<stop offset="1" stop-color="#1A0F91"/>
</linearGradient>
<linearGradient id="paint46_linear_15_4182" x1="49.797" y1="86.631" x2="38.6759" y2="95.143" gradientUnits="userSpaceOnUse">
<stop stop-color="#FEBBBA"/>
<stop offset="1" stop-color="#FF928E"/>
</linearGradient>
<linearGradient id="paint47_linear_15_4182" x1="76.1249" y1="92.2521" x2="52.5793" y2="112.598" gradientUnits="userSpaceOnUse">
<stop stop-color="#FEBBBA"/>
<stop offset="1" stop-color="#FF928E"/>
</linearGradient>
<linearGradient id="paint48_linear_15_4182" x1="76.6163" y1="94.1485" x2="53.6968" y2="113.953" gradientUnits="userSpaceOnUse">
<stop stop-color="#FEBBBA"/>
<stop offset="1" stop-color="#FF928E"/>
</linearGradient>
<linearGradient id="paint49_linear_15_4182" x1="76.9972" y1="93.2612" x2="53.4518" y2="113.607" gradientUnits="userSpaceOnUse">
<stop stop-color="#FEBBBA"/>
<stop offset="1" stop-color="#FF928E"/>
</linearGradient>
<linearGradient id="paint50_linear_15_4182" x1="47.2686" y1="51.6764" x2="106.805" y2="130.291" gradientUnits="userSpaceOnUse">
<stop stop-color="#E1473D"/>
<stop offset="1" stop-color="#E9605A"/>
</linearGradient>
<linearGradient id="paint51_linear_15_4182" x1="110.973" y1="65.5862" x2="99.9143" y2="119.839" gradientUnits="userSpaceOnUse">
<stop stop-color="#FE7062"/>
<stop offset="1" stop-color="#FF928E"/>
</linearGradient>
<linearGradient id="paint52_linear_15_4182" x1="53.754" y1="91.2529" x2="147.153" y2="98.2382" gradientUnits="userSpaceOnUse">
<stop stop-color="#FF9085"/>
<stop offset="1" stop-color="#FB6FBB"/>
</linearGradient>
<linearGradient id="paint53_linear_15_4182" x1="96.2293" y1="87.7085" x2="118.808" y2="30.2813" gradientUnits="userSpaceOnUse">
<stop stop-color="#FE7062"/>
<stop offset="1" stop-color="#FF928E"/>
</linearGradient>
<linearGradient id="paint54_linear_15_4182" x1="108.674" y1="26.616" x2="104.83" y2="34.0651" gradientUnits="userSpaceOnUse">
<stop stop-color="#FE7062"/>
<stop offset="1" stop-color="#FF928E"/>
</linearGradient>
<linearGradient id="paint55_linear_15_4182" x1="62.076" y1="109.948" x2="50.8823" y2="165.805" gradientUnits="userSpaceOnUse">
<stop stop-color="#FEBBBA"/>
<stop offset="1" stop-color="#FF928E"/>
</linearGradient>
</defs>
</svg>
