<svg width="528" height="721" viewBox="0 0 528 721" fill="none" xmlns="http://www.w3.org/2000/svg">
<rect width="528" height="721" rx="20" fill="#C8CEFC"/>
<path d="M163.107 182.446C148.388 203.689 165.647 238.13 143.806 254.106C122.547 269.658 96.43 244.167 76.3942 257.554C46.672 277.413 52.0999 368.284 95.5551 424.744C108.624 441.724 119.543 448.33 124.379 467.533C134.764 508.767 98.267 533.296 105.212 553.689C120.851 599.608 361.358 638.139 457.86 500.138C502.93 435.686 509.674 342.616 469.404 271.929C396.639 144.199 196.133 134.78 163.107 182.446Z" fill="#3B49B9"/>
<path d="M204.385 511.904C192.546 491.548 204.034 457.65 218.097 437.804C234.516 414.634 247.856 419.918 259.235 400.896C280.42 365.48 242.867 332.639 261.422 295.216C276.591 264.622 307.445 274.961 322.714 240.311C333.732 215.308 322.963 197.906 339.667 179.33C341.095 177.741 356.739 160.838 375.739 163.899C394.915 166.989 406.295 188.612 410.017 203.541C416.898 231.137 398.644 239.978 394.894 275.709C389.789 324.356 420.603 336.763 409.501 371.799C400.333 400.731 377.206 398.944 367.673 431.227C358.82 461.204 375.545 473.638 367.673 493.231C349.563 538.303 228.533 553.424 204.385 511.904Z" fill="url(#paint0_linear_15_4373)"/>
<mask id="mask0_15_4373" style="mask-type:luminance" maskUnits="userSpaceOnUse" x="199" y="163" width="213" height="374">
<path d="M204.385 511.904C192.546 491.548 204.034 457.65 218.097 437.804C234.516 414.634 247.856 419.918 259.235 400.896C280.42 365.48 242.867 332.639 261.422 295.216C276.591 264.622 307.445 274.961 322.714 240.311C333.732 215.308 322.963 197.906 339.667 179.33C341.095 177.741 356.739 160.838 375.739 163.899C394.915 166.989 406.295 188.612 410.017 203.541C416.898 231.137 398.644 239.978 394.894 275.709C389.789 324.356 420.603 336.763 409.501 371.799C400.333 400.731 377.206 398.944 367.673 431.227C358.82 461.204 375.545 473.638 367.673 493.231C349.563 538.303 228.533 553.424 204.385 511.904Z" fill="white"/>
</mask>
<g mask="url(#mask0_15_4373)">
<path opacity="0.7" d="M220.418 543.806C220.297 543.806 220.193 543.714 220.18 543.59C220.166 543.457 220.261 543.338 220.393 543.324C240.96 541.129 260.167 534.693 277.483 524.195C293.887 514.249 310.849 503.965 318.384 485.009C324.086 470.665 320.95 460.108 316.98 446.742C313.125 433.759 308.326 417.602 310.975 392.914C312.487 378.818 314.37 361.275 326.479 344.685C333.531 335.024 340.377 330.885 346.417 327.233C352.771 323.391 357.791 320.356 360.725 312.219C365.503 298.972 362.37 287.596 358.742 274.424C356.506 266.305 354.195 257.911 353.319 247.947C352.227 235.53 354.185 222.606 359.138 209.536C365.384 193.055 376.563 175.821 392.364 158.315C392.453 158.217 392.604 158.21 392.702 158.299C392.8 158.389 392.807 158.542 392.718 158.64C376.957 176.102 365.81 193.284 359.585 209.709C354.658 222.71 352.71 235.561 353.796 247.905C354.668 257.824 356.974 266.197 359.204 274.295C362.853 287.547 366.005 298.992 361.175 312.384C358.182 320.682 352.844 323.91 346.663 327.647C340.661 331.276 333.859 335.388 326.864 344.971C314.832 361.457 312.957 378.928 311.451 392.966C308.812 417.557 313.596 433.663 317.439 446.604C321.436 460.06 324.592 470.689 318.828 485.189C311.233 504.295 294.201 514.622 277.73 524.609C260.354 535.144 241.08 541.602 220.443 543.805C220.435 543.806 220.426 543.806 220.418 543.806Z" fill="white"/>
<path opacity="0.7" d="M321.518 353.26C321.426 353.26 321.338 353.206 321.299 353.116C304.73 315.299 302.126 286.025 302.86 268.127C303.655 248.715 308.443 238.104 308.492 237.999C308.547 237.878 308.689 237.825 308.809 237.881C308.929 237.938 308.982 238.081 308.926 238.202C308.878 238.306 304.124 248.853 303.337 268.18C302.61 286.022 305.213 315.206 321.737 352.921C321.79 353.043 321.736 353.185 321.615 353.239C321.583 353.253 321.55 353.26 321.518 353.26Z" fill="white"/>
<path opacity="0.7" d="M310.584 413.299C310.478 413.299 310.381 413.228 310.353 413.12C310.319 412.991 310.395 412.858 310.523 412.824C331.58 407.19 349.714 398.179 364.42 386.041C376.182 376.333 385.793 364.612 392.983 351.205C405.229 328.371 406.21 308.293 406.219 308.092C406.224 307.959 406.337 307.856 406.468 307.862C406.6 307.867 406.703 307.98 406.697 308.113C406.689 308.314 405.706 328.486 393.415 351.415C386.196 364.881 376.547 376.654 364.735 386.405C349.974 398.592 331.775 407.637 310.646 413.291C310.625 413.297 310.605 413.299 310.584 413.299Z" fill="white"/>
<path opacity="0.7" d="M295.809 513.999C295.754 513.999 295.699 513.98 295.653 513.94C279.93 500.288 267.555 485.307 258.873 469.414C251.925 456.696 247.313 443.369 245.164 429.804C241.505 406.698 246.343 390.69 246.392 390.531C246.431 390.404 246.564 390.333 246.692 390.373C246.818 390.413 246.889 390.548 246.849 390.675C246.8 390.834 241.994 406.754 245.641 429.754C247.784 443.261 252.38 456.532 259.301 469.198C267.955 485.034 280.291 499.964 295.966 513.575C296.066 513.662 296.077 513.814 295.991 513.915C295.944 513.971 295.877 513.999 295.809 513.999Z" fill="white"/>
<path opacity="0.7" d="M354.075 243.353C353.981 243.353 353.893 243.297 353.854 243.205C353.802 243.082 353.859 242.941 353.981 242.889C369.233 236.383 381.919 227.328 391.688 215.976C399.502 206.895 405.478 196.331 409.451 184.577C416.216 164.561 414.797 147.825 414.782 147.658C414.77 147.525 414.867 147.408 414.999 147.396C415.13 147.383 415.247 147.481 415.259 147.614C415.274 147.782 416.702 164.621 409.904 184.732C405.912 196.546 399.904 207.164 392.05 216.292C382.233 227.701 369.487 236.799 354.168 243.333C354.137 243.346 354.106 243.353 354.075 243.353Z" fill="white"/>
</g>
<path d="M299.838 530.493C289.725 513.105 299.538 484.149 311.551 467.197C325.576 447.405 336.971 451.919 346.69 435.671C364.787 405.419 332.709 377.366 348.559 345.4C361.516 319.267 387.871 328.099 400.914 298.501C410.325 277.143 401.127 262.279 415.395 246.411C416.615 245.054 429.978 230.615 446.207 233.23C462.587 235.87 472.307 254.34 475.487 267.092C481.365 290.664 465.772 298.216 462.569 328.738C458.209 370.291 484.53 380.889 475.046 410.816C467.215 435.53 447.461 434.004 439.317 461.579C431.755 487.186 446.042 497.807 439.317 514.542C423.847 553.043 320.465 565.959 299.838 530.493Z" fill="url(#paint1_linear_15_4373)"/>
<mask id="mask1_15_4373" style="mask-type:luminance" maskUnits="userSpaceOnUse" x="295" y="232" width="183" height="320">
<path d="M299.838 530.493C289.725 513.105 299.538 484.149 311.551 467.197C325.576 447.405 336.971 451.919 346.69 435.671C364.787 405.419 332.709 377.366 348.559 345.4C361.516 319.267 387.871 328.099 400.914 298.501C410.325 277.143 401.127 262.279 415.395 246.411C416.615 245.054 429.978 230.615 446.207 233.23C462.587 235.87 472.307 254.34 475.487 267.092C481.365 290.664 465.772 298.216 462.569 328.738C458.209 370.291 484.53 380.889 475.046 410.816C467.215 435.53 447.461 434.004 439.317 461.579C431.755 487.186 446.042 497.807 439.317 514.542C423.847 553.043 320.465 565.959 299.838 530.493Z" fill="white"/>
</mask>
<g mask="url(#mask1_15_4373)">
<path opacity="0.7" d="M313.534 557.779C313.413 557.779 313.309 557.687 313.296 557.563C313.282 557.43 313.378 557.312 313.509 557.298C331.072 555.423 347.474 549.927 362.261 540.962C376.268 532.469 390.752 523.688 397.184 507.507C402.049 495.266 399.373 486.254 395.984 474.843C392.689 463.75 388.589 449.945 390.852 428.85C392.145 416.805 393.753 401.814 404.102 387.636C410.13 379.378 415.981 375.841 421.143 372.72C426.565 369.442 430.848 366.852 433.351 359.913C437.428 348.608 434.753 338.896 431.656 327.65C429.746 320.714 427.77 313.542 427.022 305.028C424.915 281.066 436.14 255.298 460.383 228.438C460.472 228.339 460.623 228.333 460.721 228.422C460.819 228.512 460.826 228.665 460.737 228.763C436.587 255.519 425.405 281.164 427.499 304.985C428.243 313.455 430.213 320.606 432.117 327.521C435.236 338.847 437.93 348.628 433.801 360.078C431.24 367.178 426.675 369.938 421.389 373.134C416.266 376.231 410.459 379.742 404.488 387.922C394.215 401.996 392.615 416.914 391.328 428.902C389.075 449.9 393.16 463.654 396.442 474.705C399.858 486.206 402.556 495.29 397.628 507.687C391.136 524.018 376.583 532.842 362.508 541.376C347.661 550.377 331.193 555.896 313.56 557.778C313.551 557.779 313.543 557.779 313.534 557.779Z" fill="white"/>
<path opacity="0.7" d="M399.893 395.016C399.802 395.016 399.714 394.962 399.674 394.872C385.519 362.563 383.294 337.552 383.921 322.26C384.6 305.672 388.694 296.601 388.735 296.512C388.791 296.391 388.933 296.338 389.053 296.394C389.173 296.45 389.225 296.594 389.169 296.714C389.128 296.804 385.069 305.809 384.398 322.313C383.778 337.548 386.002 362.47 400.112 394.677C400.166 394.799 400.111 394.942 399.99 394.996C399.959 395.01 399.926 395.016 399.893 395.016Z" fill="white"/>
<path opacity="0.7" d="M390.553 446.3C390.447 446.3 390.35 446.229 390.321 446.121C390.288 445.992 390.364 445.86 390.491 445.826C408.473 441.015 423.957 433.32 436.515 422.956C446.559 414.667 454.765 404.659 460.904 393.212C471.362 373.714 472.2 356.568 472.208 356.397C472.213 356.264 472.326 356.164 472.457 356.167C472.589 356.172 472.692 356.285 472.686 356.418C472.679 356.59 471.84 373.829 461.337 393.421C455.168 404.928 446.923 414.988 436.83 423.32C424.217 433.733 408.668 441.462 390.614 446.292C390.594 446.298 390.573 446.3 390.553 446.3Z" fill="white"/>
<path opacity="0.7" d="M377.933 532.317C377.878 532.317 377.822 532.298 377.777 532.259C364.343 520.594 353.77 507.794 346.352 494.216C340.415 483.348 336.474 471.961 334.638 460.369C331.511 440.624 335.646 426.943 335.688 426.807C335.727 426.68 335.861 426.609 335.988 426.649C336.114 426.689 336.184 426.824 336.145 426.951C334.699 431.621 332.622 444.605 335.115 460.32C336.945 471.853 340.869 483.184 346.78 493.999C354.17 507.521 364.704 520.271 378.089 531.893C378.189 531.98 378.201 532.133 378.114 532.234C378.067 532.289 378 532.317 377.933 532.317Z" fill="white"/>
<path opacity="0.7" d="M427.703 301.134C427.609 301.134 427.521 301.079 427.482 300.987C427.43 300.864 427.487 300.722 427.609 300.67C440.632 295.116 451.464 287.384 459.805 277.691C466.477 269.938 471.579 260.918 474.972 250.882C480.748 233.792 479.536 219.503 479.523 219.361C479.511 219.228 479.608 219.111 479.74 219.099C479.871 219.087 479.988 219.184 480 219.317C480.013 219.46 481.233 233.851 475.425 251.038C472.013 261.133 466.879 270.207 460.167 278.008C451.778 287.757 440.886 295.531 427.796 301.115C427.765 301.128 427.734 301.134 427.703 301.134Z" fill="white"/>
</g>
<path d="M355.682 330.566L336.797 330.507C334.387 330.5 332.431 328.421 332.431 325.863V278.743C332.431 245.23 306.692 217.539 274.661 216.885L238.268 216.143C205.561 215.476 178.807 242.738 178.807 277.041V325.274C178.807 327.892 176.757 330.007 174.226 329.999L154.268 329.937C151.72 329.929 149.653 327.791 149.653 325.162V276.719C149.653 225.597 189.62 185.15 238.269 186.361L274.661 187.268C322.078 188.449 360.018 229.534 360.018 279.048V325.969C360.017 328.516 358.077 330.574 355.682 330.566Z" fill="url(#paint2_linear_15_4373)"/>
<path d="M366.549 339.61L142.676 339.221C131.627 339.202 122.643 348.422 122.643 359.814V474.248C122.643 520.714 159.136 557.256 203.611 555.882L308.582 552.64C351.096 551.326 385.156 514.078 385.156 469.426V359.464C385.157 348.516 376.839 339.627 366.549 339.61ZM277.81 495.752L235.081 496.695L246.435 445.776C236.226 441.705 228.98 431.39 228.98 419.2C228.98 403.271 241.336 390.285 256.515 390.194C271.623 390.104 283.821 402.836 283.821 418.633C283.821 430.722 276.679 441.149 266.564 445.486L277.81 495.752Z" fill="url(#paint3_linear_15_4373)"/>
<path d="M373.987 330.566L355.102 330.507C352.691 330.5 350.736 328.421 350.736 325.863V278.743C350.736 245.23 324.997 217.539 292.965 216.885L256.573 216.143C223.865 215.476 197.112 242.738 197.112 277.041V325.274C197.112 327.892 195.061 330.007 192.53 329.999L172.573 329.937C170.025 329.929 167.958 327.791 167.958 325.162V276.719C167.958 225.597 207.925 185.15 256.574 186.361L292.965 187.268C340.383 188.449 378.322 229.534 378.322 279.048V325.969C378.322 328.516 376.382 330.574 373.987 330.566Z" fill="url(#paint4_linear_15_4373)"/>
<path d="M384.855 339.61L160.982 339.221C149.932 339.202 140.948 348.422 140.948 359.814V474.248C140.948 520.714 177.442 557.256 221.917 555.882L326.887 552.64C369.402 551.326 403.462 514.078 403.462 469.426V359.464C403.462 348.516 395.145 339.627 384.855 339.61ZM296.116 495.752L253.386 496.695L264.74 445.776C254.531 441.705 247.286 431.39 247.286 419.2C247.286 403.271 259.642 390.285 274.82 390.194C289.929 390.104 302.126 402.836 302.126 418.633C302.126 430.722 294.985 441.149 284.87 445.486L296.116 495.752Z" fill="url(#paint5_linear_15_4373)"/>
<path opacity="0.48" d="M167.959 276.719V325.162C167.959 327.791 170.026 329.929 172.574 329.937L192.531 329.999C195.062 330.007 197.113 327.892 197.113 325.274V277.041C197.113 242.738 223.866 215.476 256.574 216.143L261.112 216.236C257.283 205.7 251.922 195.898 245.504 186.811C202.007 191.445 167.959 229.534 167.959 276.719Z" fill="white"/>
<path opacity="0.48" d="M285.434 448.012L296.116 495.751L253.386 496.695L264.74 445.775C254.531 441.705 247.286 431.389 247.286 419.2C247.286 417.656 247.405 416.141 247.628 414.662C242.008 407.16 237.618 398.465 234.959 387.592C230.52 369.448 233.038 354.009 238.229 339.355L160.982 339.221C149.932 339.202 140.948 348.421 140.948 359.814V474.247C140.948 520.714 177.442 557.255 221.917 555.881L326.887 552.639C337.954 552.297 348.445 549.516 357.914 544.807C354.2 533.207 349.263 521.461 342.762 509.864C325.514 479.102 304.5 462.272 285.434 448.012Z" fill="white"/>
<path d="M250.077 216.384C245.713 216.794 241.489 217.706 237.456 219.06C227.161 208.668 214.35 200.514 200.977 194.073C212.335 188.816 224.977 186.03 238.27 186.361L247.799 186.599C250.688 186.371 253.615 186.288 256.575 186.361L292.967 187.268C340.384 188.449 378.324 229.533 378.324 279.048V325.969C378.324 328.516 376.383 330.574 373.988 330.566L356.332 330.511C356.12 330.544 355.904 330.567 355.683 330.566L336.799 330.507C334.388 330.5 332.432 328.42 332.432 325.863V278.742C332.432 245.23 306.693 217.538 274.662 216.885L250.077 216.384ZM384.856 339.609L243.36 339.364C240.74 352.473 240.404 366.266 245.713 381.554C248.084 388.382 251.156 394.262 254.733 399.456C257.759 396.057 261.55 393.414 265.815 391.839C276.329 395.757 283.822 406.253 283.822 418.633C283.822 421.084 283.524 423.465 282.972 425.742C304.676 440.55 328.608 452.184 338.89 481.9C347.093 505.609 342.986 530.369 335.013 551.94C373.659 546.481 403.463 511.193 403.463 469.426V359.463C403.463 348.516 395.146 339.627 384.856 339.609Z" fill="#D8DEE8"/>
<path d="M333.399 553.246L334.02 551.567C343.566 525.742 344.868 502.421 337.889 482.251C329.233 457.232 311.158 445.464 292.022 433.005C288.847 430.938 285.565 428.8 282.378 426.626L281.768 426.21L281.943 425.489C282.487 423.244 282.763 420.937 282.763 418.633C282.763 407.201 275.969 396.944 265.813 392.979C261.927 394.483 258.375 396.963 255.521 400.168L254.627 401.173L253.863 400.064C250.003 394.461 247.01 388.521 244.713 381.907C239.977 368.269 239.217 354.684 242.322 339.153L242.493 338.295L384.857 338.542C395.7 338.56 404.522 347.946 404.522 359.463V469.426C404.522 511.483 374.702 547.411 335.159 552.997L333.399 553.246ZM284.167 425.268C287.146 427.289 290.206 429.281 293.171 431.211C311.765 443.318 330.993 455.836 339.889 481.548C346.88 501.754 345.779 524.983 336.622 550.613C374.248 544.374 402.404 509.8 402.404 469.426V359.463C402.404 349.121 394.531 340.694 384.853 340.677L244.229 340.433C241.401 355.216 242.194 368.192 246.711 381.201C248.796 387.204 251.468 392.632 254.865 397.755C257.873 394.671 261.508 392.292 265.45 390.836L265.816 390.701L266.182 390.837C277.366 395.005 284.88 406.176 284.88 418.633C284.881 420.859 284.641 423.088 284.167 425.268ZM374.001 331.634C373.996 331.634 373.99 331.634 373.985 331.634L356.409 331.579C356.152 331.616 355.916 331.634 355.691 331.634C355.688 331.634 355.684 331.634 355.68 331.634L336.795 331.575C333.805 331.565 331.373 329.003 331.373 325.863V278.743C331.373 262.793 325.483 247.692 314.787 236.223C304.089 224.751 289.831 218.262 274.639 217.952L250.115 217.452C245.932 217.85 241.785 218.731 237.79 220.073L237.168 220.281L236.706 219.814C227.466 210.487 215.291 202.151 200.519 195.036L198.479 194.054L200.534 193.103C212.437 187.594 225.144 184.967 238.296 185.294L247.769 185.53C250.704 185.301 253.675 185.222 256.601 185.294L292.992 186.201C316.181 186.778 337.917 196.759 354.199 214.304C370.438 231.803 379.382 254.797 379.382 279.048V325.969C379.382 327.534 378.791 328.989 377.717 330.068C376.712 331.078 375.393 331.634 374.001 331.634ZM356.252 329.443L373.991 329.499C373.994 329.499 373.998 329.499 374.001 329.499C374.829 329.499 375.617 329.164 376.222 328.556C376.894 327.881 377.264 326.962 377.264 325.969V279.048C377.264 255.34 368.524 232.865 352.653 215.762C336.763 198.639 315.557 188.898 292.94 188.335L256.549 187.429C253.676 187.357 250.76 187.436 247.881 187.663L247.826 187.667L238.244 187.429C226.173 187.128 214.495 189.378 203.491 194.117C217.318 200.994 228.829 208.967 237.743 217.842C241.718 216.558 245.831 215.71 249.978 215.321L250.038 215.315L274.683 215.818C290.448 216.139 305.238 222.867 316.33 234.761C327.396 246.627 333.491 262.247 333.491 278.743V325.863C333.491 327.83 334.976 329.434 336.801 329.44L355.686 329.499C355.814 329.497 355.982 329.486 356.169 329.456L356.252 329.443Z" fill="white"/>
<mask id="mask2_15_4373" style="mask-type:luminance" maskUnits="userSpaceOnUse" x="198" y="185" width="207" height="369">
<path d="M333.399 553.246L334.02 551.567C343.566 525.742 344.868 502.421 337.889 482.251C329.233 457.232 311.158 445.464 292.022 433.005C288.847 430.938 285.565 428.8 282.378 426.626L281.768 426.21L281.943 425.489C282.487 423.244 282.763 420.937 282.763 418.633C282.763 407.201 275.969 396.944 265.813 392.979C261.927 394.483 258.375 396.963 255.521 400.168L254.627 401.173L253.863 400.064C250.003 394.461 247.01 388.521 244.713 381.907C239.977 368.269 239.217 354.684 242.322 339.153L242.493 338.295L384.857 338.542C395.7 338.56 404.522 347.946 404.522 359.463V469.426C404.522 511.483 374.702 547.411 335.159 552.997L333.399 553.246ZM284.167 425.268C287.146 427.289 290.206 429.281 293.171 431.211C311.765 443.318 330.993 455.836 339.889 481.548C346.88 501.754 345.779 524.983 336.622 550.613C374.248 544.374 402.404 509.8 402.404 469.426V359.463C402.404 349.121 394.531 340.694 384.853 340.677L244.229 340.433C241.401 355.216 242.194 368.192 246.711 381.201C248.796 387.204 251.468 392.632 254.865 397.755C257.873 394.671 261.508 392.292 265.45 390.836L265.816 390.701L266.182 390.837C277.366 395.005 284.88 406.176 284.88 418.633C284.881 420.859 284.641 423.088 284.167 425.268ZM374.001 331.634C373.996 331.634 373.99 331.634 373.985 331.634L356.409 331.579C356.152 331.616 355.916 331.634 355.691 331.634C355.688 331.634 355.684 331.634 355.68 331.634L336.795 331.575C333.805 331.565 331.373 329.003 331.373 325.863V278.743C331.373 262.793 325.483 247.692 314.787 236.223C304.089 224.751 289.831 218.262 274.639 217.952L250.115 217.452C245.932 217.85 241.785 218.731 237.79 220.073L237.168 220.281L236.706 219.814C227.466 210.487 215.291 202.151 200.519 195.036L198.479 194.054L200.534 193.103C212.437 187.594 225.144 184.967 238.296 185.294L247.769 185.53C250.704 185.301 253.675 185.222 256.601 185.294L292.992 186.201C316.181 186.778 337.917 196.759 354.199 214.304C370.438 231.803 379.382 254.797 379.382 279.048V325.969C379.382 327.534 378.791 328.989 377.717 330.068C376.712 331.078 375.393 331.634 374.001 331.634ZM356.252 329.443L373.991 329.499C373.994 329.499 373.998 329.499 374.001 329.499C374.829 329.499 375.617 329.164 376.222 328.556C376.894 327.881 377.264 326.962 377.264 325.969V279.048C377.264 255.34 368.524 232.865 352.653 215.762C336.763 198.639 315.557 188.898 292.94 188.335L256.549 187.429C253.676 187.357 250.76 187.436 247.881 187.663L247.826 187.667L238.244 187.429C226.173 187.128 214.495 189.378 203.491 194.117C217.318 200.994 228.829 208.967 237.743 217.842C241.718 216.558 245.831 215.71 249.978 215.321L250.038 215.315L274.683 215.818C290.448 216.139 305.238 222.867 316.33 234.761C327.396 246.627 333.491 262.247 333.491 278.743V325.863C333.491 327.83 334.976 329.434 336.801 329.44L355.686 329.499C355.814 329.497 355.982 329.486 356.169 329.456L356.252 329.443Z" fill="white"/>
</mask>
<g mask="url(#mask2_15_4373)">
<path d="M233.752 497.792L245.208 446.418C234.676 441.823 227.923 431.241 227.923 419.2C227.923 402.712 240.747 389.221 256.51 389.127C263.883 389.086 270.892 391.989 276.201 397.31C281.798 402.92 284.881 410.493 284.881 418.633C284.881 430.573 278.203 441.258 267.79 446.106L279.129 496.79L233.752 497.792ZM256.675 391.261C256.624 391.261 256.573 391.261 256.522 391.262C241.92 391.349 230.041 403.882 230.041 419.2C230.041 430.676 236.629 440.718 246.825 444.783L247.668 445.119L236.412 495.598L276.494 494.713L265.338 444.852L266.151 444.504C276.243 440.177 282.764 430.022 282.764 418.633C282.764 411.066 279.903 404.031 274.708 398.825C269.838 393.944 263.439 391.261 256.675 391.261Z" fill="white"/>
<path d="M374.002 331.634C373.996 331.634 373.99 331.634 373.985 331.634L355.1 331.575C352.11 331.566 349.678 329.003 349.678 325.864V278.743C349.678 262.793 343.788 247.692 333.092 236.223C322.394 224.751 308.136 218.262 292.946 217.953L256.553 217.21C241.38 216.9 226.996 222.692 216.041 233.515C204.518 244.9 198.172 260.358 198.172 277.041V325.274C198.172 326.849 197.57 328.322 196.476 329.42C195.42 330.482 194.025 331.066 192.546 331.066C192.54 331.066 192.534 331.066 192.528 331.066L172.571 331.004C169.444 330.994 166.9 328.373 166.9 325.162V276.719C166.9 251.16 176.644 227.501 194.335 210.099C211.189 193.523 233.308 184.714 256.601 185.294L292.993 186.2C316.181 186.778 337.918 196.759 354.2 214.304C370.439 231.803 379.383 254.797 379.383 279.048V325.969C379.383 327.534 378.792 328.989 377.718 330.068C376.713 331.078 375.393 331.634 374.002 331.634ZM255.396 215.063C255.796 215.063 256.195 215.068 256.596 215.076L292.988 215.818C308.753 216.139 323.543 222.867 334.635 234.761C345.702 246.627 351.796 262.247 351.796 278.743V325.864C351.796 327.83 353.281 329.434 355.106 329.44L373.991 329.499C373.995 329.499 373.998 329.499 374.001 329.499C374.829 329.499 375.618 329.164 376.223 328.556C376.895 327.881 377.265 326.962 377.265 325.969V279.048C377.265 255.34 368.524 232.865 352.653 215.762C336.763 198.639 315.557 188.898 292.94 188.335L256.549 187.428C233.825 186.862 212.255 195.456 195.814 211.628C178.534 228.624 169.018 251.74 169.018 276.719V325.162C169.018 327.2 170.615 328.863 172.578 328.869L192.535 328.931C193.478 328.931 194.322 328.571 194.981 327.908C195.673 327.213 196.054 326.277 196.054 325.274V277.041C196.054 259.779 202.626 243.78 214.559 231.99C225.635 221.047 240.097 215.063 255.396 215.063Z" fill="white"/>
<path d="M219.481 556.987C198.99 556.987 179.664 549.081 164.824 534.571C148.745 518.849 139.89 497.425 139.89 474.247V359.814C139.89 353.94 142.138 348.442 146.221 344.333C150.181 340.347 155.41 338.153 160.948 338.153C160.96 338.153 160.972 338.153 160.984 338.153L384.857 338.542C395.7 338.56 404.521 347.946 404.521 359.463V469.426C404.521 491.317 396.486 512.123 381.895 528.009C367.267 543.937 347.743 553.063 326.92 553.706L221.949 556.948C221.125 556.974 220.302 556.987 219.481 556.987ZM160.948 340.288C155.975 340.288 151.277 342.26 147.717 345.844C144.035 349.55 142.007 354.511 142.007 359.814V474.247C142.007 496.843 150.634 517.722 166.299 533.038C181.318 547.724 201.056 555.458 221.885 554.814L326.855 551.572C347.107 550.947 366.101 542.064 380.341 526.559C394.568 511.068 402.404 490.778 402.404 469.426V359.463C402.404 349.121 394.531 340.693 384.853 340.677L160.98 340.288C160.97 340.288 160.958 340.288 160.948 340.288ZM252.056 497.792L263.512 446.418C252.981 441.823 246.227 431.241 246.227 419.2C246.227 402.712 259.051 389.221 274.814 389.127C282.184 389.086 289.196 391.989 294.506 397.31C300.103 402.92 303.186 410.493 303.186 418.633C303.186 430.573 296.507 441.258 286.094 446.106L297.434 496.79L252.056 497.792ZM274.98 391.261C274.928 391.261 274.878 391.261 274.827 391.261C260.225 391.349 248.345 403.882 248.345 419.2C248.345 430.675 254.934 440.717 265.13 444.783L265.972 445.119L254.716 495.598L294.798 494.713L283.643 444.852L284.456 444.503C294.548 440.177 301.068 430.022 301.068 418.633C301.068 411.065 298.208 404.031 293.013 398.824C288.143 393.943 281.744 391.261 274.98 391.261Z" fill="white"/>
<path d="M219.492 540.974C202.494 540.974 186.543 534.151 174.577 521.763C162.451 509.209 155.772 492.335 155.772 474.247V359.814C155.772 356.7 158.094 354.166 160.948 354.166L384.83 354.555C386.669 354.558 388.639 356.531 388.639 359.464V469.426C388.639 506.014 360.733 536.642 326.433 537.701L221.463 540.944C220.807 540.964 220.145 540.974 219.492 540.974ZM160.947 356.301C159.262 356.301 157.89 357.877 157.89 359.814V474.248C157.89 491.775 164.355 508.121 176.094 520.274C188.103 532.706 204.281 539.335 221.398 538.81L326.368 535.567C359.537 534.543 386.521 504.872 386.521 469.426V359.464C386.521 357.798 385.501 356.691 384.826 356.69L160.947 356.301Z" fill="white"/>
<path d="M364.171 330.002H362.053V272.135C362.053 233.58 330.941 202.213 292.7 202.213H252.994C214.752 202.213 183.64 233.58 183.64 272.135V330.002H181.522V272.135C181.522 232.403 213.584 200.078 252.994 200.078H292.7C332.109 200.078 364.171 232.403 364.171 272.135V330.002Z" fill="white"/>
<path d="M352.948 548.551L351.042 547.619L364.171 520.311V355.408L359.015 339.938L361.022 339.258L366.289 355.059V520.801L352.948 548.551Z" fill="white"/>
<path d="M307.443 552.763L305.486 551.947L311.759 536.664V355.342L308.604 339.812L310.678 339.384L313.876 355.125V537.089L307.443 552.763Z" fill="white"/>
<path d="M387.847 384.757H140.229V382.622H387.314L402.847 374.208L403.849 376.089L387.847 384.757Z" fill="white"/>
<path d="M387.847 441.694H140.229V439.559H387.314L402.847 431.146L403.849 433.026L387.847 441.694Z" fill="white"/>
<path d="M140.248 498.631L140.21 496.496L383.18 492.122L401.817 482.725L402.764 484.635L383.698 494.248L383.458 494.253L140.248 498.631Z" fill="white"/>
</g>
<mask id="mask3_15_4373" style="mask-type:luminance" maskUnits="userSpaceOnUse" x="64" y="300" width="368" height="203">
<path d="M431.752 377.546L430.106 376.871C404.781 366.491 381.697 364.494 361.495 370.933C336.434 378.922 324.234 396.791 311.319 415.71C309.176 418.849 306.961 422.094 304.711 425.242L304.281 425.845L303.571 425.647C301.361 425.033 299.082 424.686 296.797 424.619C285.463 424.283 275.094 430.828 270.864 440.946C272.241 444.907 274.595 448.56 277.689 451.53L278.659 452.461L277.537 453.198C271.868 456.923 265.891 459.765 259.266 461.885C245.605 466.257 232.113 466.623 216.806 463.038L215.96 462.84L220.39 319.375C220.728 308.448 230.293 299.834 241.712 300.172L350.737 303.405C392.436 304.642 427.181 335.75 431.557 375.765L431.752 377.546ZM303.417 423.399C305.508 420.456 307.573 417.431 309.574 414.5C322.124 396.117 335.101 377.107 360.856 368.897C381.095 362.446 404.094 364.238 429.236 374.221C424.156 336.118 390.705 306.727 350.675 305.54L241.65 302.307C231.396 302.003 222.808 309.689 222.507 319.442L218.131 461.153C232.705 464.439 245.594 464.021 258.625 459.851C264.637 457.926 270.098 455.393 275.278 452.121C272.308 448.998 270.056 445.265 268.729 441.249L268.605 440.876L268.751 440.512C273.213 429.363 284.509 422.119 296.86 422.485C299.067 422.55 301.27 422.858 303.417 423.399ZM213.222 330.113C213.222 330.118 213.222 330.124 213.222 330.129L212.65 347.84C212.679 348.1 212.69 348.338 212.684 348.565C212.684 348.568 212.683 348.572 212.683 348.577L212.07 367.607C211.973 370.62 209.361 372.995 206.248 372.903L159.529 371.518C143.714 371.049 128.57 376.541 116.884 386.983C105.195 397.427 98.3421 411.605 97.5883 426.906L96.3714 451.606C96.6424 455.833 97.3945 460.038 98.607 464.105L98.7955 464.737L98.3189 465.189C88.7997 474.227 80.1763 486.251 72.6885 500.929L71.6546 502.956L70.7721 500.857C65.6596 488.7 63.4289 475.816 64.1399 462.572L64.6525 453.032C64.5113 450.068 64.5201 447.071 64.6781 444.125L66.6466 407.476C67.9011 384.124 78.4355 362.512 96.3097 346.619C114.137 330.768 137.198 322.431 161.243 323.144L207.764 324.523C209.315 324.569 210.741 325.208 211.779 326.321C212.751 327.364 213.263 328.709 213.222 330.113ZM210.528 347.935L211.105 330.06C211.105 330.056 211.105 330.053 211.105 330.05C211.13 329.216 210.821 328.411 210.236 327.783C209.586 327.087 208.686 326.687 207.702 326.657L161.18 325.278C137.674 324.581 115.134 332.729 97.7101 348.22C80.2654 363.731 69.9845 384.816 68.7611 407.592L66.7926 444.24C66.6375 447.133 66.6297 450.073 66.7703 452.982L66.7729 453.037L66.2545 462.687C65.6019 474.843 67.4886 486.678 71.8644 497.907C79.0891 484.175 87.3328 472.808 96.3941 464.087C95.2377 460.042 94.518 455.872 94.2538 451.682L94.2501 451.621L95.4731 426.799C96.2553 410.921 103.36 396.213 115.479 385.385C127.57 374.581 143.236 368.898 159.591 369.383L206.31 370.768C208.26 370.826 209.894 369.377 209.953 367.537L210.567 348.507C210.569 348.379 210.563 348.209 210.539 348.019L210.528 347.935Z" fill="white"/>
</mask>
<g mask="url(#mask3_15_4373)">
<path d="M283.844 413.02L283.781 415.154L301.852 415.69L301.914 413.556L283.844 413.02Z" fill="white"/>
</g>
<mask id="mask4_15_4373" style="mask-type:luminance" maskUnits="userSpaceOnUse" x="198" y="185" width="207" height="369">
<path d="M333.399 553.246L334.02 551.567C343.566 525.742 344.868 502.421 337.889 482.251C329.233 457.232 311.158 445.464 292.022 433.005C288.847 430.938 285.565 428.8 282.378 426.626L281.768 426.21L281.943 425.489C282.487 423.244 282.763 420.937 282.763 418.633C282.763 407.201 275.969 396.944 265.813 392.979C261.927 394.483 258.375 396.963 255.521 400.168L254.627 401.173L253.863 400.064C250.003 394.461 247.01 388.521 244.713 381.907C239.977 368.269 239.217 354.684 242.322 339.153L242.493 338.295L384.857 338.542C395.7 338.56 404.522 347.946 404.522 359.463V469.426C404.522 511.483 374.702 547.411 335.159 552.997L333.399 553.246ZM284.167 425.268C287.146 427.289 290.206 429.281 293.171 431.211C311.765 443.318 330.993 455.836 339.889 481.548C346.88 501.754 345.779 524.983 336.622 550.613C374.248 544.374 402.404 509.8 402.404 469.426V359.463C402.404 349.121 394.531 340.694 384.853 340.677L244.229 340.433C241.401 355.216 242.194 368.192 246.711 381.201C248.796 387.204 251.468 392.632 254.865 397.755C257.873 394.671 261.508 392.292 265.45 390.836L265.816 390.701L266.182 390.837C277.366 395.005 284.88 406.176 284.88 418.633C284.881 420.859 284.641 423.088 284.167 425.268ZM374.001 331.634C373.996 331.634 373.99 331.634 373.985 331.634L356.409 331.579C356.152 331.616 355.916 331.634 355.691 331.634C355.688 331.634 355.684 331.634 355.68 331.634L336.795 331.575C333.805 331.565 331.373 329.003 331.373 325.863V278.743C331.373 262.793 325.483 247.692 314.787 236.223C304.089 224.751 289.831 218.262 274.639 217.952L250.115 217.452C245.932 217.85 241.785 218.731 237.79 220.073L237.168 220.281L236.706 219.814C227.466 210.487 215.291 202.151 200.519 195.036L198.479 194.054L200.534 193.103C212.437 187.594 225.144 184.967 238.296 185.294L247.769 185.53C250.704 185.301 253.675 185.222 256.601 185.294L292.992 186.201C316.181 186.778 337.917 196.759 354.199 214.304C370.438 231.803 379.382 254.797 379.382 279.048V325.969C379.382 327.534 378.791 328.989 377.717 330.068C376.712 331.078 375.393 331.634 374.001 331.634ZM356.252 329.443L373.991 329.499C373.994 329.499 373.998 329.499 374.001 329.499C374.829 329.499 375.617 329.164 376.222 328.556C376.894 327.881 377.264 326.962 377.264 325.969V279.048C377.264 255.34 368.524 232.865 352.653 215.762C336.763 198.639 315.557 188.898 292.94 188.335L256.549 187.429C253.676 187.357 250.76 187.436 247.881 187.663L247.826 187.667L238.244 187.429C226.173 187.128 214.495 189.378 203.491 194.117C217.318 200.994 228.829 208.967 237.743 217.842C241.718 216.558 245.831 215.71 249.978 215.321L250.038 215.315L274.683 215.818C290.448 216.139 305.238 222.867 316.33 234.761C327.396 246.627 333.491 262.247 333.491 278.743V325.863C333.491 327.83 334.976 329.434 336.801 329.44L355.686 329.499C355.814 329.497 355.982 329.486 356.169 329.456L356.252 329.443Z" fill="white"/>
</mask>
<g mask="url(#mask4_15_4373)">
<path d="M294.376 398.07H276.905V400.205H294.376V398.07Z" fill="white"/>
</g>
<mask id="mask5_15_4373" style="mask-type:luminance" maskUnits="userSpaceOnUse" x="45" y="301" width="380" height="174">
<path d="M423.981 408.92L422.464 407.987C399.129 393.631 376.665 387.911 355.698 390.987C329.689 394.802 314.794 410.457 299.026 427.031C296.409 429.781 293.704 432.624 290.982 435.366L290.461 435.891L289.791 435.58C287.709 434.615 285.515 433.904 283.271 433.466C272.138 431.294 260.859 436.07 255.068 445.369C255.794 449.502 257.534 453.489 260.114 456.923L260.922 457.999L259.697 458.544C253.507 461.301 247.154 463.135 240.277 464.151C226.096 466.248 212.722 464.419 198.188 458.395L197.384 458.062L224.674 317.191C226.752 306.462 237.568 299.514 248.784 301.702L355.868 322.595C396.825 330.586 426.147 366.928 424.073 407.132L423.981 408.92ZM289.999 433.337C292.533 430.772 295.054 428.122 297.497 425.554C312.82 409.449 328.664 392.795 355.393 388.874C376.398 385.793 398.81 391.296 422.029 405.231C423.102 366.801 394.783 332.362 355.466 324.691L248.382 303.798C238.311 301.833 228.608 308.025 226.752 317.601L199.796 456.75C213.655 462.359 226.442 464.039 239.969 462.039C246.211 461.116 252.005 459.503 257.639 457.114C255.207 453.55 253.581 449.5 252.912 445.321L252.85 444.933L253.052 444.598C259.236 434.319 271.542 429.003 283.673 431.37C285.841 431.793 287.966 432.454 289.999 433.337ZM215.884 326.625C215.883 326.63 215.882 326.636 215.881 326.641L212.488 344.028C212.475 344.289 212.448 344.526 212.405 344.748C212.405 344.752 212.404 344.756 212.403 344.76L208.757 363.442C208.18 366.4 205.223 368.32 202.166 367.724L156.278 358.771C140.746 355.74 124.922 358.701 111.72 367.11C98.516 375.519 89.4882 388.4 86.3002 403.378L81.1534 427.558C80.7456 431.774 80.8163 436.046 81.3633 440.256L81.4483 440.911L80.9058 441.28C70.0673 448.653 59.6358 459.121 49.9012 472.391L48.557 474.223L48.0213 472.009C44.9176 459.181 44.7742 446.103 47.5915 433.147L49.6215 423.814C49.9555 420.867 50.4429 417.911 51.0695 415.028L58.8665 379.178C63.8349 356.335 77.6839 336.716 97.8632 323.933C117.99 311.183 142.081 306.7 165.698 311.308L211.391 320.223C212.914 320.52 214.219 321.381 215.066 322.649C215.858 323.835 216.149 325.247 215.884 326.625ZM210.379 343.777L213.803 326.229C213.804 326.226 213.804 326.222 213.805 326.219C213.962 325.4 213.786 324.556 213.309 323.841C212.779 323.048 211.955 322.507 210.988 322.319L165.295 313.404C142.208 308.899 118.66 313.28 98.9896 325.74C79.2953 338.216 65.7806 357.356 60.9349 379.635L53.138 415.485C52.5227 418.315 52.0453 421.216 51.7194 424.11L51.7133 424.164L49.66 433.604C47.0743 445.495 47.0458 457.482 49.5706 469.275C58.8944 456.895 68.8461 447.015 79.1822 439.879C78.687 435.699 78.6429 431.467 79.0515 427.288L79.0575 427.228L84.2295 402.929C87.538 387.385 96.8996 374.023 110.589 365.304C124.248 356.605 140.617 353.54 156.681 356.674L202.568 365.627C204.483 366.001 206.327 364.836 206.68 363.03L210.325 344.348C210.348 344.221 210.369 344.053 210.376 343.862L210.379 343.777Z" fill="white"/>
</mask>
<g mask="url(#mask5_15_4373)">
<path d="M283.937 423.083L283.534 425.179L299.946 428.381L300.349 426.285L283.937 423.083Z" fill="white"/>
</g>
<mask id="mask6_15_4373" style="mask-type:luminance" maskUnits="userSpaceOnUse" x="198" y="185" width="207" height="369">
<path d="M333.399 553.246L334.02 551.567C343.566 525.742 344.868 502.421 337.889 482.251C329.233 457.232 311.158 445.464 292.022 433.005C288.847 430.938 285.565 428.8 282.378 426.626L281.768 426.21L281.943 425.489C282.487 423.244 282.763 420.937 282.763 418.633C282.763 407.201 275.969 396.944 265.813 392.979C261.927 394.483 258.375 396.963 255.521 400.168L254.627 401.173L253.863 400.064C250.003 394.461 247.01 388.521 244.713 381.907C239.977 368.269 239.217 354.684 242.322 339.153L242.493 338.295L384.857 338.542C395.7 338.56 404.522 347.946 404.522 359.463V469.426C404.522 511.483 374.702 547.411 335.159 552.997L333.399 553.246ZM284.167 425.268C287.146 427.289 290.206 429.281 293.171 431.211C311.765 443.318 330.993 455.836 339.889 481.548C346.88 501.754 345.779 524.983 336.622 550.613C374.248 544.374 402.404 509.8 402.404 469.426V359.463C402.404 349.121 394.531 340.694 384.853 340.677L244.229 340.433C241.401 355.216 242.194 368.192 246.711 381.201C248.796 387.204 251.468 392.632 254.865 397.755C257.873 394.671 261.508 392.292 265.45 390.836L265.816 390.701L266.182 390.837C277.366 395.005 284.88 406.176 284.88 418.633C284.881 420.859 284.641 423.088 284.167 425.268ZM374.001 331.634C373.996 331.634 373.99 331.634 373.985 331.634L356.409 331.579C356.152 331.616 355.916 331.634 355.691 331.634C355.688 331.634 355.684 331.634 355.68 331.634L336.795 331.575C333.805 331.565 331.373 329.003 331.373 325.863V278.743C331.373 262.793 325.483 247.692 314.787 236.223C304.089 224.751 289.831 218.262 274.639 217.952L250.115 217.452C245.932 217.85 241.785 218.731 237.79 220.073L237.168 220.281L236.706 219.814C227.466 210.487 215.291 202.151 200.519 195.036L198.479 194.054L200.534 193.103C212.437 187.594 225.144 184.967 238.296 185.294L247.769 185.53C250.704 185.301 253.675 185.222 256.601 185.294L292.992 186.201C316.181 186.778 337.917 196.759 354.199 214.304C370.438 231.803 379.382 254.797 379.382 279.048V325.969C379.382 327.534 378.791 328.989 377.717 330.068C376.712 331.078 375.393 331.634 374.001 331.634ZM356.252 329.443L373.991 329.499C373.994 329.499 373.998 329.499 374.001 329.499C374.829 329.499 375.617 329.164 376.222 328.556C376.894 327.881 377.264 326.962 377.264 325.969V279.048C377.264 255.34 368.524 232.865 352.653 215.762C336.763 198.639 315.557 188.898 292.94 188.335L256.549 187.429C253.676 187.357 250.76 187.436 247.881 187.663L247.826 187.667L238.244 187.429C226.173 187.128 214.495 189.378 203.491 194.117C217.318 200.994 228.829 208.967 237.743 217.842C241.718 216.558 245.831 215.71 249.978 215.321L250.038 215.315L274.683 215.818C290.448 216.139 305.238 222.867 316.33 234.761C327.396 246.627 333.491 262.247 333.491 278.743V325.863C333.491 327.83 334.976 329.434 336.801 329.44L355.686 329.499C355.814 329.497 355.982 329.486 356.169 329.456L356.252 329.443Z" fill="white"/>
</mask>
<g mask="url(#mask6_15_4373)">
<g opacity="0.4">
<path d="M204.385 511.904C192.546 491.548 204.034 457.65 218.097 437.804C234.516 414.634 247.856 419.918 259.235 400.896C280.42 365.48 242.867 332.639 261.422 295.216C276.591 264.622 307.445 274.961 322.714 240.311C333.732 215.308 322.963 197.906 339.667 179.33C341.095 177.741 356.739 160.838 375.739 163.899C394.915 166.989 406.295 188.612 410.017 203.541C416.898 231.137 398.644 239.978 394.894 275.709C389.789 324.356 420.603 336.763 409.501 371.799C400.333 400.731 377.206 398.944 367.673 431.227C358.82 461.204 375.545 473.638 367.673 493.231C349.563 538.303 228.533 553.424 204.385 511.904Z" fill="url(#paint6_linear_15_4373)"/>
<path d="M268.544 537.301C242.284 537.301 214.186 530.867 203.471 512.444C191.886 492.525 201.916 458.802 217.235 437.184C225.772 425.137 233.6 420.597 240.507 416.591C247.164 412.73 252.913 409.396 258.328 400.345C268.883 382.699 264.592 365.909 260.048 348.132C255.692 331.09 251.188 313.468 260.475 294.738C267.92 279.721 279.248 274.262 290.202 268.983C301.886 263.353 313.967 257.531 321.746 239.878C326.486 229.123 327.119 219.95 327.731 211.08C328.503 199.903 329.232 189.345 338.882 178.613C340.629 176.67 356.517 159.719 375.905 162.846C396.512 166.166 407.689 189.825 411.044 203.281C414.991 219.11 410.75 229.141 405.839 240.755C401.966 249.914 397.576 260.295 395.947 275.822C393.431 299.8 399.775 314.954 405.372 328.324C411.18 342.197 416.196 354.178 410.509 372.124C405.992 386.381 397.988 393.47 390.249 400.326C382.029 407.608 373.529 415.137 368.687 431.532C364.075 447.149 366.539 457.984 368.713 467.543C370.65 476.063 372.48 484.111 368.654 493.632C363.982 505.259 352.393 515.59 335.141 523.51C319.523 530.679 300.118 535.42 280.499 536.861C276.606 537.147 272.596 537.3 268.544 537.301ZM371.083 164.596C354.851 164.596 341.981 178.345 340.451 180.047C331.293 190.231 330.621 199.961 329.843 211.228C329.247 219.861 328.572 229.646 323.681 240.744C315.585 259.117 303.146 265.112 291.115 270.909C279.994 276.269 269.49 281.331 262.369 295.693C253.436 313.708 257.84 330.938 262.099 347.6C266.551 365.021 271.156 383.035 260.141 401.448C254.444 410.971 248.187 414.6 241.563 418.442C234.515 422.53 227.227 426.756 218.958 438.425C211.485 448.971 205.507 462.269 202.558 474.907C200.146 485.243 198.664 499.958 205.298 511.364C214.072 526.45 237.526 535.197 267.924 535.197C271.95 535.197 276.094 535.044 280.345 534.732C314.841 532.198 356.575 518.005 366.691 492.83C370.266 483.933 368.589 476.559 366.648 468.021C364.416 458.204 361.886 447.078 366.657 430.923C371.673 413.939 380.406 406.203 388.851 398.722C396.72 391.752 404.152 385.168 408.492 371.474C413.94 354.281 409.065 342.637 403.421 329.154C397.724 315.547 391.267 300.123 393.84 275.597C395.503 259.752 399.959 249.215 403.89 239.918C408.848 228.194 412.763 218.934 408.99 203.802C405.761 190.853 395.089 168.099 375.571 164.954C374.053 164.709 372.552 164.596 371.083 164.596Z" fill="white"/>
</g>
</g>
<mask id="mask7_15_4373" style="mask-type:luminance" maskUnits="userSpaceOnUse" x="198" y="185" width="207" height="369">
<path d="M333.399 553.246L334.02 551.567C343.566 525.742 344.868 502.421 337.889 482.251C329.233 457.232 311.158 445.464 292.022 433.005C288.847 430.938 285.565 428.8 282.378 426.626L281.768 426.21L281.943 425.489C282.487 423.244 282.763 420.937 282.763 418.633C282.763 407.201 275.969 396.944 265.813 392.979C261.927 394.483 258.375 396.963 255.521 400.168L254.627 401.173L253.863 400.064C250.003 394.461 247.01 388.521 244.713 381.907C239.977 368.269 239.217 354.684 242.322 339.153L242.493 338.295L384.857 338.542C395.7 338.56 404.522 347.946 404.522 359.463V469.426C404.522 511.483 374.702 547.411 335.159 552.997L333.399 553.246ZM284.167 425.268C287.146 427.289 290.206 429.281 293.171 431.211C311.765 443.318 330.993 455.836 339.889 481.548C346.88 501.754 345.779 524.983 336.622 550.613C374.248 544.374 402.404 509.8 402.404 469.426V359.463C402.404 349.121 394.531 340.694 384.853 340.677L244.229 340.433C241.401 355.216 242.194 368.192 246.711 381.201C248.796 387.204 251.468 392.632 254.865 397.755C257.873 394.671 261.508 392.292 265.45 390.836L265.816 390.701L266.182 390.837C277.366 395.005 284.88 406.176 284.88 418.633C284.881 420.859 284.641 423.088 284.167 425.268ZM374.001 331.634C373.996 331.634 373.99 331.634 373.985 331.634L356.409 331.579C356.152 331.616 355.916 331.634 355.691 331.634C355.688 331.634 355.684 331.634 355.68 331.634L336.795 331.575C333.805 331.565 331.373 329.003 331.373 325.863V278.743C331.373 262.793 325.483 247.692 314.787 236.223C304.089 224.751 289.831 218.262 274.639 217.952L250.115 217.452C245.932 217.85 241.785 218.731 237.79 220.073L237.168 220.281L236.706 219.814C227.466 210.487 215.291 202.151 200.519 195.036L198.479 194.054L200.534 193.103C212.437 187.594 225.144 184.967 238.296 185.294L247.769 185.53C250.704 185.301 253.675 185.222 256.601 185.294L292.992 186.201C316.181 186.778 337.917 196.759 354.199 214.304C370.438 231.803 379.382 254.797 379.382 279.048V325.969C379.382 327.534 378.791 328.989 377.717 330.068C376.712 331.078 375.393 331.634 374.001 331.634ZM356.252 329.443L373.991 329.499C373.994 329.499 373.998 329.499 374.001 329.499C374.829 329.499 375.617 329.164 376.222 328.556C376.894 327.881 377.264 326.962 377.264 325.969V279.048C377.264 255.34 368.524 232.865 352.653 215.762C336.763 198.639 315.557 188.898 292.94 188.335L256.549 187.429C253.676 187.357 250.76 187.436 247.881 187.663L247.826 187.667L238.244 187.429C226.173 187.128 214.495 189.378 203.491 194.117C217.318 200.994 228.829 208.967 237.743 217.842C241.718 216.558 245.831 215.71 249.978 215.321L250.038 215.315L274.683 215.818C290.448 216.139 305.238 222.867 316.33 234.761C327.396 246.627 333.491 262.247 333.491 278.743V325.863C333.491 327.83 334.976 329.434 336.801 329.44L355.686 329.499C355.814 329.497 355.982 329.486 356.169 329.456L356.252 329.443Z" fill="white"/>
</mask>
<g mask="url(#mask7_15_4373)">
<g opacity="0.4">
<path d="M299.838 530.493C289.725 513.105 299.538 484.149 311.551 467.197C325.576 447.405 336.971 451.919 346.69 435.671C364.787 405.419 332.709 377.366 348.559 345.4C361.516 319.267 387.871 328.099 400.914 298.501C410.325 277.143 401.127 262.279 415.395 246.411C416.615 245.054 429.978 230.615 446.207 233.23C462.587 235.87 472.307 254.34 475.487 267.092C481.365 290.664 465.772 298.216 462.569 328.738C458.209 370.291 484.53 380.889 475.046 410.816C467.215 435.53 447.461 434.004 439.317 461.579C431.755 487.186 446.042 497.807 439.317 514.542C423.847 553.043 320.465 565.959 299.838 530.493Z" fill="url(#paint7_linear_15_4373)"/>
<path d="M354.649 552.341C332.171 552.342 308.11 546.826 298.925 531.033C288.996 513.962 297.576 485.083 310.69 466.577C318.001 456.259 324.703 452.372 330.617 448.942C336.285 445.655 341.18 442.816 345.784 435.12C354.767 420.103 351.109 405.791 347.236 390.64C343.508 376.055 339.653 360.973 347.612 344.922C353.996 332.047 363.696 327.372 373.077 322.852C383.031 318.054 393.324 313.094 399.946 298.067C403.983 288.906 404.523 281.085 405.045 273.521C405.707 263.946 406.331 254.902 414.61 245.694C416.108 244.028 429.729 229.494 446.374 232.177C464.055 235.026 473.638 255.301 476.514 266.832C479.898 280.404 476.266 288.994 472.06 298.941C468.756 306.755 465.011 315.61 463.622 328.85C461.477 349.292 466.888 362.217 471.662 373.62C476.635 385.499 480.929 395.758 476.055 411.141C472.183 423.361 465.33 429.431 458.703 435.301C451.698 441.506 444.455 447.923 440.332 461.884C436.404 475.185 438.504 484.419 440.356 492.566C442.016 499.868 443.584 506.765 440.298 514.943C436.293 524.912 426.366 533.766 411.593 540.548C398.235 546.679 381.64 550.734 364.865 551.966C361.537 552.21 358.112 552.341 354.649 552.341ZM442.229 233.981C428.431 233.981 417.481 245.681 416.179 247.128C408.392 255.788 407.82 264.075 407.158 273.67C406.648 281.056 406.07 289.429 401.882 298.934C394.942 314.681 384.291 319.814 373.99 324.778C364.514 329.344 355.565 333.657 349.506 345.877C341.902 361.213 345.656 375.902 349.287 390.107C353.098 405.019 357.039 420.438 347.597 436.222C342.71 444.392 337.349 447.501 331.673 450.793C325.667 454.276 319.456 457.878 312.412 467.818C306.04 476.811 300.943 488.149 298.428 498.926C296.374 507.727 295.111 520.254 300.752 529.953C308.218 542.791 328.2 550.233 354.107 550.234C357.544 550.234 361.081 550.103 364.711 549.837C394.131 547.676 429.72 535.584 438.336 514.141C441.371 506.586 439.945 500.31 438.292 493.043C436.381 484.639 434.215 475.114 438.302 461.275C442.599 446.724 450.076 440.102 457.306 433.697C464.011 427.757 470.344 422.147 474.038 410.492C478.674 395.86 474.52 385.938 469.711 374.45C464.837 362.809 459.314 349.615 461.516 328.625C462.939 315.067 466.75 306.055 470.112 298.104C474.335 288.116 477.671 280.228 474.46 267.353C471.711 256.329 462.632 236.959 446.04 234.285C444.75 234.077 443.477 233.981 442.229 233.981Z" fill="white"/>
</g>
</g>
<path d="M374.002 331.367C373.996 331.367 373.991 331.367 373.985 331.367L355.101 331.308C352.257 331.299 349.943 328.857 349.943 325.864V278.743C349.943 262.725 344.027 247.559 333.285 236.04C322.538 224.516 308.213 217.997 292.95 217.686L256.558 216.944C250.112 216.812 243.766 217.777 237.704 219.812L237.202 218.293C243.437 216.2 249.962 215.208 256.59 215.343L292.983 216.085C308.676 216.405 323.4 223.102 334.443 234.944C345.462 246.761 351.531 262.316 351.531 278.743V325.864C351.531 327.977 353.135 329.701 355.106 329.707L373.991 329.766C373.994 329.766 373.998 329.766 374.001 329.766C374.9 329.766 375.755 329.404 376.41 328.745C377.132 328.019 377.53 327.034 377.53 325.97V279.049C377.53 255.273 368.764 232.732 352.847 215.58C336.907 198.404 315.635 188.634 292.947 188.068L256.555 187.162C240.444 186.761 224.651 191.016 210.901 199.468L210.074 198.101C224.085 189.488 240.172 185.151 256.595 185.561L292.986 186.468C316.103 187.043 337.774 196.994 354.006 214.486C370.2 231.936 379.118 254.865 379.118 279.049V325.97C379.118 327.462 378.554 328.851 377.531 329.879C376.576 330.839 375.323 331.367 374.002 331.367Z" fill="white"/>
<path d="M335.123 552.736L334.902 551.15C373.535 545.693 402.669 510.56 402.669 469.426V359.464C402.669 348.975 394.677 340.427 384.854 340.41L243.358 340.165L243.361 338.563L384.856 338.809C395.554 338.828 404.257 348.093 404.257 359.464V469.426C404.257 511.354 374.536 547.169 335.123 552.736ZM297.955 435.407L296.629 434.525C299.706 429.824 301.333 424.328 301.333 418.633C301.333 410.994 298.444 403.892 293.199 398.635C288.243 393.667 281.716 390.947 274.825 390.995C267.471 391.039 260.36 394.315 255.317 399.984L254.135 398.915C259.477 392.911 267.015 389.441 274.816 389.394C274.871 389.394 274.926 389.393 274.98 389.393C282.238 389.393 289.099 392.268 294.319 397.5C299.866 403.059 302.921 410.565 302.921 418.633C302.921 424.643 301.204 430.443 297.955 435.407Z" fill="white"/>
<path d="M369.161 388.612C371.254 386.502 371.254 383.081 369.161 380.971C367.069 378.861 363.676 378.862 361.583 380.971C359.49 383.081 359.49 386.502 361.583 388.612C363.676 390.722 367.069 390.722 369.161 388.612Z" fill="white"/>
<path d="M370.677 355.843C371.151 352.898 369.167 350.123 366.246 349.645C363.324 349.167 360.572 351.167 360.098 354.112C359.624 357.058 361.607 359.833 364.529 360.311C367.45 360.789 370.203 358.789 370.677 355.843Z" fill="white"/>
<path d="M370.678 441.215C371.152 438.27 369.168 435.495 366.247 435.017C363.325 434.539 360.573 436.539 360.099 439.484C359.625 442.429 361.608 445.204 364.53 445.682C367.451 446.16 370.204 444.16 370.678 441.215Z" fill="white"/>
<path d="M370.59 497.184C371.27 494.28 369.487 491.371 366.607 490.685C363.726 489.999 360.84 491.797 360.16 494.701C359.48 497.605 361.264 500.515 364.144 501.2C367.024 501.886 369.91 500.088 370.59 497.184Z" fill="white"/>
<path d="M368.496 321.835C369.176 318.931 367.392 316.021 364.512 315.335C361.632 314.65 358.746 316.448 358.065 319.352C357.385 322.255 359.169 325.165 362.049 325.851C364.929 326.537 367.815 324.738 368.496 321.835Z" fill="white"/>
<path d="M312.509 387.168C314.384 387.168 315.904 385.636 315.904 383.746C315.904 381.855 314.384 380.323 312.509 380.323C310.634 380.323 309.114 381.855 309.114 383.746C309.114 385.636 310.634 387.168 312.509 387.168Z" fill="white"/>
<path d="M315.869 355.993C316.17 354.127 314.913 352.369 313.062 352.066C311.211 351.764 309.467 353.031 309.167 354.897C308.867 356.763 310.123 358.521 311.974 358.824C313.825 359.127 315.569 357.859 315.869 355.993Z" fill="white"/>
<path d="M313.821 443.512C315.554 442.788 316.376 440.786 315.659 439.04C314.941 437.293 312.955 436.464 311.223 437.187C309.49 437.911 308.668 439.913 309.385 441.659C310.103 443.406 312.089 444.235 313.821 443.512Z" fill="white"/>
<path d="M363.56 283.768C365.429 283.612 366.818 281.958 366.663 280.074C366.509 278.191 364.868 276.79 363 276.946C361.131 277.102 359.742 278.755 359.896 280.639C360.051 282.523 361.691 283.924 363.56 283.768Z" fill="white"/>
<path d="M353.172 239.41C355.047 239.41 356.567 237.877 356.567 235.987C356.567 234.096 355.047 232.564 353.172 232.564C351.297 232.564 349.777 234.096 349.777 235.987C349.777 237.877 351.297 239.41 353.172 239.41Z" fill="white"/>
<path d="M325.903 207.346C325.903 209.237 324.383 210.769 322.508 210.769C320.633 210.769 319.113 209.237 319.113 207.346C319.113 205.456 320.633 203.923 322.508 203.923C324.383 203.923 325.903 205.456 325.903 207.346Z" fill="white"/>
<path d="M272.206 203.923C274.081 203.923 275.601 202.391 275.601 200.5C275.601 198.61 274.081 197.078 272.206 197.078C270.331 197.078 268.811 198.61 268.811 200.5C268.811 202.391 270.331 203.923 272.206 203.923Z" fill="white"/>
<path d="M353.038 261.517C353.718 258.613 351.934 255.703 349.054 255.017C346.174 254.332 343.288 256.13 342.607 259.034C341.927 261.937 343.711 264.847 346.591 265.533C349.471 266.219 352.357 264.421 353.038 261.517Z" fill="white"/>
<path d="M231.341 576.574C231.095 576.574 230.896 576.373 230.896 576.126V399.599C230.896 399.351 231.095 399.151 231.341 399.151C231.586 399.151 231.785 399.351 231.785 399.599V576.126C231.785 576.373 231.586 576.574 231.341 576.574Z" fill="#D8DEE8"/>
<path d="M184.169 565.485C183.924 565.485 183.725 565.285 183.725 565.037V395.148C183.725 394.9 183.924 394.7 184.169 394.7C184.414 394.7 184.613 394.9 184.613 395.148V565.037C184.613 565.285 184.414 565.485 184.169 565.485Z" fill="#D8DEE8"/>
<path d="M75.1093 573.396C75.0589 573.396 75.008 573.387 74.9577 573.369C74.7271 573.284 74.6082 573.027 74.6918 572.795L137.749 397.621C137.833 397.389 138.088 397.269 138.318 397.353C138.549 397.438 138.668 397.694 138.584 397.927L75.5269 573.1C75.4614 573.283 75.2909 573.396 75.1093 573.396Z" fill="#97A6B7"/>
<path d="M121.661 587.104C121.618 587.104 121.574 587.097 121.53 587.084C121.296 587.011 121.164 586.76 121.237 586.524L177.831 401.834C177.903 401.598 178.153 401.465 178.386 401.538C178.621 401.611 178.752 401.862 178.68 402.098L122.085 586.788C122.027 586.98 121.851 587.104 121.661 587.104Z" fill="#97A6B7"/>
<path d="M184.687 394.971L232.008 398.502V399.575L177.928 402.019L137.507 397.026V395.953L184.687 394.971Z" fill="#D8DEE8"/>
<path d="M184.687 393.898L232.008 398.502L177.928 400.946L137.507 395.953L184.687 393.898Z" fill="white"/>
<path d="M133.905 547.148C133.867 547.148 133.829 547.143 133.792 547.133L88.7349 535.216C88.4976 535.153 88.3557 534.908 88.418 534.669C88.4802 534.43 88.7233 534.287 88.9603 534.35L134.017 546.267C134.254 546.33 134.396 546.575 134.334 546.814C134.282 547.015 134.102 547.148 133.905 547.148Z" fill="#97A6B7"/>
<path d="M146.669 505.341C146.643 505.341 146.617 505.339 146.591 505.335L102.372 497.441C102.13 497.397 101.969 497.165 102.012 496.922C102.055 496.678 102.286 496.516 102.527 496.559L146.746 504.452C146.987 504.496 147.148 504.728 147.106 504.972C147.068 505.189 146.88 505.341 146.669 505.341Z" fill="#97A6B7"/>
<path d="M159.94 462.189C159.92 462.189 159.901 462.188 159.882 462.185L117.087 456.624C116.843 456.592 116.672 456.368 116.703 456.123C116.734 455.877 116.958 455.704 117.2 455.736L159.996 461.297C160.239 461.328 160.411 461.553 160.38 461.798C160.35 462.025 160.16 462.189 159.94 462.189Z" fill="#97A6B7"/>
<path d="M168.442 432.244C168.419 432.244 168.396 432.243 168.373 432.239L128.136 425.891C127.894 425.853 127.728 425.624 127.766 425.38C127.804 425.135 128.033 424.969 128.274 425.006L168.51 431.354C168.752 431.393 168.918 431.621 168.88 431.866C168.846 432.087 168.657 432.244 168.442 432.244Z" fill="#97A6B7"/>
<path d="M206.112 389.689C206.112 389.689 218.201 395.228 218.399 396.113C218.596 396.997 210.624 395.816 207.369 395.944C204.115 396.071 201.438 395.101 201.732 393.712C202.027 392.322 203.166 388.826 203.166 388.826L206.112 389.689Z" fill="url(#paint8_linear_15_4373)"/>
<path d="M206.554 385.193L205.818 390.681C205.818 390.681 203.904 391.368 202.619 390.555L202.07 384.537L206.554 385.193Z" fill="url(#paint9_linear_15_4373)"/>
<path d="M149.62 385.325L148.214 387.601C147.82 388.237 147.703 389.003 147.892 389.729C148.384 391.621 149.366 395.31 149.794 396.272C150.377 397.582 158.201 398.36 158.201 398.36C158.201 398.36 158.898 397.37 157.274 396.174C155.65 394.979 154.606 394.791 154.032 393.027C153.459 391.263 153.077 386.273 153.077 386.273L149.62 385.325Z" fill="url(#paint10_linear_15_4373)"/>
<path d="M155.473 379.54C154.959 379.953 152.447 387.642 152.447 387.642C152.447 387.642 151.634 388.691 150.088 387.144C148.544 385.596 149.389 386.449 149.389 386.449L149.679 378.887L155.473 379.54Z" fill="url(#paint11_linear_15_4373)"/>
<path d="M213.206 274.94C213.843 291.31 213.869 309.095 212.935 328.095C211.883 349.49 209.77 369.265 207.106 387.191C206.115 387.223 205.074 387.228 203.988 387.197C203.253 387.177 202.542 387.141 201.855 387.093C200.472 383.376 198.838 378.488 197.375 372.649C195.837 366.51 194.909 361.003 194.248 355.737C191.919 337.196 194.648 335.579 192.758 321.838C191.085 309.668 188.705 309.193 185.912 291.915C182.881 273.168 185.137 270.355 186.235 269.339C190.906 265.014 201.878 267.959 213.206 274.94Z" fill="url(#paint12_linear_15_4373)"/>
<path opacity="0.3" d="M186.234 269.339C190.69 265.213 200.878 267.711 211.639 274.008C199.26 287.492 197.91 296.24 199.394 301.916C201.071 308.331 206.171 310.179 206.152 317.193C206.128 325.813 198.411 328.097 198.575 337.218C198.684 343.25 202.075 343.188 202.875 350.638C203.823 359.452 199.393 362.49 200.828 369.012C201.445 371.817 203.207 375.484 208.225 379.26C207.863 381.938 207.492 384.59 207.105 387.191C206.115 387.222 205.074 387.228 203.987 387.197C203.253 387.176 202.542 387.14 201.855 387.093C200.472 383.376 198.838 378.488 197.375 372.649C195.837 366.51 194.909 361.003 194.247 355.737C191.919 337.196 194.648 335.578 192.758 321.837C191.085 309.668 188.705 309.192 185.912 291.915C182.881 273.167 185.137 270.355 186.234 269.339Z" fill="url(#paint13_linear_15_4373)"/>
<path d="M205.538 274.665C194.878 290.39 183.381 309.96 173.099 333.385C165.329 351.087 159.693 367.707 155.556 382.52C154.996 382.781 153.675 383.303 151.987 383.078C149.686 382.771 148.306 381.289 147.945 380.876C146.261 370.257 146.447 361.264 147.018 354.774C147.384 350.618 148.032 343.698 150.659 335.154C153.602 325.585 155.625 325.047 159.464 314.922C163.449 304.414 162.484 301.791 166.3 288.64C167.868 283.238 170.492 275.198 174.822 265.582C185.061 268.609 195.299 271.637 205.538 274.665Z" fill="url(#paint14_linear_15_4373)"/>
<path d="M254.751 294.622C252.701 297.836 245.645 297.46 240.827 295.723C229.56 291.661 222.349 277.215 221.715 265.719C221.578 263.251 221.665 260.837 221.169 260.764C219.921 260.579 216.716 275.503 214.199 288.156C212.177 288.903 209.11 289.695 205.606 289.116C199.871 288.169 199.188 284.577 192.774 282.235C189.031 280.868 185.364 280.865 178.03 280.858C169.751 280.851 169.523 281.881 167.929 281.134C167.929 281.134 167.534 280.916 167.195 280.67C161.299 276.403 178.166 243.967 173.31 214.039C172.77 210.713 171.942 207.297 173.785 203.968C178.547 195.364 197.367 194.151 209.027 199.813C212.222 201.365 217.575 204.76 222.355 208.339C224.265 209.769 226.252 211.37 228.325 213.195C233.352 217.622 236.851 220.703 239.735 224.98C251.361 242.227 237.924 256.6 248.471 278.656C252.098 286.24 256.898 291.256 254.751 294.622Z" fill="url(#paint15_linear_15_4373)"/>
<path d="M223.49 196.705C223.49 196.705 220.463 200.17 217.21 201.966C214.27 203.588 207.788 200.855 206.289 200.534C204.789 200.213 206.589 204.284 209.418 207.09C212.247 209.895 221.598 216.313 224.121 216.42C226.643 216.527 223.715 214.3 222.166 211.707C220.617 209.114 222.799 203.753 224.754 202.101C226.71 200.449 223.49 196.705 223.49 196.705Z" fill="url(#paint16_linear_15_4373)"/>
<path d="M251.533 288.781C251.533 288.781 256.343 288.47 259.242 287.338C262.142 286.207 263.925 288.041 263.62 289.257C263.316 290.472 258.557 292.011 256.677 292.006C254.798 292.001 251.533 288.781 251.533 288.781Z" fill="url(#paint17_linear_15_4373)"/>
<path d="M230.445 199.416C233.88 199.153 237.35 194.888 236.649 193.026C236.449 192.494 236.002 192.41 229.279 191.293C225.94 190.739 224.271 190.51 223.117 191.44C222.413 192.008 221.863 193.021 221.689 193.977C221.6 194.469 221.595 195.147 221.679 196.497C221.753 197.695 221.731 197.643 221.762 197.996C221.836 198.847 222.066 200.342 222.888 202.415C223.231 202.036 223.684 201.584 224.256 201.138C224.477 200.967 225.348 200.303 226.339 199.901C228.044 199.209 229.33 199.501 230.445 199.416Z" fill="url(#paint18_linear_15_4373)"/>
<path d="M221.633 200.104C221.633 200.104 221.786 203.418 224.882 204.872C227.655 206.175 231.335 200.338 230.323 198.109C229.985 197.366 228.939 196.557 227.868 196.307C227.234 196.159 226.924 196.286 225.894 196.024C224.945 195.782 224.76 195.56 224.394 195.634C223.935 195.727 223.351 196.253 222.913 198.313C222.686 197.509 222.181 196.97 221.635 196.937C221.548 196.932 221.295 196.957 221.088 197.091C220.338 197.576 220.485 198.804 221.633 200.104Z" fill="url(#paint19_linear_15_4373)"/>
<path d="M147.544 266.97C142.901 264.675 132.879 258.8 129.797 247.976C124.667 229.958 142.912 212.771 152.332 206.34C163.132 198.967 173.985 197.776 180.58 197.053C188.762 196.155 193.756 195.607 197.507 198.704C207.208 206.714 201.377 233.144 191.774 235.865C188.63 236.756 187.44 234.437 180.853 232.837C178.707 232.316 162.696 228.427 154.369 236.966C148.542 242.942 147.797 253.653 151.912 263.666C150.456 264.768 149 265.869 147.544 266.97Z" fill="url(#paint20_linear_15_4373)"/>
<path d="M148.48 266.262L150.938 264.403C150.938 264.403 152.48 265.479 154.365 265.332C155.393 265.252 156.756 265.874 157.063 266.203C157.37 266.532 158.802 267.322 156.753 267.116C154.704 266.909 154.375 267.485 154.66 268.517C154.945 269.55 156.656 272.44 157.524 273.059C158.392 273.679 155.901 274.091 154.877 273.713C153.853 273.334 152.215 272.646 151.021 270.41C150.585 269.594 148.48 266.262 148.48 266.262Z" fill="url(#paint21_linear_15_4373)"/>
<path d="M342.074 272.271C342.074 272.269 342.073 272.266 342.072 272.264C342.036 272.132 341.992 272.001 341.942 271.872C341.929 271.837 341.914 271.802 341.9 271.767C341.858 271.666 341.812 271.566 341.762 271.467C341.743 271.43 341.725 271.393 341.705 271.356C341.635 271.227 341.56 271.1 341.475 270.976L336.543 263.765C335.735 262.585 334.4 261.871 333.004 261.873L246.925 262.029C242.246 249.323 232.046 238.968 219.244 233.754C219.23 233.748 219.216 233.742 219.202 233.737C218.875 233.604 218.546 233.475 218.216 233.349C218.18 233.335 218.145 233.321 218.109 233.308C217.772 233.18 217.435 233.056 217.095 232.935C217.086 232.932 217.077 232.929 217.067 232.926C216.358 232.675 215.642 232.439 214.919 232.22C214.87 232.205 214.821 232.191 214.772 232.176C214.474 232.087 214.175 232 213.875 231.916C213.795 231.894 213.715 231.872 213.636 231.85C213.353 231.773 213.069 231.698 212.784 231.625C212.709 231.606 212.635 231.586 212.56 231.568C211.846 231.389 211.127 231.226 210.402 231.079C210.333 231.065 210.264 231.052 210.195 231.038C209.909 230.981 209.623 230.927 209.335 230.875C209.227 230.855 209.119 230.837 209.011 230.818C208.755 230.774 208.498 230.731 208.24 230.691C208.128 230.673 208.017 230.656 207.904 230.639C207.624 230.597 207.343 230.558 207.062 230.52C206.98 230.509 206.898 230.497 206.816 230.487C206.452 230.441 206.087 230.398 205.72 230.36C205.656 230.353 205.592 230.348 205.528 230.341C205.229 230.311 204.93 230.283 204.63 230.259C204.509 230.249 204.387 230.24 204.266 230.231C204.018 230.213 203.769 230.196 203.52 230.181C203.389 230.173 203.258 230.165 203.128 230.159C202.873 230.145 202.617 230.135 202.361 230.126C202.245 230.121 202.13 230.116 202.013 230.113C201.644 230.102 201.275 230.094 200.904 230.092C174.746 229.917 154.331 250.42 155.635 275.887C156.94 301.355 179.443 321.626 205.568 321.17C205.939 321.163 206.307 321.151 206.675 321.137C206.79 321.132 206.906 321.126 207.021 321.12C207.276 321.108 207.53 321.095 207.784 321.079C207.914 321.071 208.043 321.062 208.173 321.053C208.421 321.035 208.668 321.016 208.915 320.994C209.035 320.984 209.155 320.974 209.274 320.963C209.571 320.935 209.868 320.904 210.164 320.871C210.227 320.864 210.291 320.858 210.355 320.85C210.717 320.808 211.077 320.761 211.436 320.711C211.517 320.7 211.598 320.687 211.679 320.675C211.956 320.635 212.233 320.593 212.509 320.548C212.619 320.53 212.729 320.511 212.838 320.492C213.092 320.449 213.345 320.404 213.598 320.356C213.703 320.336 213.808 320.317 213.913 320.296C214.197 320.241 214.479 320.183 214.76 320.123C214.826 320.109 214.893 320.096 214.958 320.081C215.669 319.926 216.372 319.755 217.068 319.568C217.139 319.549 217.21 319.529 217.281 319.51C217.56 319.434 217.838 319.355 218.115 319.274C218.191 319.252 218.267 319.229 218.343 319.206C218.637 319.119 218.929 319.028 219.22 318.935C219.265 318.92 219.31 318.907 219.355 318.892C220.057 318.665 220.75 318.421 221.435 318.162C221.441 318.16 221.447 318.158 221.452 318.155C221.783 318.03 222.111 317.901 222.438 317.768C222.47 317.755 222.501 317.742 222.533 317.73C222.853 317.599 223.172 317.465 223.488 317.327C223.499 317.322 223.509 317.318 223.52 317.313C235.783 311.964 244.918 301.504 248.293 288.754L263.161 288.621L265.797 286.609L262.93 284.112L270.293 284.055L270.523 288.555L274.193 288.522L276.828 286.51L273.963 284.026L278.189 283.993L278.419 288.484L284.319 288.431L286.954 286.419L284.21 286.308L291.768 286.244L291.876 288.363L295.226 288.333L295.015 284.221L303.974 284.15L304.184 288.253L311.051 288.191L313.686 286.179L310.823 283.74L318.135 283.683L318.362 288.125L326.837 288.049C327.835 288.04 328.778 287.667 329.492 286.999L341.002 276.231C342.087 275.215 342.461 273.688 342.074 272.271ZM172.379 275.796C172.116 270.662 176.23 266.487 181.555 266.471C186.864 266.456 191.37 270.584 191.631 275.693C191.893 280.801 187.812 284.976 182.504 285.018C177.181 285.059 172.642 280.931 172.379 275.796Z" fill="url(#paint22_linear_15_4373)"/>
<path d="M223.907 286.984L265.796 286.608L265.566 282.099L272.928 282.042L273.158 286.542L276.828 286.509L276.598 282.013L280.824 281.981L281.054 286.471L286.954 286.418L286.845 284.295L294.403 284.232L294.511 286.351L297.86 286.321L297.65 282.208L306.609 282.138L306.819 286.24L313.686 286.179L313.458 281.728L320.77 281.671L320.997 286.113L329.471 286.037C330.469 286.028 331.413 285.655 332.127 284.987L343.637 274.218C345.066 272.881 345.266 270.654 344.11 268.963L339.178 261.753C338.37 260.572 337.035 259.858 335.639 259.861L231.216 260.049L223.907 286.984Z" fill="url(#paint23_linear_15_4373)"/>
<path d="M158.27 273.875C159.574 299.342 182.077 319.613 208.203 319.157C233.972 318.707 253.573 298.209 252.301 273.368C251.029 248.527 229.34 228.252 203.539 228.08C177.381 227.905 156.966 248.407 158.27 273.875ZM194.267 273.681C194.528 278.789 190.448 282.964 185.14 283.006C179.817 283.047 175.277 278.919 175.014 273.785C174.751 268.65 178.866 264.475 184.19 264.46C189.499 264.444 194.005 268.572 194.267 273.681Z" fill="url(#paint24_linear_15_4373)"/>
<path opacity="0.3" d="M203.539 228.079C177.381 227.905 156.966 248.407 158.27 273.875C159.574 299.342 182.077 319.613 208.203 319.157C229.175 318.791 246.054 305.152 250.929 286.742L255.399 286.702C254.994 281.034 256.471 278.211 258.179 276.698C262.971 272.453 269.728 278.276 283.373 276.817C294.743 275.602 295.916 270.911 306.544 271.145C313.945 271.308 316.643 273.664 322.764 274.917C328.181 276.025 335.441 276.094 344.687 272.504C345.029 271.354 344.853 270.049 344.111 268.963L339.178 261.753C338.37 260.573 337.035 259.859 335.639 259.861L249.56 260.016C242.803 241.669 224.536 228.219 203.539 228.079ZM175.014 273.784C174.751 268.65 178.866 264.475 184.19 264.459C189.499 264.444 194.005 268.572 194.267 273.68C194.528 278.789 190.448 282.964 185.14 283.005C179.817 283.047 175.277 278.919 175.014 273.784Z" fill="url(#paint25_linear_15_4373)"/>
<path d="M167.707 273.824C168.752 294.243 186.773 310.536 207.745 310.22C228.487 309.907 244.304 293.431 243.279 273.417C242.254 253.403 224.759 237.106 203.997 237.017C183.003 236.927 166.661 253.405 167.707 273.824ZM194.267 273.681C194.528 278.789 190.448 282.964 185.14 283.006C179.817 283.047 175.277 278.919 175.014 273.785C174.751 268.65 178.866 264.475 184.19 264.46C189.499 264.444 194.005 268.572 194.267 273.681Z" fill="url(#paint26_linear_15_4373)"/>
<path d="M391.504 577.157C392.546 579.3 392.253 580.221 391.994 580.626C391.233 581.815 389.402 580.692 384.623 581.263C384.062 581.33 382.992 581.476 381.657 581.159C380.514 580.887 379.165 580.273 379.222 579.964C379.244 579.852 379.447 579.807 379.524 579.79C380.85 579.505 389.153 576.936 389.153 576.936L391.504 577.157Z" fill="url(#paint27_linear_15_4373)"/>
<path d="M392.141 572.447L391.399 577.237C391.399 577.237 389.359 578.692 388.822 576.926C388.436 575.656 388.447 572.232 388.447 572.232L392.141 572.447Z" fill="url(#paint28_linear_15_4373)"/>
<path d="M368.042 574.818L370.046 580.333L372.957 579.866L372.282 574.759L368.042 574.818Z" fill="url(#paint29_linear_15_4373)"/>
<path d="M370.952 583.371C372.362 581.685 373.62 581.838 373.874 580.68C374.073 579.769 373.52 578.653 372.686 578.228C371.513 577.633 370.093 578.564 369.772 578.773C367.592 580.202 368.186 582.436 366.131 583.405C365.717 583.6 365.062 583.807 364.37 584.46C364.077 584.737 363.35 585.424 363.521 585.897C363.717 586.443 365.013 586.424 366.245 586.407C367.724 586.385 368.463 586.375 369.174 585.927C370.16 585.307 369.864 584.673 370.952 583.371Z" fill="url(#paint30_linear_15_4373)"/>
<path d="M407.72 457.862C407.181 469.004 405.599 478.516 403.799 486.27C401.862 494.611 400.807 496.037 400.136 501.82C398.674 514.402 402.666 516.294 403.103 530.562C403.586 546.316 399.169 558.734 397.436 563.469C395.921 567.609 394.356 570.945 393.183 573.261C391.725 574.487 389.548 573.957 387.251 573.434C386.704 559.142 385.931 545.687 385.384 531.395C383.1 509.863 380.816 488.332 378.532 466.801C388.261 463.821 397.991 460.842 407.72 457.862Z" fill="url(#paint31_linear_15_4373)"/>
<path opacity="0.3" d="M387.251 573.435C386.704 559.142 385.931 545.687 385.384 531.395C383.1 509.863 380.816 488.332 378.532 466.801C388.261 463.821 397.991 460.842 407.72 457.862C407.684 458.6 407.632 459.311 407.588 460.035C393.78 471.609 390.928 480.954 390.924 487.369C390.919 495.15 395.055 499.096 393.991 510.355C393.23 518.405 390.796 519.774 390.642 527.05C390.444 536.419 394.32 541.773 396.148 547.229C397.914 552.502 398.424 559.928 394.573 570.39C394.074 571.469 393.603 572.433 393.184 573.261C391.726 574.487 389.548 573.958 387.251 573.435Z" fill="url(#paint32_linear_15_4373)"/>
<path d="M390.386 468.231C383.025 480.17 378.878 489.602 376.611 495.432C375.228 498.989 373.965 502.698 373.585 507.59C373.119 513.582 374.198 518.538 375.156 521.717C376.564 525.794 377.813 530.54 378.546 535.887C380.924 553.227 376.602 567.601 373.285 575.849C371.554 576.453 369.823 577.058 368.093 577.661C364.437 566.608 360.005 550.945 356.992 531.681C355.347 521.16 354.094 512.91 354.303 502.469C354.523 491.456 356.447 474.071 365.827 453.452C374.013 458.378 382.2 463.305 390.386 468.231Z" fill="url(#paint33_linear_15_4373)"/>
<path d="M388.446 372.82C377.486 374.474 369.131 376.262 365.297 381.948C361.247 387.953 367.382 392.672 368.793 406.07C370.952 426.583 359.124 433.973 362.042 454.643C363.025 461.608 365.252 467.026 366.795 470.251C370.262 473.229 375.786 477.309 383.338 480.157C394.327 484.302 399.837 482.15 414.716 483.33C439.052 485.261 442.548 492.465 453.65 488.321C464.87 484.134 473.177 472.343 470.926 467.179C469.578 464.087 465.08 465.902 458.766 462.005C450.629 456.982 452.154 450.399 445.589 444.582C436.16 436.227 426.748 444.255 418.685 436.993C410.53 429.646 409.909 412.196 413.661 401.897C416.112 395.17 416.312 387.802 418.171 380.885C418.326 380.311 418.457 379.392 418.123 378.339C416.847 374.313 409.61 373.389 404.138 372.742C395.793 371.756 389.347 372.683 388.446 372.82Z" fill="url(#paint34_linear_15_4373)"/>
<path opacity="0.3" d="M452.537 480.536C449.212 478.196 451.175 471.811 446.251 468.292C441.681 465.026 437.976 469.088 431.187 466.827C422.479 463.928 423.118 455.43 414.775 452.532C408.776 450.449 406.871 454.297 398.154 454.276C389.452 454.256 378.126 450.39 371.103 440.938C368.119 436.922 366.495 432.67 365.645 428.754C363.157 436.28 360.476 443.548 362.042 454.643C363.025 461.608 365.252 467.026 366.795 470.25C370.262 473.228 375.786 477.309 383.338 480.157C394.327 484.301 399.837 482.15 414.716 483.33C439.052 485.261 442.549 492.464 453.65 488.321C460.821 485.645 466.786 479.866 469.581 474.693C459.801 481.548 454.95 482.234 452.537 480.536Z" fill="url(#paint35_linear_15_4373)"/>
<path d="M382.545 353.631C382.545 353.631 379.414 359.261 379.139 363.253C378.864 367.245 383.344 367.051 383.344 367.051L383.122 369.568C382.933 371.717 381.508 373.553 379.484 374.254L377.704 374.87C377.704 374.87 389.172 377.606 395.558 373.261L393.749 373.043C391.188 372.734 389.197 370.648 388.99 368.055L388.904 366.973C388.904 366.973 391.167 354.56 382.545 353.631Z" fill="url(#paint36_linear_15_4373)"/>
<path d="M364.224 416.757L349.978 384.7C349.802 384.304 349.39 384.071 348.963 384.125L324.053 387.292C323.387 387.376 323.002 388.095 323.296 388.702L340.094 423.34C340.296 423.757 340.76 423.976 341.207 423.864L363.385 418.335L364.224 416.757Z" fill="url(#paint37_linear_15_4373)"/>
<path d="M360.305 412.876L348.77 386.92C348.627 386.599 348.294 386.41 347.948 386.454L327.778 389.018C327.24 389.086 326.928 389.669 327.166 390.16L340.767 418.207C340.93 418.544 341.306 418.721 341.668 418.631L359.626 414.154L360.305 412.876Z" fill="white"/>
<path d="M344.587 386.763L343.673 384.682C343.546 384.393 343.247 384.221 342.936 384.258L332.57 385.487C332.089 385.544 331.802 386.057 332.002 386.502L333.023 388.767C333.154 389.057 333.458 389.227 333.772 389.183L344.03 387.769C344.502 387.704 344.78 387.202 344.587 386.763Z" fill="url(#paint38_linear_15_4373)"/>
<path d="M330.449 393.781C330.466 393.78 330.481 393.778 330.497 393.777L348.766 391.413C348.992 391.384 349.152 391.176 349.124 390.948C349.094 390.72 348.88 390.562 348.662 390.589L330.392 392.952C330.166 392.981 330.006 393.19 330.035 393.417C330.062 393.63 330.243 393.783 330.449 393.781Z" fill="#D8DEE8"/>
<path d="M331.387 395.64C331.404 395.64 331.421 395.638 331.438 395.636L349.616 393.094C349.842 393.063 349.999 392.853 349.968 392.624C349.937 392.397 349.731 392.239 349.503 392.269L331.325 394.812C331.099 394.843 330.941 395.053 330.973 395.282C331.002 395.491 331.182 395.643 331.387 395.64Z" fill="#D8DEE8"/>
<path d="M340.533 398.564C340.554 398.564 340.575 398.562 340.596 398.559L350.508 396.894C350.734 396.856 350.885 396.642 350.847 396.414C350.811 396.189 350.594 396.034 350.373 396.073L340.46 397.738C340.235 397.775 340.083 397.99 340.121 398.217C340.154 398.422 340.333 398.567 340.533 398.564Z" fill="#D8DEE8"/>
<path d="M335.984 414.863C335.984 414.863 331.924 412.08 331.451 410.117C330.977 408.155 331.096 404.463 331.096 404.463L333.462 409.664C333.462 409.664 334.606 409.334 335.098 407.62C335.591 405.906 336.423 407.476 336.087 408.77C335.751 410.065 335.984 414.863 335.984 414.863Z" fill="url(#paint39_linear_15_4373)"/>
<path d="M367.238 380.013C365.094 381.33 361.862 383.641 359.004 387.37C350.874 397.98 354.044 409.284 347.319 413.282C345.396 414.426 342.02 415.354 335.925 413.181L333.589 414.434C333.589 414.434 330.735 429.066 348.358 429.613C365.981 430.16 374.762 408.072 374.762 408.072L367.238 380.013Z" fill="url(#paint40_linear_15_4373)"/>
<path d="M384.224 359.333C384.82 359.296 385.328 358.545 385.731 358.78C386.154 359.026 386.083 360.135 385.694 360.907C385.376 361.538 384.871 361.889 384.59 362.051C385.036 362.703 385.601 363.712 385.817 365.023C386.295 367.921 384.723 370.21 384.062 371.556C381.078 377.619 385.311 387.398 390.079 392.394C393.954 396.454 395.835 394.896 398.13 398.194C402.597 404.612 396.098 411.42 398.297 419.976C401.64 432.986 421.812 437.271 422.648 437.438C422.978 437.504 423.199 437.546 423.542 437.608C432.597 439.26 446.321 441.764 456.179 434.455C463.555 428.987 467.091 419.269 466.725 410.633C466.629 408.362 466.13 399.737 459.321 392.559C458.24 391.419 451.84 384.688 443.003 384.417C438.323 384.274 437.343 385.916 433.785 384.811C428.914 383.297 425.99 378.739 424.176 375.912C420.84 370.711 422.264 369.647 419.839 367.072C415.087 362.028 409.307 365.783 404.212 361.312C399.19 356.904 402.399 351.142 397.543 347.316C392.532 343.37 382.764 344.498 380.591 349.021C378.723 352.908 382.395 359.445 384.224 359.333Z" fill="url(#paint41_linear_15_4373)"/>
<defs>
<linearGradient id="paint0_linear_15_4373" x1="263.277" y1="203.813" x2="317.868" y2="394.261" gradientUnits="userSpaceOnUse">
<stop offset="0.0036" stop-color="#E38DDD"/>
<stop offset="1" stop-color="#9571F6"/>
</linearGradient>
<linearGradient id="paint1_linear_15_4373" x1="359.203" y1="333.585" x2="421.23" y2="471.547" gradientUnits="userSpaceOnUse">
<stop offset="0.0036" stop-color="#E38DDD"/>
<stop offset="1" stop-color="#9571F6"/>
</linearGradient>
<linearGradient id="paint2_linear_15_4373" x1="226.723" y1="400.641" x2="246.675" y2="327.133" gradientUnits="userSpaceOnUse">
<stop stop-color="#311944"/>
<stop offset="1" stop-color="#893976"/>
</linearGradient>
<linearGradient id="paint3_linear_15_4373" x1="269.779" y1="591.697" x2="256.655" y2="450.764" gradientUnits="userSpaceOnUse">
<stop stop-color="#311944"/>
<stop offset="1" stop-color="#893976"/>
</linearGradient>
<linearGradient id="paint4_linear_15_4373" x1="335.343" y1="185.247" x2="31.6529" y2="683.237" gradientUnits="userSpaceOnUse">
<stop stop-color="#FF9085"/>
<stop offset="1" stop-color="#FB6FBB"/>
</linearGradient>
<linearGradient id="paint5_linear_15_4373" x1="393.842" y1="220.921" x2="90.1509" y2="718.912" gradientUnits="userSpaceOnUse">
<stop stop-color="#FF9085"/>
<stop offset="1" stop-color="#FB6FBB"/>
</linearGradient>
<linearGradient id="paint6_linear_15_4373" x1="263.277" y1="203.813" x2="317.868" y2="394.261" gradientUnits="userSpaceOnUse">
<stop offset="0.0036" stop-color="#E38DDD"/>
<stop offset="1" stop-color="#9571F6"/>
</linearGradient>
<linearGradient id="paint7_linear_15_4373" x1="359.203" y1="333.585" x2="421.23" y2="471.547" gradientUnits="userSpaceOnUse">
<stop offset="0.0036" stop-color="#E38DDD"/>
<stop offset="1" stop-color="#9571F6"/>
</linearGradient>
<linearGradient id="paint8_linear_15_4373" x1="211.969" y1="370.469" x2="208.917" y2="409.003" gradientUnits="userSpaceOnUse">
<stop stop-color="#311944"/>
<stop offset="1" stop-color="#A03976"/>
</linearGradient>
<linearGradient id="paint9_linear_15_4373" x1="204.216" y1="391.924" x2="204.771" y2="352.012" gradientUnits="userSpaceOnUse">
<stop stop-color="#FFC444"/>
<stop offset="0.9964" stop-color="#F36F56"/>
</linearGradient>
<linearGradient id="paint10_linear_15_4373" x1="155.214" y1="365.974" x2="152.161" y2="404.506" gradientUnits="userSpaceOnUse">
<stop stop-color="#311944"/>
<stop offset="1" stop-color="#A03976"/>
</linearGradient>
<linearGradient id="paint11_linear_15_4373" x1="152.202" y1="391.201" x2="152.757" y2="351.287" gradientUnits="userSpaceOnUse">
<stop stop-color="#FFC444"/>
<stop offset="0.9964" stop-color="#F36F56"/>
</linearGradient>
<linearGradient id="paint12_linear_15_4373" x1="213.663" y1="327.266" x2="184.393" y2="327.266" gradientUnits="userSpaceOnUse">
<stop stop-color="#444B8C"/>
<stop offset="0.9964" stop-color="#3E4177"/>
</linearGradient>
<linearGradient id="paint13_linear_15_4373" x1="213.663" y1="327.267" x2="184.393" y2="327.267" gradientUnits="userSpaceOnUse">
<stop stop-color="#444B8C"/>
<stop offset="0.9964" stop-color="#3E4177"/>
</linearGradient>
<linearGradient id="paint14_linear_15_4373" x1="205.538" y1="324.357" x2="146.612" y2="324.357" gradientUnits="userSpaceOnUse">
<stop stop-color="#444B8C"/>
<stop offset="0.9964" stop-color="#3E4177"/>
</linearGradient>
<linearGradient id="paint15_linear_15_4373" x1="201.422" y1="321.95" x2="223.473" y2="198.144" gradientUnits="userSpaceOnUse">
<stop stop-color="#AA80F9"/>
<stop offset="0.9964" stop-color="#6165D7"/>
</linearGradient>
<linearGradient id="paint16_linear_15_4373" x1="215.566" y1="218.821" x2="215.566" y2="194.976" gradientUnits="userSpaceOnUse">
<stop stop-color="#FFC444"/>
<stop offset="0.9964" stop-color="#F36F56"/>
</linearGradient>
<linearGradient id="paint17_linear_15_4373" x1="262.466" y1="286.469" x2="253.124" y2="291.65" gradientUnits="userSpaceOnUse">
<stop stop-color="#FFC444"/>
<stop offset="0.9964" stop-color="#F36F56"/>
</linearGradient>
<linearGradient id="paint18_linear_15_4373" x1="211.804" y1="208.831" x2="232.941" y2="191.228" gradientUnits="userSpaceOnUse">
<stop stop-color="#444B8C"/>
<stop offset="0.9964" stop-color="#3E4177"/>
</linearGradient>
<linearGradient id="paint19_linear_15_4373" x1="232.283" y1="211.949" x2="221.082" y2="190.346" gradientUnits="userSpaceOnUse">
<stop stop-color="#FFC444"/>
<stop offset="0.9964" stop-color="#F36F56"/>
</linearGradient>
<linearGradient id="paint20_linear_15_4373" x1="150.746" y1="312.925" x2="172.797" y2="189.118" gradientUnits="userSpaceOnUse">
<stop stop-color="#AA80F9"/>
<stop offset="0.9964" stop-color="#6165D7"/>
</linearGradient>
<linearGradient id="paint21_linear_15_4373" x1="151.677" y1="277.871" x2="154.075" y2="264.41" gradientUnits="userSpaceOnUse">
<stop stop-color="#FFC444"/>
<stop offset="0.9964" stop-color="#F36F56"/>
</linearGradient>
<linearGradient id="paint22_linear_15_4373" x1="209.742" y1="193.279" x2="363.658" y2="520.934" gradientUnits="userSpaceOnUse">
<stop stop-color="#AB316D"/>
<stop offset="1" stop-color="#792D3D"/>
</linearGradient>
<linearGradient id="paint23_linear_15_4373" x1="302.328" y1="230.563" x2="242.839" y2="376.085" gradientUnits="userSpaceOnUse">
<stop stop-color="#FFC444"/>
<stop offset="0.9964" stop-color="#F36F56"/>
</linearGradient>
<linearGradient id="paint24_linear_15_4373" x1="233.849" y1="202.574" x2="174.362" y2="348.09" gradientUnits="userSpaceOnUse">
<stop stop-color="#FFC444"/>
<stop offset="0.9964" stop-color="#F36F56"/>
</linearGradient>
<linearGradient id="paint25_linear_15_4373" x1="154.313" y1="306.515" x2="562.27" y2="108.729" gradientUnits="userSpaceOnUse">
<stop stop-color="#FFC444"/>
<stop offset="0.9964" stop-color="#F36F56"/>
</linearGradient>
<linearGradient id="paint26_linear_15_4373" x1="157.449" y1="297.292" x2="374.377" y2="192.121" gradientUnits="userSpaceOnUse">
<stop stop-color="#FFC444"/>
<stop offset="0.9964" stop-color="#F36F56"/>
</linearGradient>
<linearGradient id="paint27_linear_15_4373" x1="381.807" y1="593.698" x2="391.672" y2="559.755" gradientUnits="userSpaceOnUse">
<stop stop-color="#444B8C"/>
<stop offset="0.9964" stop-color="#26264F"/>
</linearGradient>
<linearGradient id="paint28_linear_15_4373" x1="390.493" y1="586.986" x2="389.736" y2="532.613" gradientUnits="userSpaceOnUse">
<stop stop-color="#FFC444"/>
<stop offset="0.9964" stop-color="#F36F56"/>
</linearGradient>
<linearGradient id="paint29_linear_15_4373" x1="370.636" y1="587.262" x2="369.879" y2="532.888" gradientUnits="userSpaceOnUse">
<stop stop-color="#FFC444"/>
<stop offset="0.9964" stop-color="#F36F56"/>
</linearGradient>
<linearGradient id="paint30_linear_15_4373" x1="366.914" y1="589.37" x2="376.779" y2="555.426" gradientUnits="userSpaceOnUse">
<stop stop-color="#444B8C"/>
<stop offset="0.9964" stop-color="#26264F"/>
</linearGradient>
<linearGradient id="paint31_linear_15_4373" x1="393.546" y1="469.593" x2="400.143" y2="581.871" gradientUnits="userSpaceOnUse">
<stop stop-color="#311944"/>
<stop offset="1" stop-color="#893976"/>
</linearGradient>
<linearGradient id="paint32_linear_15_4373" x1="393.546" y1="469.594" x2="400.143" y2="581.871" gradientUnits="userSpaceOnUse">
<stop stop-color="#311944"/>
<stop offset="1" stop-color="#893976"/>
</linearGradient>
<linearGradient id="paint33_linear_15_4373" x1="318.699" y1="518.441" x2="409.448" y2="513.104" gradientUnits="userSpaceOnUse">
<stop stop-color="#311944"/>
<stop offset="1" stop-color="#893976"/>
</linearGradient>
<linearGradient id="paint34_linear_15_4373" x1="453.417" y1="540.556" x2="386.251" y2="403.175" gradientUnits="userSpaceOnUse">
<stop stop-color="#FFC444"/>
<stop offset="0.9964" stop-color="#F36F56"/>
</linearGradient>
<linearGradient id="paint35_linear_15_4373" x1="354.552" y1="386.525" x2="424.079" y2="478.908" gradientUnits="userSpaceOnUse">
<stop stop-color="#FF9085"/>
<stop offset="1" stop-color="#FB6FBB"/>
</linearGradient>
<linearGradient id="paint36_linear_15_4373" x1="379.999" y1="361.599" x2="392.012" y2="380.292" gradientUnits="userSpaceOnUse">
<stop stop-color="#FFC444"/>
<stop offset="0.9964" stop-color="#F36F56"/>
</linearGradient>
<linearGradient id="paint37_linear_15_4373" x1="337.142" y1="391.531" x2="361.355" y2="429.209" gradientUnits="userSpaceOnUse">
<stop stop-color="#444B8C"/>
<stop offset="0.9964" stop-color="#26264F"/>
</linearGradient>
<linearGradient id="paint38_linear_15_4373" x1="339.5" y1="389.049" x2="333.693" y2="377.513" gradientUnits="userSpaceOnUse">
<stop stop-color="#AA80F9"/>
<stop offset="0.9964" stop-color="#6165D7"/>
</linearGradient>
<linearGradient id="paint39_linear_15_4373" x1="332.397" y1="406.69" x2="338.207" y2="415.731" gradientUnits="userSpaceOnUse">
<stop stop-color="#FFC444"/>
<stop offset="0.9964" stop-color="#F36F56"/>
</linearGradient>
<linearGradient id="paint40_linear_15_4373" x1="424.706" y1="554.597" x2="357.539" y2="417.214" gradientUnits="userSpaceOnUse">
<stop stop-color="#FFC444"/>
<stop offset="0.9964" stop-color="#F36F56"/>
</linearGradient>
<linearGradient id="paint41_linear_15_4373" x1="445.593" y1="440.047" x2="396.609" y2="339.855" gradientUnits="userSpaceOnUse">
<stop stop-color="#444B8C"/>
<stop offset="0.9964" stop-color="#26264F"/>
</linearGradient>
</defs>
</svg>
