<svg width="434" height="375" viewBox="0 0 434 375" fill="none" xmlns="http://www.w3.org/2000/svg">
<path d="M130.532 157.959C130.532 157.959 105.652 147.328 89.5981 170.177C73.5487 193.026 74.3714 286.556 74.3714 286.556L112.417 316.112C112.417 316.112 119.267 295.784 125.195 275.243C128.92 262.309 141.691 242.923 139.637 222.184C137.586 201.443 145.887 193.276 128.849 183.344C122.735 179.779 119.35 191.494 119.32 187.473C119.275 181.806 125.609 168.536 130.532 157.959Z" fill="#DEA078"/>
<path d="M147.404 206.208C141.574 199.51 143.879 194.19 144.144 192.479L148.291 176.125C149.568 171.062 154.64 168.007 159.621 169.308L161.66 169.834C166.641 171.131 169.651 176.291 168.373 181.35L160.622 212.7C160.622 212.697 150.782 210.084 147.404 206.208Z" fill="#D29973"/>
<path d="M165.599 188.428C162.821 192.824 157.059 194.105 152.73 191.28L132.918 178.357C128.589 175.532 127.334 169.679 130.113 165.281L131.25 163.48C134.028 159.082 139.786 157.805 144.119 160.628L163.928 173.55C168.257 176.375 169.516 182.226 166.737 186.626L165.599 188.428Z" fill="#D29973"/>
<path d="M146.76 164.727C150.02 168.77 149.441 174.731 145.46 178.048L117.069 201.67C113.093 204.983 107.222 204.39 103.961 200.347L102.623 198.695C99.3673 194.653 99.9511 188.69 103.927 185.376L132.317 161.755C136.297 158.441 142.162 159.031 145.421 163.072L146.76 164.727Z" fill="#D29973"/>
<path d="M174.086 199.171C168.017 197.564 164.807 195.327 162.506 187.577L156.517 165.353C155.061 159.995 158.147 154.452 163.42 152.972L165.581 152.363C170.854 150.88 176.311 154.024 177.767 159.382L188.145 197.31C188.145 197.31 180.154 200.774 174.086 199.171Z" fill="#DEA078"/>
<path d="M176.921 167.912C175.283 173.755 169.294 177.147 163.543 175.482L137.219 167.873C131.472 166.208 128.132 160.122 129.771 154.282L130.441 151.89C132.075 146.043 138.068 142.652 143.818 144.318L170.14 151.928C175.891 153.591 179.226 159.678 177.588 165.521L176.921 167.912Z" fill="#DEA078"/>
<path d="M147.245 152.209C151.036 156.907 150.361 163.839 145.736 167.691L112.091 196.326C107.466 200.176 100.644 199.488 96.8531 194.793L95.3026 192.865C91.5087 188.168 92.1875 181.234 96.8112 177.385L130.456 148.75C135.081 144.897 141.904 145.584 145.694 150.283L147.245 152.209Z" fill="#DEA078"/>
<path d="M205.999 160.665C200.445 164.983 193.566 165.979 188.175 162.704L167.407 150.084C162.013 146.807 160.258 139.712 163.484 134.232L164.802 131.989C168.024 126.51 175.01 124.725 180.401 128.003L215.334 148.913C215.334 148.913 211.555 156.348 205.999 160.665Z" fill="#EAA87D"/>
<path d="M185.723 141.219C185.39 147.595 180.034 152.488 173.761 152.148L145.052 150.606C138.778 150.264 133.957 144.825 134.295 138.45L134.431 135.837C134.761 129.466 140.117 124.571 146.391 124.909L175.104 126.458C181.377 126.795 186.192 132.236 185.862 138.612L185.723 141.219Z" fill="#EAA87D"/>
<path d="M155.892 131.949C159.568 137.128 158.42 144.348 153.33 148.088L106.118 181.663C101.027 185.4 93.917 184.234 90.2404 179.059L88.7359 176.939C85.0594 171.767 86.2036 164.541 91.2979 160.806L138.505 127.227C143.595 123.487 150.706 124.654 154.387 129.833L155.892 131.949Z" fill="#EAA87D"/>
<path d="M195.578 119.745C191.769 126.879 185.045 131.175 177.918 130.311L150.475 126.978C143.341 126.11 138.258 119.539 139.11 112.299L139.455 109.334C140.309 102.093 146.775 96.9246 153.901 97.7885L199.925 103.064C199.925 103.064 199.396 112.606 195.578 119.745Z" fill="#FAB589"/>
<path d="M165.511 109.058C168.085 115.866 164.742 123.506 158.044 126.123L127.382 138.103C120.688 140.72 113.164 137.325 110.591 130.519L109.533 127.73C106.959 120.92 110.299 113.283 117.005 110.665L147.658 98.6826C154.36 96.0668 161.881 99.4646 164.454 106.27L165.511 109.058Z" fill="#FAB589"/>
<path d="M130.142 113.515C136.351 117.172 138.466 125.251 134.865 131.56L101.023 188.937C97.4178 195.25 89.4655 197.397 83.2525 193.74L80.713 192.244C74.5042 188.585 72.3893 180.503 75.9903 174.195L109.84 116.818C113.437 110.507 121.389 108.358 127.599 112.013L130.142 113.515Z" fill="#FAB589"/>
<path d="M119.18 158.154C119.18 158.154 94.2953 147.523 78.2459 170.374C62.1894 193.223 63.0151 286.751 63.0151 286.751L48.5049 331.258L101.576 349.74L112.417 316.112C112.417 316.112 118.637 292.946 124.569 272.405C128.295 259.469 138.132 250.488 133.682 224.305C133.682 224.305 124.191 208.627 116.041 203.729C109.972 200.083 94.5567 214.572 94.5219 210.551C94.4811 204.882 114.248 168.73 119.18 158.154Z" fill="#FAB589"/>
<path d="M273.67 42.8924L85.8813 82.0259L133.244 316.696L321.033 277.562L273.67 42.8924Z" fill="white" stroke="#BCBEC0" stroke-width="2" stroke-miterlimit="10"/>
<path d="M260.35 63.3399L187.607 78.4988L193.62 108.29L266.363 93.131L260.35 63.3399Z" fill="#699F5B"/>
<path d="M268.465 103.554L195.722 118.713L196.678 123.454L269.422 108.294L268.465 103.554Z" fill="#DCDDDE"/>
<path d="M270.284 112.555L197.539 127.714L198.496 132.455L271.241 117.295L270.284 112.555Z" fill="#DCDDDE"/>
<path d="M272.107 121.558L199.362 136.717L200.319 141.458L273.063 126.298L272.107 121.558Z" fill="#DCDDDE"/>
<path d="M273.921 130.568L201.178 145.727L202.134 150.464L274.877 135.305L273.921 130.568Z" fill="#DCDDDE"/>
<path d="M275.737 139.574L202.995 154.733L203.952 159.474L276.694 144.315L275.737 139.574Z" fill="#DCDDDE"/>
<path d="M278.145 151.495L205.402 166.654L206.868 173.916L279.611 158.757L278.145 151.495Z" fill="#7CB96A"/>
<path d="M280.469 163.03L207.725 178.19L208.682 182.931L281.426 167.772L280.469 163.03Z" fill="#DCDDDE"/>
<path d="M282.287 172.038L209.542 187.198L210.499 191.937L283.244 176.778L282.287 172.038Z" fill="#DCDDDE"/>
<path d="M284.104 181.038L211.362 196.197L212.319 200.938L285.061 185.779L284.104 181.038Z" fill="#DCDDDE"/>
<path d="M262.108 194.998L213.185 205.193L214.141 209.934L263.065 199.739L262.108 194.998Z" fill="#DCDDDE"/>
<path d="M287.531 197.962L214.79 213.121L216.237 220.288L288.977 205.129L287.531 197.962Z" fill="#7CB96A"/>
<path d="M289.584 208.182L216.839 223.341L217.796 228.082L290.54 212.922L289.584 208.182Z" fill="#DCDDDE"/>
<path d="M291.403 217.181L218.661 232.34L219.618 237.082L292.36 221.923L291.403 217.181Z" fill="#DCDDDE"/>
<path d="M281.866 228.548L220.488 241.346L221.445 246.086L282.823 233.289L281.866 228.548Z" fill="#DCDDDE"/>
<path d="M176.914 80.7339L112.105 94.2395L128.448 175.213L193.257 161.707L176.914 80.7339Z" fill="#A6BC87"/>
<path d="M164.359 142.6L146.687 146.281L149.203 158.754L166.875 155.072L164.359 142.6Z" fill="#D09876"/>
<path d="M180.242 164.417L178.377 155.181C177.49 150.771 173.252 147.928 168.912 148.831L165.763 149.486L157.855 155.878L148.065 153.18L144.937 153.829C140.601 154.735 137.804 159.042 138.695 163.447L140.56 172.687L180.242 164.417Z" fill="#324345"/>
<path d="M148.412 156.97L148.09 153.17L157.855 155.878L148.412 156.97Z" fill="white"/>
<path d="M166.944 153.12L165.761 149.486L157.855 155.878L166.944 153.12Z" fill="white"/>
<path d="M164.681 110.339C163.226 103.136 155.656 101.095 155.656 101.095C155.656 101.095 152.21 100.169 146.832 101.286C141.453 102.407 138.633 104.641 138.633 104.641C138.633 104.641 132.462 109.55 133.918 116.751C135.369 123.954 136.34 133.844 138.375 138.85C140.414 143.866 144.94 146.907 150.55 148.477C150.55 148.477 153.544 149.358 156.402 148.764C159.269 148.165 161.678 146.159 161.678 146.159C166.231 142.472 169.206 137.862 169.142 132.441C169.07 127.023 166.133 117.542 164.681 110.339Z" fill="#DEA17D"/>
<path d="M136.51 105.199C136.51 105.199 132.584 109.02 132.621 112.594C132.659 116.164 136.067 129.667 136.067 129.667C136.067 129.667 137.265 128.839 138.076 130.06C138.89 131.269 136.772 116.808 137.235 113.482C137.697 110.15 143.861 110.248 142.667 107.726C141.476 105.205 136.51 105.199 136.51 105.199Z" fill="#2C231A"/>
<path d="M157.805 100.762C157.805 100.762 162.903 102.702 164.249 106C165.598 109.301 167.694 123.074 167.694 123.074C167.694 123.074 166.277 122.795 166 124.238C165.724 125.682 162.069 111.539 160.353 108.664C158.636 105.787 153.015 108.345 153.131 105.549C153.253 102.751 157.805 100.762 157.805 100.762Z" fill="#2C231A"/>
<path d="M157.991 99.0964C154.295 99.3163 150.959 98.8091 147.168 98.7707C140.588 98.7075 133.954 101.791 134.118 108.179C134.16 109.791 136.066 109.181 136.066 109.181C139.318 109.55 143.954 111.613 146.452 113.687C145.932 111.413 144.598 110.359 142.934 109.731C143.215 109.794 143.496 109.849 143.776 109.905C146.1 110.777 148.427 112.033 149.954 113.303C149.655 111.991 149.078 111.096 148.331 110.444C149.225 110.462 150.085 110.404 150.928 110.276L150.923 110.283C157.883 108.987 161.002 105.975 162.602 104.278C166.958 99.6637 167.742 97.7647 167.446 96.3013C165.894 97.3249 159.443 99.0134 157.991 99.0964Z" fill="#2C231A"/>
<path d="M165.781 125.494C165.781 125.494 165.891 122.9 167.695 123.076C169.502 123.247 169.734 126.492 169.689 127.977C169.647 129.454 169.014 130.463 169.014 130.463L165.781 125.494Z" fill="#DEA17D"/>
<path d="M138.727 131.132C138.727 131.132 137.617 128.792 136.02 129.674C134.428 130.557 135.474 133.63 136.089 134.974C136.699 136.32 137.673 136.994 137.673 136.994L138.727 131.132Z" fill="#DEA17D"/>
<path d="M144.649 186.028L131.206 188.831L134.199 203.657L147.643 200.854L144.649 186.028Z" fill="#FCDB2C"/>
<path d="M148.365 204.457L134.917 207.261L137.911 222.086L151.359 219.283L148.365 204.457Z" fill="#C74E4A"/>
<path d="M152.078 222.881L138.634 225.682L141.626 240.508L155.07 237.706L152.078 222.881Z" fill="#59B7B6"/>
<path d="M155.795 241.304L142.35 244.106L145.343 258.934L158.788 256.132L155.795 241.304Z" fill="#9FCC3F"/>
<path d="M201.552 174.43L147.778 185.636L148.316 188.301L202.09 177.095L201.552 174.43Z" fill="#DCDDDE"/>
<path d="M202.584 179.479L148.811 190.684L149.348 193.347L203.121 182.142L202.584 179.479Z" fill="#DCDDDE"/>
<path d="M181.782 189.088L149.836 195.745L150.373 198.405L182.319 191.748L181.782 189.088Z" fill="#DCDDDE"/>
<path d="M205.433 193.617L151.66 204.822L152.198 207.489L205.971 196.284L205.433 193.617Z" fill="#DCDDDE"/>
<path d="M206.995 201.352L153.214 212.556L152.681 209.892L206.453 198.686L206.995 201.352Z" fill="#DCDDDE"/>
<path d="M186.188 210.958L154.238 217.618L153.704 214.954L185.654 208.295L186.188 210.958Z" fill="#DCDDDE"/>
<path d="M209.149 212.046L155.374 223.252L155.911 225.916L209.686 214.71L209.149 212.046Z" fill="#DCDDDE"/>
<path d="M210.174 217.104L156.401 228.31L156.939 230.975L210.712 219.769L210.174 217.104Z" fill="#DCDDDE"/>
<path d="M189.378 226.708L157.43 233.365L157.967 236.027L189.915 229.37L189.378 226.708Z" fill="#DCDDDE"/>
<path d="M212.878 230.465L159.104 241.677L159.642 244.339L213.416 233.127L212.878 230.465Z" fill="#DCDDDE"/>
<path d="M213.885 235.537L160.112 246.743L160.65 249.407L214.422 238.201L213.885 235.537Z" fill="#DCDDDE"/>
<path d="M193.076 245.154L161.126 251.812L161.663 254.474L193.613 247.816L193.076 245.154Z" fill="#DCDDDE"/>
<path d="M266.459 243.565L166.601 264.374L167.847 270.549L267.705 249.739L266.459 243.565Z" fill="#7CB96A"/>
<path d="M304.621 246.546L136.319 281.618L137.254 286.247L305.555 251.175L304.621 246.546Z" fill="#DCDDDE"/>
<path d="M306.695 256.837L138.392 291.91L139.327 296.541L307.629 261.468L306.695 256.837Z" fill="#DCDDDE"/>
<path d="M229.864 283.564L140.478 302.191L141.412 306.819L230.798 288.192L229.864 283.564Z" fill="#DCDDDE"/>
<path d="M169.552 171.631C168.305 185.133 160.121 188.049 157.98 189.526L135.866 201.814C129.032 205.623 120.447 203.086 116.697 196.138L115.162 193.292C111.406 186.344 113.908 177.624 120.746 173.812L162.93 150.042C162.93 150.042 170.276 163.812 169.552 171.631Z" fill="#FAB589"/>
<path d="M138.178 176.257C144.621 180.719 144.838 192.723 140.445 199.27C140.445 199.27 131.006 206.895 134.521 230.631C136.348 243.006 131.526 259.227 125.283 270.166C121.197 277.33 106.596 233.011 102.169 229.943L99.53 228.118C93.0823 223.652 91.4186 214.727 95.8117 208.177L115.916 178.204C120.309 171.658 129.096 169.966 135.54 174.429L138.178 176.257Z" fill="#FAB589"/>
<path d="M53.3203 284.573L46.6396 306.277L118.441 329.096L125.121 307.391L53.3203 284.573Z" fill="white"/>
<path d="M97.1112 398.105L118.445 329.092L46.6439 306.274L18.291 398.105H97.1112Z" fill="#1C0C1B"/>
<path d="M415.709 398.105L372.656 258.652L315.449 287.988L348.488 398.105H415.709Z" fill="#1C0C1B"/>
<path d="M286.02 155.228C286.02 155.228 304.578 142.894 320.873 158.939C337.176 174.992 350.144 250.687 350.144 250.687L323.705 280.296C323.705 280.296 315.214 264.905 307.425 249.196C302.527 239.307 289.389 225.564 288.024 208.496C286.656 191.427 278.761 186.078 291.079 175.489C295.503 171.686 299.938 180.648 299.381 177.39C298.594 172.804 291.543 163.034 286.02 155.228Z" fill="#DEA078"/>
<path d="M279.421 196.753C283.158 190.465 280.516 186.518 280.054 185.173L274.319 172.58C272.549 168.678 268.004 166.976 264.171 168.773L262.598 169.508C258.758 171.307 257.083 175.925 258.849 179.825L269.686 203.988C269.686 203.988 277.256 200.399 279.421 196.753Z" fill="#D29973"/>
<path d="M262.128 185.126C265.013 188.265 269.853 188.427 272.938 185.494L287.066 172.071C290.151 169.138 290.314 164.221 287.43 161.086L286.247 159.801C283.359 156.668 278.518 156.5 275.437 159.43L261.305 172.853C258.22 175.788 258.061 180.708 260.945 183.844L262.128 185.126Z" fill="#D29973"/>
<path d="M273.894 163.144C271.851 166.9 273.189 171.629 276.881 173.71L303.267 188.521C306.966 190.601 311.625 189.241 313.668 185.482L314.506 183.945C316.549 180.188 315.214 175.454 311.519 173.379L285.13 158.565C281.434 156.487 276.78 157.845 274.732 161.604L273.894 163.144Z" fill="#D29973"/>
<path d="M256.837 195.083C261.503 192.874 263.773 190.581 264.501 183.971L266.105 165.116C266.499 160.567 263.198 156.552 258.721 156.149L256.886 155.982C252.413 155.584 248.459 158.94 248.062 163.487L245.2 195.7C245.2 195.7 252.167 197.295 256.837 195.083Z" fill="#DEA078"/>
<path d="M249.991 170.254C252.163 174.725 257.496 176.568 261.897 174.356L282.059 164.248C286.467 162.036 288.276 156.615 286.1 152.142L285.209 150.312C283.033 145.835 277.708 143.999 273.299 146.208L253.138 156.317C248.736 158.527 246.922 163.948 249.101 168.419L249.991 170.254Z" fill="#DEA078"/>
<path d="M271.677 153.097C269.3 157.465 270.854 162.967 275.156 165.38L306.515 183.456C310.813 185.872 316.223 184.29 318.603 179.925L319.574 178.132C321.954 173.768 320.397 168.268 316.101 165.853L284.739 147.778C280.44 145.361 275.028 146.94 272.65 151.308L271.677 153.097Z" fill="#DEA078"/>
<path d="M225.436 168.773C230.553 171.427 236.258 171.198 240.136 167.737L255.078 154.413C258.96 150.956 259.339 144.96 255.943 141.017L254.544 139.399C251.144 135.463 245.239 135.068 241.357 138.527L216.184 160.679C216.184 160.679 220.318 166.121 225.436 168.773Z" fill="#EAA87D"/>
<path d="M238.987 150.009C240.184 155.109 245.226 158.258 250.245 157.042L273.216 151.469C278.242 150.253 281.335 145.133 280.141 140.031L279.652 137.943C278.451 132.843 273.41 129.695 268.394 130.908L245.416 136.482C240.397 137.697 237.301 142.816 238.495 147.922L238.987 150.009Z" fill="#EAA87D"/>
<path d="M261.741 138.029C259.52 142.765 261.507 148.431 266.165 150.686L309.203 170.708C313.861 172.962 319.437 170.953 321.651 166.215L322.561 164.278C324.779 159.544 322.795 153.876 318.137 151.623L275.099 131.599C270.441 129.344 264.865 131.356 262.648 136.092L261.741 138.029Z" fill="#EAA87D"/>
<path d="M256.484 172.149C259.459 182.874 266.499 183.998 268.439 184.867L288.101 191.471C294.181 193.519 300.75 190.175 302.77 183.997L303.593 181.464C305.614 175.288 302.319 168.617 296.243 166.567L258.69 153.706C258.69 153.706 254.756 165.94 256.484 172.149Z" fill="#FAB589"/>
<path d="M282.513 171.165C277.954 175.745 279.53 185.472 284.03 190.104C284.03 190.104 292.767 194.844 293.393 214.551C293.711 224.825 299.978 237.208 306.618 245.106C310.966 250.28 316.303 212.272 319.434 209.129L321.299 207.252C325.855 202.676 325.9 195.212 321.398 190.584L300.785 169.391C296.278 164.759 288.936 164.716 284.375 169.292L282.513 171.165Z" fill="#FAB589"/>
<path d="M297.687 151.007C297.687 151.007 313.288 130.72 329.649 151.63C343.777 169.684 359.344 249.138 359.344 249.138L323.706 280.296C323.706 280.296 315.302 262.513 307.52 246.804C302.623 236.917 293.371 231.141 293.147 209.316C293.147 209.316 298.537 195.217 304.401 190.035C308.772 186.175 323.338 195.559 322.782 192.309C321.992 187.72 303.21 158.811 297.687 151.007Z" fill="#FAB589"/>
<path d="M260.332 78.6187L328.971 150.789L308.134 166.747C307.531 165.506 301.171 156.067 291.02 144.201C274.255 124.606 267.167 116.789 256.443 106.18C242.323 92.1982 260.332 78.6187 260.332 78.6187Z" fill="#FAB589"/>
<path d="M364.075 241.385L306.864 270.719L315.453 288.014L372.664 258.681L364.075 241.385Z" fill="white"/>
</svg>
