<svg width="456" height="292" viewBox="0 0 456 292" fill="none" xmlns="http://www.w3.org/2000/svg">
<path d="M423.505 290.259C423.505 290.259 400.764 234.877 342.015 236.815C283.266 238.753 284.518 288.362 245.363 267.085C220.462 253.553 193.177 250.336 173.348 257.952C141.669 270.119 134.898 283.327 111.757 270.875C78.0501 252.737 40.0854 266.516 29.9365 290.259H423.505Z" fill="#DAC8BD"/>
<path d="M447.408 291H4.76074" stroke="white" stroke-width="1.8903" stroke-miterlimit="10"/>
<path d="M279.839 37.88C290.514 37.88 299.168 29.4003 299.168 18.94C299.168 8.47974 290.514 0 279.839 0C269.164 0 260.511 8.47974 260.511 18.94C260.511 29.4003 269.164 37.88 279.839 37.88Z" fill="#E8A748"/>
<path d="M81.4004 26.1875H187.54C187.54 26.1875 187.027 22.0566 175.234 18.7518C163.441 15.4471 154.98 23.9151 141.649 18.7518C128.317 13.5886 121.247 6.18 104.069 10.3109C86.8919 14.4418 81.4004 26.1875 81.4004 26.1875Z" stroke="white" stroke-width="1.8903" stroke-miterlimit="10"/>
<path d="M338.278 59.5409H415.484C415.484 59.5409 415.11 55.8859 406.532 52.9621C397.954 50.0383 391.8 57.5302 382.102 52.9621C372.405 48.394 367.262 41.8394 354.767 45.4936C342.273 49.1485 338.278 59.5409 338.278 59.5409Z" stroke="white" stroke-width="1.8903" stroke-miterlimit="10"/>
<path d="M411.54 154.606H363.342C359.994 154.606 357.28 151.947 357.28 148.666V109.832C357.28 106.552 359.994 103.892 363.342 103.892H411.54C414.888 103.892 417.601 106.551 417.601 109.832V148.666C417.601 151.947 414.887 154.606 411.54 154.606Z" fill="#E8A748"/>
<path d="M401.287 138.106H376.557H372.091V118.92H401.287V123.717V138.106Z" stroke="white" stroke-width="1.4199" stroke-miterlimit="10" stroke-linecap="round" stroke-linejoin="round"/>
<path d="M372.091 118.92L386.689 130.193L401.287 118.92" stroke="white" stroke-width="1.4199" stroke-miterlimit="10" stroke-linecap="round" stroke-linejoin="round"/>
<path d="M59.4224 91.5563H30.6583C26.6941 91.5563 23.4805 88.4073 23.4805 84.5228V59.7366C23.4805 55.8521 26.6941 52.7031 30.6583 52.7031H59.4224C63.3866 52.7031 66.6002 55.8521 66.6002 59.7366V84.5228C66.6002 88.4073 63.3866 91.5563 59.4224 91.5563Z" fill="#96BED9"/>
<path d="M36.8957 65.0139C32.7509 69.0753 32.7509 75.7425 36.8957 79.804C41.0404 83.8654 47.8444 83.8654 51.9892 79.804C56.1339 75.7425 56.1339 69.0753 51.9892 65.0139C47.8444 60.9524 41.0404 60.9524 36.8957 65.0139ZM51.9646 66.52H48.5629C48.222 65.473 47.7825 64.426 47.2408 63.379C49.1248 63.9391 50.7648 65.0497 51.9646 66.52ZM40.5234 71.7981C40.5249 70.4462 40.6875 69.095 41.0293 67.7432H47.8564C48.1973 69.095 48.36 70.4462 48.3615 71.7981H40.5234ZM48.3197 73.0205C48.2257 74.3716 47.9757 75.7235 47.5863 77.0754H41.2986C40.9091 75.7242 40.6592 74.3724 40.5652 73.0205H48.3197ZM44.4421 62.974C44.9554 62.974 45.459 63.0135 45.95 63.0895C46.6036 64.233 47.1162 65.3765 47.4975 66.5207H41.3866C41.7679 65.3772 42.2805 64.2337 42.9341 63.0895C43.4258 63.0135 43.9295 62.974 44.4421 62.974ZM41.6441 63.379C41.1024 64.426 40.6629 65.473 40.3219 66.52H36.9203C38.1201 65.0497 39.7593 63.9391 41.6441 63.379ZM36.0719 67.7432H39.9675C39.6258 69.095 39.4467 70.4462 39.4221 71.7981H34.8341C34.9304 70.3292 35.3683 68.9525 36.0719 67.7432ZM36.0719 77.0754C35.3683 75.8661 34.9296 74.4886 34.8341 73.0205H39.4407C39.5079 74.3716 39.7272 75.7235 40.0906 77.0754H36.0719ZM36.9196 78.2986H40.4592C40.8121 79.358 41.2509 80.4174 41.7746 81.4775C39.8354 80.9306 38.1477 79.8025 36.9196 78.2986ZM44.4421 81.8446C44.0145 81.8446 43.5937 81.8175 43.1803 81.7641C42.5916 80.6089 42.091 79.4538 41.6881 78.2986H47.196C46.7924 79.4538 46.2917 80.6089 45.7038 81.7641C45.2912 81.8175 44.8703 81.8446 44.4421 81.8446ZM47.1102 81.4775C47.6333 80.4181 48.0727 79.3587 48.4256 78.2986H51.9653C50.7372 79.8025 49.0494 80.9306 47.1102 81.4775ZM52.8129 77.0754H48.7942C49.1576 75.7242 49.377 74.3724 49.4441 73.0205H54.0507C53.9545 74.4886 53.5165 75.8661 52.8129 77.0754ZM54.0507 71.7981H49.4628C49.4374 70.4462 49.2583 69.095 48.9174 67.7432H52.8129C53.5165 68.9525 53.9545 70.3292 54.0507 71.7981Z" fill="white"/>
<path d="M188.045 69.9528C190.104 69.9528 191.773 68.2941 191.773 66.2481C191.773 64.2021 190.104 62.5435 188.045 62.5435C185.986 62.5435 184.317 64.2021 184.317 66.2481C184.317 68.2941 185.986 69.9528 188.045 69.9528Z" stroke="white" stroke-width="1.4054" stroke-miterlimit="10"/>
<path d="M164.713 228.935C167.187 228.935 169.192 226.942 169.192 224.484C169.192 222.026 167.187 220.033 164.713 220.033C162.24 220.033 160.234 222.026 160.234 224.484C160.234 226.942 162.24 228.935 164.713 228.935Z" fill="#DAC8BD"/>
<path d="M456 87.8911C456 90.4837 453.885 92.585 451.276 92.585C448.668 92.585 446.553 90.4837 446.553 87.8911C446.553 85.2985 448.667 83.1973 451.276 83.1973C453.886 83.1973 456 85.2993 456 87.8911Z" fill="#DAC8BD"/>
<path d="M43.0042 199.916H36.3457V206.532H43.0042V199.916Z" stroke="white" stroke-width="1.4054" stroke-miterlimit="10"/>
<path d="M428.907 217.868H422.248V224.484H428.907V217.868Z" stroke="white" stroke-width="1.4054" stroke-miterlimit="10"/>
<path d="M450.002 183.198H378.605C377.238 183.198 376.129 182.111 376.129 180.771C376.129 179.431 377.238 178.344 378.605 178.344H450.002C451.37 178.344 452.478 179.431 452.478 180.771C452.478 182.111 451.37 183.198 450.002 183.198Z" fill="#96BED9"/>
<path d="M36.8582 132.196H2.47641C1.10875 132.196 0 131.109 0 129.769C0 128.429 1.10875 127.343 2.47641 127.343H36.8589C38.2266 127.343 39.3353 128.43 39.3353 129.769C39.3346 131.109 38.2258 132.196 36.8582 132.196Z" fill="#DAC8BD"/>
<path d="M375.054 203.609H359.048C357.68 203.609 356.571 202.522 356.571 201.182C356.571 199.842 357.68 198.755 359.048 198.755H375.054C376.421 198.755 377.529 199.842 377.529 201.182C377.53 202.522 376.421 203.609 375.054 203.609Z" fill="#DAC8BD"/>
<path d="M117.5 142.539H109.045V290.91H117.5V142.539Z" fill="white"/>
<path d="M141.683 103.477H89.7272C75.1724 103.477 63.373 115.039 63.373 129.301V156.383H141.683V103.477Z" fill="#E8A748"/>
<path d="M143.698 103.477C129.154 103.477 117.363 115.03 117.363 129.282V156.383H170.032V129.282C170.032 115.03 158.242 103.477 143.698 103.477Z" fill="#273339"/>
<path d="M108.901 73.7422H104.896V127.654H108.901V73.7422Z" fill="#63111B"/>
<path d="M108.9 92.4818L99.0283 88.4035V73.1382H108.9V92.4818Z" fill="#63111B"/>
<path d="M117.363 156.382L125.703 174.844C128.38 180.771 134.372 184.593 140.987 184.593H167.901C174.877 184.593 179.553 177.569 176.742 171.313L170.033 156.382H117.363Z" fill="#DAC8BD"/>
<path d="M248.668 257.812L251.226 270.645H267.175L264.662 257.906L248.668 257.812Z" fill="white"/>
<path d="M249.337 269.878L250.088 278.044L235.088 281.43C232.068 282.55 229.988 285.288 229.758 288.444L229.593 290.288L273.484 290.211L268.977 269.737L249.337 269.878Z" fill="#273339"/>
<path d="M230.217 286.309H272.767" stroke="white" stroke-width="0.8409" stroke-miterlimit="10" stroke-linecap="round" stroke-linejoin="round"/>
<path d="M241.742 279.898L244.352 282.531" stroke="white" stroke-width="2.1154" stroke-miterlimit="10" stroke-linecap="round" stroke-linejoin="round"/>
<path d="M246.519 278.854L249.129 281.486" stroke="white" stroke-width="2.1154" stroke-miterlimit="10" stroke-linecap="round" stroke-linejoin="round"/>
<path d="M288.874 182.991L260.8 205.175L272.865 262.243L241.741 262.979L227.892 208.008C225.794 200.361 228.151 192.203 234.778 186.766L270.514 153.702L298.134 152.643L288.874 182.991Z" fill="#4D6E8E"/>
<path d="M312.163 257.812L316.975 270.644H332.924L328.157 257.905L312.163 257.812Z" fill="white"/>
<path d="M315.087 269.878L317.34 278.044L302.34 281.43C299.32 282.55 297.24 285.287 297.01 288.444L296.845 290.288L342.238 290.211L334.727 269.737L315.087 269.878Z" fill="#273339"/>
<path d="M297.469 286.308H340.806" stroke="white" stroke-width="0.8409" stroke-miterlimit="10" stroke-linecap="round" stroke-linejoin="round"/>
<path d="M308.995 279.898L311.605 282.53" stroke="white" stroke-width="2.1154" stroke-miterlimit="10" stroke-linecap="round" stroke-linejoin="round"/>
<path d="M313.771 278.853L316.38 281.485" stroke="white" stroke-width="2.1154" stroke-miterlimit="10" stroke-linecap="round" stroke-linejoin="round"/>
<path d="M286.077 154.258L286.418 208.755C286.455 214.56 287.649 220.302 289.933 225.658L305.97 261.494L337.176 260.905L319.91 214.764L322.375 173.762C322.375 173.762 324.819 160.58 313.235 149.412L286.077 154.258Z" fill="#4D6E8E"/>
<path d="M286.27 185.05L276.445 177.965" stroke="#312220" stroke-width="1.0066" stroke-miterlimit="10"/>
<path d="M246.905 116.58L223.067 137.012C218.409 140.809 217.685 147.551 221.434 152.216C225.256 156.97 232.287 157.789 237.139 154.044L261.397 134.12C265.899 130.645 267.109 124.455 264.235 119.597C260.658 113.55 252.388 112.11 246.905 116.58Z" fill="#E48868"/>
<path d="M237.376 124.747L249.81 113.892L261.396 134.121L251.531 142.223L237.376 124.747Z" fill="#E8A748"/>
<path d="M232.296 136.038L194.103 134.945L191.596 147.446L228.258 156.224C234.561 157.462 240.531 152.766 240.773 146.471C240.968 141.418 237.365 136.984 232.296 136.038Z" fill="#E48868"/>
<path d="M196.711 136.119L196.506 147.427C196.506 147.427 170.565 154.643 168.119 128.037L176.001 123.036L196.711 136.119Z" fill="#E48868"/>
<path d="M173.244 147.199L128.966 118.88C128.032 118.282 127.769 117.055 128.378 116.14L144.327 92.1961C144.993 91.1959 146.362 90.9137 147.382 91.5666L191.346 119.685C192.367 120.337 192.655 121.678 191.988 122.679L176.04 146.622C175.43 147.539 174.178 147.797 173.244 147.199Z" fill="white"/>
<path d="M147.258 92.7495L158.281 119.48C158.659 120.394 159.569 120.99 160.576 120.979L189.73 120.663" stroke="#DBBEAF" stroke-width="1.0066" stroke-miterlimit="10" stroke-linecap="round" stroke-linejoin="round"/>
<path d="M173.268 144.304L168.153 120.896" stroke="#DBBEAF" stroke-width="1.0066" stroke-miterlimit="10" stroke-linecap="round" stroke-linejoin="round"/>
<path d="M131.293 117.505L155.211 112.633" stroke="#DBBEAF" stroke-width="1.0066" stroke-miterlimit="10" stroke-linecap="round" stroke-linejoin="round"/>
<path d="M189.73 131.709L181.585 125.622C180.43 124.759 178.751 125.248 178.267 126.591C178.001 127.329 178.175 128.151 178.721 128.723L182.415 132.6C182.415 132.6 180.662 138.776 186.063 144.304L189.73 131.709Z" fill="#E48868"/>
<path d="M270.154 104.173C270.154 104.173 294.464 95.8684 297.605 103.074C303.548 116.707 314.986 151.236 314.986 151.236L267.103 156.859L248.828 124.522C247.437 121.844 247.316 118.662 248.662 115.964C248.837 115.613 249.002 114.616 249.19 114.434C253.384 110.366 265.32 105.884 265.32 105.884L270.154 104.173Z" fill="#E8A748"/>
<path d="M256.518 138.128L251.468 130.072" stroke="#CE8731" stroke-width="1.0066" stroke-miterlimit="10"/>
<path d="M318.472 179.282L267.935 164.045C266.869 163.723 266.27 162.616 266.599 161.571L275.18 134.243C275.539 133.101 276.774 132.46 277.939 132.811L328.117 147.941C329.283 148.292 329.937 149.502 329.578 150.644L320.997 177.973C320.669 179.018 319.538 179.604 318.472 179.282Z" fill="white"/>
<path d="M278.154 133.98L296.282 156.689C296.902 157.466 297.945 157.791 298.909 157.508L326.841 149.317" stroke="#DBBEAF" stroke-width="1.0066" stroke-miterlimit="10" stroke-linecap="round" stroke-linejoin="round"/>
<path d="M317.679 176.493L306.167 155.379" stroke="#DBBEAF" stroke-width="1.0066" stroke-miterlimit="10" stroke-linecap="round" stroke-linejoin="round"/>
<path d="M269.784 162.093L291.399 150.939" stroke="#DBBEAF" stroke-width="1.0066" stroke-miterlimit="10" stroke-linecap="round" stroke-linejoin="round"/>
<path d="M285.517 120.342L311.212 138.947C315.64 143.001 322.556 142.861 326.811 138.632C331.147 134.322 331.095 127.384 326.697 123.136L301.463 104.059C297.382 100.117 290.964 99.7154 286.403 103.117C280.728 107.351 280.304 115.571 285.517 120.342Z" fill="#E48868"/>
<path d="M300.856 103.524L307.934 108.917L292.745 126.641L286.392 121.355C280.715 116.631 279.06 109.175 284.1 103.8C288.72 98.8708 295.463 99.4162 300.856 103.524Z" fill="#E8A748"/>
<path d="M293.286 125.77L284.752 120.113" stroke="#CE8731" stroke-width="1.0066" stroke-miterlimit="10"/>
<path d="M309.776 127.451L300.12 164.494L312.825 170.255L329.015 135.393C331.539 129.6 328.169 122.968 321.93 121.45C316.922 120.232 311.756 122.782 309.776 127.451Z" fill="#E48868"/>
<path d="M313.294 166.084C313.294 166.084 316.598 183.361 306.497 183.486C291.818 183.667 294.391 172.141 294.391 172.141L297.242 173L300.871 163.757L313.294 166.084Z" fill="#E48868"/>
<path d="M300.872 163.757C300.872 163.757 294.933 168.036 297.244 174.472C299.556 180.908 302.643 168.379 302.643 168.379L300.872 163.757Z" fill="#E48868"/>
<path d="M240.008 75.8065C240.005 75.7728 232.119 82.81 243.134 91.082L243.657 75.1528L240.008 75.8065Z" fill="#63111B"/>
<path d="M252.725 96.2618L257.01 109.155C258.505 113.686 262.061 115.223 266.452 113.773C270.2 112.535 273.736 109.43 272.245 105.492L264.537 85.5127L252.725 96.2618Z" fill="#E48868"/>
<path d="M257.01 109.156L265.788 96.6679C265.598 92.6086 253.364 98.1594 253.364 98.1594L257.01 109.156Z" fill="#312220"/>
<path d="M256.065 103.335C249.581 104.405 243.408 100.287 242.369 95.1475L240.258 84.3845C238.956 77.9432 243.126 71.6211 249.681 70.0967C256.392 68.5365 264.267 72.3047 265.822 78.8513L267.359 87.2593C268.752 94.8273 263.741 101.55 256.065 103.335Z" fill="#E48868"/>
<path d="M248.141 90.228L248.379 93.9473L249.994 93.7514" stroke="#312220" stroke-width="0.8414" stroke-miterlimit="10" stroke-linecap="round" stroke-linejoin="round"/>
<path d="M245.35 89.391C245.474 90.0117 245.077 90.6105 244.464 90.729C243.852 90.8474 243.254 90.4409 243.131 89.8209C243.007 89.2009 243.403 88.6014 244.017 88.4829C244.629 88.3645 245.226 88.771 245.35 89.391Z" fill="#312220"/>
<path d="M255.188 88.1378C255.312 88.7578 254.916 89.3573 254.302 89.4758C253.69 89.5942 253.093 89.1877 252.969 88.5677C252.845 87.947 253.242 87.3482 253.855 87.2297C254.468 87.1106 255.065 87.5171 255.188 88.1378Z" fill="#312220"/>
<path d="M255.956 93.9473C255.956 93.9473 253.99 97.0144 250.615 96.553" stroke="#312220" stroke-width="0.8414" stroke-miterlimit="10" stroke-linecap="round" stroke-linejoin="round"/>
<path d="M255.667 82.6118L251.524 83.4541" stroke="#312220" stroke-width="1.6452" stroke-miterlimit="10" stroke-linecap="round" stroke-linejoin="round"/>
<path d="M244.665 84.6851L242.28 85.2773" stroke="#312220" stroke-width="1.6452" stroke-miterlimit="10" stroke-linecap="round" stroke-linejoin="round"/>
<path d="M264.473 88.9382L256.923 75.285C256.923 75.285 247.051 82.5006 236.445 79.6704C236.445 79.6704 230.533 77.115 232.53 71.4429C234.532 65.7539 242.572 67.2594 246.54 65.256C253.776 61.604 270.757 61.139 271.374 74.1561C271.911 85.5121 267.653 90.2769 267.653 90.2769L264.473 88.9382Z" fill="#63111B"/>
<path d="M273.471 86.8451C274.069 89.3616 272.539 91.8702 270.054 92.4477C267.569 93.0261 265.07 91.4549 264.472 88.9383C263.874 86.4217 265.405 83.9132 267.889 83.3356C270.375 82.7573 272.874 84.3285 273.471 86.8451Z" fill="#E48868"/>
<path d="M267.696 89.3427C267.696 89.3427 266.911 86.0394 270.154 85.834" stroke="#312220" stroke-width="0.8414" stroke-miterlimit="10" stroke-linecap="round" stroke-linejoin="round"/>
<path d="M264.685 75.212C264.454 78.1014 261.875 80.2597 258.927 80.0331C255.978 79.8064 251.724 77.2796 251.956 74.3902C252.188 71.5007 256.817 69.3424 259.765 69.5691C262.714 69.7965 264.917 72.3225 264.685 75.212Z" fill="#63111B"/>
</svg>
