<svg width="528" height="721" viewBox="0 0 528 721" fill="none" xmlns="http://www.w3.org/2000/svg">
<rect width="528" height="721" rx="20" fill="#4E61F6"/>
<path d="M468 239.452V516.52C468 535.384 463.989 551.632 457.333 564.54C444.861 588.783 428.231 596.082 407.626 599.066C379.902 603.276 346.261 599.928 306.13 595.554C287.119 593.465 283.535 592.912 270.804 592.526C261.356 592.3 247.08 592.266 224.899 593.145C187.652 594.815 175.973 595.688 158.166 596.381C157.265 596.424 156.363 596.475 155.457 596.53C138.558 597.549 101.534 601.007 84.0965 574.376C75.0317 560.532 68 545.438 68 516.52V239.452C68 162.496 133 159.466 160.067 162.082C171.192 163.137 175.603 163.997 187.674 165.395C205.471 167.529 221.066 168.197 241.181 165.134C264.417 161.577 290.906 159.267 314.212 157.767H314.51C352.63 155.392 392.859 155.048 418.916 159.007C443.024 162.65 459.875 186.863 465.683 215.391C467.198 222.895 468 230.95 468 239.452Z" fill="#C8CEFC"/>
<g opacity="0.6">
<path d="M320.527 420.207C320.527 420.207 337.882 265.524 373.934 272.556C409.986 279.589 342.482 373.223 338.661 418.438L320.527 420.207Z" fill="#A97FE5"/>
</g>
<path d="M321.029 456.954C321.029 456.954 380.338 283.599 427.863 303.267C475.388 322.936 361.786 409.636 346.157 460.709L321.029 456.954Z" fill="#4298D5"/>
<path d="M335.07 459.198C345.31 423.698 366.884 389.507 383.18 367.075C400.846 342.756 416.277 326.646 416.431 326.486L415.569 325.374C415.414 325.534 399.916 341.714 382.192 366.112C365.824 388.644 344.15 423.001 333.846 458.724L335.07 459.198Z" fill="#A97FE5"/>
<path d="M444.521 446.273C430.636 456.044 440.978 481.365 422.42 483.328C406.721 484.979 405.043 483.921 401.476 490.753C400.253 493.094 399.357 495.642 398.746 498.286C398.016 501.455 396.253 506.399 392.126 509.05C366.916 525.248 316.51 493.956 336.952 457.409C338.427 454.77 341.16 452.887 344.242 450.992C360.964 440.722 369.274 447.917 376.001 418.213C382.73 388.5 411.948 415.541 423.438 409.579C434.927 403.617 444.144 395.317 457.72 406.172C471.299 417.037 458.412 436.514 444.521 446.273Z" fill="#A97FE5"/>
<g opacity="0.5">
<path d="M355.479 487.439L354.626 486.694C354.909 486.258 383.878 442.705 461.08 409.452L461.453 410.612C384.54 443.742 355.761 487.006 355.479 487.439Z" fill="#74A1BD"/>
<path d="M393.522 433.24C380.065 426.643 375.725 418.869 375.547 418.542L376.45 417.881C376.492 417.958 380.825 425.672 393.939 432.099L393.522 433.24Z" fill="#74A1BD"/>
<path d="M399.063 445.151C394.424 440.416 392.167 431.82 392.536 420.293C392.813 411.66 394.473 404.313 394.49 404.24L395.522 404.557C395.457 404.844 389.102 433.335 399.771 444.223L399.063 445.151Z" fill="#74A1BD"/>
<path d="M418.941 434.92C417.366 434.224 416.476 433.719 416.436 433.695L416.914 432.588C417.1 432.697 435.852 443.323 456.186 434.383L456.565 435.54C440.18 442.744 424.808 437.512 418.941 434.92Z" fill="#74A1BD"/>
<path d="M437.101 457.938C430.605 453.753 427.461 448.232 425.968 444.337C424.342 440.098 424.265 436.878 424.262 436.742L425.33 436.715C425.333 436.839 425.726 449.194 437.621 456.857L437.101 457.938Z" fill="#74A1BD"/>
</g>
<path d="M396.866 277.519C398.456 272.102 400.415 271.076 402.247 271.798C404.08 272.52 405.092 274.717 403.503 280.134C400.607 290.002 395.889 293.464 395.889 293.464C395.889 293.464 393.928 287.531 396.866 277.519Z" fill="#A97FE5"/>
<path d="M429.312 387.775C434.069 385.2 436.19 386.186 437.06 388.346C437.931 390.507 437.222 393.023 432.465 395.597C423.799 400.286 418.034 398.641 418.034 398.641C418.034 398.641 420.52 392.532 429.312 387.775Z" fill="#A97FE5"/>
<path d="M412.251 383.456C413.865 378.049 415.828 377.034 417.658 377.767C419.487 378.5 420.49 380.702 418.876 386.11C415.936 395.96 411.203 399.394 411.203 399.394C411.203 399.394 409.268 393.45 412.251 383.456Z" fill="#A97FE5"/>
<path d="M265.86 528.941C265.86 528.941 196.836 366.651 159.529 390.005C122.222 413.358 226.579 486.88 245.381 534.861L265.86 528.941Z" fill="#A97FE5"/>
<path d="M253.955 535.01C253.955 535.01 157.329 393.242 117.947 426.798C78.5642 460.354 204.782 504.226 231.538 546.586L253.955 535.01Z" fill="#9BBCB6"/>
<path d="M241.464 541.614C223.445 511.97 195.222 487.188 174.72 471.62C152.491 454.742 134.307 444.762 134.126 444.663L134.659 443.353C134.841 443.452 153.105 453.476 175.405 470.408C195.998 486.046 224.354 510.949 242.486 540.78L241.464 541.614Z" fill="#74A1BD"/>
<path d="M293.563 594.178C292.137 594.006 290.711 593.868 289.285 593.696C283.847 593.111 277.608 592.732 270.804 592.526C265.04 592.388 258.889 592.354 252.471 592.423C251.728 592.423 250.956 592.423 250.213 592.457C245.34 592.526 240.349 592.629 235.268 592.801C231.851 592.904 228.375 593.007 224.899 593.145C221.066 593.317 217.263 593.489 213.4 593.627C213.281 593.662 213.132 593.662 213.014 593.662C211.469 593.73 209.924 593.834 208.379 593.902C207.309 593.937 206.21 594.006 205.111 594.04C197.95 594.419 190.879 594.798 184.015 595.142C174.864 595.624 166.129 596.071 158.166 596.381C156.621 591.459 155.403 586.02 153.442 581.098V581.063C153.323 580.822 153.234 580.616 153.115 580.34V580.306C150.946 575.108 147.856 570.495 142.627 567.672C137.071 564.678 131.514 560.65 126.791 556.003C126.404 555.625 126.018 555.246 125.632 554.832C116.362 545.229 110.836 533.318 116.065 522.958C116.184 522.716 116.332 522.475 116.451 522.235C117.401 520.513 118.65 518.861 120.224 517.278C136.685 500.755 149.817 510.083 165.653 515.935C171.24 518.035 179.232 514.317 187.759 510.358C192.603 508.087 197.594 505.712 202.437 504.266C202.645 504.231 202.823 504.162 203.001 504.128C204.962 503.543 206.894 503.164 208.795 502.992C209.389 502.923 209.954 502.889 210.519 502.889H210.964C218.392 502.889 224.899 506.882 229 519.24C229.118 519.584 229.237 519.928 229.356 520.238C229.832 521.649 230.307 523.026 230.782 524.3C231.287 525.608 231.763 526.847 232.238 528.017C232.238 528.017 232.238 528.052 232.268 528.086C236.338 538 240.26 543.232 244.628 546.33C252.293 551.769 261.326 550.702 274.815 556.864C279.124 558.826 282.926 560.857 285.214 564.058C292.315 574.11 294.632 584.436 293.563 594.178Z" fill="#4298D5"/>
<path d="M252.471 592.423C251.728 592.423 250.956 592.423 250.213 592.457C236.605 580.651 212.955 563.129 177.508 546.675C176.973 546.4 176.439 546.159 175.904 545.918C158.701 538.001 138.764 530.359 115.886 523.749L116.064 522.958L116.242 522.166C116.302 522.2 116.391 522.2 116.451 522.235C151.302 532.355 179.41 544.816 201.396 557.002C201.812 557.243 202.258 557.484 202.674 557.725H202.704C225.998 570.771 242.309 583.439 252.471 592.423Z" fill="#A97FE5"/>
<path d="M207.909 541.931C224.738 530.994 229.452 520.054 229.644 519.595L228.375 518.881C228.329 518.989 223.617 529.847 207.218 540.506L207.909 541.931Z" fill="#A97FE5"/>
<path d="M202.141 558.504C207.632 551.503 209.509 539.839 207.568 524.773C206.115 513.491 203.008 504.13 202.977 504.037L201.662 504.627C201.784 504.992 213.722 541.308 201.096 557.405L202.141 558.504Z" fill="#A97FE5"/>
<path d="M174.762 548.445C176.741 547.265 177.845 546.451 177.895 546.413L177.128 545.042C176.897 545.216 153.629 562.339 125.814 554.053L125.463 555.636C147.876 562.313 167.389 552.842 174.762 548.445Z" fill="#A97FE5"/>
<path d="M153.836 581.733C161.833 575.139 165.262 567.36 166.73 561.996C168.328 556.156 168.023 551.917 168.01 551.739L166.604 551.884C166.616 552.047 167.66 568.33 153.018 580.401L153.836 581.733Z" fill="#A97FE5"/>
<path d="M109.33 486.017C102.521 483.813 101.1 480.651 101.846 477.559C102.591 474.467 105.221 472.616 112.03 474.82C124.433 478.836 129.078 486.375 129.078 486.375C129.078 486.375 121.913 490.091 109.33 486.017Z" fill="#A97FE5"/>
<path d="M223.609 375.894C223.609 375.894 216.978 421.781 230.971 448.568C238.314 462.623 241.864 459.693 245.001 465.252C252.714 478.92 249.549 505.028 253.85 516.412C259.702 531.901 267.874 530.344 267.874 530.344L374.543 497.898C374.543 497.898 369.877 485.81 363.842 455.189C361.636 443.996 356.879 430.898 362.414 413.739C370.134 389.812 362.385 359.103 357.554 330.194C355.288 316.638 349.573 291.426 346.348 282.512C342.95 273.119 341.569 236.477 329.741 237.158C308.842 238.36 319.535 270.761 318.147 287.841C316.76 304.92 223.609 375.894 223.609 375.894Z" fill="#F7B686"/>
<path d="M297.124 460.164C296.804 460.208 296.471 460.077 296.238 459.779C296.034 459.518 291.212 453.266 288.813 442.731C287.405 436.545 287.135 430.167 288.012 423.773C289.103 415.812 291.983 407.816 296.572 400.006C296.893 399.46 297.536 399.319 298.007 399.691C298.478 400.063 298.6 400.806 298.279 401.353C293.863 408.868 291.094 416.538 290.051 424.148C289.22 430.212 289.476 436.258 290.81 442.12C293.082 452.098 297.722 458.113 297.769 458.173C298.151 458.663 298.119 459.419 297.697 459.862C297.531 460.036 297.33 460.136 297.124 460.164Z" fill="#EA9F75"/>
<path d="M339.985 414.724L326.406 243.859C326.188 241.648 325.615 239.784 324.798 238.236C321.689 232.361 315.064 230.845 310.293 231.476L255.024 238.995L254.042 239.153L235.175 241.711L229.831 242.438C223.778 243.259 219.442 249.609 220.151 256.621L220.833 265.213L221.214 269.826L221.542 273.964L222.169 281.829L224.159 306.595L224.814 314.587V314.619L225.305 320.684L225.604 324.348V324.696L226.286 333.035L227.513 348.356L228.14 356.127V356.159L228.222 357.075V357.264L229.34 371.195L229.367 371.448L229.913 378.113L230.458 384.968L230.54 385.916V385.947L234.275 432.668C234.984 439.649 240.901 443.724 246.954 442.902L287.744 436.048H287.771L289.789 435.7L330.306 428.908C336.358 428.087 340.694 421.737 339.985 414.724Z" fill="#6F4975"/>
<path d="M310.662 234.705L230.116 245.658C225.616 246.27 222.385 250.874 222.898 255.942L237.562 424.053C238.646 435.548 243.932 434.382 248.431 433.771L329.336 420.138C333.836 419.526 336.988 413.031 336.475 407.962L323.136 243.408C322.623 238.34 315.162 234.093 310.662 234.705Z" fill="#96B4E0"/>
<path d="M313.504 367.763L251.637 376.175C248.181 376.645 245.7 380.182 246.094 384.074L247.817 399.712C248.649 408.54 252.71 407.645 256.166 407.176L318.308 396.704C321.765 396.234 324.185 391.246 323.791 387.352L323.085 374.447C322.875 367.717 316.961 367.292 313.504 367.763Z" fill="white"/>
<path d="M311.579 370.594L254.266 378.387C251.064 378.823 248.736 381.819 249.066 385.079L250.522 398.173C251.213 405.568 254.978 404.769 258.18 404.334L315.766 394.81C318.968 394.375 321.252 390.162 320.922 386.901L320.384 376.086C320.249 370.444 314.781 370.158 311.579 370.594Z" fill="#E28569"/>
<path d="M266.949 390.206C266.898 389.711 266.51 389.356 266.082 389.416L263.03 389.836L265.19 387.06C265.478 386.689 265.453 386.118 265.133 385.784C264.813 385.449 264.319 385.479 264.031 385.85L261.636 388.928L261.4 384.68C261.373 384.182 261.003 383.804 260.572 383.836C260.142 383.868 259.816 384.298 259.843 384.796L260.084 389.147L256.801 385.986C256.47 385.667 255.978 385.719 255.702 386.103C255.427 386.487 255.473 387.057 255.804 387.376L258.944 390.399L255.307 390.9C254.879 390.959 254.574 391.408 254.625 391.904C254.672 392.363 255.009 392.701 255.398 392.701C255.429 392.701 255.46 392.699 255.492 392.695L259.091 392.199L256.893 395.023C256.605 395.394 256.63 395.965 256.95 396.299C257.099 396.455 257.286 396.532 257.472 396.532C257.686 396.532 257.898 396.431 258.052 396.233L260.316 393.324L260.516 396.951C260.543 397.43 260.886 397.797 261.294 397.797C261.311 397.797 261.328 397.797 261.345 397.795C261.775 397.763 262.101 397.334 262.073 396.836L261.873 393.219L264.442 395.693C264.588 395.833 264.765 395.901 264.941 395.901C265.164 395.901 265.387 395.79 265.541 395.575C265.816 395.191 265.771 394.622 265.44 394.303L262.734 391.697L266.266 391.211C266.694 391.151 267 390.702 266.949 390.206Z" fill="white"/>
<path d="M283.129 387.605C283.079 387.11 282.69 386.755 282.263 386.815L279.21 387.235L281.37 384.459C281.659 384.088 281.633 383.517 281.313 383.183C280.994 382.848 280.5 382.878 280.212 383.249L277.816 386.327L277.581 382.079C277.553 381.581 277.183 381.203 276.753 381.235C276.323 381.267 275.996 381.696 276.024 382.195L276.265 386.546L272.982 383.385C272.65 383.066 272.158 383.118 271.883 383.502C271.608 383.886 271.653 384.456 271.984 384.775L275.124 387.798L271.488 388.299C271.06 388.358 270.754 388.807 270.805 389.303C270.852 389.762 271.189 390.1 271.579 390.1C271.61 390.1 271.641 390.098 271.672 390.094L275.271 389.598L273.074 392.422C272.785 392.793 272.811 393.364 273.131 393.699C273.28 393.854 273.467 393.931 273.653 393.931C273.866 393.931 274.078 393.83 274.232 393.632L276.496 390.723L276.697 394.35C276.723 394.829 277.066 395.196 277.474 395.196C277.491 395.196 277.508 395.196 277.525 395.194C277.955 395.162 278.281 394.733 278.254 394.235L278.053 390.618L280.623 393.092C280.769 393.232 280.945 393.3 281.121 393.3C281.345 393.3 281.567 393.189 281.721 392.974C281.997 392.59 281.951 392.021 281.62 391.701L278.914 389.096L282.447 388.61C282.875 388.551 283.18 388.101 283.129 387.605Z" fill="white"/>
<path d="M300.172 384.919C300.122 384.424 299.733 384.069 299.306 384.129L296.253 384.549L298.413 381.773C298.702 381.402 298.676 380.831 298.356 380.497C298.037 380.162 297.543 380.192 297.255 380.563L294.859 383.641L294.624 379.393C294.596 378.895 294.226 378.517 293.795 378.549C293.366 378.581 293.039 379.01 293.067 379.509L293.308 383.86L290.025 380.699C289.693 380.38 289.201 380.432 288.926 380.816C288.651 381.2 288.696 381.77 289.027 382.089L292.167 385.112L288.531 385.613C288.103 385.672 287.797 386.121 287.848 386.617C287.895 387.076 288.232 387.414 288.622 387.414C288.653 387.414 288.684 387.412 288.715 387.408L292.314 386.912L290.117 389.736C289.828 390.107 289.854 390.678 290.174 391.012C290.323 391.168 290.51 391.245 290.696 391.245C290.909 391.245 291.121 391.144 291.275 390.946L293.539 388.037L293.74 391.664C293.766 392.143 294.109 392.51 294.517 392.51C294.534 392.51 294.551 392.51 294.568 392.508C294.998 392.476 295.324 392.047 295.297 391.549L295.096 387.932L297.666 390.406C297.812 390.546 297.988 390.614 298.164 390.614C298.388 390.614 298.61 390.503 298.764 390.288C299.04 389.904 298.994 389.335 298.663 389.015L295.957 386.41L299.489 385.924C299.918 385.864 300.223 385.415 300.172 384.919Z" fill="white"/>
<path d="M317.252 382.049C317.202 381.553 316.814 381.198 316.386 381.258L313.333 381.678L315.493 378.902C315.782 378.531 315.756 377.96 315.436 377.626C315.117 377.292 314.623 377.321 314.335 377.692L311.939 380.77L311.704 376.522C311.676 376.024 311.306 375.646 310.876 375.678C310.446 375.71 310.12 376.14 310.147 376.638L310.388 380.989L307.105 377.828C306.773 377.509 306.282 377.562 306.006 377.946C305.731 378.33 305.776 378.899 306.107 379.218L309.247 382.241L305.611 382.742C305.183 382.801 304.877 383.251 304.928 383.746C304.976 384.206 305.312 384.543 305.702 384.543C305.733 384.543 305.764 384.541 305.795 384.537L309.395 384.041L307.197 386.865C306.908 387.236 306.934 387.807 307.254 388.142C307.403 388.297 307.59 388.374 307.776 388.374C307.989 388.374 308.202 388.273 308.356 388.076L310.619 385.166L310.82 388.794C310.847 389.272 311.19 389.64 311.598 389.64C311.614 389.64 311.631 389.639 311.649 389.638C312.078 389.606 312.405 389.176 312.377 388.678L312.177 385.062L314.746 387.535C314.892 387.675 315.068 387.744 315.244 387.744C315.468 387.744 315.69 387.633 315.845 387.418C316.12 387.034 316.074 386.464 315.743 386.145L313.037 383.54L316.57 383.053C316.998 382.994 317.303 382.544 317.252 382.049Z" fill="white"/>
<path d="M310.63 319.722C309.883 323.844 308.494 327.627 306.613 331.01C304.288 335.195 301.207 338.767 297.649 341.61C296.922 342.19 296.174 342.74 295.41 343.258C287.731 348.473 278.283 350.511 269.481 348.37C267.396 347.863 265.435 347.112 263.602 346.142C261.292 344.923 259.189 343.363 257.302 341.523C256.236 340.48 255.237 339.348 254.314 338.138L254.314 338.137C247.32 328.982 244.481 315.325 246.903 301.957C250.661 281.222 264.355 266.128 285.268 272.089C302.564 277.02 314.387 298.986 310.63 319.722Z" fill="white"/>
<path d="M257.194 334.478C254.867 331.973 253.058 329.051 251.739 325.872C250.106 321.939 249.224 317.611 249.036 313.186C248.998 312.281 248.989 311.372 249.009 310.463C249.202 301.323 252.282 292.034 257.773 285.185C259.073 283.563 260.475 282.159 261.958 280.967C263.826 279.463 265.818 278.296 267.891 277.445C269.065 276.965 270.265 276.585 271.481 276.307L271.482 276.308C280.682 274.196 290.869 277.782 298.416 285.903C310.124 298.502 313.54 317.39 299.926 333.272C288.668 346.407 268.902 347.076 257.194 334.478Z" fill="#E28569"/>
<path d="M290.514 310.407L266.416 313.449L265.267 301.237C264.93 297.648 265.819 294.123 267.77 291.309C269.721 288.496 272.502 286.731 275.599 286.34L276.508 286.225C279.605 285.834 282.648 286.864 285.076 289.125C287.505 291.385 289.028 294.607 289.366 298.195L290.514 310.407ZM269.513 308.983L286.659 306.819L285.889 298.634C285.402 293.447 281.363 289.688 276.886 290.253L275.977 290.368C272.979 290.974 270.561 293.047 269.414 295.9C268.827 297.359 268.578 299.043 268.744 300.798L269.513 308.983Z" fill="white"/>
<path d="M288.493 330.317L272.09 332.388C269.036 332.773 266.29 330.217 265.957 326.678L263.937 305.203C263.832 304.087 264.528 303.084 265.491 302.962L289.469 299.936C290.432 299.814 291.298 300.621 291.403 301.736L293.422 323.211C293.755 326.75 291.548 329.932 288.493 330.317Z" fill="white"/>
<path d="M279.99 312.637C279.903 311.715 279.188 311.049 278.392 311.15C277.596 311.25 277.022 312.079 277.108 313.001C277.151 313.459 277.35 313.854 277.636 314.123L278.245 320.596C278.306 321.251 278.815 321.724 279.38 321.653C279.945 321.581 280.353 320.993 280.292 320.338L279.683 313.865C279.913 313.53 280.033 313.095 279.99 312.637Z" fill="#E28569"/>
<path d="M199.897 343.265L223.169 354.723C228.966 359.32 236.884 357.603 240.854 350.888C244.824 344.171 243.343 334.999 237.545 330.398L222.519 318.477C212.202 310.54 203.011 307.009 196.625 317.828C187.61 333.103 194.291 338.817 199.897 343.265Z" fill="#F7B686"/>
<path d="M407.626 599.066C409.64 598.774 411.615 598.44 413.553 598.054C399.104 551.104 374.362 470.522 373.905 469.026C372.951 465.993 370.061 464.193 365.589 463.656H365.562C355.964 462.519 339.032 467.257 318.146 478.345C292.243 492.118 266.041 487.316 250.281 486.59H250.254C247.336 486.432 244.773 486.463 242.647 486.747C237.758 487.405 234.143 514.954 231.824 544.688C231.679 546.545 231.253 572.071 230.889 592.923C249.695 592.274 262.235 592.321 270.803 592.525C283.534 592.912 287.119 593.465 306.13 595.554C346.26 599.928 379.901 603.276 407.626 599.066Z" fill="#68A1BF"/>
<path d="M232.632 350.685C232.503 350.685 232.374 350.67 232.247 350.64C231.814 350.549 224.866 349.067 221.642 346.399C220.312 345.299 220.185 342.994 221.283 339.907C222.086 337.649 223.477 335.153 225.005 333.23C226.259 331.652 228.098 329.836 229.734 330.144C233.455 330.847 239.016 334.765 238.917 339.071C238.841 342.369 236.506 347.915 234.375 349.86C233.774 350.409 233.189 350.685 232.632 350.685ZM229.342 331.969C227.834 331.969 224.356 336.15 222.768 340.615C222.017 342.726 221.943 344.362 222.575 344.885C225.539 347.337 232.471 348.796 232.541 348.81L232.567 348.816C232.741 348.859 233.047 348.703 233.381 348.398C235.154 346.78 237.247 341.785 237.311 339.021C237.38 336.018 232.547 332.56 229.476 331.98C229.433 331.973 229.389 331.969 229.342 331.969Z" fill="#EA9F75"/>
<path d="M201.298 306.964L222.913 322.167C228.081 327.679 236.13 327.295 240.89 321.308C245.65 315.32 245.319 305.997 240.15 300.48L226.754 286.187C217.525 276.619 208.865 271.598 201.207 281.246C190.395 294.866 196.301 301.631 201.298 306.964Z" fill="#F7B686"/>
<path d="M233.068 319.766C232.837 319.766 232.614 319.722 232.403 319.634C231.983 319.472 225.293 316.851 222.431 313.676C221.252 312.367 221.411 310.064 222.879 307.191C223.953 305.09 225.639 302.851 227.389 301.202C228.826 299.848 230.87 298.356 232.451 298.933C234.224 299.58 236.306 301.09 237.886 302.873C239.82 305.056 240.725 307.335 240.434 309.292C239.952 312.543 236.955 317.644 234.605 319.215C234.056 319.582 233.542 319.766 233.068 319.766ZM231.681 300.661C230.083 300.661 226.314 304.122 224.262 308.139C223.258 310.103 222.982 311.71 223.543 312.332C226.173 315.251 232.853 317.846 232.92 317.872L232.945 317.882C233.113 317.954 233.434 317.85 233.803 317.604C235.757 316.297 238.447 311.701 238.852 308.976C239.292 306.015 234.937 301.791 231.968 300.707C231.883 300.676 231.786 300.661 231.681 300.661Z" fill="#EA9F75"/>
<path d="M210.759 379.481L231.432 385.25C236.791 388.132 243.153 385.438 245.643 379.23C248.133 373.022 245.808 365.651 240.449 362.765L226.559 355.289C217.052 350.361 209.006 348.907 205.003 358.907C199.352 373.024 205.577 376.692 210.759 379.481Z" fill="#F7B686"/>
<path d="M238.534 380.555C238.514 380.555 238.493 380.555 238.472 380.554C238.083 380.548 232.13 380.43 229.115 378.723C228.366 378.299 227.222 377.021 227.972 373.23C228.743 369.336 231.45 363.672 233.939 363.661C233.949 363.661 233.959 363.661 233.969 363.661C237.186 363.661 242.31 366.065 242.75 369.719C243.086 372.5 241.796 377.536 240.241 379.517C239.7 380.206 239.126 380.555 238.534 380.555ZM233.968 365.521C233.96 365.521 233.953 365.521 233.946 365.521C232.788 365.527 230.313 369.729 229.538 373.645C229.187 375.419 229.298 376.756 229.82 377.052C232.546 378.595 238.443 378.693 238.502 378.693L238.528 378.694C238.589 378.695 238.782 378.612 239.053 378.265C240.287 376.695 241.429 372.201 241.16 369.976C240.867 367.551 236.545 365.521 233.968 365.521Z" fill="#EA9F75"/>
<path d="M231.26 327.099C222.413 327.099 206.886 312.155 206.188 311.479C205.848 311.149 205.803 310.562 206.087 310.168C206.372 309.774 206.879 309.722 207.219 310.052C207.263 310.095 211.72 314.399 217.099 318.39C224.081 323.571 229.413 325.889 232.52 325.092C232.952 324.981 233.382 325.297 233.477 325.799C233.573 326.301 233.3 326.797 232.867 326.909C232.362 327.038 231.825 327.099 231.26 327.099Z" fill="#EA9F75"/>
<path d="M229.938 358.382C224.557 358.382 215.941 352.254 215.539 351.966C215.162 351.695 215.045 351.122 215.278 350.685C215.511 350.248 216.006 350.113 216.384 350.383C219.258 352.443 227.51 357.529 231.129 356.358C231.557 356.219 231.999 356.509 232.119 357.004C232.238 357.498 231.989 358.012 231.562 358.15C231.069 358.309 230.522 358.382 229.938 358.382Z" fill="#EA9F75"/>
<path d="M336.936 265.948C335.863 265.949 334.528 265.676 333.107 264.74C332.13 264.095 330.806 262.229 330.6 253.49C330.492 248.885 330.758 244.466 330.761 244.422C330.793 243.909 331.177 243.523 331.619 243.56C332.061 243.596 332.395 244.041 332.363 244.554C332.361 244.597 332.099 248.937 332.206 253.452C332.397 261.515 333.552 262.892 333.902 263.122C336.498 264.833 338.671 263.767 338.763 263.721C339.167 263.516 339.641 263.727 339.82 264.194C340 264.662 339.822 265.208 339.42 265.419C339.351 265.455 338.38 265.948 336.936 265.948Z" fill="#EA9F75"/>
<path d="M255.209 467.347C255.148 467.355 255.086 467.357 255.024 467.352C245.887 466.701 240.346 462.908 237.307 459.841C233.959 456.461 232.817 453.215 232.77 453.078C232.559 452.464 232.817 451.769 233.347 451.524C233.875 451.28 234.475 451.578 234.687 452.189C234.697 452.218 235.741 455.126 238.759 458.133C241.552 460.916 246.663 464.359 255.15 464.965C255.719 465.005 256.152 465.573 256.117 466.232C256.086 466.819 255.695 467.281 255.209 467.347Z" fill="#EA9F75"/>
<path d="M234.805 387.585C234.78 387.585 234.756 387.585 234.73 387.584C229.309 387.557 209.628 379.742 208.793 379.41C208.374 379.243 208.151 378.714 208.295 378.228C208.439 377.742 208.896 377.483 209.315 377.65C209.517 377.731 229.579 385.697 234.737 385.724C234.76 385.724 234.782 385.724 234.805 385.724C239.714 385.724 242.069 383.026 242.092 382.999C242.403 382.633 242.912 382.629 243.227 382.99C243.543 383.351 243.547 383.939 243.235 384.305C243.121 384.439 240.378 387.585 234.805 387.585Z" fill="#EA9F75"/>
<path d="M253.724 520.28C253.429 517.375 255.441 513.962 257.896 513.275C261.1 512.38 263.823 514.582 264.118 517.488C264.462 520.889 262.204 524.461 259.17 524.874C256.662 525.215 254.018 523.186 253.724 520.28Z" fill="#41718C"/>
<path d="M258.885 384.341C254.214 381.984 249.137 386.243 246.697 391.506C237.022 412.371 217.184 462.02 211.484 461.058C207.762 460.43 209.552 454.301 201.228 452.697C194.499 451.399 192.59 458.321 188.998 458.235C183.822 458.11 184.632 455.992 180.081 453.534C173.193 449.811 169.245 460.518 164.015 457.379C158.787 454.241 154.964 445.162 145.9 451.48C139.912 455.652 135.902 465.807 125.401 506.639C119.837 528.272 114.801 575.755 113.047 594.296C128.769 598.556 145.562 597.126 155.456 596.53C156.362 596.475 157.265 596.424 158.165 596.381C175.782 595.695 187.406 594.834 223.723 593.198C234.473 574.819 237.257 556.092 241.694 540.469C244.247 531.491 246.709 520.433 235.229 503.465C241.411 474.006 277.081 393.533 258.885 384.341Z" fill="#F7B686"/>
<path d="M232.337 528.647L230.884 528.579C231.193 519.589 234.38 503.928 234.516 503.266L235.93 503.655C235.898 503.815 232.64 519.819 232.337 528.647Z" fill="#EA9F75"/>
<path d="M256.677 403.687C255.373 403.687 253.701 403.293 251.915 402.378C249.662 401.222 248.408 399.71 248.475 398.227C248.637 394.679 252.865 389.258 253.094 388.965C253.38 388.58 253.886 388.441 254.644 388.541C256.877 388.835 261.437 391.455 261.899 392.498C262.442 393.719 260.858 400.79 259.042 402.914C258.624 403.404 257.783 403.687 256.677 403.687ZM254.21 389.232C253.892 389.232 253.664 389.303 253.566 389.437L253.558 389.447C253.515 389.502 249.248 394.953 249.097 398.265C249.045 399.415 250.192 400.705 252.167 401.718C254.767 403.051 257.773 403.373 258.599 402.406C260.365 400.34 261.677 393.576 261.345 392.828C261.082 392.236 256.932 389.569 254.573 389.258C254.443 389.241 254.321 389.232 254.21 389.232Z" fill="#F59A6D"/>
<path d="M216.52 456.923C216.366 456.923 216.211 456.871 216.076 456.762C215.722 456.478 215.634 455.914 215.879 455.504C215.959 455.371 223.983 441.888 233.206 420.051C233.396 419.602 233.863 419.417 234.25 419.636C234.637 419.856 234.797 420.397 234.608 420.845C225.328 442.815 217.242 456.4 217.161 456.534C217.01 456.788 216.767 456.923 216.52 456.923Z" fill="#EA9F75"/>
<path d="M235.231 504.37C235.162 504.37 235.092 504.359 235.022 504.337C234.607 504.203 234.364 503.705 234.479 503.224C237.376 491.138 258.542 424.922 258.755 424.255C258.905 423.787 259.353 423.548 259.758 423.722C260.162 423.895 260.368 424.415 260.218 424.883C260.005 425.55 238.862 491.694 235.982 503.708C235.886 504.108 235.573 504.37 235.231 504.37Z" fill="#EA9F75"/>
</svg>
