<svg width="256" height="301" viewBox="0 0 256 301" fill="none" xmlns="http://www.w3.org/2000/svg">
<path d="M58.8335 150.661L36.5069 156.23L24.2188 116.687L51.1119 109.979L58.8335 150.661Z" fill="white"/>
<path d="M51.481 111.923L51.1119 109.979L24.2188 116.687L24.5445 117.736L51.481 111.923Z" fill="#E8D7CF"/>
<path d="M23.1226 113.527L23.4034 116.89L51.9291 109.775L50.598 106.674L23.1226 113.527Z" fill="#FF7145"/>
<path d="M46.8757 103.509L45.5433 103.841L29.5797 107.823L24.8442 109.004L25.2334 113.66L30.6873 112.3L46.6524 108.318L48.7185 107.803L46.8757 103.509Z" fill="#FF7145"/>
<path d="M48.3958 106.938L25.1123 112.746L25.246 113.282L48.5295 107.474L48.3958 106.938Z" fill="#E8551A"/>
<path d="M57.0011 137.033L53.6027 119.129L26.3188 125.935L31.7265 143.337L57.0011 137.033Z" fill="#C99585"/>
<path d="M46.8129 137.152C43.428 137.996 39.9412 135.747 39.0408 132.137C38.1406 128.528 40.1626 124.904 43.5475 124.06C46.9324 123.216 50.4191 125.465 51.3194 129.075C52.2192 132.684 50.1977 136.308 46.8129 137.152ZM43.6812 124.596C40.5733 125.371 38.7171 128.698 39.5436 132.012C40.3702 135.325 43.5713 137.391 46.6791 136.616C49.787 135.841 51.6431 132.514 50.8166 129.2C49.9895 125.886 46.789 123.821 43.6812 124.596Z" fill="white"/>
<path d="M39.1021 155.583L19.8999 160.372L43.738 255.946L62.9402 251.157L39.1021 155.583Z" fill="#FF7145"/>
<path d="M62.9407 251.157L66.5479 250.257L42.7098 154.683L39.1026 155.583L62.9407 251.157Z" fill="#E8551A"/>
<path d="M52.2712 227.367L41.9857 229.932L26.6865 168.593L36.9719 166.027L52.2712 227.367ZM42.3548 229.271L51.6346 226.956L36.6029 166.689L27.3231 169.004L42.3548 229.271Z" fill="white"/>
<path d="M51.2873 245.327C53.0982 244.875 54.1679 242.912 53.6766 240.943C53.1854 238.973 51.3191 237.742 49.5083 238.194C47.6975 238.646 46.6277 240.608 47.119 242.578C47.6103 244.548 49.4765 245.778 51.2873 245.327Z" fill="#E8551A"/>
<path d="M51.7922 247.348C48.9564 248.056 46.0242 246.124 45.2556 243.042C44.4871 239.961 46.1687 236.879 49.0045 236.171C51.8404 235.464 54.7725 237.396 55.541 240.477C56.3098 243.559 54.6281 246.641 51.7922 247.348ZM49.1384 236.708C46.5801 237.346 45.0639 240.132 45.7585 242.917C46.4534 245.703 49.1004 247.451 51.6587 246.813C54.2169 246.175 55.7333 243.389 55.0384 240.603C54.3435 237.817 51.6967 236.07 49.1384 236.708Z" fill="white"/>
<path d="M85.7493 245.468L125.966 235.438L102.128 139.863L61.9112 149.894L85.7493 245.468Z" fill="#F29A25"/>
<path d="M61.9117 149.894L42.7095 154.683L66.5476 250.258L85.7498 245.468L61.9117 149.894Z" fill="#FFB74D"/>
<path d="M75.0797 221.678L64.7948 224.243L49.4956 162.904L59.7805 160.339L75.0797 221.678ZM65.1639 223.582L74.4432 221.267L59.4114 161L50.1321 163.315L65.1639 223.582Z" fill="white"/>
<path d="M76.4862 235.254C76.9775 237.223 75.908 239.186 74.0969 239.638C72.2863 240.089 70.4199 238.859 69.9286 236.889C69.4373 234.919 70.5073 232.957 72.3179 232.505C74.1285 232.053 75.9949 233.284 76.4862 235.254Z" fill="#F29A25"/>
<path d="M74.6008 241.659C71.765 242.367 68.8328 240.435 68.0642 237.353C67.2957 234.272 68.9773 231.19 71.8131 230.482C74.649 229.775 77.5811 231.707 78.3496 234.788C79.1184 237.87 77.4367 240.952 74.6008 241.659ZM71.947 231.019C69.3887 231.657 67.8725 234.443 68.5671 237.228C69.262 240.014 71.909 241.762 74.4672 241.124C77.0255 240.486 78.5419 237.7 77.8469 234.914C77.1521 232.128 74.5053 230.381 71.947 231.019Z" fill="white"/>
<path d="M256.599 40.2476C257.562 40.0076 258.543 40.6106 258.788 41.5912L281.568 132.922L108.54 176.079L85.7601 84.7477C85.5154 83.7666 86.0993 82.7735 87.0617 82.5335L256.599 40.2476Z" fill="#F4ECE9"/>
<path d="M226.252 206.417L191.472 215.092L187.12 176.784L212.104 170.552L226.252 206.417Z" fill="#35ABE5"/>
<path d="M218.603 187.026L212.104 170.552L187.12 176.784L188.469 188.65L218.603 187.026Z" fill="#1086C1"/>
<path d="M241.269 202.671L176.456 218.837L177.397 222.61L242.21 206.444L241.269 202.671Z" fill="#35ABE5"/>
<path d="M259.784 45.586L258.776 41.5462C257.674 37.1269 253.42 34.382 249.275 35.4157L91.2578 74.8284C87.1127 75.8622 84.6466 80.2832 85.7489 84.7026L86.7565 88.7424L259.784 45.586Z" fill="#35ABE5"/>
<path d="M226.185 206.149L191.405 214.824L191.539 215.36L226.319 206.685L226.185 206.149Z" fill="#1086C1"/>
<path d="M108.325 175.215L113.432 195.691C114.658 200.608 119.391 203.663 124.004 202.512L280.33 163.521C284.942 162.371 287.686 157.452 286.46 152.534L281.353 132.059L108.325 175.215Z" fill="#35ABE5"/>
<path d="M199.67 172.338C197.394 172.905 195.049 171.392 194.443 168.965C193.838 166.538 195.198 164.101 197.474 163.533C199.75 162.965 202.095 164.479 202.701 166.906C203.306 169.333 201.946 171.77 199.67 172.338ZM197.608 164.07C195.608 164.569 194.414 166.708 194.946 168.84C195.478 170.973 197.537 172.301 199.536 171.802C201.536 171.303 202.73 169.164 202.198 167.032C201.666 164.899 199.607 163.571 197.608 164.07Z" fill="white"/>
<path d="M223.48 24.8479C227.217 23.9158 231.051 26.3795 232.065 30.3533L234.261 39.1604L220.684 42.5469L218.487 33.7398C217.516 29.7553 219.743 25.7801 223.48 24.8479Z" fill="#E0BDAF"/>
<path d="M117.922 58.8227L117.885 58.832C116.914 54.8474 119.141 50.8722 122.878 49.94L223.479 24.8482C219.743 25.7802 217.515 29.7556 218.486 33.7402L218.523 33.7309L218.494 33.7825L245.252 141.062L144.651 166.154L117.893 58.8749L117.922 58.8227Z" fill="white"/>
<path d="M223.65 93.3644L215.768 95.3303L213.671 86.9258L221.553 84.9599L223.65 93.3644ZM216.137 94.6687L223.013 92.9536L221.184 85.6214L214.308 87.3365L216.137 94.6687Z" fill="#E0BDAF"/>
<path d="M219.191 92.2343L215.787 89.4903L216.094 89.0561L218.953 91.3607L222.378 82.2103L222.862 82.4265L219.191 92.2343Z" fill="#62A851"/>
<path d="M205.951 83.8396L190.692 87.6455L190.826 88.1817L206.085 84.3757L205.951 83.8396Z" fill="#3385E8"/>
<path d="M185.522 88.9351L161.341 94.9663L161.475 95.5025L185.656 89.4713L185.522 88.9351Z" fill="#3385E8"/>
<path d="M201.317 91.1864L173.968 98.0078L174.102 98.544L201.451 91.7226L201.317 91.1864Z" fill="#E8D7CF"/>
<path d="M169.382 99.1515L162.795 100.794L162.929 101.331L169.516 99.6876L169.382 99.1515Z" fill="#E8D7CF"/>
<path d="M193.082 97.2278L184.994 99.2451L185.128 99.7813L193.216 97.7639L193.082 97.2278Z" fill="#E8D7CF"/>
<path d="M179.824 100.535L163.731 104.548L163.865 105.085L179.958 101.071L179.824 100.535Z" fill="#E8D7CF"/>
<path d="M207.026 97.7379L189.37 102.142L189.503 102.678L207.159 98.274L207.026 97.7379Z" fill="#FFB74D"/>
<path d="M185.617 103.077L164.667 108.303L164.801 108.839L185.751 103.614L185.617 103.077Z" fill="#FFB74D"/>
<path d="M154.329 92.265L137.968 96.3457L143.468 118.399L159.829 114.318L154.329 92.265Z" fill="#F2E9E4"/>
<mask id="mask0_55_6698" style="mask-type:luminance" maskUnits="userSpaceOnUse" x="137" y="92" width="23" height="27">
<path d="M154.328 92.265L137.967 96.3457L143.467 118.399L159.828 114.318L154.328 92.265Z" fill="white"/>
</mask>
<g mask="url(#mask0_55_6698)">
<path d="M151.279 104.643L146.472 105.842L148.906 115.603L153.714 114.404L151.279 104.643Z" fill="#FFA88D"/>
<path d="M152.123 108.024C150.069 108.746 148.403 108.872 147.128 108.47L146.473 105.842L151.28 104.643L152.123 108.024L152.123 108.024Z" fill="#EA7759"/>
<path d="M160.901 111.859C159.569 109.352 152.453 109.351 152.453 109.351C151.089 110.708 149.487 111.108 147.646 110.55C147.646 110.55 141.364 113.893 141.366 116.731C141.367 119.569 142.138 125.053 142.138 125.053L153.132 122.311L164.127 119.568C164.127 119.568 162.232 114.365 160.901 111.859Z" fill="#FF7145"/>
<path d="M147.346 109.346L146.863 110.998L149.263 112.676L149.669 110.794L147.346 109.346Z" fill="white"/>
<path d="M152.157 108.146L153.36 109.377L152.029 111.986L150.786 110.515L152.157 108.146Z" fill="white"/>
<path d="M149.519 107.746L149.485 107.755C146.723 108.444 143.862 106.598 143.128 103.653L142.952 102.948C142.217 100.003 143.876 97.0302 146.638 96.3413L146.672 96.3327C149.434 95.6438 152.295 97.4896 153.029 100.435L153.205 101.14C153.94 104.085 152.281 107.058 149.519 107.746Z" fill="#273238"/>
<path d="M149.659 108.056L149.508 108.094C146.999 108.719 144.401 107.043 143.734 104.368L143.694 104.207C143.027 101.532 144.533 98.8319 147.041 98.2063L147.193 98.1684C149.702 97.5428 152.3 99.2195 152.967 101.894L153.007 102.056C153.674 104.73 152.167 107.43 149.659 108.056Z" fill="#FFA88D"/>
<path d="M143.989 105.393C144.562 105.25 144.903 104.639 144.75 104.029C144.598 103.418 144.01 103.038 143.437 103.181C142.864 103.324 142.523 103.935 142.676 104.546C142.828 105.157 143.416 105.536 143.989 105.393Z" fill="#FFA88D"/>
<path d="M153.263 103.08C153.836 102.937 154.177 102.326 154.024 101.716C153.872 101.105 153.284 100.725 152.711 100.868C152.138 101.011 151.797 101.622 151.95 102.233C152.102 102.844 152.69 103.223 153.263 103.08Z" fill="#FFA88D"/>
<path d="M150.832 97.754C151.02 98.5078 149.511 99.3221 147.523 99.8179C145.535 100.314 143.821 100.303 143.633 99.5497C143.444 98.7953 144.903 97.7822 146.892 97.2863C148.88 96.7904 150.644 96.9997 150.832 97.754Z" fill="#273238"/>
<path d="M143.478 103.178L143.807 104.496C143.807 104.496 144.308 104.125 143.854 102.144C143.854 102.144 144.759 101.405 144.474 100.173C144.189 98.9407 143.229 100.612 143.229 100.612L143.065 102.084L143.142 102.771L143.478 103.178Z" fill="#273238"/>
<path d="M152.612 100.9L152.941 102.218C152.941 102.218 152.324 102.126 151.795 100.164C151.795 100.164 150.648 99.9366 150.322 98.7145C149.995 97.4924 151.626 98.5172 151.626 98.5172L152.463 99.7403L152.717 100.383L152.612 100.9Z" fill="#273238"/>
<path d="M146.362 103.921C146.506 103.885 146.592 103.732 146.554 103.578C146.515 103.425 146.368 103.33 146.224 103.366C146.08 103.402 145.994 103.555 146.033 103.708C146.071 103.862 146.219 103.957 146.362 103.921Z" fill="#273238"/>
<path d="M150.476 102.895C150.619 102.859 150.705 102.706 150.667 102.553C150.629 102.399 150.481 102.304 150.337 102.34C150.193 102.376 150.108 102.529 150.146 102.683C150.184 102.836 150.332 102.931 150.476 102.895Z" fill="#273238"/>
<path d="M148.846 105.186C148.637 105.238 148.417 105.22 148.185 105.131L148.267 104.873C148.631 105.012 148.951 104.931 149.246 104.625L149.431 104.824C149.249 105.013 149.053 105.134 148.846 105.186Z" fill="#EA7759"/>
<path d="M146.375 102.538L145.702 102.706L145.769 102.974L146.442 102.806L146.375 102.538Z" fill="#273238"/>
<path d="M150.488 101.513L149.814 101.681L149.881 101.949L150.555 101.781L150.488 101.513Z" fill="#273238"/>
<path d="M146.455 105.878C145.348 106.154 144.207 105.418 143.913 104.238C143.619 103.057 144.28 101.871 145.387 101.595C146.494 101.319 147.635 102.055 147.929 103.236C148.224 104.416 147.563 105.602 146.455 105.878ZM145.421 101.729C144.383 101.988 143.763 103.099 144.039 104.206C144.315 105.313 145.384 106.003 146.422 105.744C147.46 105.485 148.08 104.374 147.804 103.267C147.528 102.16 146.459 101.47 145.421 101.729Z" fill="white"/>
<path d="M151.314 104.666C150.207 104.942 149.066 104.206 148.771 103.026C148.477 101.845 149.138 100.66 150.246 100.383C151.353 100.107 152.493 100.843 152.788 102.024C153.082 103.205 152.421 104.39 151.314 104.666ZM150.279 100.517C149.241 100.776 148.621 101.887 148.897 102.994C149.173 104.101 150.242 104.791 151.28 104.532C152.318 104.273 152.938 103.162 152.662 102.055C152.385 100.948 151.317 100.259 150.279 100.517Z" fill="white"/>
<path d="M147.476 102.426L147.384 102.326C147.788 101.91 148.273 101.79 148.824 101.966L148.79 102.098C148.279 101.935 147.85 102.042 147.476 102.426Z" fill="white"/>
<path d="M148.354 103.968C148.342 103.964 148.061 103.866 147.87 103.696C147.655 103.505 147.836 102.901 147.964 102.558L148.206 102.665C148.075 103.02 147.995 103.415 148.039 103.495C148.184 103.622 148.425 103.706 148.428 103.707L148.354 103.968Z" fill="#EA7759"/>
</g>
<path d="M214.345 56.0534L206.463 58.0193L204.366 49.6143L212.248 47.6484L214.345 56.0534ZM206.832 57.3578L213.708 55.6427L211.879 48.3099L205.003 50.025L206.832 57.3578Z" fill="#E0BDAF"/>
<path d="M196.912 47.6004L163.747 55.8726L163.88 56.4087L197.046 48.1366L196.912 47.6004Z" fill="#3385E8"/>
<path d="M159.745 56.8704L152.303 58.7266L152.437 59.2627L159.879 57.4065L159.745 56.8704Z" fill="#3385E8"/>
<path d="M183.607 57.1097L178.708 58.3316L178.842 58.8677L183.741 57.6458L183.607 57.1097Z" fill="#E8D7CF"/>
<path d="M175.026 59.2503L153.757 64.5552L153.891 65.0913L175.16 59.7864L175.026 59.2503Z" fill="#E8D7CF"/>
<path d="M193.55 58.6177L167.889 65.0181L168.022 65.5542L193.684 59.1538L193.55 58.6177Z" fill="#E8D7CF"/>
<path d="M164.262 65.9226L154.693 68.3091L154.827 68.8453L164.395 66.4587L164.262 65.9226Z" fill="#E8D7CF"/>
<path d="M188.482 63.869L180.332 65.9019L180.465 66.438L188.616 64.4051L188.482 63.869Z" fill="#FFB74D"/>
<path d="M176.579 66.8377L155.629 72.063L155.763 72.5992L176.713 67.3738L176.579 66.8377Z" fill="#FFB74D"/>
<path d="M145.243 56.3699L128.882 60.4507L134.382 82.5036L150.744 78.4228L145.243 56.3699Z" fill="#F2E9E4"/>
<mask id="mask1_55_6698" style="mask-type:luminance" maskUnits="userSpaceOnUse" x="128" y="56" width="23" height="27">
<path d="M145.244 56.3699L128.883 60.4507L134.383 82.5036L150.745 78.4228L145.244 56.3699Z" fill="white"/>
</mask>
<g mask="url(#mask1_55_6698)">
<path d="M143.87 64.2443L133.792 66.7578L136.933 79.3479L147.01 76.8344L143.87 64.2443Z" fill="#273238"/>
<path d="M141.88 68.9648L137.766 69.9908L140.201 79.7517L144.314 78.7257L141.88 68.9648Z" fill="#FFA88D"/>
<path d="M142.723 72.3457C140.973 72.9923 139.537 73.0606 138.422 72.6189L137.766 69.9908L141.88 68.9648L142.723 72.3457Z" fill="#EA7759"/>
<path d="M150.666 76.3878C149.415 73.8614 143.11 73.6579 143.11 73.6579C141.94 74.9662 140.532 75.3174 138.885 74.7117C138.885 74.7117 133.413 77.8526 133.496 80.6704C133.578 83.4883 134.416 88.9553 134.416 88.9553L144.08 86.5448L153.745 84.1343C153.745 84.1343 151.917 78.9141 150.666 76.3878Z" fill="#8ED182"/>
<path d="M140.355 71.5365L140.321 71.5452C137.559 72.234 134.698 70.3882 133.963 67.4432L133.788 66.7382C133.053 63.7932 134.712 60.8202 137.474 60.1314L137.508 60.1227C140.27 59.4338 143.131 61.2796 143.865 64.2246L144.041 64.9296C144.776 67.8746 143.117 70.8476 140.355 71.5365Z" fill="#273238"/>
<path d="M140.606 72.2907L140.454 72.3286C137.946 72.9543 135.348 71.2776 134.681 68.6033L134.641 68.4414C133.973 65.7666 135.48 63.0667 137.988 62.4412L138.14 62.4033C140.649 61.7776 143.246 63.4544 143.913 66.1286L143.954 66.2905C144.621 68.9648 143.114 71.6652 140.606 72.2907Z" fill="#FFA88D"/>
<path d="M134.936 69.6277C135.509 69.4848 135.85 68.8738 135.698 68.263C135.545 67.6521 134.957 67.2727 134.384 67.4156C133.812 67.5585 133.471 68.1695 133.623 68.7804C133.775 69.3913 134.363 69.7706 134.936 69.6277Z" fill="#FFA88D"/>
<path d="M144.97 65.9505C145.122 66.5611 144.782 67.1723 144.209 67.3152C143.635 67.4582 143.048 67.0791 142.895 66.4679C142.743 65.8567 143.084 65.2461 143.657 65.1031C144.23 64.9602 144.818 65.3398 144.97 65.9505Z" fill="#FFA88D"/>
<path d="M137.378 68.4348C137.522 68.399 137.608 68.2455 137.57 68.0922C137.531 67.9388 137.384 67.8435 137.24 67.8794C137.096 67.9153 137.011 68.0687 137.049 68.2221C137.087 68.3755 137.235 68.4707 137.378 68.4348Z" fill="#273238"/>
<path d="M141.683 67.0663C141.721 67.2196 141.636 67.3731 141.492 67.409C141.348 67.4448 141.2 67.3495 141.162 67.1962C141.124 67.0429 141.209 66.8894 141.353 66.8535C141.497 66.8171 141.645 66.9124 141.683 67.0663Z" fill="#273238"/>
<path d="M139.77 69.3286C139.561 69.3807 139.34 69.3629 139.109 69.2742L139.19 69.0159C139.554 69.1546 139.875 69.0741 140.169 68.7682L140.354 68.9676C140.172 69.1565 139.977 69.277 139.77 69.3286Z" fill="#EA7759"/>
<path d="M136.82 67.4045L136.652 67.189C136.879 66.9934 137.142 66.9278 137.433 66.9942L137.386 67.2634C137.172 67.2143 136.987 67.261 136.82 67.4045Z" fill="#273238"/>
<path d="M140.935 66.3781L140.767 66.1626C140.993 65.9671 141.256 65.9015 141.548 65.9678L141.5 66.237C141.286 66.188 141.101 66.2346 140.935 66.3781Z" fill="#273238"/>
<path d="M139.31 68.2068C139.299 68.2039 139.024 68.1346 138.841 68.0015C138.624 67.8442 138.792 67.3741 138.971 67.0077L139.203 67.1396C139.072 67.4098 138.975 67.7221 139 67.7955C139.102 67.8618 139.297 67.9225 139.362 67.9387L139.31 68.2068Z" fill="#EA7759"/>
<path d="M137.191 68.7944C137.224 68.9257 137.023 69.0891 136.742 69.1591C136.462 69.2291 136.208 69.179 136.175 69.0477C136.142 68.9163 136.343 68.7524 136.624 68.6825C136.904 68.6126 137.158 68.6625 137.191 68.7944Z" fill="#EA7759"/>
<path d="M142.911 67.3676C142.944 67.499 142.743 67.6623 142.463 67.7323C142.182 67.8023 141.928 67.7523 141.895 67.6209C141.863 67.4896 142.063 67.3257 142.344 67.2557C142.624 67.1858 142.878 67.2357 142.911 67.3676Z" fill="#EA7759"/>
<path d="M135.109 69.5847C135.161 69.7954 135.044 70.0058 134.846 70.0551C134.649 70.1044 134.446 69.9738 134.394 69.7631C134.341 69.5524 134.459 69.342 134.656 69.2927C134.854 69.2434 135.056 69.374 135.109 69.5847Z" fill="white"/>
<path d="M144.75 67.1804C144.803 67.3911 144.685 67.6015 144.488 67.6508C144.29 67.7001 144.088 67.5695 144.035 67.3588C143.982 67.1481 144.1 66.9377 144.297 66.8884C144.495 66.8391 144.697 66.9697 144.75 67.1804Z" fill="white"/>
<path d="M134.822 63.6193C134.822 63.6193 138.33 66.4323 143.658 65.1034C142.037 61.1213 137.906 58.9631 134.822 63.6193Z" fill="#273238"/>
<path d="M134.487 67.3732C134.487 67.3732 135.781 65.9519 135.78 63.8626C135.83 62.0779 134.225 63.8872 134.225 63.8872L133.839 65.759L134.487 67.3732Z" fill="#273238"/>
</g>
<path d="M232.816 130.114L224.934 132.08L222.837 123.675L230.719 121.709L232.816 130.114ZM225.303 131.418L232.179 129.703L230.35 122.371L223.474 124.086L225.303 131.418Z" fill="#E0BDAF"/>
<path d="M214.879 119.637L190.218 125.788L190.352 126.324L215.013 120.173L214.879 119.637Z" fill="#3385E8"/>
<path d="M185.529 126.957L170.27 130.763L170.404 131.299L185.663 127.493L185.529 126.957Z" fill="#3385E8"/>
<path d="M210.245 126.983L205.253 128.229L205.387 128.765L210.379 127.519L210.245 126.983Z" fill="#E8D7CF"/>
<path d="M201.616 129.136L182.897 133.805L183.031 134.341L201.75 129.672L201.616 129.136Z" fill="#E8D7CF"/>
<path d="M178.311 134.948L171.724 136.591L171.857 137.127L178.445 135.484L178.311 134.948Z" fill="#E8D7CF"/>
<path d="M215.561 129.645L198.863 133.81L198.997 134.346L215.694 130.181L215.561 129.645Z" fill="#E8D7CF"/>
<path d="M195.424 134.668L172.66 140.346L172.794 140.882L195.557 135.204L195.424 134.668Z" fill="#E8D7CF"/>
<path d="M209.554 135.131L188.792 140.31L188.926 140.846L209.688 135.667L209.554 135.131Z" fill="#FFB74D"/>
<path d="M183.477 141.635L173.596 144.1L173.73 144.636L183.611 142.171L183.477 141.635Z" fill="#FFB74D"/>
<path d="M163.216 128.178L146.855 132.259L152.355 154.312L168.717 150.231L163.216 128.178Z" fill="#F2E9E4"/>
<mask id="mask2_55_6698" style="mask-type:luminance" maskUnits="userSpaceOnUse" x="146" y="128" width="23" height="27">
<path d="M163.216 128.178L146.855 132.259L152.355 154.312L168.717 150.231L163.216 128.178Z" fill="white"/>
</mask>
<g mask="url(#mask2_55_6698)">
<path d="M160.243 140.86L155.436 142.059L157.871 151.82L162.678 150.621L160.243 140.86Z" fill="#FFA88D"/>
<path d="M161.087 144.241C159.033 144.963 157.367 145.089 156.092 144.687L155.436 142.059L160.243 140.86L161.087 144.241Z" fill="#EA7759"/>
<path d="M169.866 148.075C168.534 145.569 161.418 145.567 161.418 145.567C160.054 146.925 158.452 147.324 156.611 146.766C156.611 146.766 150.328 150.11 150.33 152.947C150.332 155.785 151.102 161.269 151.102 161.269L162.097 158.527L173.092 155.785C173.092 155.785 171.197 150.581 169.866 148.075Z" fill="white"/>
<path d="M158.086 148.892L158.833 146.952C158.833 146.952 157.449 146.966 156.669 146.752L155.756 147.413L158.086 148.892Z" fill="#E0BDAF"/>
<path d="M161.12 148.135L159.551 146.774C159.551 146.774 160.778 146.135 161.365 145.581L162.48 145.736L161.12 148.135Z" fill="#E0BDAF"/>
<path d="M156.102 147.053C154.607 147.92 150.329 150.605 150.331 152.947C150.333 155.785 151.103 161.269 151.103 161.269L159.147 159.263L156.102 147.053Z" fill="#273238"/>
<path d="M165.042 157.792L173.092 155.784C173.092 155.784 171.197 150.581 169.866 148.075C168.765 146.003 163.717 145.644 161.997 145.581L165.042 157.792Z" fill="#273238"/>
<path d="M156.476 145.973L155.925 147.155L158.007 148.681L158.834 146.952L156.476 145.973Z" fill="white"/>
<path d="M161.17 144.802L162.21 145.588L161.09 147.912L159.55 146.774L161.17 144.802Z" fill="white"/>
<path d="M163.092 158.279L159.908 147.578C160.03 147.483 160.113 147.364 160.155 147.22L159.55 146.773L159.159 146.891L158.834 146.952L158.509 147.631C158.614 147.738 158.743 147.804 158.895 147.831L161.11 158.773L162.098 158.527L161.864 157.588L162.104 158.525L163.092 158.279Z" fill="#FF7145"/>
<path d="M159.893 147.511L158.879 147.764L158.912 147.898L159.926 147.645L159.893 147.511Z" fill="#E2612D"/>
<path d="M158.483 143.963L158.448 143.972C155.686 144.661 152.825 142.815 152.091 139.87L152.071 139.548C151.721 138.81 150.93 137.307 152.006 136.658C151.769 134.61 153.521 133.077 155.602 132.558L155.636 132.549C158.398 131.86 161.259 133.706 161.993 136.651L162.169 137.356C162.903 140.301 161.245 143.274 158.483 143.963Z" fill="#F29A25"/>
<path d="M158.623 144.273L158.471 144.311C155.962 144.936 153.365 143.259 152.698 140.585L152.657 140.423C151.99 137.749 153.497 135.049 156.005 134.423L156.157 134.385C158.665 133.76 161.263 135.436 161.93 138.111L161.97 138.272C162.637 140.947 161.131 143.647 158.623 144.273Z" fill="#FFA88D"/>
<path d="M152.952 141.61C153.525 141.467 153.866 140.856 153.714 140.245C153.561 139.635 152.973 139.255 152.401 139.398C151.828 139.541 151.487 140.152 151.639 140.763C151.792 141.374 152.379 141.753 152.952 141.61Z" fill="#FFA88D"/>
<path d="M162.226 139.297C162.799 139.154 163.14 138.543 162.987 137.932C162.835 137.322 162.247 136.942 161.674 137.085C161.101 137.228 160.76 137.839 160.913 138.45C161.065 139.061 161.653 139.44 162.226 139.297Z" fill="#FFA88D"/>
<path d="M155.361 140.276C155.505 140.24 155.591 140.087 155.553 139.933C155.514 139.78 155.367 139.685 155.223 139.721C155.079 139.757 154.993 139.91 155.032 140.063C155.07 140.217 155.218 140.312 155.361 140.276Z" fill="#273238"/>
<path d="M159.665 138.908C159.703 139.061 159.618 139.215 159.474 139.251C159.33 139.287 159.182 139.191 159.144 139.038C159.106 138.885 159.191 138.731 159.335 138.695C159.479 138.659 159.627 138.755 159.665 138.908Z" fill="#273238"/>
<path d="M157.81 141.402C157.601 141.454 157.38 141.437 157.149 141.348L157.231 141.089C157.594 141.228 157.915 141.147 158.21 140.842L158.395 141.041C158.212 141.23 158.017 141.351 157.81 141.402Z" fill="#EA7759"/>
<path d="M155.423 139.091L154.75 139.259L154.816 139.527L155.49 139.359L155.423 139.091Z" fill="#273238"/>
<path d="M159.536 138.066L158.863 138.233L158.93 138.501L159.603 138.334L159.536 138.066Z" fill="#273238"/>
<path d="M157.359 140.355C157.348 140.351 157.066 140.252 156.875 140.083C156.66 139.891 156.842 139.287 156.969 138.944L157.212 139.052C157.08 139.406 157 139.801 157.045 139.88C157.189 140.008 157.431 140.093 157.433 140.093L157.359 140.355Z" fill="#EA7759"/>
<path d="M155.194 133.995L155.636 132.549C155.636 132.549 158.2 131.91 158.607 131.808C160.061 131.446 160.82 132.249 160.636 133.205C160.437 134.117 159.89 135.084 158.521 135.431C157.27 135.743 153.433 136.7 153.433 136.7C153.433 136.7 153.308 138.62 152.503 139.373L151.743 137.858L152.694 135.752L154.208 134.223L155.194 133.995Z" fill="#F29A25"/>
<path d="M159.264 134.998C159.763 136.035 160.575 136.698 161.58 137.129L161.635 136.378L160.501 134.584L159.657 134.086C159.657 134.086 158.72 134.455 158.748 134.522C158.774 134.589 159.264 134.998 159.264 134.998Z" fill="#F29A25"/>
</g>
<path d="M217.296 68.9591L136.057 89.2217L136.191 89.7578L217.43 69.4953L217.296 68.9591Z" fill="#F2E9E4"/>
<path d="M226.232 104.787L144.993 125.049L145.127 125.585L226.366 105.323L226.232 104.787Z" fill="#F2E9E4"/>
<path d="M244.977 139.958L144.375 165.05L144.651 166.154L245.252 141.062L244.977 139.958Z" fill="#E8D7CF"/>
<path d="M223.687 54.5894L247.37 140.535L245.253 141.063L223.687 54.5894Z" fill="#E0BDAF"/>
<path d="M108.363 146.282L99.2583 148.553L105.057 171.801L114.161 169.53L108.363 146.282Z" fill="#FFA88D"/>
<path d="M110.166 155.542C106.884 156.36 103.485 154.167 102.612 150.667L101.358 145.642C100.485 142.142 102.457 138.609 105.739 137.791C109.021 136.972 110.544 131.646 111.417 135.146L112.935 141.229C113.907 142.656 114.772 143.481 114.617 144.2C114.462 144.919 114.126 146.005 114.126 146.005C115.553 151.854 113.448 154.723 110.166 155.542Z" fill="#FFA88D"/>
<path d="M100.673 154.225C103.992 153.397 106.219 152.453 108.037 148.355C106.225 147.157 105.617 145.05 106.023 143.988C106.273 143.334 107.261 142.858 108.225 144.241C108.754 142.492 108.863 140.746 108.479 139.002C111.329 137.603 113.25 135.83 111.541 132.324C108.965 128.253 98.4797 131.052 96.9856 139.291C92.2224 142.618 97.0905 148.821 100.673 154.225Z" fill="#273238"/>
<path d="M110.637 155.403L109.62 151.324L111.839 154.829C111.461 155.066 111.061 155.258 110.637 155.403Z" fill="#EA7759"/>
<path d="M107.334 142.16L108.225 144.242C108.638 144.956 108.82 145.743 108.81 146.588C109.98 145.656 109.64 142.841 108.478 139.002L107.334 142.16Z" fill="#273238"/>
<path d="M114.126 146.005L113.551 143.699L114.393 145.091L114.126 146.005Z" fill="#EA7759"/>
<path d="M119.567 162.096C119.567 162.096 122.444 158.733 128.079 157.346C133.714 155.958 127.83 166.123 127.83 166.123L119.567 162.096Z" fill="#FFA88D"/>
<path d="M147.274 264.996L141.14 266.526L143.375 275.487L149.509 273.957L147.274 264.996Z" fill="white"/>
<path d="M124.813 280.117L118.443 281.706L117.827 272.341L124.197 270.752L124.813 280.117Z" fill="white"/>
<path d="M133.453 193.108L105.75 200.017L114.74 277.073L127.725 273.834L122.228 209.063L139.412 270.92L152.073 267.762L133.453 193.108Z" fill="#273238"/>
<path d="M114.512 206.322L114.375 206.849L122.163 209.337L122.299 208.811L114.512 206.322Z" fill="#666666"/>
<path d="M142.378 272.441L148.96 270.799C148.96 270.799 150.447 272.683 151.852 272.939C153.258 273.195 156.197 272.662 156.883 275.413L144.862 278.411C144.058 278.612 143.463 278.099 143.313 277.497L142.378 272.441Z" fill="#273238"/>
<path d="M117.994 278.523L124.757 276.836C124.757 276.836 125.631 278.872 127.036 279.129C128.442 279.385 130.23 279.546 130.859 281.904L120.046 284.601C119.242 284.801 118.563 284.413 118.469 283.401L117.994 278.523Z" fill="#273238"/>
<path d="M127.367 270.152L114.262 273.42L114.395 273.957L127.501 270.688L127.367 270.152Z" fill="#666666"/>
<path d="M151.187 264.211L138.44 267.39L138.574 267.926L151.321 264.747L151.187 264.211Z" fill="#666666"/>
<path d="M105.826 202.47L106.172 206.446L135.077 197.933L134.386 195.347L105.826 202.47Z" fill="white"/>
<path d="M105.582 202.963L95.5467 173.02C93.528 166.991 97.8539 162.521 102.651 161.324C104.626 160.832 111.903 159.017 111.903 159.017C119.842 157.282 125.86 159.212 127.529 165.905L134.828 195.632L105.582 202.963Z" fill="#8ED182"/>
<path d="M129.698 175.068L123.215 172.969L130.372 177.914L129.698 175.068Z" fill="#6EB75C"/>
<path d="M101.157 158.11L101.016 161.93L113.46 158.764L110.998 155.656L101.157 158.11Z" fill="white"/>
<path d="M134.273 193.378L104.809 200.727L104.942 201.263L134.406 193.914L134.273 193.378Z" fill="#62A851"/>
<path d="M148.096 130.346L138.77 126.862L135.011 139.051L144.337 142.535L148.096 130.346Z" fill="#C99585"/>
<path d="M135.954 136.691C135.562 136.544 135.14 136.749 134.999 137.154L124.671 166.907C124.333 168.005 124.908 169.212 125.955 169.603L134.635 172.846C135.683 173.237 136.807 172.664 137.145 171.567L145.404 141.041C145.516 140.625 145.295 140.179 144.902 140.033L135.954 136.691Z" fill="#273238"/>
<path d="M157.805 82.0112C144.462 77.0267 130.153 84.3157 125.843 98.2918C121.534 112.268 128.856 127.638 142.198 132.622C155.541 137.607 169.85 130.318 174.16 116.342C178.47 102.366 171.147 86.9956 157.805 82.0112ZM144.227 126.043C134.354 122.355 128.935 110.981 132.124 100.639C135.313 90.2964 145.903 84.9023 155.776 88.5909C165.649 92.2793 171.067 103.654 167.878 113.996C164.69 124.338 154.101 129.732 144.227 126.043Z" fill="#273238"/>
<path d="M143.942 167.408L143.942 167.405L121.467 159.046L121.465 159.05C119.348 158.277 116.943 158.741 115.281 160.478C112.924 162.943 112.959 167.025 115.36 169.595C116.21 170.505 117.243 171.097 118.327 171.382L118.327 171.387L141.199 178.793C141.495 178.915 141.797 179.016 142.103 179.086L142.105 179.086C143.878 179.484 145.774 178.981 147.132 177.562C149.309 175.286 149.277 171.516 147.059 169.142C146.176 168.197 145.079 167.622 143.942 167.408Z" fill="#8ED182"/>
<path d="M139.387 152.454L139.175 147.014C139.114 145.794 140.838 145.509 141.192 146.511C141.757 147.967 142.131 150.737 142.767 150.79L145.176 141.886C147.456 144.762 148.604 148.133 147.434 152.519C146.198 159.277 139.629 157.12 139.387 152.454Z" fill="#FFA88D"/>
<path d="M147.875 152.24C147.875 152.24 149.191 172.068 148.716 174.038C148.479 175.017 147.855 176.806 147.132 177.562C144.955 179.838 141.392 179.759 139.175 177.384C137.629 175.73 137.731 171.366 137.731 171.366L138.904 152.48L147.875 152.24Z" fill="#8ED182"/>
<path d="M138.206 163.735L142.235 166.759L138.112 165.218L138.206 163.735Z" fill="#6EB75C"/>
<path d="M138.789 154.095L138.788 154.645L148.033 154.956L148.033 154.406L138.789 154.095Z" fill="#62A851"/>
<path d="M261.065 113.162C264.334 113.245 266.992 110.483 266.971 107.025L266.942 102.059C266.922 98.6007 264.23 95.7035 260.962 95.6212C257.694 95.5383 254.992 90.8692 255.012 94.3272L255.043 99.3264C254.475 100.865 253.863 101.817 254.18 102.459C254.497 103.1 255.071 104.046 255.071 104.046C255.135 109.819 257.796 113.079 261.065 113.162Z" fill="#FFA88D"/>
<path d="M269.638 109.952C266.411 110.365 263.413 111.109 261.638 106.235C263.048 104.736 262.813 102.393 262.179 101.483C261.788 100.922 260.481 100.705 259.909 102.2C258.996 100.672 258.744 99.0381 258.686 97.3259C255.683 96.6097 253.461 95.3508 254.221 91.7116C255.658 87.3634 266.145 87.8002 269.516 95.2018C274.771 97.3245 271.697 104.146 269.638 109.952Z" fill="#273238"/>
<path d="M255.074 104.037L255.06 101.759L254.606 103.237L255.074 104.037Z" fill="#EA7759"/>
<path d="M255.071 104.046C255.993 104.218 255.83 106.317 256.283 106.442C256.921 106.617 258.436 103.287 258.697 100.589L259.888 104.536C259.888 104.536 260.881 112.369 260.97 113.159C257.316 113.708 254.359 111.414 255.071 104.046Z" fill="#273238"/>
<path d="M289.058 147.434L262.178 154.138L260.026 177.711C259.526 181.92 260.328 186.256 262.04 190.678L271.069 213.797L283.029 210.814L272.964 183.312L278.701 163.399L300.949 226.013L312.419 223.152L289.058 147.434Z" fill="#273238"/>
<path d="M292.07 153.512L285.352 119.075C284.302 112.86 278.543 110.936 273.888 112.097C271.972 112.575 264.91 114.336 264.91 114.336C261.473 115.255 254.846 117.096 249.94 116.729L254.716 127.57L261.469 155.951L292.07 153.512Z" fill="#FF7145"/>
<path d="M255.216 129.673L257.987 130.082L255.508 130.903L255.216 129.673Z" fill="#E55028"/>
<path d="M223.491 105.623C223.491 105.623 219.732 103.141 220.182 100.748C220.632 98.3556 223.651 96.0348 223.651 96.0348L221.987 92.6082C221.252 91.3136 222.794 90.2393 223.636 91.3991L230.211 102.665L223.491 105.623Z" fill="#FFA88D"/>
<path d="M237.813 115.796L237.813 115.793L260.742 117.561L260.743 117.566C262.898 117.746 264.933 119.184 265.901 121.478C267.276 124.735 265.986 128.472 263.019 129.825C261.969 130.304 260.851 130.413 259.782 130.219L259.78 130.223L236.786 127.412C236.48 127.4 236.176 127.366 235.877 127.301L235.875 127.3C234.147 126.92 232.585 125.661 231.793 123.786C230.524 120.778 231.715 117.328 234.455 116.078C235.547 115.581 236.717 115.514 237.813 115.796Z" fill="#FF7145"/>
<path d="M222.449 105.637C222.449 105.637 230.914 123.39 232.266 124.858C232.911 125.717 234.328 126.828 235.301 127.128C238.233 128.032 241.194 126.229 241.915 123.101C242.418 120.921 240.226 117.204 240.226 117.204L230.119 101.476L222.449 105.637Z" fill="#FF7145"/>
<path d="M239.397 115.915L237.858 119.012L240.912 116.032L239.397 115.915Z" fill="#E55028"/>
<path d="M231.183 103.06L223.397 107.272L223.645 107.765L231.431 103.552L231.183 103.06Z" fill="#E8551A"/>
</svg>
