<svg width="398" height="324" viewBox="0 0 398 324" fill="none" xmlns="http://www.w3.org/2000/svg">
<path d="M112.241 116.251C112.241 116.251 87.3606 105.62 71.3071 128.468C55.2577 151.317 56.0804 244.847 56.0804 244.847L94.1258 274.403C94.1258 274.403 100.976 254.076 106.904 233.535C110.629 220.6 123.4 201.215 121.346 180.476C119.295 159.735 127.596 151.567 110.558 141.635C104.444 138.07 101.059 149.785 101.029 145.764C100.984 140.097 107.318 126.828 112.241 116.251Z" fill="#DEA078"/>
<path d="M129.113 164.499C123.283 157.802 125.588 152.482 125.853 150.771L130 134.417C131.277 129.353 136.349 126.299 141.33 127.599L143.369 128.125C148.35 129.423 151.36 134.583 150.082 139.642L142.331 170.991C142.331 170.989 132.491 168.375 129.113 164.499Z" fill="#D29973"/>
<path d="M147.308 146.72C144.53 151.116 138.768 152.397 134.439 149.572L114.626 136.649C110.298 133.824 109.043 127.971 111.822 123.572L112.959 121.772C115.737 117.373 121.495 116.096 125.828 118.92L145.637 131.842C149.966 134.667 151.225 140.517 148.446 144.918L147.308 146.72Z" fill="#D29973"/>
<path d="M128.469 123.018C131.729 127.061 131.15 133.023 127.169 136.339L98.7782 159.962C94.8016 163.275 88.9305 162.681 85.6704 158.638L84.3323 156.986C81.0763 152.944 81.6601 146.982 85.6357 143.667L114.026 120.047C118.006 116.732 123.871 117.322 127.13 121.364L128.469 123.018Z" fill="#D29973"/>
<path d="M155.795 157.462C149.726 155.856 146.516 153.619 144.215 145.869L138.226 123.645C136.77 118.287 139.856 112.743 145.129 111.263L147.29 110.654C152.563 109.171 158.02 112.316 159.476 117.674L169.854 155.602C169.854 155.602 161.863 159.066 155.795 157.462Z" fill="#DEA078"/>
<path d="M158.63 126.203C156.992 132.047 151.003 135.438 145.252 133.774L118.928 126.165C113.181 124.499 109.841 118.413 111.48 112.573L112.15 110.181C113.784 104.335 119.777 100.943 125.527 102.609L151.849 110.22C157.6 111.882 160.935 117.969 159.297 123.813L158.63 126.203Z" fill="#DEA078"/>
<path d="M128.954 110.501C132.745 115.198 132.07 122.13 127.445 125.983L93.8 154.617C89.1753 158.467 82.3529 157.78 78.5621 153.085L77.0116 151.156C73.2177 146.459 73.8965 139.526 78.5202 135.677L112.165 107.042C116.79 103.189 123.613 103.875 127.403 108.575L128.954 110.501Z" fill="#DEA078"/>
<path d="M187.708 118.957C182.154 123.275 175.275 124.27 169.884 120.996L149.116 108.376C143.722 105.098 141.967 98.0032 145.193 92.5239L146.511 90.2805C149.733 84.8012 156.719 83.0162 162.11 86.2947L197.043 107.205C197.043 107.205 193.264 114.639 187.708 118.957Z" fill="#EAA87D"/>
<path d="M167.432 99.5099C167.099 105.886 161.743 110.78 155.47 110.44L126.761 108.897C120.487 108.555 115.666 103.116 116.004 96.7417L116.14 94.1281C116.47 87.7579 121.826 82.8625 128.1 83.2006L156.813 84.7491C163.086 85.0862 167.901 90.5271 167.571 96.9035L167.432 99.5099Z" fill="#EAA87D"/>
<path d="M137.601 90.2406C141.277 95.4192 140.129 102.639 135.039 106.379L87.8274 139.954C82.7361 143.692 75.626 142.525 71.9494 137.35L70.4449 135.231C66.7684 130.058 67.9126 122.832 73.0069 119.097L120.214 85.5184C125.304 81.7784 132.415 82.9452 136.096 88.1238L137.601 90.2406Z" fill="#EAA87D"/>
<path d="M177.287 78.0368C173.478 85.1704 166.754 89.4663 159.627 88.6023L132.184 85.27C125.05 84.4018 119.967 77.8304 120.819 70.591L121.164 67.6258C122.018 60.3844 128.484 55.2162 135.61 56.0802L181.634 61.3551C181.634 61.3551 181.105 70.898 177.287 78.0368Z" fill="#FAB589"/>
<path d="M147.22 67.3498C149.794 74.1577 146.451 81.7974 139.753 84.4141L109.091 96.3944C102.397 99.0111 94.8728 95.6165 92.2997 88.8107L91.2422 86.0217C88.668 79.2117 92.0077 71.5741 98.7137 68.9563L129.367 56.974C136.069 54.3583 143.59 57.756 146.163 64.5619L147.22 67.3498Z" fill="#FAB589"/>
<path d="M111.851 71.8065C118.06 75.4635 120.175 83.543 116.574 89.852L82.7318 147.229C79.1267 153.542 71.1745 155.689 64.9615 152.032L62.422 150.535C56.2131 146.876 54.0983 138.795 57.6993 132.487L91.5486 75.1099C95.1455 68.7987 103.098 66.6497 109.308 70.3047L111.851 71.8065Z" fill="#FAB589"/>
<path d="M100.889 116.446C100.889 116.446 76.0043 105.815 59.9549 128.666C43.8983 151.514 44.7241 245.042 44.7241 245.042L30.2139 289.55L83.285 308.032L94.1258 274.403C94.1258 274.403 100.346 251.237 106.278 230.696C110.004 217.761 119.841 208.78 115.391 182.597C115.391 182.597 105.9 166.918 97.7503 162.021C91.6812 158.375 76.2656 172.863 76.2309 168.842C76.1901 163.174 95.9569 127.022 100.889 116.446Z" fill="#FAB589"/>
<path d="M255.379 1.18438L67.5903 40.3179L114.953 274.988L302.742 235.854L255.379 1.18438Z" fill="white" stroke="#BCBEC0" stroke-width="2" stroke-miterlimit="10"/>
<path d="M242.059 21.6315L169.316 36.7905L175.329 66.5817L248.072 51.4227L242.059 21.6315Z" fill="#699F5B"/>
<path d="M250.174 61.8457L177.431 77.0049L178.387 81.7455L251.131 66.5863L250.174 61.8457Z" fill="#DCDDDE"/>
<path d="M251.993 70.8465L179.248 86.0059L180.205 90.7465L252.95 75.5871L251.993 70.8465Z" fill="#DCDDDE"/>
<path d="M253.816 79.8494L181.071 95.0088L182.028 99.7494L254.772 84.59L253.816 79.8494Z" fill="#DCDDDE"/>
<path d="M255.63 88.8596L182.887 104.019L183.843 108.756L256.586 93.5972L255.63 88.8596Z" fill="#DCDDDE"/>
<path d="M257.446 97.8661L184.704 113.025L185.661 117.766L258.403 102.607L257.446 97.8661Z" fill="#DCDDDE"/>
<path d="M259.854 109.787L187.111 124.946L188.577 132.208L261.32 117.049L259.854 109.787Z" fill="#7CB96A"/>
<path d="M262.178 121.322L189.434 136.481L190.391 141.223L263.135 126.064L262.178 121.322Z" fill="#DCDDDE"/>
<path d="M263.996 130.33L191.251 145.489L192.208 150.229L264.953 135.07L263.996 130.33Z" fill="#DCDDDE"/>
<path d="M265.813 139.33L193.071 154.489L194.028 159.229L266.77 144.071L265.813 139.33Z" fill="#DCDDDE"/>
<path d="M243.817 153.29L194.894 163.485L195.85 168.226L244.774 158.03L243.817 153.29Z" fill="#DCDDDE"/>
<path d="M269.24 156.255L196.499 171.413L197.946 178.58L270.686 163.421L269.24 156.255Z" fill="#7CB96A"/>
<path d="M271.293 166.473L198.548 181.633L199.505 186.373L272.249 171.214L271.293 166.473Z" fill="#DCDDDE"/>
<path d="M273.112 175.473L200.37 190.632L201.327 195.374L274.069 180.215L273.112 175.473Z" fill="#DCDDDE"/>
<path d="M263.575 186.84L202.197 199.637L203.154 204.378L264.532 191.581L263.575 186.84Z" fill="#DCDDDE"/>
<path d="M158.623 39.0256L93.8145 52.5312L110.157 133.504L174.966 119.999L158.623 39.0256Z" fill="#A6BC87"/>
<path d="M146.068 100.892L128.396 104.573L130.912 117.045L148.584 113.364L146.068 100.892Z" fill="#D09876"/>
<path d="M161.951 122.708L160.086 113.472C159.199 109.062 154.961 106.22 150.621 107.123L147.472 107.777L139.564 114.169L129.774 111.472L126.646 112.121C122.31 113.026 119.513 117.334 120.404 121.739L122.269 130.979L161.951 122.708Z" fill="#324345"/>
<path d="M130.121 115.262L129.799 111.461L139.564 114.169L130.121 115.262Z" fill="white"/>
<path d="M148.653 111.412L147.47 107.777L139.564 114.169L148.653 111.412Z" fill="white"/>
<path d="M146.39 68.6305C144.935 61.4274 137.365 59.3863 137.365 59.3863C137.365 59.3863 133.919 58.4601 128.541 59.5771C123.162 60.6983 120.342 62.9324 120.342 62.9324C120.342 62.9324 114.171 67.8412 115.627 75.0422C117.078 82.2453 118.049 92.1356 120.084 97.141C122.123 102.158 126.649 105.199 132.259 106.768C132.259 106.768 135.253 107.649 138.111 107.055C140.978 106.457 143.387 104.45 143.387 104.45C147.94 100.764 150.915 96.1536 150.851 90.7324C150.779 85.3142 147.842 75.8336 146.39 68.6305Z" fill="#DEA17D"/>
<path d="M118.219 63.4907C118.219 63.4907 114.293 67.3116 114.33 70.8857C114.368 74.4556 117.776 87.9583 117.776 87.9583C117.776 87.9583 118.973 87.1307 119.785 88.3514C120.599 89.5608 118.48 75.0996 118.944 71.7735C119.406 68.4421 125.57 68.5396 124.376 66.0172C123.185 63.4969 118.219 63.4907 118.219 63.4907Z" fill="#2C231A"/>
<path d="M139.514 59.0537C139.514 59.0537 144.612 60.9932 145.958 64.2914C147.307 67.5926 149.403 81.3661 149.403 81.3661C149.403 81.3661 147.986 81.0871 147.709 82.5298C147.432 83.9735 143.778 69.8308 142.062 66.9558C140.345 64.0787 134.724 66.6364 134.84 63.8402C134.962 61.043 139.514 59.0537 139.514 59.0537Z" fill="#2C231A"/>
<path d="M139.7 57.3879C136.004 57.6078 132.668 57.1006 128.877 57.0623C122.297 56.999 115.663 60.0825 115.827 66.4703C115.869 68.0821 117.775 67.4722 117.775 67.4722C121.027 67.8414 125.663 69.9044 128.161 71.9787C127.641 69.7042 126.307 68.6504 124.643 68.023C124.924 68.0852 125.205 68.1401 125.485 68.1962C127.809 69.0684 130.136 70.3244 131.663 71.5949C131.364 70.2829 130.787 69.3878 130.04 68.7355C130.934 68.7531 131.794 68.695 132.637 68.5675L132.632 68.5747C139.592 67.2783 142.711 64.2664 144.311 62.5696C148.667 57.9552 149.451 56.0562 149.155 54.5928C147.603 55.6164 141.152 57.3049 139.7 57.3879Z" fill="#2C231A"/>
<path d="M147.49 83.7856C147.49 83.7856 147.6 81.1916 149.404 81.3669C151.211 81.538 151.443 84.7833 151.398 86.2685C151.356 87.7454 150.723 88.7546 150.723 88.7546L147.49 83.7856Z" fill="#DEA17D"/>
<path d="M120.436 89.4239C120.436 89.4239 119.326 87.0841 117.729 87.9656C116.137 88.8483 117.183 91.9214 117.798 93.2655C118.408 94.6118 119.382 95.2859 119.382 95.2859L120.436 89.4239Z" fill="#DEA17D"/>
<path d="M126.358 144.32L112.915 147.123L115.908 161.949L129.352 159.146L126.358 144.32Z" fill="#FCDB2C"/>
<path d="M130.074 162.749L116.626 165.553L119.62 180.378L133.068 177.574L130.074 162.749Z" fill="#C74E4A"/>
<path d="M133.787 181.173L120.343 183.974L123.335 198.8L136.779 195.998L133.787 181.173Z" fill="#59B7B6"/>
<path d="M137.504 199.596L124.059 202.398L127.052 217.225L140.497 214.424L137.504 199.596Z" fill="#9FCC3F"/>
<path d="M183.261 132.722L129.487 143.928L130.025 146.593L183.799 135.387L183.261 132.722Z" fill="#DCDDDE"/>
<path d="M184.293 137.77L130.52 148.976L131.057 151.639L184.83 140.433L184.293 137.77Z" fill="#DCDDDE"/>
<path d="M163.491 147.379L131.545 154.037L132.082 156.697L164.028 150.039L163.491 147.379Z" fill="#DCDDDE"/>
<path d="M187.142 151.908L133.369 163.114L133.907 165.781L187.68 154.575L187.142 151.908Z" fill="#DCDDDE"/>
<path d="M188.704 159.644L134.923 170.848L134.39 168.183L188.162 156.978L188.704 159.644Z" fill="#DCDDDE"/>
<path d="M167.897 169.25L135.947 175.909L135.413 173.246L167.363 166.586L167.897 169.25Z" fill="#DCDDDE"/>
<path d="M190.858 170.338L137.083 181.544L137.62 184.208L191.395 173.002L190.858 170.338Z" fill="#DCDDDE"/>
<path d="M191.883 175.396L138.11 186.602L138.648 189.267L192.421 178.061L191.883 175.396Z" fill="#DCDDDE"/>
<path d="M171.087 185L139.139 191.657L139.676 194.319L171.624 187.661L171.087 185Z" fill="#DCDDDE"/>
<path d="M194.587 188.757L140.813 199.969L141.351 202.631L195.125 191.419L194.587 188.757Z" fill="#DCDDDE"/>
<path d="M195.594 193.829L141.821 205.035L142.359 207.699L196.131 196.493L195.594 193.829Z" fill="#DCDDDE"/>
<path d="M174.785 203.446L142.835 210.104L143.372 212.766L175.322 206.108L174.785 203.446Z" fill="#DCDDDE"/>
<path d="M248.168 201.857L148.31 222.667L149.556 228.841L249.414 208.031L248.168 201.857Z" fill="#7CB96A"/>
<path d="M286.33 204.838L118.028 239.911L118.963 244.54L287.264 209.467L286.33 204.838Z" fill="#DCDDDE"/>
<path d="M288.404 215.129L120.101 250.202L121.036 254.833L289.338 219.76L288.404 215.129Z" fill="#DCDDDE"/>
<path d="M211.573 241.856L122.187 260.483L123.121 265.111L212.507 246.484L211.573 241.856Z" fill="#DCDDDE"/>
<path d="M151.261 129.923C150.014 143.425 141.83 146.341 139.689 147.818L117.575 160.105C110.741 163.915 102.155 161.378 98.4065 154.43L96.8713 151.584C93.1152 144.636 95.6169 135.916 102.455 132.104L144.639 108.333C144.639 108.333 151.985 122.104 151.261 129.923Z" fill="#FAB589"/>
<path d="M119.887 134.549C126.33 139.01 126.547 151.014 122.154 157.562C122.154 157.562 112.715 165.186 116.23 188.923C118.057 201.298 113.235 217.519 106.992 228.458C102.906 235.622 88.3053 191.303 83.8775 188.235L81.239 186.41C74.7913 181.944 73.1276 173.019 77.5206 166.469L97.6253 136.495C102.018 129.95 110.805 128.258 117.249 132.721L119.887 134.549Z" fill="#FAB589"/>
<path d="M35.0293 242.864L28.3486 264.569L100.15 287.388L106.83 265.683L35.0293 242.864Z" fill="white"/>
<path d="M78.8202 356.397L100.154 287.383L28.3529 264.566L0 356.397H78.8202Z" fill="#1C0C1B"/>
<path d="M397.418 356.397L354.365 216.944L297.158 246.28L330.197 356.397H397.418Z" fill="#1C0C1B"/>
<path d="M267.729 113.52C267.729 113.52 286.287 101.185 302.582 117.231C318.885 133.283 331.853 208.978 331.853 208.978L305.414 238.588C305.414 238.588 296.923 223.197 289.134 207.488C284.236 197.598 271.098 183.856 269.733 166.788C268.365 149.719 260.47 144.369 272.788 133.781C277.212 129.978 281.647 138.94 281.09 135.682C280.303 131.096 273.252 121.326 267.729 113.52Z" fill="#DEA078"/>
<path d="M261.13 155.045C264.867 148.757 262.225 144.809 261.763 143.465L256.028 130.872C254.258 126.97 249.713 125.268 245.88 127.065L244.307 127.8C240.467 129.598 238.792 134.217 240.558 138.117L251.395 162.28C251.395 162.28 258.965 158.691 261.13 155.045Z" fill="#D29973"/>
<path d="M243.837 143.418C246.722 146.557 251.562 146.719 254.647 143.786L268.775 130.363C271.86 127.43 272.023 122.513 269.139 119.378L267.956 118.093C265.068 114.96 260.227 114.792 257.146 117.722L243.014 131.145C239.929 134.08 239.77 139 242.654 142.136L243.837 143.418Z" fill="#D29973"/>
<path d="M255.603 121.436C253.56 125.191 254.898 129.921 258.59 132.001L284.976 146.813C288.675 148.893 293.334 147.533 295.377 143.774L296.215 142.237C298.258 138.479 296.923 133.746 293.228 131.671L266.839 116.857C263.143 114.778 258.489 116.137 256.441 119.896L255.603 121.436Z" fill="#D29973"/>
<path d="M238.546 153.375C243.212 151.166 245.482 148.873 246.21 142.263L247.814 123.407C248.208 118.859 244.907 114.844 240.43 114.441L238.595 114.274C234.122 113.876 230.168 117.232 229.771 121.779L226.909 153.992C226.909 153.992 233.876 155.586 238.546 153.375Z" fill="#DEA078"/>
<path d="M231.7 128.546C233.872 133.017 239.205 134.86 243.606 132.648L263.768 122.539C268.176 120.328 269.985 114.907 267.809 110.434L266.918 108.604C264.742 104.127 259.417 102.291 255.008 104.5L234.847 114.609C230.445 116.819 228.631 122.24 230.81 126.711L231.7 128.546Z" fill="#DEA078"/>
<path d="M253.386 111.389C251.009 115.756 252.563 121.258 256.865 123.672L288.224 141.747C292.522 144.164 297.932 142.581 300.312 138.217L301.283 136.424C303.663 132.059 302.106 126.559 297.81 124.145L266.447 106.069C262.149 103.653 256.737 105.231 254.359 109.6L253.386 111.389Z" fill="#DEA078"/>
<path d="M207.145 127.064C212.262 129.718 217.967 129.489 221.845 126.028L236.787 112.705C240.669 109.248 241.048 103.251 237.652 99.309L236.253 97.691C232.853 93.755 226.948 93.3598 223.066 96.8187L197.893 118.97C197.893 118.97 202.027 124.412 207.145 127.064Z" fill="#EAA87D"/>
<path d="M220.696 108.301C221.893 113.401 226.935 116.55 231.954 115.334L254.925 109.761C259.951 108.545 263.044 103.425 261.85 98.3229L261.361 96.2351C260.16 91.1353 255.119 87.9865 250.103 89.2L227.125 94.7737C222.106 95.9892 219.01 101.108 220.204 106.214L220.696 108.301Z" fill="#EAA87D"/>
<path d="M243.45 96.3211C241.229 101.057 243.216 106.723 247.874 108.978L290.912 129C295.57 131.254 301.146 129.245 303.36 124.507L304.27 122.569C306.488 117.836 304.504 112.168 299.846 109.915L256.808 89.8907C252.15 87.6359 246.574 89.648 244.357 94.3836L243.45 96.3211Z" fill="#EAA87D"/>
<path d="M238.193 130.44C241.168 141.166 248.208 142.29 250.148 143.159L269.81 149.763C275.89 151.811 282.459 148.466 284.479 142.289L285.302 139.756C287.323 133.58 284.028 126.909 277.952 124.858L240.399 111.998C240.399 111.998 236.465 124.232 238.193 130.44Z" fill="#FAB589"/>
<path d="M264.222 129.457C259.663 134.036 261.239 143.764 265.739 148.396C265.739 148.396 274.476 153.136 275.102 172.843C275.42 183.117 281.687 195.499 288.327 203.397C292.675 208.572 298.012 170.564 301.143 167.42L303.008 165.544C307.564 160.968 307.609 153.504 303.107 148.876L282.494 127.683C277.986 123.051 270.645 123.008 266.084 127.584L264.222 129.457Z" fill="#FAB589"/>
<path d="M279.396 109.299C279.396 109.299 294.997 89.0123 311.358 109.921C325.486 127.976 341.053 207.43 341.053 207.43L305.415 238.588C305.415 238.588 297.011 220.805 289.229 205.096C284.332 195.209 275.079 189.433 274.856 167.608C274.856 167.608 280.246 153.509 286.11 148.326C290.481 144.467 305.047 153.851 304.491 150.601C303.701 146.011 284.919 117.103 279.396 109.299Z" fill="#FAB589"/>
<path d="M242.041 36.9106L310.68 109.081L289.843 125.039C289.24 123.798 282.88 114.358 272.729 102.493C255.964 82.8983 248.875 75.0812 238.152 64.4721C224.032 50.4902 242.041 36.9106 242.041 36.9106Z" fill="#FAB589"/>
<path d="M345.784 199.677L288.573 229.011L297.162 246.306L354.373 216.972L345.784 199.677Z" fill="white"/>
</svg>
