<svg width="369" height="227" viewBox="0 0 369 227" fill="none" xmlns="http://www.w3.org/2000/svg">
<path opacity="0.11" d="M334.644 154.302C328.569 154.215 322.344 154.527 316.21 154.465C295.797 154.261 275.384 154.056 254.97 153.852C229.006 153.591 203.042 153.331 177.078 153.071C154.757 152.847 132.436 152.623 110.116 152.399C100.631 152.304 91.148 152.209 81.664 152.114C79.1586 152.089 73.696 149.851 73.1971 147.221C72.6337 144.25 77.4802 143.145 79.9563 143.074C128.736 141.672 177.534 143.382 226.303 144.466C245.918 144.901 265.539 144.73 285.156 144.653C294.956 144.614 304.756 144.597 314.556 144.694C323.474 144.78 332.227 143.868 340.719 146.602C342.547 147.19 344.568 148.099 345.022 149.806C345.411 151.265 344.402 152.809 342.981 153.578C341.559 154.347 339.824 154.479 338.168 154.405C337.001 154.351 335.825 154.319 334.644 154.302Z" fill="#1C0C00"/>
<path opacity="0.12" d="M101.468 175.096C99.4413 175.056 97.3625 175.319 95.3163 175.298C88.5058 175.23 81.6953 175.162 74.8849 175.093C66.2226 175.006 57.5604 174.92 48.8981 174.833C41.4512 174.758 34.0043 174.683 26.5573 174.609C23.3933 174.577 20.2293 174.545 17.0653 174.514C16.2298 174.505 14.4164 172.828 14.2613 170.83C14.086 168.574 15.7082 167.713 16.5341 167.648C32.8162 166.374 49.0918 167.465 65.3601 168.08C71.903 168.327 78.4505 168.113 84.9968 167.97C88.2668 167.899 91.5372 167.845 94.8067 167.876C97.782 167.904 100.707 167.173 103.529 169.214C104.136 169.653 104.807 170.337 104.951 171.632C105.075 172.739 104.731 173.917 104.254 174.508C103.776 175.099 103.197 175.207 102.644 175.157C102.254 175.123 101.862 175.104 101.468 175.096Z" fill="#1C0C00"/>
<path d="M338.024 143.899L181.8 142.333L182.539 68.5667C182.573 65.1859 185.629 62.4759 189.365 62.5133L261.154 63.2331C262.942 63.251 264.665 62.6272 265.943 61.4989L272.956 55.3106C274.235 54.1817 275.957 53.5585 277.745 53.5764L332.159 54.122C335.895 54.1594 338.896 56.9301 338.862 60.311L338.024 143.899Z" fill="#006C80"/>
<path d="M338.725 73.9858L182.635 72.4209L181.868 148.86L337.959 150.424L338.725 73.9858Z" fill="#5B8CA8"/>
<path d="M55.6678 172.024L23.182 171.698L24.7956 10.7508C24.8072 9.58553 25.8603 8.65158 27.1481 8.66449L54.9712 8.94343C56.2589 8.95634 57.2931 9.91122 57.2814 11.0765L55.6678 172.024Z" fill="#D6A447"/>
<path d="M51.4499 32.2208C53.9331 26.9365 51.2084 20.8223 45.3639 18.5645C39.5194 16.3066 32.7685 18.7602 30.2852 24.0446C27.802 29.3289 30.5267 35.4431 36.3712 37.7009C42.2157 39.9588 48.9666 37.5052 51.4499 32.2208Z" fill="white"/>
<path d="M85.5311 172.324L55.4296 172.022L57.1313 2.2879C57.1409 1.32851 58.0082 0.559398 59.0684 0.570027L85.33 0.833315C86.3901 0.843944 87.2418 1.63029 87.2322 2.58967L85.5305 172.324L85.5311 172.324Z" fill="#993333"/>
<path d="M79.9767 35.8835C84.5073 31.8655 84.5733 25.278 80.1242 21.17C75.675 17.062 68.3955 16.989 63.8649 21.007C59.3342 25.025 59.2682 31.6124 63.7173 35.7205C68.1665 39.8285 75.446 39.9015 79.9767 35.8835Z" fill="white"/>
<path d="M120.501 172.674L85.2945 172.321L86.9529 6.90361C86.964 5.7992 87.9624 4.91373 89.1834 4.92597L119.969 5.23462C121.19 5.24685 122.171 6.15217 122.16 7.25657L120.501 172.674L120.501 172.674Z" fill="#74ADC5"/>
<path d="M115.472 31.3656C117.042 25.8008 113.328 20.1286 107.175 18.6963C101.023 17.2641 94.7622 20.6142 93.1918 26.179C91.6215 31.7437 95.336 37.4159 101.488 38.8482C107.641 40.2804 113.902 36.9304 115.472 31.3656Z" fill="white"/>
<path opacity="0.12" d="M270.984 185.597C270.021 186.988 272.778 187.841 273.89 188.021C278.042 188.694 282.261 189.02 286.478 188.997C289.206 188.982 291.926 188.695 294.636 188.447C295.439 188.373 296.263 188.294 296.979 187.958C297.694 187.623 298.286 186.966 298.254 186.237C298.227 185.613 297.75 185.062 297.163 184.734C296.576 184.406 295.888 184.266 295.211 184.148C288.084 182.909 280.735 183.582 273.554 184.499C272.706 184.607 271.786 184.752 271.212 185.327C271.121 185.419 271.045 185.509 270.984 185.597Z" fill="#1C0C00"/>
<path opacity="0.12" d="M263.659 222.226C262.34 223.66 266.132 224.551 267.661 224.741C273.368 225.45 279.168 225.801 284.962 225.792C288.711 225.785 292.447 225.499 296.171 225.251C297.274 225.178 298.406 225.099 299.388 224.754C300.37 224.41 301.181 223.734 301.135 222.98C301.095 222.336 300.439 221.764 299.631 221.423C298.823 221.082 297.877 220.935 296.946 220.811C287.149 219.506 277.053 220.177 267.188 221.1C266.023 221.209 264.76 221.356 263.973 221.948C263.846 222.042 263.742 222.136 263.659 222.226Z" fill="#1C0C00"/>
<path opacity="0.12" d="M206.226 205.321C204.151 206.687 210.148 207.564 212.566 207.755C221.591 208.471 230.758 208.843 239.914 208.87C245.839 208.888 251.742 208.636 257.625 208.422C259.367 208.359 261.156 208.29 262.706 207.966C264.256 207.642 265.533 206.999 265.455 206.276C265.388 205.659 264.347 205.106 263.069 204.775C261.79 204.443 260.294 204.296 258.822 204.171C243.33 202.86 227.379 203.44 211.795 204.263C209.955 204.36 207.959 204.492 206.72 205.055C206.522 205.145 206.358 205.234 206.226 205.321Z" fill="#1C0C00"/>
<path opacity="0.12" d="M307.127 219.165C305.052 220.531 311.049 221.408 313.466 221.599C322.491 222.315 331.658 222.688 340.814 222.714C346.739 222.732 352.642 222.48 358.526 222.266C360.267 222.203 362.056 222.134 363.606 221.81C365.156 221.486 366.433 220.843 366.355 220.12C366.288 219.503 365.247 218.951 363.969 218.619C362.69 218.287 361.194 218.14 359.722 218.016C344.23 216.704 328.279 217.284 312.695 218.107C310.855 218.204 308.859 218.337 307.62 218.899C307.422 218.99 307.258 219.078 307.127 219.165Z" fill="#1C0C00"/>
<path opacity="0.12" d="M0.672016 198.447C-1.40294 199.814 4.5941 200.691 7.01162 200.882C16.0366 201.598 25.2036 201.97 34.3598 201.997C40.2844 202.015 46.1878 201.763 52.0709 201.549C53.8128 201.486 55.6022 201.417 57.1516 201.093C58.7017 200.769 59.9783 200.126 59.9006 199.403C59.8343 198.786 58.7933 198.233 57.5144 197.901C56.2356 197.57 54.7393 197.423 53.2674 197.298C37.7754 195.987 21.8254 196.567 6.24073 197.389C4.40036 197.487 2.4045 197.619 1.16575 198.182C0.966929 198.273 0.803494 198.361 0.672016 198.447Z" fill="#1C0C00"/>
<path opacity="0.12" d="M24.6399 213.391C24.2796 214.746 27.236 215.226 28.3306 215.274C30.5962 215.374 32.8739 215.236 35.1368 215.377C41.7294 215.789 48.332 216.056 54.9366 216.236C70.6033 216.664 86.2783 216.615 101.948 216.51C109.618 216.459 117.267 216.29 124.902 216.738C132.738 217.199 140.651 217.234 148.412 216.045C149.106 215.939 149.835 215.807 150.361 215.384C150.886 214.96 151.092 214.146 150.601 213.688C150.315 213.423 149.886 213.344 149.484 213.278C144.947 212.535 140.181 212.446 135.555 212.245C103.386 210.822 71.1615 211.109 38.9764 211.683C35.1423 211.751 31.1612 211.19 27.37 211.706C26.6401 211.806 25.872 211.959 25.3437 212.426C24.934 212.789 24.7152 213.109 24.6399 213.391Z" fill="#1C0C00"/>
<path d="M331.405 73.6118C332.797 70.9284 333.056 67.3305 332.231 65.137C330.944 61.7186 326.796 59.7772 322.825 59.439C318.853 59.1009 314.902 60.0037 310.95 60.4875C304.436 61.2851 297.122 60.3803 296.44 53.2432C295.836 46.9109 307.701 32.0358 295.868 29.5425C294.17 29.1848 288.033 29.3989 286.296 29.5441C285.731 29.5911 285.166 29.653 284.606 29.7217C274.459 30.9624 264.659 34.3986 256.217 39.627C243.432 47.5448 235.134 57.8358 225.163 68.2158C224.131 69.2898 221.912 70.8067 220.119 72.4955L331.405 73.6112L331.405 73.6118Z" fill="#C5C5C5"/>
<path d="M148.079 28.7313C142.866 28.679 127.469 35.7871 123.293 38.4508C116.889 42.5362 111.081 47.3787 106.017 52.787C95.1109 64.435 89.0472 77.6676 85.5816 92.4066C81.1313 111.333 85.2059 130.909 81.3279 149.927C77.4829 168.782 55.0672 182.342 42.5665 191.691L189.413 193.164C202.718 186.479 216.994 176.998 224.166 157.089C230.018 140.846 224.796 119.018 226.979 102.298C230.802 73.0243 251.676 42.173 281.128 32.027C283.352 31.2606 285.735 30.6032 287.983 30.1349C287.983 30.1339 148.088 28.7314 148.079 28.7313Z" fill="#ECECEC"/>
<path d="M36.8052 194.019L35.1667 179.387L45.0771 178.257L44.631 194.023L36.8052 194.019Z" fill="#FCCFD0"/>
<path d="M35.721 197.931C35.7706 196.852 35.2621 192.908 36.5154 192.31C36.6925 192.226 36.8937 192.187 37.0925 192.151C39.6872 191.678 42.361 191.512 45.0123 191.658C45.616 194.357 48.7785 193.972 51.537 194.739C52.471 194.998 53.4213 195.265 54.2178 195.753C55.4094 196.484 56.1392 197.645 56.5841 198.831" fill="#1C0C00"/>
<path d="M46.0849 174.706C46.3203 181.491 46.3794 187.204 45.9053 187.271C42.4429 187.76 38.98 188.248 35.5176 188.737C31.9068 178.829 30.0318 174.239 30.0839 163.813C30.132 154.241 29.6188 144.265 27.2521 134.853C26.0888 130.226 24.5977 125.632 24.0185 120.945C23.4603 116.429 25.7101 110.77 31.9258 111.113C34.3285 111.245 36.4857 112.488 38.324 113.897C39.8104 115.036 41.2081 116.363 41.8828 118.016C42.3259 119.101 42.4328 120.271 42.5336 121.424C43.6118 133.746 44.4292 146.087 44.9841 158.437C45.062 160.166 45.7654 165.499 46.0849 174.706Z" fill="#1C0C00"/>
<path d="M4.46179 191.035L7.12346 176.262L16.9634 176.816L11.9732 192.362L4.46179 191.035Z" fill="#FCCFD0"/>
<path d="M42.2827 119.202C42.1363 109.28 27.7921 106.418 20.9395 113.107C18.9443 115.055 17.8781 117.576 17.6511 120.131C17.3817 123.166 18.9819 125.811 19.1705 128.839C19.3936 132.415 18.6191 135.996 17.6702 139.448C15.1822 148.501 11.1102 157.065 8.3978 166.031C5.72907 174.853 4.42731 178.572 4.44503 187.329C7.9961 187.553 11.5313 187.998 15.0698 188.39C17.0926 185.34 20.6327 176.873 21.1342 175.724C22.9451 171.567 34.9674 148.379 38.6944 137.817C40.8377 131.74 42.3763 125.565 42.2827 119.202Z" fill="#993333"/>
<path d="M35.3824 69.1312C35.3963 70.5305 35.4108 71.9299 35.4253 73.3293C35.4586 76.6044 32.3929 78.4865 28.926 76.9823C27.8453 76.5136 26.9593 75.7461 26.1597 74.938C25.9192 74.6951 25.6788 74.4377 25.5736 74.126C25.4528 73.7686 25.524 73.3833 25.6166 73.0193C25.8999 71.9027 26.3721 70.8246 26.55 69.6898C26.7578 68.3649 26.5563 67.0169 26.334 65.6928C25.7274 62.0821 22.8093 57.0325 26.528 54.3033C27.7714 53.3903 29.302 52.8426 30.8629 52.5161C31.746 52.3314 32.6637 52.2131 33.559 52.3449C35.9954 52.7043 37.0605 52.6195 37.9379 54.7083C38.8459 56.8696 39.2949 63.6788 36.608 64.8766C36.3473 64.9927 36.0641 65.0812 35.8467 65.2561C35.3821 65.6297 35.3535 66.2663 35.3593 66.8295C35.367 67.5971 35.3747 68.3641 35.3824 69.1312Z" fill="#FCCFD0"/>
<path d="M18.779 111.486C18.5202 112.262 18.2121 113.015 17.8502 113.732C19.1794 115.239 21.4214 115.361 23.4134 115.662C29.714 116.696 37.1381 117.522 43.2228 115.679C43.3556 115.639 43.4975 115.593 43.5778 115.489C43.6604 115.381 43.6561 115.239 43.6483 115.108C43.2756 109.045 41.7817 103.087 41.3896 97.0257C41.0296 91.4623 41.5897 85.9423 41.2994 80.3719C41.2596 79.6128 41.1875 78.8466 41.0622 78.0892C40.7649 76.2845 40.171 74.5304 39.0224 73.0464C36.9728 70.3987 33.1535 69.1171 29.6694 69.5518C25.5343 70.0683 23.3703 72.6288 21.8102 75.953C18.8222 82.3189 19.2919 88.7747 19.359 95.4453C19.3893 98.4567 19.8338 101.452 19.8504 104.463C19.8615 106.76 19.5335 109.219 18.779 111.486Z" fill="#74ADC5"/>
<path d="M24.3491 57.8509C24.2874 57.1143 24.2268 56.3937 24.1223 55.7217C24.0768 55.4296 24.0337 55.1216 24.1567 54.8487C24.2856 54.5636 24.5745 54.3678 24.8501 54.1868C25.7894 53.5696 26.7292 52.952 27.6691 52.3348C28.1887 51.9932 28.718 51.647 29.324 51.4544C31.0256 50.9119 32.8745 51.6752 34.6792 51.7171C35.9902 51.7478 37.5653 51.4838 38.391 52.4067C38.6324 52.6765 38.762 53.0112 38.8847 53.3396C39.0475 53.7758 39.207 54.2476 39.0606 54.688C38.8571 55.2991 38.1041 55.6482 37.3986 55.654C36.1836 55.664 34.9251 54.2697 34.3923 55.8185C34.0633 56.7741 33.1269 57.0496 32.7275 57.9117C32.4081 58.6011 32.7302 59.4648 32.5296 60.1869C32.3178 60.9486 31.6181 61.2193 31.1396 61.7915C30.7672 62.2363 30.6517 62.7745 30.2609 63.1892C29.4457 64.0538 27.9475 64.2204 26.7753 64.0528C26.5333 64.0184 26.2868 63.9715 26.0821 63.8497C25.844 63.708 25.6877 63.4798 25.5554 63.2514C24.6658 61.7008 24.5054 59.7229 24.3491 57.8509Z" fill="#1C0C00"/>
<path d="M31.3995 58.1358C30.8085 58.1516 30.2599 58.4785 29.9326 58.9232C29.6059 59.3684 29.4835 59.9179 29.4987 60.4528C29.5123 60.9143 29.6285 61.3831 29.9081 61.7694C30.1877 62.1557 30.6462 62.4503 31.1539 62.4926C31.9768 62.5607 32.725 61.9458 32.9734 61.2329C33.3428 60.1765 33.0403 58.0924 31.3995 58.1358Z" fill="#FCCFD0"/>
<path d="M36.2275 91.4506C35.4692 92.498 35.2651 94.1403 35.9888 95.0606C37.1523 96.5412 40.6488 96.5143 42.2498 95.7211C42.9485 95.3751 43.3775 94.6841 43.5238 93.9754C43.67 93.2667 43.5679 92.5353 43.4221 91.8257C43.2666 91.0686 42.9405 90.1972 42.1266 89.9728C41.8382 89.8935 41.5295 89.9115 41.2293 89.9343C40.4758 89.9913 39.7244 90.072 38.9774 90.176C38.2931 90.2714 37.5927 90.3923 37.0075 90.7271C36.7081 90.8991 36.4449 91.1504 36.2275 91.4506Z" fill="#DBBDBD"/>
<path d="M31.6895 59.3142C31.327 59.2858 31.0024 59.523 30.7899 59.7893C30.5981 60.0294 30.4583 60.3155 30.4685 60.6113C30.4786 60.9077 30.6644 61.21 30.969 61.3183" fill="#1C0C00"/>
<path d="M55.3618 94.0846C55.0144 94.1477 54.6644 94.1881 54.3243 94.2074C48.8172 94.5232 43.6388 91.9774 38.9548 89.3276C35.5945 87.4265 32.1444 85.2707 30.4527 82.0284C29.1584 79.5478 28.6258 73.9017 32.7983 73.6927C35.7816 73.5441 38.5692 75.4548 40.9164 76.908C43.9167 78.7657 46.5958 81.0228 49.5926 82.8851C52.6234 84.7684 56.1026 86.3609 57.9875 89.2175C58.4971 89.9896 58.8781 90.8987 58.6674 91.7761C58.3507 93.0947 56.8829 93.8082 55.3618 94.0846Z" fill="#FCCFD0"/>
<path d="M50.9947 91.6989C54.3718 94.987 61.1526 93.7585 59.8279 88.4936C59.0765 85.5069 57.5295 82.6775 55.7131 80.1008C54.8516 78.8788 53.9005 77.7105 52.9501 76.5433C51.7517 75.0717 50.5533 73.6001 49.3549 72.1285C48.3261 70.865 47.2979 69.602 46.2248 68.3691C45.3514 67.3652 44.4374 66.3718 43.3107 65.6023C42.0152 64.7171 40.8302 64.4657 39.3301 64.0791C37.6592 63.6489 36.1648 64.6811 36.148 66.185C36.1438 66.5503 36.1402 66.9152 36.1359 67.2806C36.1321 67.663 36.1288 68.0511 36.2449 68.4187C36.4118 68.9458 36.8316 69.4037 37.3738 69.6491C37.5827 69.7436 37.8279 69.808 38.0476 69.7374C38.3263 69.6483 38.4786 69.3619 38.479 69.0945C38.4794 68.8272 38.3605 68.5721 38.2432 68.3262C39.2292 68.796 40.3321 68.4618 41.1523 69.207C41.8763 69.8646 42.1306 70.8364 42.418 71.6971C43.4751 74.8633 44.3119 78.034 45.4079 81.1882C46.6636 84.7967 48.0852 88.8662 50.9947 91.6989Z" fill="#FCCFD0"/>
<path d="M29.6942 90.1643C30.1887 89.9902 34.3023 88.7174 34.7958 88.5401C39.5749 86.8198 40.8176 82.1045 44.1446 78.3448C44.0383 78.4176 39.4991 73.7842 39.1748 73.3092C37.941 71.5028 36.4237 70.719 34.215 70.0048C32.0058 69.2905 30.4319 70.5144 28.7714 72.009C25.8298 74.6577 26.7437 79.4204 27.2139 82.7511C27.4062 84.112 28.1231 85.5308 28.623 86.8153C28.8232 87.3298 29.2303 89.049 29.6942 90.1643Z" fill="#74ADC5"/>
<path d="M34.2566 64.7007C33.9153 64.4944 33.6427 64.2119 33.3861 63.9198C33.3584 63.951 33.3313 63.9822 33.3042 64.0139C33.2747 64.0477 33.4088 64.3267 33.4266 64.3734C33.4738 64.4987 33.5251 64.6226 33.5803 64.745C33.6735 64.9503 33.7689 65.1639 33.889 65.3581C34.0518 65.6214 34.2741 65.8544 34.5381 66.0387C34.8054 66.2256 35.127 66.3434 35.3782 66.5514C35.3806 66.3166 35.4325 66.0802 35.4947 65.8553C35.5243 65.7492 35.5743 65.6501 35.6334 65.5563C35.7143 65.3991 35.8235 65.2593 35.9688 65.1607C35.3735 65.0866 34.7691 65.0108 34.2566 64.7007Z" fill="#050504"/>
<path d="M2.81193 197.594C2.91428 196.487 2.61589 192.457 3.87078 191.821C4.04792 191.732 4.24684 191.688 4.44288 191.647C7.00285 191.113 9.62357 190.891 12.2074 190.99C12.6623 193.743 15.7719 193.287 18.4293 194.02C19.3285 194.268 20.2442 194.523 20.9979 195.008C22.1257 195.733 22.7806 196.908 23.1558 198.114" fill="#1C0C00"/>
<path d="M36.2588 65.0913C36.8513 64.8779 37.3963 64.5577 37.8526 64.1555" stroke="black" stroke-miterlimit="10"/>
<path d="M26.7259 78.856C28.9604 80.578 29.7252 83.366 31.3422 85.582C32.3358 86.9432 33.6499 88.0836 34.9532 89.2115C35.7187 88.8656 36.3311 88.2524 36.635 87.5287" stroke="black" stroke-width="0.75" stroke-miterlimit="10"/>
<path d="M36.5052 61.6152C36.9475 61.8695 37.4396 62.0514 37.9519 62.15" stroke="black" stroke-miterlimit="10"/>
<path d="M44.9168 79.5205C47.4847 82.178 50.3464 84.6031 53.4441 86.7487" stroke="black" stroke-width="0.75" stroke-miterlimit="10"/>
<path d="M282.463 165.57C281.904 163.533 281.149 161.398 281.8 159.386C282.587 156.954 284.368 155.056 284.23 152.391C284.087 149.624 282.791 147.893 284.847 145.239C286.361 143.285 288.571 141.79 289.796 139.677C291.575 136.605 290.949 132.831 292.173 129.544C292.494 128.681 293.047 127.772 294.012 127.515C294.631 127.351 295.315 127.497 295.862 127.807C297.664 128.828 297.799 131.137 297.521 133.043C297.121 135.787 296.537 139.274 295.155 141.768C294.128 143.619 291.67 144.925 291.161 147.01C290.623 149.214 292.599 151.492 291.935 153.668C291.284 155.804 288.757 156.331 287.518 158.003C286.12 159.891 286.282 162.073 286.595 164.33C286.834 166.051 287.092 167.856 286.397 169.47C286.036 170.308 283.1 173.181 282.097 171.663C281.978 171.483 282.891 169.372 282.922 168.972C283.011 167.834 282.764 166.668 282.463 165.57Z" fill="#D6A447"/>
<path d="M280.13 167.995C280.13 167.951 280.13 167.907 280.127 167.864C280.066 166.525 279.044 165.382 277.942 164.486C276.113 163.001 274.401 159.167 274.101 156.944C273.894 155.416 274.197 153.866 274.084 152.33C273.909 149.957 272.76 147.744 271.999 145.465C271.298 143.365 270.923 141.176 270.888 138.984C270.874 138.117 271.006 137.098 271.835 136.664C272.515 136.307 273.428 136.529 274.003 137.016C274.578 137.502 274.879 138.195 275.099 138.879C276.194 142.281 275.731 146.041 277.318 149.282C278.043 150.76 279.184 152.103 279.5 153.694C279.843 155.425 279.16 157.238 279.618 158.947C280.386 161.81 283.454 163.46 283.676 166.551C283.701 166.899 283.697 167.253 283.801 167.588C283.963 168.104 284.364 168.525 284.686 168.976C285.521 170.147 286.845 172.717 285.459 173.721C282.931 175.555 280.022 171.589 279.995 169.65C279.987 169.096 280.131 168.547 280.13 167.995Z" fill="#1C0C00"/>
<path d="M288.028 164.184C288.285 163.419 288.551 162.638 289.068 161.99C290.026 160.791 291.786 160.115 292.297 158.709C292.509 158.126 292.468 157.497 292.557 156.889C292.716 155.806 293.329 154.756 294.33 154.146C295.33 153.536 296.725 153.433 297.752 154.009C299.081 154.755 299.473 156.317 299.712 157.716C300.456 162.062 300.809 166.768 298.437 170.601C298.328 170.777 298.206 170.958 298.015 171.062C297.468 171.358 296.801 170.859 296.507 170.347C295.095 167.88 296.922 164.653 295.53 162.177C295.42 161.982 295.254 161.773 295.011 161.76C294.819 161.751 294.65 161.872 294.521 162.001C293.795 162.724 293.696 163.831 292.976 164.559C292.327 165.217 291.282 165.454 290.608 166.09C290.045 166.621 289.809 167.361 289.592 168.071C289.2 169.351 288.738 174.496 286.663 172.242C284.851 170.271 287.349 166.203 288.028 164.184Z" fill="#006C80"/>
<path d="M284.491 186.954L284.198 186.951C280.113 186.91 276.696 184.118 276.236 180.444L275.043 170.92L293.78 171.108L292.599 180.48C292.13 184.201 288.63 186.996 284.491 186.954Z" fill="#FF6161"/>
<path d="M289.602 174.032C288.638 174.297 287.671 174.552 286.702 174.801C286.191 174.951 285.679 175.102 285.166 175.249C287.08 174.815 288.993 174.377 290.898 173.916C291.555 173.747 292.212 173.581 292.867 173.409C292.765 173.426 292.663 173.444 292.562 173.462C291.574 173.645 290.587 173.836 289.602 174.032Z" fill="#1C0C03"/>
<path d="M275.723 176.352C276.378 176.179 277.033 176.005 277.689 175.838C277.033 175.994 276.375 176.142 275.715 176.284L275.723 176.352Z" fill="#1C0C03"/>
<path d="M276.22 174.44C279.73 173.486 283.272 172.59 286.844 171.816C287.821 171.563 288.8 171.314 289.779 171.067L275.043 170.919L275.509 174.638C275.746 174.573 275.983 174.505 276.22 174.44Z" fill="#1C0C03"/>
<path d="M293.366 171.103C291.25 171.458 289.146 171.865 287.053 172.317C286.443 172.475 285.833 172.632 285.223 172.792C288.051 172.263 290.902 171.819 293.748 171.359L293.78 171.108L293.366 171.103L293.366 171.103Z" fill="#1C0C03"/>
<path d="M294.117 168.058L274.991 167.866C274.823 167.865 274.661 167.879 274.503 167.902L274.463 171.89C274.621 171.916 274.783 171.934 274.95 171.936L294.077 172.128C294.396 172.131 294.702 172.085 294.987 172L295.025 168.204C294.745 168.114 294.44 168.061 294.117 168.058Z" fill="#993333"/>
<path d="M145.448 214.149L156.198 211.829L145.243 209.086L145.448 214.149Z" fill="black"/>
<path d="M145.499 209L29.8826 207.841L29.831 212.99L145.447 214.149L145.499 209Z" fill="#D6A447"/>
<path d="M34.1936 213.157L30.2523 213.117C28.6064 213.101 27.284 211.88 27.2989 210.391C27.3139 208.901 28.6605 207.708 30.3064 207.724L34.2477 207.764L34.1936 213.157Z" fill="#FF6161"/>
<path d="M34.2474 207.764L34.1908 213.406" stroke="#1C0C00" stroke-miterlimit="10"/>
<path d="M146.922 210.586L34.1429 209.456" stroke="#1C0C00" stroke-width="0.5" stroke-miterlimit="10"/>
<path d="M146.902 212.521L34.1233 211.391" stroke="#1C0C00" stroke-width="0.5" stroke-miterlimit="10"/>
<path d="M112.211 149.641C104.388 149.626 98.0472 143.875 98.048 136.796C98.0488 129.716 104.392 123.99 112.214 124.005C120.037 124.019 126.378 129.771 126.377 136.851C126.377 143.93 120.034 149.657 112.211 149.641Z" fill="#D6A447"/>
<mask id="mask0_55_7084" style="mask-type:luminance" maskUnits="userSpaceOnUse" x="98" y="124" width="29" height="26">
<path d="M112.211 149.641C104.388 149.626 98.0472 143.875 98.048 136.796C98.0488 129.716 104.392 123.99 112.214 124.005C120.037 124.019 126.378 129.771 126.377 136.851C126.377 143.93 120.034 149.657 112.211 149.641Z" fill="white"/>
</mask>
<g mask="url(#mask0_55_7084)">
<path d="M114.788 127.434C114.708 127.476 114.583 127.479 114.293 127.47C113.86 127.457 113.27 127.058 112.888 126.888C112.072 126.523 111.272 126.115 110.358 125.992C109.999 125.944 109.59 125.955 109.328 126.181C108.825 126.613 109.236 127.367 109.659 127.866C109.065 128.122 108.362 127.66 107.719 127.782C107.324 127.857 107 128.171 106.945 128.533C106.89 128.895 107.108 129.278 107.466 129.448C106.398 128.941 106.278 135.314 106.297 135.691C106.391 137.507 106.021 139.872 108.178 140.871C108.96 141.233 109.889 141.197 110.761 141.102C112.44 140.921 114.093 140.554 115.674 140.014C116.763 139.642 117.86 139.235 118.324 138.199C118.635 137.506 118.794 136.771 118.864 136.028C119.084 133.723 119.946 129.455 116.596 128.64C116.739 128.579 116.887 128.515 116.986 128.405C117.085 128.294 117.12 128.122 117.022 128.01C116.953 127.933 116.841 127.902 116.735 127.879C116.364 127.8 115.981 127.773 115.602 127.8C115.758 127.617 115.921 127.417 115.935 127.186C115.948 126.954 115.734 126.699 115.482 126.741C115.356 126.762 115.256 126.85 115.176 126.941C114.917 127.237 114.899 127.375 114.788 127.434Z" fill="#1C0C00"/>
<path d="M127.591 156.694C127.513 156.097 127.342 155.495 127.179 154.87C127.021 154.259 126.778 153.667 126.465 153.107C126.31 152.83 126.138 152.561 125.95 152.302C125.864 152.184 125.735 152.064 125.69 151.929C125.641 151.783 125.645 151.624 125.604 151.475C125.552 151.286 125.444 151.114 125.338 150.945C125.231 150.777 125.124 150.608 125.018 150.439C124.938 150.314 124.859 150.188 124.77 150.068C124.066 149.112 122.921 148.632 121.738 148.336C120.491 148.024 119.19 147.98 117.928 147.755C117.562 147.689 117.193 147.632 116.819 147.611C115.27 147.526 113.72 147.665 112.183 147.82C111.577 147.881 110.973 147.949 110.368 148.019C109.583 148.111 108.8 148.209 108.016 148.308C107.667 148.352 107.324 148.357 106.973 148.402C106.588 148.452 106.204 148.51 105.825 148.59C104.435 148.883 103.046 149.199 101.795 149.85C101.179 150.17 100.613 150.561 100.1 151.005C99.882 151.195 99.5919 151.341 99.3501 151.508C99.0939 151.686 98.8423 151.869 98.5951 152.057C97.61 152.807 96.7022 153.642 95.9161 154.566C95.3661 155.211 94.8812 155.903 94.4724 156.63L127.591 156.694Z" fill="white"/>
<path d="M108.919 140.047C109.306 138.454 111.328 137.17 112.995 136.841C113.492 136.744 114.019 136.71 114.503 136.852C115.682 137.201 116.267 138.476 116.468 139.495C116.757 140.963 116.742 142.536 116.873 144.023C116.948 144.884 117.03 145.786 117.449 146.577C117.951 147.525 118.864 147.91 119.99 148.029C119.979 148.999 119.489 149.913 118.964 150.739C118.376 151.666 117.595 152.506 116.574 153.062C115.488 153.653 114.171 153.888 112.917 153.716C111.451 153.515 110.124 152.782 109.043 151.862C108.416 151.328 107.786 150.723 107.35 150.059C107.27 149.939 106.196 148.515 106.285 148.5C106.567 148.452 106.848 148.404 107.129 148.356C107.342 148.32 107.556 148.283 107.754 148.206C108.672 147.849 108.769 146.798 108.863 146.012C109.034 144.582 109.054 143.136 108.921 141.701C108.882 141.282 108.831 140.862 108.858 140.443C108.867 140.309 108.888 140.177 108.919 140.047Z" fill="#FFDBDB"/>
<path d="M116.613 130.926C116.258 130.61 115.823 130.354 115.413 130.12C114.61 129.661 113.721 129.314 112.759 129.29C110.981 129.245 108.777 129.766 108.137 131.452C107.929 132.002 107.87 132.588 107.778 133.163C107.554 134.558 107.129 135.928 107.038 137.336C106.971 138.391 107.109 139.496 107.639 140.451C108.205 141.471 109.244 142.141 110.387 142.578C113.035 143.587 116.86 143.168 117.737 140.353C117.952 139.664 118.183 138.951 118.176 138.229C118.169 137.495 117.903 136.788 117.723 136.08C117.477 135.112 117.47 134.152 117.405 133.173C117.352 132.366 117.292 131.528 116.613 130.926Z" fill="#FFDBDB"/>
<path d="M106.843 131.063C106.834 131.322 106.863 133.9 106.992 133.884C108.902 133.653 110.791 133.273 112.63 132.752C114.35 132.265 115.635 131.491 117.217 130.782C117.314 130.738 117.416 130.691 117.48 130.612C117.653 130.397 117.468 130.102 117.287 129.892C116.94 129.49 116.58 129.078 116.088 128.829C115.782 128.674 115.439 128.591 115.099 128.509C114.306 128.318 113.499 128.125 112.679 128.152C111.872 128.179 111.22 128.497 110.457 128.655C109.894 128.771 109.329 128.714 108.769 128.84C107.446 129.137 106.89 129.892 106.843 131.063Z" fill="#1C0C00"/>
<path d="M118.291 139.941C118.424 139.515 118.53 139.082 118.609 138.644C118.811 137.524 118.509 136.425 118.406 135.311C118.375 134.976 118.752 132.33 117.704 133.174C117.476 133.358 117.399 133.647 117.333 133.917C117.071 135 116.809 136.081 116.548 137.163C116.436 137.625 116.22 138.18 115.703 138.251C115.201 138.32 114.82 137.878 114.416 137.597C113.817 137.181 113.005 137.085 112.259 137.189C111.604 137.28 110.926 137.497 110.337 137.77C109.937 137.955 109.425 138.455 108.953 138.367C108.695 138.319 108.517 138.092 108.463 137.859C108.41 137.626 108.453 137.386 108.487 137.15C108.621 136.2 108.945 132.753 107.025 133.108C106.009 133.295 106.14 134.503 106.157 135.225C106.193 136.836 106.382 138.689 106.954 140.229C107.762 142.41 109.582 144.394 112.031 145.009C112.735 145.186 113.492 145.246 114.192 145.06C115.236 144.784 116.022 144.005 116.631 143.19C117.372 142.197 117.93 141.094 118.291 139.941Z" fill="#1C0C00"/>
<path d="M119.344 135.163C119.176 134.478 118.675 134.078 118.163 134.094C118.102 135.014 118.045 135.933 117.92 136.844C118.756 137.125 119.6 136.205 119.344 135.163Z" fill="#FFDBDB"/>
<path d="M106.805 133.646C106.499 133.641 106.186 133.785 105.933 134.109C105.514 134.649 105.515 135.513 105.968 136.024C106.264 136.358 106.599 136.482 106.91 136.454C106.796 135.516 106.726 134.574 106.805 133.646Z" fill="#FFDBDB"/>
</g>
<path d="M112.417 136.262C112.35 136.242 112.274 136.236 112.204 136.222C112.138 136.21 112.073 136.199 112.006 136.191C112.004 136.191 112.002 136.19 112 136.19C112.005 136.187 112.008 136.184 112.013 136.181C112.073 136.146 112.123 136.094 112.172 136.047C112.261 135.961 112.347 135.87 112.424 135.775C112.497 135.683 112.545 135.569 112.592 135.465C112.642 135.356 112.684 135.244 112.719 135.13C112.738 135.07 112.648 135.04 112.611 135.089C112.459 135.295 112.267 135.467 112.096 135.659C112.011 135.753 111.916 135.837 111.826 135.925C111.751 136 111.666 136.198 111.805 136.25C111.846 136.336 111.94 136.393 112.031 136.429C112.1 136.456 112.17 136.483 112.239 136.51C112.326 136.543 112.41 136.557 112.502 136.572C112.571 136.583 112.64 136.561 112.668 136.499C112.692 136.445 112.675 136.366 112.61 136.34C112.547 136.315 112.483 136.282 112.417 136.262Z" fill="#1C0C00"/>
<path d="M113.168 115.65C105.346 115.527 99.1033 109.687 99.2245 102.609C99.3456 95.531 105.785 89.8939 113.607 90.0177C121.43 90.1415 127.672 95.9806 127.551 103.059C127.429 110.137 120.99 115.774 113.168 115.65Z" fill="#D6A447"/>
<mask id="mask1_55_7084" style="mask-type:luminance" maskUnits="userSpaceOnUse" x="99" y="90" width="29" height="26">
<path d="M113.168 115.65C105.346 115.527 99.1033 109.687 99.2245 102.609C99.3456 95.531 105.785 89.8939 113.607 90.0177C121.43 90.1415 127.672 95.9806 127.551 103.059C127.429 110.137 120.99 115.774 113.168 115.65Z" fill="white"/>
</mask>
<g mask="url(#mask1_55_7084)">
<path d="M111.094 112.233C112.771 112.446 114.473 112.491 116.159 112.365C117.072 112.297 117.995 112.175 118.828 111.832C120.438 111.167 121.567 109.642 121.634 108.041C121.677 107.014 121.32 106.012 120.968 105.035C120.393 103.441 119.818 101.848 119.243 100.255C118.995 99.5656 118.78 98.909 118.599 98.2027C118.433 97.5558 118.223 96.8869 117.744 96.367C117.186 95.7627 115.991 95.5572 115.176 95.518C114.336 95.4781 113.641 95.6724 112.842 95.7615C111.853 95.8718 110.969 95.9047 110.037 96.2851C109.605 96.4619 109.182 96.6899 108.892 97.0302C108.409 97.5973 108.371 98.3649 108.304 99.0785C108.1 101.239 107.45 103.364 106.396 105.309C105.731 106.537 104.881 107.85 105.235 109.18C105.455 110.008 106.132 110.694 106.935 111.14C107.737 111.586 108.661 111.818 109.582 111.992C110.084 112.089 110.588 112.168 111.094 112.233Z" fill="#5BA7B5"/>
<path d="M110.711 100.605C110.716 100.596 110.721 100.587 110.727 100.578C110.887 100.319 111.129 100.107 111.395 99.9314C112.321 99.3187 113.85 99.0971 114.881 99.6251C115.404 99.8931 115.675 100.413 115.752 100.935C115.817 101.377 115.764 101.825 115.73 102.27C115.599 103.992 115.754 109.106 116.841 109.409C118.246 109.8 117.778 110.908 118.228 110.839C116.539 111.1 115.185 113.406 113.481 113.569C111.777 113.733 109.688 110.855 108.318 109.923C109.227 109.851 109.922 109.51 110.193 108.651C110.825 106.654 110.688 104.533 110.516 102.448C110.464 101.823 110.387 101.155 110.711 100.605Z" fill="#FFDBDB"/>
<path d="M126.346 113.9C125.379 112.571 123.912 111.668 122.32 111.045C121.52 110.731 120.691 110.482 119.857 110.254C119.442 110.141 119.024 110.034 118.607 109.928C118.235 109.832 117.761 109.634 117.387 109.634C117.458 109.956 116.96 110.36 116.724 110.554C115.69 111.41 114.185 111.722 112.802 111.514C111.417 111.307 110.154 110.621 109.162 109.722C108.779 109.767 108.395 109.829 108.014 109.886C107.368 109.984 106.746 110.175 106.094 110.333C104.624 110.691 102.99 111.161 102.287 112.383C101.713 113.381 101.941 114.593 102.259 115.683C102.35 115.995 102.449 116.311 102.536 116.628L107.33 116.704L111.232 116.766L116.035 116.842L118.585 116.883L127.633 117.026C127.393 115.916 127.03 114.839 126.346 113.9Z" fill="#993333"/>
<path d="M117.338 100.47C117.289 103.327 115.266 105.613 112.82 105.574C110.375 105.535 108.431 103.187 108.48 100.33C108.529 97.4723 110.552 95.187 112.998 95.226C115.444 95.2645 117.387 97.6122 117.338 100.47Z" fill="#FFDBDB"/>
<path d="M109.547 100.297C109.32 100.104 109.04 99.979 108.723 99.9743C108.422 99.9697 108.104 100.083 107.888 100.271C107.772 100.365 107.689 100.478 107.64 100.609C107.564 100.734 107.528 100.869 107.532 101.015C107.54 101.289 107.635 101.575 107.862 101.769C108.089 101.963 108.369 102.087 108.686 102.092C108.987 102.097 109.305 101.984 109.521 101.795C109.637 101.701 109.72 101.588 109.769 101.458C109.844 101.333 109.88 101.197 109.877 101.052C109.868 100.777 109.773 100.492 109.547 100.297Z" fill="#FFDBDB"/>
<path d="M118.161 100.435C117.935 100.241 117.655 100.116 117.337 100.111C117.037 100.106 116.719 100.219 116.503 100.408C116.387 100.502 116.304 100.615 116.255 100.745C116.179 100.87 116.143 101.006 116.147 101.152C116.156 101.426 116.25 101.711 116.478 101.906C116.704 102.1 116.984 102.225 117.301 102.229C117.602 102.234 117.92 102.121 118.136 101.932C118.252 101.838 118.335 101.726 118.384 101.595C118.459 101.47 118.496 101.334 118.492 101.188C118.483 100.915 118.389 100.629 118.161 100.435Z" fill="#FFDBDB"/>
<path d="M117.708 95.8527C117.686 95.8251 117.663 95.7985 117.639 95.7715C116.971 95.0102 116.192 94.4527 115.107 94.2844C114.249 94.1509 113.37 94.2195 112.499 94.219C111.198 94.2189 109.862 94.0692 108.623 94.4232C107.383 94.7778 106.259 95.8494 106.487 97.0088C106.688 98.0302 107.873 98.7001 109.016 98.7735C110.159 98.8469 111.27 98.4642 112.338 98.0878C113.222 97.7762 114.164 97.3201 115.084 97.127C115.45 97.0615 115.856 97.1033 116.149 97.3126C117.042 97.9513 116.488 99.2123 117.178 99.915C117.283 100.022 117.425 100.108 117.583 100.124C117.824 100.149 118.052 100.007 118.194 99.8302C119.13 98.6587 118.614 96.9085 117.708 95.8527Z" fill="#5BA7B5"/>
<path d="M111.543 102.511C111.753 103.739 113.429 103.765 113.868 102.584L111.543 102.511Z" fill="white"/>
<path d="M115.755 105.797C115.739 105.315 115.726 104.833 115.733 104.401C115.704 104.634 114.764 105.021 114.563 105.099C114.123 105.269 113.667 105.364 113.204 105.41C114.041 105.613 114.893 105.735 115.755 105.797Z" fill="#202B56"/>
</g>
<path d="M112.756 100.167C112.71 100.343 112.676 100.527 112.604 100.697C112.532 100.868 112.494 101.047 112.446 101.225C112.427 101.3 112.474 101.374 112.56 101.386C112.649 101.398 112.712 101.34 112.721 101.264C112.744 101.083 112.775 100.903 112.771 100.72C112.767 100.54 112.805 100.357 112.828 100.177C112.833 100.14 112.765 100.131 112.756 100.167Z" fill="#202B56"/>
<path d="M124.951 83.1297C117.141 82.7066 111.176 76.635 111.628 69.5685C112.079 62.5016 118.776 57.1158 126.587 57.5389C134.397 57.962 140.362 64.0331 139.91 71.1001C139.458 78.1665 132.761 83.5523 124.951 83.1297Z" fill="#D6A447"/>
<mask id="mask2_55_7084" style="mask-type:luminance" maskUnits="userSpaceOnUse" x="111" y="57" width="29" height="27">
<path d="M124.949 83.1297C117.139 82.7066 111.174 76.635 111.626 69.5685C112.078 62.5016 118.775 57.1158 126.585 57.5389C134.395 57.962 140.36 64.0331 139.908 71.1001C139.456 78.1665 132.76 83.5523 124.949 83.1297Z" fill="white"/>
</mask>
<g mask="url(#mask2_55_7084)">
<path d="M123.195 68.005C123.2 67.9963 123.206 67.9876 123.212 67.9789C123.384 67.7257 123.636 67.5238 123.909 67.3583C124.863 66.782 126.401 66.6184 127.406 67.1858C127.916 67.4738 128.163 68.0032 128.215 68.5276C128.26 68.9714 128.186 69.4171 128.131 69.86C127.92 71.5755 127.836 76.6911 128.908 77.0347C130.293 77.4785 129.774 78.5685 130.227 78.5168C128.527 78.7129 127.066 80.9646 125.356 81.0631C123.646 81.161 121.693 78.2068 120.367 77.2231C121.279 77.1863 121.989 76.8724 122.301 76.0239C123.026 74.0534 122.987 71.9291 122.913 69.8396C122.891 69.2128 122.845 68.5424 123.195 68.005Z" fill="#FFDBDB"/>
<path d="M130.301 84.5678C130.296 84.497 130.29 84.4263 130.286 84.355C130.218 83.2214 130.203 82.0858 130.21 80.9514C130.213 80.3749 130.224 79.7985 130.239 79.2221C130.249 78.7866 130.447 77.9566 130.208 77.5903C129.36 78.05 128.602 78.7789 127.82 79.3362C126.968 79.9439 126.101 80.5355 125.221 81.1104C125.117 81.1785 120.963 77.5632 120.493 77.2705C119.996 77.5659 119.869 78.9257 119.719 79.4341C119.474 80.2611 119.223 81.1081 119.173 81.9675C119.134 82.6318 119.098 83.2957 119.063 83.9602L130.301 84.5678Z" fill="#FF6161"/>
<path d="M139.333 85.0567C139.148 83.9385 138.835 82.8489 138.195 81.884C136.575 79.4394 133.123 78.3018 130.313 77.4091C128.996 76.9913 128.883 77.6998 128.578 78.9092C128.35 79.8132 128.257 80.7397 128.13 81.6587C128.006 82.5571 127.878 83.5008 127.753 84.4297L139.333 85.0567Z" fill="#1C0C03"/>
<path d="M114.276 83.7002L122.959 84.1702C122.8 83.4125 122.593 82.6553 122.445 81.938C122.188 80.69 121.691 79.3916 121.378 78.1255C121.284 77.7426 121.237 77.3468 121.136 76.9685C120.196 76.9451 119.053 77.3584 118.125 77.5468C116.639 77.8483 114.986 78.256 114.226 79.4499C113.605 80.4253 113.777 81.6446 114.044 82.7451C114.12 83.0612 114.204 83.38 114.276 83.7002Z" fill="#1C0C03"/>
<path d="M129.824 68.1231C129.641 70.976 127.514 73.1812 125.072 73.0494C122.629 72.9175 120.797 70.4971 120.98 67.6442C121.162 64.7914 123.29 62.5861 125.732 62.7185C128.174 62.8508 130.006 65.2707 129.824 68.1231Z" fill="#FFDBDB"/>
<path d="M122.045 67.6535C121.828 67.4511 121.554 67.3162 121.237 67.2991C120.937 67.2827 120.614 67.3837 120.389 67.5642C120.269 67.6538 120.181 67.7628 120.125 67.8913C120.044 68.0134 120.002 68.1471 119.999 68.2931C119.995 68.5672 120.076 68.8565 120.294 69.0595C120.511 69.2619 120.785 69.3968 121.102 69.4139C121.402 69.4303 121.725 69.3293 121.95 69.1488C122.07 69.0592 122.158 68.9502 122.214 68.8217C122.295 68.6997 122.337 68.5659 122.34 68.4199C122.344 68.1458 122.263 67.8565 122.045 67.6535Z" fill="#FFDBDB"/>
<path d="M130.647 68.1198C130.43 67.9174 130.156 67.7825 129.839 67.7654C129.538 67.749 129.215 67.85 128.991 68.03C128.871 68.1196 128.782 68.2286 128.727 68.3571C128.645 68.4791 128.603 68.6129 128.6 68.7589C128.596 69.033 128.678 69.3218 128.895 69.5253C129.112 69.7277 129.386 69.8626 129.703 69.8797C130.004 69.8961 130.326 69.7951 130.551 69.6146C130.671 69.525 130.76 69.4159 130.815 69.2875C130.896 69.1654 130.939 69.0317 130.942 68.8856C130.946 68.6116 130.864 68.3228 130.647 68.1198Z" fill="#FFDBDB"/>
<path d="M130.397 63.5286L130.408 63.5251C130.387 63.497 130.365 63.4689 130.343 63.4414C130.255 63.3321 130.158 63.23 130.057 63.1319C129.156 62.1438 128.001 61.3534 126.665 60.9033C125.164 60.3985 123.476 60.3413 121.956 60.7906C121.497 60.9264 121.048 61.1108 120.682 61.3951C120.316 61.6794 120.038 62.0741 119.987 62.5081C119.974 62.6195 119.978 62.7331 119.996 62.8442C119.733 63.0279 119.504 63.2434 119.352 63.5092C119.169 63.831 119.201 64.0977 119.27 64.3982C119.049 64.619 118.865 64.8716 118.839 65.1634C118.816 65.4311 118.991 65.7198 119.244 65.8307C119.136 66.2503 119.169 66.6888 119.534 67.0135C120.044 67.4661 120.859 67.53 121.541 67.3402C123.363 66.832 124.976 65.7999 126.681 65.0434C127.015 64.895 127.358 64.7482 127.727 64.6972C128.096 64.6462 128.499 64.7029 128.782 64.9235C129.644 65.5954 129.032 66.8347 129.689 67.5628C129.789 67.6743 129.927 67.7649 130.084 67.7872C130.323 67.821 130.558 67.6882 130.708 67.5168C131.697 66.3824 131.264 64.6145 130.397 63.5286Z" fill="#1C0C00"/>
<path d="M124.014 70.6494C124.167 71.8835 125.841 71.9741 126.334 70.8105L124.014 70.6494Z" fill="white"/>
<path d="M127.679 73.2459C127.784 73.2516 127.889 73.2459 127.994 73.249C128.001 72.8125 128.011 72.3801 128.036 71.9886C127.996 72.2209 127.039 72.5716 126.834 72.6418C126.419 72.7832 125.994 72.8584 125.563 72.8913C126.239 73.1107 126.966 73.2083 127.679 73.2459Z" fill="#202B56"/>
</g>
<path d="M125.548 69.2161C125.268 69.2345 125.014 69.1855 124.761 69.0942C124.824 68.9823 124.895 68.8741 124.971 68.7685C125.073 68.6271 125.174 68.4851 125.275 68.3427C125.288 68.3242 125.259 68.2986 125.242 68.3165C124.995 68.5701 124.763 68.848 124.474 69.0634C124.402 69.1169 124.419 69.2187 124.49 69.2644C124.788 69.4537 125.168 69.5354 125.528 69.523C125.616 69.5198 125.706 69.4675 125.707 69.3787C125.709 69.3044 125.643 69.2098 125.548 69.2161Z" fill="#202B56"/>
<path d="M217.727 43.751C219.77 45.4236 222.935 48.0231 224.601 50.0083" stroke="#FF6161" stroke-width="2" stroke-miterlimit="10"/>
<path d="M225.599 43.6156C223.066 45.793 220.533 47.9699 218 50.1474" stroke="#FF6161" stroke-width="2" stroke-miterlimit="10"/>
<path d="M134.071 178.11C134.071 178.11 130.084 181.88 125.214 181.831C120.343 181.782 116.433 177.934 116.433 177.934C116.433 177.934 120.42 174.164 125.29 174.213C130.161 174.262 134.071 178.11 134.071 178.11Z" stroke="black" stroke-width="0.75" stroke-miterlimit="10"/>
<path d="M127.79 178.108C127.769 180.178 126.615 181.845 125.213 181.831C123.811 181.817 122.691 180.127 122.712 178.057C122.732 175.987 123.886 174.32 125.288 174.334C126.691 174.348 127.81 176.038 127.79 178.108Z" fill="#1C0C00"/>
<path d="M171.383 176.545C171.505 177.522 172.818 182.986 172.778 184.285C175.146 184.267 177.512 184.16 179.879 184.114C180.033 183.948 180.123 183.736 180.19 183.525C180.208 183.469 180.225 183.413 180.242 183.356C180.753 181.58 180.411 179.687 180.597 177.852C180.654 177.294 180.759 176.728 180.648 176.176C179.667 175.922 178.632 175.928 177.612 175.936C176.498 175.945 175.306 176.063 174.2 175.942C173.307 175.845 172.436 175.605 171.594 176.083C171.515 176.129 171.435 176.183 171.399 176.261C171.369 176.324 171.37 176.395 171.374 176.463C171.376 176.485 171.378 176.512 171.383 176.545Z" stroke="#1C0C00" stroke-width="0.75" stroke-miterlimit="10"/>
<path d="M173.531 176.956C173.677 178.943 173.926 180.923 174.277 182.89" stroke="#1C0C00" stroke-width="0.75" stroke-miterlimit="10"/>
<path d="M176.022 176.979C176.154 178.839 176.193 181.055 176.325 182.915" stroke="#1C0C00" stroke-width="0.75" stroke-miterlimit="10"/>
<path d="M178.584 177.367C178.508 179.221 178.433 181.075 178.358 182.93" stroke="#1C0C00" stroke-width="0.75" stroke-miterlimit="10"/>
<path d="M180.079 175.964C178.737 174.532 175.229 174.264 173.362 174.812C172.782 174.983 172.246 175.386 172.127 175.928" stroke="#1C0C00" stroke-width="0.75" stroke-miterlimit="10"/>
<path d="M174.883 174.665C174.987 174.208 175.454 173.84 175.969 173.811C176.484 173.781 177 174.092 177.17 174.533" fill="#1C0C00"/>
<path d="M154.951 174.004C152.762 173.311 150.365 173.316 148.081 173.672C146.957 173.847 145.825 174.114 144.872 174.68C143.919 175.245 143.161 176.154 143.065 177.183C142.971 178.198 143.536 179.2 144.362 179.894C145.188 180.587 146.248 181.009 147.323 181.313C150.998 182.351 155.095 182.102 158.577 180.628C159.233 181.538 159.949 182.414 160.72 183.248C160.43 182.934 160.823 180.195 160.702 179.573C160.56 178.841 160.409 178.148 159.986 177.504C158.958 175.94 156.8 174.59 154.951 174.004Z" stroke="#1C0C00" stroke-width="0.75" stroke-miterlimit="10"/>
<path d="M146.688 176.973C149.777 176.995 152.864 177.018 155.953 177.041" stroke="#1C0C00" stroke-width="0.75" stroke-miterlimit="10"/>
<path d="M146.486 178.572C148.793 178.837 151.127 178.91 153.447 178.791" stroke="#1C0C00" stroke-width="0.75" stroke-miterlimit="10"/>
<path d="M155.038 178.594C155.292 178.762 155.631 178.819 155.934 178.746" stroke="#1C0C00" stroke-width="0.75" stroke-miterlimit="10"/>
<path d="M235.876 41.6442C236.549 40.7023 238.462 40.2993 239.454 41.0329C240.057 41.4787 240.348 42.4065 240.193 43.0764C239.991 43.9508 239.103 44.5349 238.575 45.2888C237.866 46.3011 237.985 47.5818 238.019 48.7289" stroke="black" stroke-miterlimit="10"/>
<path d="M238.358 50.3044C238.341 50.2397 238.327 50.1725 238.29 50.1138C238.266 50.0759 238.225 50.0362 238.194 50.0003C238.181 49.9863 238.169 49.9722 238.156 49.9587C238.13 49.9398 238.104 49.921 238.077 49.9021C238.032 49.8759 237.983 49.8609 237.931 49.8583C237.896 49.8497 237.861 49.8494 237.826 49.8573C237.774 49.8588 237.725 49.8728 237.679 49.8981C237.652 49.9164 237.626 49.9348 237.599 49.9531C237.578 49.9771 237.557 50.0006 237.536 50.0247C237.507 50.0652 237.491 50.1094 237.488 50.1569C237.476 50.2042 237.478 50.2517 237.494 50.2988C237.511 50.3635 237.525 50.4308 237.562 50.4895C237.585 50.5274 237.627 50.567 237.659 50.603C237.671 50.617 237.684 50.6311 237.695 50.6446C237.722 50.6635 237.748 50.6823 237.775 50.7012C237.82 50.7274 237.868 50.7423 237.921 50.7449C237.956 50.7535 237.99 50.7539 238.026 50.746C238.078 50.7445 238.127 50.731 238.173 50.7051C238.2 50.6868 238.226 50.6685 238.253 50.6502C238.274 50.6262 238.295 50.6026 238.316 50.5786C238.345 50.5381 238.361 50.4939 238.364 50.4464C238.376 50.3991 238.374 50.3515 238.358 50.3044Z" fill="black"/>
<path d="M217.922 32.7836C219.441 34.1005 220.961 35.4174 222.48 36.7338C224.499 34.2823 226.197 31.6139 227.526 28.8019" stroke="#5BA7B5" stroke-width="2" stroke-miterlimit="10"/>
<path d="M233.45 31.7008C234.834 33.5217 236.151 35.3847 237.396 37.2862C239.524 34.2252 241.652 31.1637 243.78 28.1027" stroke="#5BA7B5" stroke-width="2" stroke-miterlimit="10"/>
<path d="M156.791 82.6257C156.584 84.0151 155.17 84.9867 153.634 84.7953C152.098 84.6044 151.022 83.3229 151.23 81.9335C151.438 80.5442 152.852 79.5725 154.388 79.7639C155.923 79.9548 157 81.2363 156.791 82.6257Z" fill="#5BA7B5"/>
<path d="M166.28 80.0763L161.202 80.0806L161.217 84.6759L166.295 84.6716L166.28 80.0763Z" fill="#D6A447"/>
<path d="M173.554 79.3668L174.585 81.3621L176.984 81.7289L175.207 83.2285L175.568 85.4055L173.439 84.337L171.263 85.3164L171.724 83.1559L170.019 81.5842L172.432 81.3173L173.554 79.3668Z" fill="#FF6161"/>
<path d="M182.281 65.1655C190.142 65.3677 198.126 65.4477 206.004 65.4034" stroke="black" stroke-miterlimit="10"/>
<path d="M151.798 64.8599C157.164 65.0029 168.586 65.1175 175.283 65.0953" stroke="black" stroke-miterlimit="10"/>
<path d="M193.984 69.5605C197.977 69.6006 201.969 69.6406 205.962 69.6806" stroke="black" stroke-miterlimit="10"/>
<path d="M151.754 69.1372C163.868 69.2339 177.696 69.8427 189.32 69.5138" stroke="black" stroke-miterlimit="10"/>
<path d="M169.235 73.7231C181.499 74.0551 193.475 74.1752 205.916 74.0909" stroke="black" stroke-miterlimit="10"/>
<path d="M151.71 73.5477C154.583 73.5765 158.931 73.4864 161.804 73.5153" stroke="black" stroke-miterlimit="10"/>
<path d="M145.647 113.15C145.44 114.539 144.026 115.511 142.49 115.32C140.954 115.129 139.878 113.847 140.086 112.458C140.294 111.069 141.708 110.097 143.244 110.288C144.779 110.479 145.856 111.761 145.647 113.15Z" fill="#5BA7B5"/>
<path d="M162.409 109.891L163.44 111.886L165.839 112.252L164.062 113.752L164.423 115.929L162.294 114.861L160.118 115.84L160.579 113.68L158.874 112.108L161.287 111.841L162.409 109.891Z" fill="#FF6161"/>
<path d="M153.154 109.798L154.184 111.793L156.583 112.16L154.806 113.66L155.167 115.837L153.039 114.768L150.863 115.748L151.324 113.587L149.618 112.015L152.032 111.748L153.154 109.798Z" fill="#FF6161"/>
<path d="M186.123 96.2555C188.845 96.2694 189.794 96.2959 192.515 96.2804" stroke="black" stroke-miterlimit="10"/>
<path d="M140.081 95.7104C147.06 95.9038 175.987 96.5055 182.568 96.4481" stroke="black" stroke-miterlimit="10"/>
<path d="M182.268 100.411C186.26 100.451 188.482 100.25 192.475 100.29" stroke="black" stroke-miterlimit="10"/>
<path d="M140.039 99.9874C152.152 100.084 165.964 100.356 177.801 100.5" stroke="black" stroke-miterlimit="10"/>
<path d="M162.983 104.985C173.128 105.201 181.104 104.624 191.251 104.556" stroke="black" stroke-miterlimit="10"/>
<path d="M144.375 104.531C149.004 104.488 155.1 104.996 159.437 105.039" stroke="black" stroke-miterlimit="10"/>
<path d="M141.136 104.409C141.793 104.416 142.45 104.422 143.107 104.429" stroke="black" stroke-miterlimit="10"/>
<path d="M153.663 145.312C153.455 146.701 152.042 147.673 150.506 147.481C148.97 147.29 147.894 146.009 148.102 144.62C148.31 143.23 149.724 142.259 151.26 142.45C152.795 142.641 153.871 143.922 153.663 145.312Z" fill="#5BA7B5"/>
<path d="M160.089 141.682L161.12 143.678L163.519 144.044L161.742 145.544L162.103 147.721L159.974 146.652L157.798 147.632L158.259 145.471L156.553 143.899L158.967 143.633L160.089 141.682Z" fill="#FF6161"/>
<path d="M162.806 128.281C166.859 128.314 170.995 128.525 175.063 128.588C180.587 128.673 185.651 128.326 191.154 128.348" stroke="black" stroke-miterlimit="10"/>
<path d="M138.721 127.778C142.886 127.913 156.22 128.282 160.148 128.228" stroke="black" stroke-miterlimit="10"/>
<path d="M184.326 132.825C188.319 132.865 186.673 132.848 190.665 132.888" stroke="black" stroke-miterlimit="10"/>
<path d="M172.173 136.981C182.318 137.197 180.493 136.833 190.64 136.765" stroke="black" stroke-miterlimit="10"/>
<path d="M138.939 136.648C143.568 136.605 162.368 137.016 166.705 137.06" stroke="black" stroke-miterlimit="10"/>
<path d="M144.495 142.384L139.231 142.332L139.183 147.095L144.447 147.148L144.495 142.384Z" fill="#D6A447"/>
<path d="M138.83 132.021C142.952 132.188 147.074 132.354 151.196 132.521C161.048 132.92 170.92 133.319 180.765 132.813" stroke="black" stroke-miterlimit="10"/>
<path d="M243.616 55.8885L217.759 55.6293C214.99 55.6015 212.767 53.5478 212.792 51.0427L213.014 28.8396C213.04 26.334 215.305 24.3252 218.073 24.353L243.93 24.6122C246.699 24.64 248.923 26.6938 248.897 29.1993L248.675 51.4025C248.65 53.908 246.385 55.9163 243.616 55.8885Z" stroke="black" stroke-miterlimit="10"/>
<path d="M188.058 188.292L113.257 187.542C111.018 187.52 109.219 185.859 109.239 183.832C109.273 180.464 109.131 176.97 109.446 173.621C109.64 171.559 110.607 169.352 112.675 168.474C113.793 167.998 115.073 167.977 116.309 167.965C139.855 167.735 163.426 167.506 186.93 168.84C187.941 168.897 188.982 168.965 189.894 169.366C193.153 170.8 192.269 175.872 192.083 178.473C191.865 181.532 193.151 188.343 188.058 188.292Z" stroke="black" stroke-miterlimit="10"/>
<path d="M152.173 31.2866C152.686 28.7813 150.512 27.5574 148.048 27.6597C144.397 27.811 142.822 31.3234 145.832 33.4233C147.979 34.9199 151.672 33.7327 152.173 31.2866Z" fill="#D6A447"/>
<path d="M145.858 42.416C148.066 44.5316 150.274 46.6466 152.481 48.7622" stroke="black" stroke-width="0.75" stroke-miterlimit="10"/>
<path d="M151.784 42.0363C149.905 44.2038 148.025 46.3708 146.146 48.5377" stroke="black" stroke-width="0.75" stroke-miterlimit="10"/>
<path d="M159.346 41.892C160.517 43.9487 161.688 46.0053 162.86 48.0625C165.451 44.7444 168.043 41.4264 170.635 38.1079" stroke="black" stroke-width="0.75" stroke-miterlimit="10"/>
<path d="M163.97 27.7157L165.462 30.1085L168.483 30.3571L166.432 32.3758L167.11 35.0525L164.351 33.9069L161.749 35.3131L162.095 32.5862L159.808 30.7785L162.781 30.2385L163.97 27.7157Z" fill="#FF6161"/>
<path d="M169.142 55.6334L143.322 55.3745C140.337 55.3446 137.938 53.1306 137.966 50.429C138.058 41.2351 137.204 32.7465 139.653 23.5566C140.038 22.1117 142.242 21.6781 143.659 21.6923C143.659 21.6923 169.417 21.9505 169.48 21.9511C175.309 22.0106 175.665 29.128 175.654 32.9353C175.637 38.9063 174.656 44.8045 174.596 50.7967C174.569 53.4979 172.127 55.6633 169.142 55.6334Z" stroke="black" stroke-miterlimit="10"/>
<path d="M321.669 32.4051C322.623 33.5997 323.638 35.3229 325.147 37.1899C327.043 34.7135 329.704 31.5071 331.037 29.2284" stroke="#5BA7B5" stroke-width="2" stroke-miterlimit="10"/>
<path d="M321.898 46.8713C322.73 48.7026 324.047 49.8456 325.218 51.5187C327.948 48.0896 329.616 45.0771 331.701 42.279" stroke="#5BA7B5" stroke-width="2" stroke-miterlimit="10"/>
<path d="M330.275 57.025L321.395 56.9359C318.626 56.9082 316.402 54.8544 316.427 52.3494L316.65 30.1462C316.675 27.6407 318.94 25.6319 321.709 25.6596L330.588 25.7487C333.357 25.7764 335.581 27.8302 335.556 30.3357L335.333 52.5389C335.308 55.0445 333.043 57.0527 330.275 57.025Z" stroke="black" stroke-miterlimit="10"/>
<path d="M250.224 85.6694L241.547 86.1982L242.585 76.5988L250.314 76.6763L250.224 85.6694Z" fill="#F7B3B2"/>
<mask id="mask3_55_7084" style="mask-type:luminance" maskUnits="userSpaceOnUse" x="241" y="76" width="10" height="11">
<path d="M250.224 85.6694L241.547 86.1982L242.585 76.5988L250.314 76.6763L250.224 85.6694Z" fill="white"/>
</mask>
<g mask="url(#mask3_55_7084)">
<path d="M241.955 80.6231C242.385 81.2814 243.318 81.9447 244.14 82.099C244.542 82.1747 244.984 82.1467 245.326 81.9416C245.636 81.7553 245.83 81.4475 245.975 81.1372C246.059 80.958 246.132 80.7651 246.106 80.5713C246.031 80.0266 245.491 80.031 245.129 79.7461C244.817 79.5003 244.748 79.2127 244.365 78.9941C243.743 78.6395 242.628 78.1401 241.942 78.6148C241.392 78.9958 241.663 80.1758 241.955 80.6231Z" fill="#1C0C03"/>
</g>
<path d="M240.005 74.1814C239.975 74.5615 239.954 74.9427 239.935 75.3219C239.821 77.4637 240.371 79.7464 242.753 80.7328C244.051 81.2702 245.621 81.2168 246.883 80.6184C247.648 80.256 248.291 79.7138 248.859 79.1249C250.178 77.7559 251.159 76.0068 250.327 74.2121C250.097 73.7149 249.792 73.2359 249.356 72.8682C248.656 72.2769 247.813 72.1188 246.958 71.8305C245.673 71.3964 243.253 69.1224 241.833 69.7538C241.256 70.0102 240.907 70.5538 240.672 71.0955C240.246 72.0754 240.089 73.1252 240.005 74.1814Z" fill="#F7B3B2"/>
<path d="M256.304 72.8612C256.063 72.1754 255.829 71.4876 255.472 70.8461C254.676 69.4162 253.209 68.2799 251.546 67.742C249.831 67.187 247.261 66.8913 245.476 67.2729C245.224 67.3266 244.974 67.3964 244.716 67.4005C244.4 67.4061 244.092 67.3132 243.776 67.2925C242.676 67.22 241.755 68.0103 241.07 68.7921C240.377 69.5836 239.725 70.3595 238.658 70.7416C239.172 72.0179 244.45 72.6066 245.344 71.6566C245.826 72.9667 245.697 74.3414 245.76 75.6969C245.801 76.6021 245.976 77.4828 245.845 78.3837C245.715 79.2789 245.353 80.2136 245.753 81.0981C246.281 82.2688 247.88 82.6869 249.276 82.7303C252.368 82.8253 255.357 81.8308 258.252 80.8502C258.786 80.6693 259.334 80.4807 259.754 80.1329C260.175 79.7846 260.443 79.2345 260.265 78.7435C260.145 78.4109 259.847 78.1607 259.573 77.9138C258.3 76.7671 257.304 75.3703 256.675 73.8491C256.539 73.5236 256.421 73.1927 256.304 72.8612Z" fill="#1C0C03"/>
<path d="M245.601 74.9272C243.275 74.9039 243.242 77.8429 245.572 77.8662C247.897 77.8895 247.931 74.9505 245.601 74.9272Z" fill="#F7B3B2"/>
<path d="M245.403 77.1472C245.795 77.0881 246.148 76.8465 246.316 76.5204C246.484 76.1944 246.463 75.7947 246.262 75.484" stroke="#1C0C03" stroke-miterlimit="10"/>
<path d="M271.965 103.418C271.71 101.261 270.429 99.1884 268.283 98.0082C265.463 96.4574 261.372 96.9743 259.382 99.3497C258.417 100.502 257.985 101.936 257.484 103.309C256.69 105.487 255.696 107.655 254.43 109.645C253.462 111.17 252.195 112.297 251.506 113.992C250.61 116.197 250.178 119.957 253.865 119.954C254.933 119.953 255.864 119.336 256.709 118.746C259.502 116.8 262.294 114.852 265.086 112.905C267.079 111.516 269.099 110.101 270.589 108.267C271.732 106.859 272.165 105.112 271.965 103.418Z" fill="#F7B3B2"/>
<path d="M250.336 92.5065C253.507 95.9561 254.902 99.7347 255.159 104.207C255.326 107.118 254.351 108.678 257.483 110.242C259.705 111.351 262.209 113.45 264.902 112.967C268.213 112.373 271.031 108.993 272.122 106.301C272.981 104.183 272.979 101.709 271.73 99.7532C271.303 99.0852 270.746 98.4938 270.193 97.9066C267.612 95.1705 265.032 92.435 262.452 89.6989C260.296 87.4125 257.062 85.1267 253.852 84.3249C250.141 83.3984 246.25 82.9341 242.43 83.3428C241.902 83.3989 241.356 83.4797 240.921 83.754C240.486 84.0289 240.199 84.554 240.393 85.0019C240.566 85.4021 241.042 85.6117 241.478 85.7844C243.274 86.4971 244.823 86.9802 246.173 88.2335C247.626 89.5854 248.993 91.0654 250.336 92.5065Z" fill="#D6A447"/>
<path d="M254.606 199.584C252.81 201.165 250.605 202.362 248.217 203.051C247.556 203.242 246.854 203.408 246.35 203.837C245.565 204.505 245.732 205.872 246.935 205.973C247.482 206.019 248.031 205.94 248.572 205.85C250.819 205.477 253.023 204.918 255.192 204.274C257.069 203.717 258.785 203.589 260.503 202.616C261.277 202.178 261.925 201.843 262.119 201.035C262.228 200.576 262.035 193.944 262.275 191.139C262.541 188.039 263.086 184.889 263.117 181.779C263.373 178.346 263.498 174.898 263.255 171.459C262.967 167.393 262.436 163.117 259.799 159.81C261.333 157.914 261.105 155.28 260.353 153.026C259.383 150.121 257.458 147.266 254.386 146.045C251.314 144.824 247.049 145.916 245.985 148.791C245.026 151.382 246.507 154.572 247.139 157.11C247.89 160.125 248.623 163.143 249.303 166.172C250.678 172.307 253.858 197.085 254.606 199.584Z" fill="#F7B3B2"/>
<path d="M242.963 206.74C246.176 207.838 250.072 207.982 253.4 207.279C254.446 207.058 255.483 206.75 256.558 206.728C257.521 206.709 258.471 206.922 259.431 206.994C261.108 207.12 262.945 206.735 263.023 204.996C263.076 203.808 263 202.391 262.5 201.273C261.99 200.134 261.753 200.353 260.403 200.391C258.786 200.436 257.191 200.818 255.809 201.577C255.3 201.857 254.772 202.11 254.224 202.327C252.515 203.004 250.681 203.295 248.819 203.236C247.708 203.201 245.873 203.799 244.83 204.155C244.17 204.38 243.518 204.656 242.87 204.942C242.018 205.319 242.076 206.437 242.963 206.74Z" fill="#1C0C03"/>
<path d="M223.508 200.718C223.775 200.42 224.005 200.082 224.189 199.7C225.185 197.635 226.094 195.544 227.033 193.457C228.537 190.112 230.716 186.969 232.319 183.647C235.49 177.077 237.936 170.122 238.187 162.899C238.245 161.209 238.195 159.465 238.896 157.899C239.473 156.609 240.516 155.545 241.505 154.479C244.686 151.053 247.613 147.046 247.686 142.567C247.759 138.088 243.813 133.328 238.877 133.668C235.641 133.891 232.944 136.198 231.603 138.871C229.481 143.101 229.032 148.671 227.596 153.213C226.495 156.693 225.345 160.344 224.819 163.939C224.324 167.327 224.028 170.762 223.447 174.157C222.235 181.232 220.524 188.235 218.326 195.11C217.555 197.522 214.992 197.75 212.581 198.093C210.905 198.331 209.118 198.458 207.737 199.35C207.591 199.444 207.444 199.554 207.375 199.704C207.225 200.031 207.495 200.392 207.796 200.62C208.663 201.275 209.838 201.455 210.953 201.611C212.484 201.827 214.014 202.041 215.545 202.256C216.771 202.428 218.01 202.601 219.245 202.505C220.969 202.372 222.506 201.83 223.508 200.718Z" fill="#F7B3B2"/>
<path d="M263.107 141.3C262.432 135.85 259.402 123.704 256.71 118.747C254.331 114.366 254.786 116.532 253.848 111.727C253.621 110.563 251.375 109.91 250.875 108.818C247.413 101.26 237.773 106.441 234.551 111.15C225.25 124.744 221.577 144.966 218.817 160.52C234.012 163.519 249.747 162.953 265.278 162.371C264.024 162.418 263.665 147.693 263.593 146.58C263.478 144.821 263.325 143.057 263.107 141.3Z" fill="#993333"/>
<path d="M231.105 110.745C231.119 110.442 231.165 110.139 231.239 109.848C232.16 106.226 233.141 103.459 233.533 99.5371C233.715 97.7284 233.098 89.9328 233.987 89.0942C234.355 88.7475 235.65 85.5186 236.099 85.2202C241.122 81.8775 247.898 82.8192 252.799 85.8846C254.529 86.9657 257.369 89.1666 257.842 91.1434C258.527 94.0019 256.618 97.7015 256.448 100.62C256.213 104.676 257.428 108.907 255.883 112.718C254.734 115.555 251.152 115.619 248.351 115.643C244.075 115.68 239.807 115.414 235.583 114.796C234.414 114.626 233.185 114.402 232.305 113.685C231.413 112.96 231.054 111.843 231.105 110.745Z" fill="#D6A447"/>
<path d="M215.624 102.274C211.951 101.062 208.354 99.644 204.744 98.3061C203.702 97.92 202.655 97.5317 201.69 97.0069C200.401 96.3054 199.293 95.3782 198.11 94.5447C197.017 93.774 195.762 93.2587 194.745 92.4149C193.98 91.7807 193.014 90.5478 192.113 90.147C191.922 90.062 191.674 90.0559 191.509 90.1781C191.088 90.4892 191.753 91.7465 191.928 92.0631C192.393 92.9039 193.006 93.6723 193.665 94.3959C193.767 94.5084 193.875 94.6256 193.91 94.7673C194.058 95.3681 192.89 95.7274 193.017 96.3316C193.048 96.4764 193.154 96.6013 193.184 96.7466C193.237 96.9954 193.063 97.2296 192.946 97.4601C192.798 97.7549 192.889 98.4366 193.016 98.7403C193.423 99.7204 194.595 100.284 195.536 100.762C196.557 101.282 197.394 101.981 198.315 102.657C200.403 104.19 202.597 105.606 204.879 106.894C209.388 109.44 214.238 111.489 219.294 112.969C220.351 113.278 221.458 113.566 222.557 113.425C223.941 113.248 225.144 112.384 225.854 111.296C227.538 108.713 226.489 106.045 223.591 104.657C222.824 104.29 221.974 104.094 221.138 103.886C219.275 103.423 217.439 102.874 215.624 102.274Z" fill="#F7B3B2"/>
<path d="M239.913 92.0025C239.936 90.9406 240.052 89.862 240.438 88.6999C240.932 87.2169 240.704 84.3475 238.4 84.279C236.621 84.2255 235.206 85.5522 234.074 86.793C230.657 90.5379 228.154 94.8446 224.002 97.9442C222.793 98.8471 221.507 99.6874 220.501 100.776C218.137 103.333 217.713 106.952 218.555 110.114C219.288 112.864 222.264 115.034 225.348 113.289C228.905 111.278 232.163 108.836 235.01 106.049C237.501 103.611 239.306 100.422 239.795 97.1125C240.065 95.282 239.877 93.663 239.913 92.0025Z" fill="#D6A447"/>
<path d="M234.045 107.727C237.777 105.177 240.997 102.017 243.513 98.4485" stroke="black" stroke-width="0.75" stroke-miterlimit="10"/>
<path d="M223.379 199.44C223.254 199.406 223.12 199.368 222.976 199.322C222.736 199.248 222.5 199.167 222.261 199.09C221.997 199.031 221.73 198.984 221.465 198.949C220.318 198.801 219.132 198.826 217.987 198.964C216.922 199.092 215.888 199.365 214.834 199.548C213.848 199.719 212.766 199.848 211.793 199.543C211.128 199.334 210.868 198.81 210.324 198.536C209.78 198.262 208.758 198.359 208.12 198.341C206.601 198.299 205.078 198.37 203.573 198.553C203.192 198.6 202.988 198.996 203.197 199.289C205.948 203.161 211.275 203.999 215.951 204.12C216.788 204.142 217.649 204.176 218.412 204.488C219.437 204.909 220.419 205.833 221.481 205.501C222.185 205.282 222.543 204.593 222.826 203.971C223.307 202.914 223.713 201.849 224.178 200.789C224.331 200.442 224.391 200.207 224.374 200.036C224.078 199.791 223.741 199.594 223.379 199.44Z" fill="#1C0C03"/>
<path d="M270.951 104.171C270.53 104.125 270.186 104.635 270.423 104.954C270.66 105.273 271.312 105.178 271.424 104.808" stroke="black" stroke-width="0.75" stroke-miterlimit="10"/>
<path d="M256.504 109.813C256.614 106.986 257.435 104.224 257.752 101.41C258.068 98.5968 257.815 95.5702 256.014 93.2549" stroke="black" stroke-width="0.75" stroke-miterlimit="10"/>
<path d="M357.89 98.5183C358.212 98.585 358.632 98.6454 359.02 98.702L360.217 98.8642L362.627 99.1634L363.402 99.2424L363.333 99.9308L360.762 125.515L359.59 125.424L361.769 99.8093L362.473 100.577L360.027 100.403L358.798 100.303C358.38 100.264 357.991 100.232 357.513 100.16L357.89 98.5183Z" fill="#D6A447"/>
<path d="M349.971 183.482C348.507 183.383 347.406 182.23 347.512 180.905L353.941 100.405C354.047 99.0807 355.319 98.0865 356.783 98.1853C358.247 98.2836 359.348 99.4368 359.242 100.762L352.813 181.261C352.707 182.586 351.435 183.58 349.971 183.482Z" fill="#1C0C00"/>
<path d="M353.715 98.1565L352.568 112.515C352.532 112.964 352.901 113.358 353.397 113.4L357.952 113.788C358.462 113.831 358.911 113.488 358.948 113.026L360.119 98.4969C360.156 98.0338 359.765 97.6329 359.253 97.6082L354.673 97.3909C354.177 97.3674 353.751 97.7074 353.715 98.1565Z" fill="#D6A447"/>
<path d="M347.07 154.913C347.402 152.398 345.418 150.111 342.638 149.806C339.858 149.5 337.335 151.291 337.003 153.806L334.592 172.066C334.21 174.958 336.492 177.588 339.689 177.939C342.925 178.295 345.849 176.181 346.179 173.249L347.93 159.996" stroke="#1A1926" stroke-width="2" stroke-miterlimit="10"/>
<path d="M313.113 140.436L327.984 203.556C328.233 204.61 329.951 204.426 329.917 203.35L328.198 149.82C328.196 149.749 328.122 149.697 328.045 149.711L321.67 150.93C321.601 150.944 321.534 150.904 321.52 150.842L319.014 140.207L313.113 140.436Z" fill="#C9C8C0"/>
<path d="M321.724 143.282L314.951 114.534C313.657 109.043 307.692 105.533 301.628 106.692L301.323 106.75C295.267 107.908 291.33 113.348 292.699 118.816C292.722 118.911 292.747 119.007 292.772 119.102C293.871 123.27 296.752 126.841 300.614 129.324C301.246 129.731 301.858 130.166 302.439 130.645C305.079 132.823 307.316 135.367 309.061 138.187C310.416 140.378 311.475 142.7 312.399 145.065L321.724 143.282ZM311.985 116.687C314.317 124.482 310.371 124.927 306.176 125.729C301.979 126.531 297.778 123.784 296.79 119.592C295.802 115.401 298.403 111.352 302.599 110.55C306.795 109.748 310.746 112.55 311.985 116.687Z" fill="#FF6161"/>
<path d="M327.895 139.407L325.423 203.877C325.382 204.953 323.653 205.037 323.479 203.971L314.847 150.979C314.836 150.909 314.897 150.846 314.977 150.849L321.491 151.065C321.561 151.067 321.62 151.018 321.622 150.955L322.039 140.093L327.895 139.407Z" fill="#E3E0D1"/>
<path d="M329.491 143.857C329.945 141.385 330.54 138.934 331.452 136.568C332.627 133.52 334.339 130.669 336.52 128.116C337 127.555 337.518 127.031 338.063 126.533C341.388 123.492 343.537 119.529 343.815 115.254C343.821 115.156 343.827 115.058 343.832 114.96C344.127 109.364 339.199 104.613 333.011 104.408L332.699 104.397C326.501 104.192 321.303 108.57 321.088 114.179L319.962 143.541L329.491 143.857ZM332.486 108.347C336.773 108.49 340.116 112.076 339.952 116.357C339.788 120.638 336.179 123.993 331.891 123.851C327.603 123.708 323.63 123.879 324.425 115.841C324.846 111.575 328.198 108.204 332.486 108.347Z" fill="#993333"/>
<path d="M318.344 156.677C317.799 155.051 318.814 153.336 320.611 152.846C322.407 152.357 324.304 153.279 324.849 154.905C325.393 156.532 324.378 158.247 322.582 158.736C320.786 159.226 318.888 158.304 318.344 156.677Z" fill="#1C0C00"/>
<path d="M312.536 162.896L311.984 217.95C311.978 218.558 312.49 219.056 313.129 219.062L359.17 219.524C359.808 219.53 360.33 219.043 360.336 218.435L360.888 163.38C360.894 162.773 360.382 162.275 359.744 162.269L313.703 161.807C313.064 161.801 312.542 162.288 312.536 162.896Z" fill="#D6A447"/>
<path d="M340.806 171.409C343.03 171.654 345.048 170.221 345.314 168.209L347.07 154.912" stroke="#1A1926" stroke-width="2" stroke-miterlimit="10"/>
<path d="M339.185 152.752L337.261 167.324C336.995 169.335 338.582 171.165 340.806 171.409" stroke="#1A1926" stroke-width="2" stroke-miterlimit="10"/>
<path d="M285.45 217.637L302.279 218.359C302.593 218.372 302.837 218.614 302.823 218.899C302.809 219.171 302.564 219.383 302.268 219.391L285.429 219.776C284.776 219.79 284.232 219.323 284.215 218.733C284.197 218.142 284.711 217.651 285.365 217.636C285.392 217.635 285.423 217.636 285.45 217.637Z" fill="#1A1926"/>
<path d="M284.993 213.884L268.195 213.715L268.106 222.568L284.904 222.737L284.993 213.884Z" fill="#FF6161"/>
<path d="M288.582 210.465L283.814 214.049L283.838 222.726L288.329 226.128L288.582 210.465Z" fill="#FF6161"/>
<path d="M268.169 223.578L267.716 223.573C267.441 223.571 267.22 223.367 267.222 223.117L267.323 213.023C267.326 212.774 267.551 212.574 267.826 212.577L268.279 212.581C268.555 212.584 268.776 212.788 268.773 213.037L268.672 223.132C268.669 223.381 268.444 223.581 268.169 223.578Z" fill="#FF6161"/>
</svg>
